<?xml version="1.0" encoding="UTF-8" standalone="no"?>
<svg
   width="985.01331"
   height="589.06543"
   xml:space="preserve"
   overflow="hidden"
   version="1.1"
   id="svg28"
   sodipodi:docname="curvature.svg"
   inkscape:version="1.4 (86a8ad7, 2024-10-11)"
   xmlns:inkscape="http://www.inkscape.org/namespaces/inkscape"
   xmlns:sodipodi="http://sodipodi.sourceforge.net/DTD/sodipodi-0.dtd"
   xmlns="http://www.w3.org/2000/svg"
   xmlns:svg="http://www.w3.org/2000/svg"><sodipodi:namedview
     id="namedview28"
     pagecolor="#ffffff"
     bordercolor="#000000"
     borderopacity="0.25"
     inkscape:showpageshadow="2"
     inkscape:pageopacity="0.0"
     inkscape:pagecheckerboard="0"
     inkscape:deskcolor="#d1d1d1"
     inkscape:zoom="1.2320611"
     inkscape:cx="517.42565"
     inkscape:cy="294.22243"
     inkscape:window-width="1920"
     inkscape:window-height="1009"
     inkscape:window-x="-8"
     inkscape:window-y="-8"
     inkscape:window-maximized="1"
     inkscape:current-layer="svg28" /><defs
     id="defs5"><filter
       id="fx0"
       x="-103.7"
       y="-65.5"
       width="1244.4"
       height="786.00006"
       filterUnits="userSpaceOnUse"
       primitiveUnits="userSpaceOnUse"><feComponentTransfer
         color-interpolation-filters="sRGB"
         id="feComponentTransfer1"><feFuncR
           type="discrete"
           tableValues="0 0"
           id="feFuncR1" /><feFuncG
           type="discrete"
           tableValues="0 0"
           id="feFuncG1" /><feFuncB
           type="discrete"
           tableValues="0 0"
           id="feFuncB1" /><feFuncA
           type="linear"
           slope="0.380392"
           intercept="0"
           id="feFuncA1" /></feComponentTransfer><feGaussianBlur
         stdDeviation="4.58333 4.58333"
         id="feGaussianBlur1" /></filter><filter
       id="fx1"
       x="-103.7"
       y="-65.5"
       width="1244.4"
       height="786.00006"
       filterUnits="userSpaceOnUse"
       primitiveUnits="userSpaceOnUse"><feComponentTransfer
         color-interpolation-filters="sRGB"
         id="feComponentTransfer2"><feFuncR
           type="discrete"
           tableValues="0 0"
           id="feFuncR2" /><feFuncG
           type="discrete"
           tableValues="0 0"
           id="feFuncG2" /><feFuncB
           type="discrete"
           tableValues="0 0"
           id="feFuncB2" /><feFuncA
           type="linear"
           slope="0.380392"
           intercept="0"
           id="feFuncA2" /></feComponentTransfer><feGaussianBlur
         stdDeviation="4.58333 4.58333"
         id="feGaussianBlur2" /></filter><filter
       id="fx2"
       x="-103.7"
       y="-65.5"
       width="1244.4"
       height="786.00006"
       filterUnits="userSpaceOnUse"
       primitiveUnits="userSpaceOnUse"><feComponentTransfer
         color-interpolation-filters="sRGB"
         id="feComponentTransfer3"><feFuncR
           type="discrete"
           tableValues="0 0"
           id="feFuncR3" /><feFuncG
           type="discrete"
           tableValues="0 0"
           id="feFuncG3" /><feFuncB
           type="discrete"
           tableValues="0 0"
           id="feFuncB3" /><feFuncA
           type="linear"
           slope="0.380392"
           intercept="0"
           id="feFuncA3" /></feComponentTransfer><feGaussianBlur
         stdDeviation="4.58333 4.58333"
         id="feGaussianBlur3" /></filter><filter
       id="fx3"
       x="-103.7"
       y="-65.5"
       width="1244.4"
       height="786.00006"
       filterUnits="userSpaceOnUse"
       primitiveUnits="userSpaceOnUse"><feComponentTransfer
         color-interpolation-filters="sRGB"
         id="feComponentTransfer4"><feFuncR
           type="discrete"
           tableValues="0 0"
           id="feFuncR4" /><feFuncG
           type="discrete"
           tableValues="0 0"
           id="feFuncG4" /><feFuncB
           type="discrete"
           tableValues="0 0"
           id="feFuncB4" /><feFuncA
           type="linear"
           slope="0.380392"
           intercept="0"
           id="feFuncA4" /></feComponentTransfer><feGaussianBlur
         stdDeviation="4.58333 4.58333"
         id="feGaussianBlur4" /></filter><filter
       id="fx4"
       x="-103.7"
       y="-65.5"
       width="1244.4"
       height="786.00006"
       filterUnits="userSpaceOnUse"
       primitiveUnits="userSpaceOnUse"><feComponentTransfer
         color-interpolation-filters="sRGB"
         id="feComponentTransfer5"><feFuncR
           type="discrete"
           tableValues="0 0"
           id="feFuncR5" /><feFuncG
           type="discrete"
           tableValues="0 0"
           id="feFuncG5" /><feFuncB
           type="discrete"
           tableValues="0 0"
           id="feFuncB5" /><feFuncA
           type="linear"
           slope="0.380392"
           intercept="0"
           id="feFuncA5" /></feComponentTransfer><feGaussianBlur
         stdDeviation="4.58333 4.58333"
         id="feGaussianBlur5" /></filter></defs><g
     transform="translate(-2232.7167,-391.533)"
     id="g28"><path
       d="m 2658.81,855.082 -11.91,31.25 h 21.75 z m -1.09,-6.906 h 4.62 l 13.19,41.156 v 2 h -34.16 v -2 z"
       fill="#00b050"
       fill-rule="evenodd"
       id="path5" /><text
       fill="#000000"
       fill-opacity="0"
       font-family="Arial, Arial_MSFontService, sans-serif"
       font-size="43.1562px"
       x="2641.3701"
       y="885.93799"
       id="text5">Δ</text><path
       d="m 2697.76,863.426 c -1.92,0 -3.7,0.854 -5.35,2.562 -1.64,1.709 -2.96,4.021 -3.95,6.938 -0.99,2.917 -1.48,5.906 -1.48,8.969 0,2.104 0.31,3.666 0.93,4.687 0.63,1.021 1.57,1.531 2.82,1.531 1.79,0 3.63,-1.052 5.53,-3.156 1.89,-2.104 3.65,-5.031 5.28,-8.781 0.35,-2.167 0.53,-4.083 0.53,-5.75 0,-2.375 -0.35,-4.136 -1.05,-5.281 -0.7,-1.146 -1.78,-1.719 -3.26,-1.719 z m 0.22,-2.469 c 2.33,0 4.16,0.729 5.48,2.188 1.32,1.458 2.06,3.593 2.2,6.406 l 0.28,-0.031 4.1,-8.063 h 5.4 l -0.31,1.594 c -2.58,3.5 -5.62,7.802 -9.12,12.906 -0.52,3.979 -0.78,6.792 -0.78,8.438 0,1.375 0.15,2.359 0.46,2.953 0.32,0.594 0.84,0.89 1.57,0.89 0.58,0 1.24,-0.244 1.98,-0.734 0.74,-0.49 1.54,-1.245 2.39,-2.266 l 1.81,1.688 c -1.75,1.875 -3.27,3.161 -4.56,3.859 -1.29,0.698 -2.62,1.047 -4,1.047 -2.77,0 -4.15,-2.021 -4.15,-6.062 0,-0.896 0.06,-1.886 0.18,-2.969 h -0.31 c -2.14,3.208 -4.18,5.516 -6.09,6.922 -1.92,1.406 -3.97,2.109 -6.16,2.109 -1.52,0 -2.8,-0.437 -3.84,-1.312 -1.04,-0.875 -1.82,-2.037 -2.32,-3.485 -0.5,-1.448 -0.75,-3.026 -0.75,-4.734 0,-3.729 0.71,-7.266 2.13,-10.609 1.42,-3.344 3.39,-5.969 5.91,-7.875 2.52,-1.907 5.35,-2.86 8.5,-2.86 z"
       fill="#00b050"
       fill-rule="evenodd"
       id="path6" /><text
       fill="#000000"
       fill-opacity="0"
       font-family="Arial, Arial_MSFontService, sans-serif"
       font-size="30.875px"
       x="2681.4399"
       y="887.97302"
       id="text6">𝛼</text><path
       d="m 2236.5,438.5 c 85.04,124.358 170.08,248.716 268.3,311.755 98.23,63.038 219.77,111.941 321.05,66.477 101.28,-45.465 240.4,-278.516 286.65,-339.263"
       stroke="#ff0000"
       stroke-width="9.16667"
       stroke-linejoin="round"
       stroke-miterlimit="10"
       fill="none"
       fill-rule="evenodd"
       id="path7" /><path
       d="m 2431,701 c 0,-8.836 7.16,-16 16,-16 8.84,0 16,7.164 16,16 0,8.837 -7.16,16 -16,16 -8.84,0 -16,-7.163 -16,-16 z"
       fill-rule="evenodd"
       id="path8" /><g
       filter="url(#fx0)"
       transform="translate(2459,645)"
       id="g10"><g
         id="g9"><path
           d="M 18.5227,49.9705 C 32.1651,30.9406 45.7955,17.3571 48.9669,19.6307 L 94.754,52.4552 c 3.1714,2.2737 16.802,-11.3099 30.444,-30.3397 -13.642,19.0298 -22.131,36.2996 -18.959,38.5733 l 45.787,32.8245 c 3.171,2.2736 -5.317,19.5437 -18.959,38.5737"
           stroke="#000000"
           stroke-width="9.16667"
           stroke-linejoin="round"
           stroke-miterlimit="10"
           fill="none"
           fill-rule="evenodd"
           id="path9" /></g></g><path
       d="m 2477.52,687.753 c 13.65,-19.03 27.28,-32.614 30.45,-30.34 l 45.78,32.824 c 3.18,2.274 16.81,-11.31 30.45,-30.339 -13.64,19.029 -22.13,36.299 -18.96,38.573 l 45.79,32.824 c 3.17,2.274 -5.32,19.544 -18.96,38.574"
       stroke="#000000"
       stroke-width="9.16667"
       stroke-linejoin="round"
       stroke-miterlimit="10"
       fill="none"
       fill-rule="evenodd"
       id="path10" /><path
       d="m 2593.97,595.931 -11.9,31.25 h 21.75 z m -1.09,-6.906 h 4.62 l 13.19,41.156 v 2 h -34.15 v -2 z"
       fill-rule="evenodd"
       id="path11" /><text
       fill="#000000"
       fill-opacity="0"
       font-family="Arial, Arial_MSFontService, sans-serif"
       font-size="43.1562px"
       x="2576.54"
       y="626.78699"
       id="text11">Δ</text><path
       d="m 2630.76,601.806 c 1.94,0 3.71,0.115 5.3,0.344 1.6,0.229 3.18,0.625 4.77,1.188 l -1.41,6.562 h -2.53 c -0.23,-1.854 -0.84,-3.26 -1.83,-4.219 -0.99,-0.958 -2.55,-1.437 -4.67,-1.437 -1.65,0 -2.98,0.422 -4,1.266 -1.02,0.843 -1.53,1.953 -1.53,3.328 0,0.75 0.13,1.411 0.39,1.984 0.26,0.573 0.79,1.203 1.58,1.891 0.79,0.687 2.02,1.531 3.68,2.531 1.32,0.792 2.37,1.516 3.16,2.172 0.79,0.656 1.42,1.307 1.88,1.953 0.45,0.646 0.79,1.328 1,2.047 0.2,0.719 0.31,1.588 0.31,2.609 0,1.854 -0.5,3.443 -1.49,4.766 -0.99,1.323 -2.33,2.307 -4.03,2.953 -1.7,0.646 -3.63,0.969 -5.79,0.969 -1.73,0 -3.43,-0.13 -5.1,-0.391 -1.66,-0.26 -3.52,-0.703 -5.56,-1.328 l 1.5,-6.813 h 2.44 c 0.08,2 0.64,3.511 1.68,4.532 1.05,1.021 2.7,1.531 4.97,1.531 1.98,0 3.53,-0.443 4.64,-1.328 1.12,-0.886 1.68,-2.141 1.68,-3.766 0,-0.937 -0.16,-1.745 -0.47,-2.422 -0.32,-0.677 -0.83,-1.328 -1.53,-1.953 -0.71,-0.625 -1.84,-1.406 -3.38,-2.344 -1.62,-0.979 -2.89,-1.864 -3.8,-2.656 -0.9,-0.791 -1.58,-1.651 -2.04,-2.578 -0.46,-0.927 -0.69,-1.995 -0.69,-3.203 0,-1.646 0.44,-3.089 1.33,-4.328 0.88,-1.24 2.15,-2.193 3.79,-2.86 1.65,-0.666 3.57,-1 5.75,-1 z"
       fill-rule="evenodd"
       id="path12" /><text
       fill="#000000"
       fill-opacity="0"
       font-family="Arial, Arial_MSFontService, sans-serif"
       font-size="30.9062px"
       x="2614.8899"
       y="628.849"
       id="text12">𝑠</text><path
       d="m 2406.69,737.517 c -1.45,0 -2.58,0.021 -3.37,0.063 v 17.593 h 2.69 c 2.08,0 3.74,-0.296 4.96,-0.89 1.23,-0.594 2.15,-1.537 2.74,-2.828 0.59,-1.292 0.89,-3.032 0.89,-5.219 0,-3.021 -0.6,-5.229 -1.81,-6.625 -1.21,-1.396 -3.24,-2.094 -6.1,-2.094 z m -16.4,-3.656 h 18.15 c 5.27,0 9.22,0.943 11.85,2.828 2.62,1.885 3.93,4.786 3.93,8.703 0,2.771 -0.61,5.177 -1.84,7.219 -1.23,2.042 -3.01,3.588 -5.34,4.641 -2.34,1.052 -5.25,1.578 -8.75,1.578 -2.02,0 -3.68,-0.042 -4.97,-0.125 v 10 c 0,1.604 0.08,2.718 0.25,3.343 0.17,0.625 0.48,1.125 0.95,1.5 0.47,0.375 1.33,0.677 2.58,0.907 v 2.062 h -16.81 v -2.062 c 1.12,-0.292 1.89,-0.625 2.29,-1 0.41,-0.375 0.69,-0.87 0.83,-1.485 0.15,-0.614 0.22,-1.713 0.22,-3.297 v -26.937 c 0,-1.583 -0.07,-2.682 -0.2,-3.297 -0.14,-0.615 -0.41,-1.109 -0.83,-1.484 -0.42,-0.375 -1.19,-0.719 -2.31,-1.032 z"
       fill-rule="evenodd"
       id="path13" /><text
       fill="#000000"
       fill-opacity="0"
       font-family="Arial, Arial_MSFontService, sans-serif"
       font-size="42.6562px"
       x="2390.29"
       y="771.185"
       id="text13">𝐏</text><path
       d="m 2691.92,756.967 c -1.46,0 -2.58,0.021 -3.37,0.063 v 17.593 h 2.69 c 2.08,0 3.73,-0.297 4.96,-0.89 1.23,-0.594 2.14,-1.537 2.74,-2.828 0.59,-1.292 0.89,-3.032 0.89,-5.219 0,-3.021 -0.61,-5.229 -1.81,-6.625 -1.21,-1.396 -3.24,-2.094 -6.1,-2.094 z m -16.4,-3.656 h 18.15 c 5.27,0 9.22,0.942 11.85,2.828 2.62,1.885 3.93,4.786 3.93,8.703 0,2.771 -0.61,5.177 -1.84,7.219 -1.23,2.041 -3.01,3.588 -5.34,4.64 -2.34,1.052 -5.25,1.579 -8.75,1.579 -2.02,0 -3.68,-0.042 -4.97,-0.125 v 10 c 0,1.604 0.08,2.718 0.25,3.343 0.16,0.625 0.48,1.125 0.95,1.5 0.47,0.375 1.33,0.677 2.58,0.907 v 2.062 h -16.81 v -2.062 c 1.12,-0.292 1.89,-0.625 2.29,-1 0.41,-0.375 0.69,-0.87 0.83,-1.485 0.15,-0.614 0.22,-1.713 0.22,-3.297 v -26.937 c 0,-1.584 -0.07,-2.683 -0.2,-3.297 -0.14,-0.615 -0.41,-1.109 -0.83,-1.484 -0.42,-0.375 -1.19,-0.719 -2.31,-1.032 z"
       fill-rule="evenodd"
       id="path14" /><text
       fill="#000000"
       fill-opacity="0"
       font-family="Arial, Arial_MSFontService, sans-serif"
       font-size="42.6562px"
       x="2675.52"
       y="790.63501"
       id="text14">𝐏</text><path
       d="m 2719.87,746.967 h 5.84 v 1.781 l -7.53,18.125 -2.65,-0.781 z"
       fill-rule="evenodd"
       id="path15" /><text
       fill="#000000"
       fill-opacity="0"
       font-family="Arial, Arial_MSFontService, sans-serif"
       font-size="19.9062px"
       x="2715.53"
       y="764.38501"
       id="text15">′</text><g
       filter="url(#fx1)"
       transform="translate(2429,706)"
       id="g17"><g
         id="g16"><path
           d="M 21.5801,15.4371 267.269,246.106 261.109,252.667 15.4199,21.9985 Z m 248.6789,220.7879 10.637,28.847 -29.46,-8.799 z"
           fill="#4285f4"
           id="path16" /></g></g><path
       d="m 2450.64,714.158 245.69,230.669 -6.28,6.683 -245.69,-230.669 z m 248.62,220.849 10.64,28.847 -29.46,-8.799 z"
       fill="#4285f4"
       id="path17" /><g
       filter="url(#fx2)"
       transform="translate(2418,747)"
       id="g19"><g
         id="g18"><path
           d="M 16.5,19.7177 192.602,73.028"
           stroke="#00b050"
           stroke-width="9"
           stroke-linejoin="round"
           stroke-miterlimit="10"
           stroke-dasharray="36.6667, 27.5"
           fill="none"
           fill-rule="evenodd"
           id="path18" /></g></g><path
       d="m 2434.5,759.5 176.1,53.31"
       stroke="#00b050"
       stroke-width="9.16667"
       stroke-linejoin="round"
       stroke-miterlimit="10"
       stroke-dasharray="36.6667, 27.5"
       fill="none"
       fill-rule="evenodd"
       id="path19" /><g
       filter="url(#fx3)"
       transform="translate(2590,799)"
       id="g21"><g
         id="g20"><path
           d="M 17.8041,15.411 399.204,130.87 396.596,139.484 15.1964,24.0249 Z m 379.6929,105.277 22.337,21.129 -30.305,5.192 z"
           fill="#00b050"
           id="path20" /></g></g><path
       d="m 2607.83,807.113 381.4,115.459 -2.66,8.774 -381.4,-115.459 z m 379.67,105.358 22.33,21.128 -30.3,5.192 z"
       fill="#00b050"
       id="path21" /><g
       filter="url(#fx4)"
       transform="translate(2571,814)"
       id="g23"><g
         id="g22"><path
           d="M 52.9896,16.2923 C 47.9097,33.2678 31.4134,43.3249 16.144,38.7556"
           stroke="#00b050"
           stroke-width="9.16667"
           stroke-linejoin="round"
           stroke-miterlimit="10"
           fill="none"
           fill-rule="evenodd"
           id="path22" /></g></g><path
       d="m 2623.99,823.074 c -5.08,16.976 -21.58,27.033 -36.85,22.464"
       stroke="#00b050"
       stroke-width="9.16667"
       stroke-linejoin="round"
       stroke-miterlimit="10"
       fill="none"
       fill-rule="evenodd"
       id="path23" /><path
       d="m 3125.76,438.689 c -0.75,0.584 -1.32,1.219 -1.71,1.907 -0.38,0.687 -0.57,1.479 -0.57,2.375 0,1.5 0.65,2.609 1.95,3.328 1.3,0.718 3.36,1.078 6.17,1.078 2.63,0 4.62,-0.438 5.99,-1.313 1.36,-0.875 2.04,-2.104 2.04,-3.687 0,-1.313 -0.41,-2.235 -1.25,-2.766 -0.83,-0.531 -2.06,-0.797 -3.69,-0.797 h -5.37 c -1.52,0 -2.71,-0.041 -3.56,-0.125 z m 5.65,-30.281 c -1.54,0 -2.68,0.599 -3.42,1.797 -0.74,1.198 -1.11,3.036 -1.11,5.516 0,2.625 0.37,4.578 1.11,5.859 0.74,1.281 1.9,1.922 3.49,1.922 1.43,0 2.53,-0.594 3.29,-1.781 0.76,-1.188 1.14,-3 1.14,-5.438 0,-2.562 -0.37,-4.516 -1.11,-5.859 -0.74,-1.344 -1.87,-2.016 -3.39,-2.016 z m 0.1,-3.219 c 1.06,0 2,0.052 2.81,0.157 0.81,0.104 1.6,0.218 2.37,0.343 h 11.29 v 4.188 l -5.35,-0.594 -0.12,0.344 c 0.58,0.583 1.06,1.38 1.45,2.39 0.39,1.011 0.58,2.224 0.58,3.641 0,3.625 -1.1,6.375 -3.3,8.25 -2.2,1.875 -5.43,2.813 -9.7,2.813 -2.06,0 -3.75,-0.188 -5.06,-0.563 -1.05,0.938 -1.57,1.948 -1.57,3.031 0,0.625 0.13,1.104 0.39,1.438 0.26,0.333 0.71,0.588 1.33,0.765 0.63,0.178 1.51,0.266 2.66,0.266 h 7.75 c 3.48,0 6.08,0.677 7.81,2.031 1.73,1.354 2.59,3.459 2.59,6.313 0,2.229 -0.63,4.146 -1.89,5.75 -1.26,1.604 -3.06,2.828 -5.42,3.672 -2.35,0.843 -5.14,1.265 -8.37,1.265 -2.36,0 -4.49,-0.104 -6.41,-0.312 -1.92,-0.209 -3.55,-0.589 -4.91,-1.141 -1.35,-0.552 -2.4,-1.307 -3.14,-2.265 -0.74,-0.959 -1.11,-2.178 -1.11,-3.657 0,-1.187 0.38,-2.281 1.13,-3.281 0.75,-1 1.8,-1.854 3.16,-2.562 -0.88,-0.625 -1.51,-1.344 -1.91,-2.157 -0.4,-0.812 -0.59,-1.812 -0.59,-3 0,-1.271 0.36,-2.479 1.09,-3.625 0.73,-1.146 1.99,-2.396 3.78,-3.75 -1.62,-0.916 -2.85,-2.119 -3.69,-3.609 -0.83,-1.49 -1.25,-3.234 -1.25,-5.234 0,-2.5 0.6,-4.568 1.78,-6.204 1.19,-1.635 2.8,-2.828 4.83,-3.578 2.03,-0.75 4.36,-1.125 6.99,-1.125 z"
       fill-rule="evenodd"
       id="path24" /><text
       fill="#000000"
       fill-opacity="0"
       font-family="Arial, Arial_MSFontService, sans-serif"
       font-size="45.5px"
       x="3116.1899"
       y="445.00201"
       id="text24">𝐠</text><path
       d="m 3173.19,391.533 0.85,2.406 c -4.88,1.605 -8.49,4.735 -10.83,9.391 -2.34,4.656 -3.52,10.505 -3.52,17.547 0,7.291 1.18,13.302 3.52,18.031 2.34,4.729 5.92,7.896 10.73,9.5 l -0.75,2.406 c -6.1,-1.604 -10.78,-5.057 -14.03,-10.359 -3.25,-5.302 -4.87,-11.724 -4.87,-19.266 0,-7.521 1.63,-13.942 4.89,-19.265 3.26,-5.323 7.93,-8.787 14.01,-10.391 z"
       fill-rule="evenodd"
       id="path25" /><text
       fill="#000000"
       fill-opacity="0"
       font-family="Arial, Arial_MSFontService, sans-serif"
       font-size="59.2812px"
       x="3154.29"
       y="443.40399"
       id="text25">(</text><path
       d="m 3181.74,399.096 h 4.43 v 7.718 h 10.1 v 3.157 h -10.1 v 13.906 c 0,2.021 0.09,3.63 0.25,4.828 0.17,1.198 0.48,2.135 0.94,2.812 0.46,0.678 0.98,1.162 1.56,1.454 0.59,0.291 1.34,0.437 2.25,0.437 0.84,0 1.62,-0.172 2.35,-0.516 0.73,-0.343 1.45,-0.838 2.15,-1.484 l 1.41,1.688 c -1.48,1.437 -2.88,2.479 -4.2,3.125 -1.33,0.645 -2.7,0.968 -4.11,0.968 -2.69,0 -4.69,-0.797 -6,-2.39 -1.31,-1.594 -1.97,-4.089 -1.97,-7.485 v -17.343 h -4.63 v -1.594 c 1.05,-0.167 1.89,-0.459 2.54,-0.875 0.64,-0.417 1.15,-0.953 1.51,-1.61 0.37,-0.656 0.65,-1.479 0.86,-2.468 0.21,-0.99 0.43,-2.433 0.66,-4.328 z"
       fill-rule="evenodd"
       id="path26" /><text
       fill="#000000"
       fill-opacity="0"
       font-family="Arial, Arial_MSFontService, sans-serif"
       font-size="38.0938px"
       x="3176.1699"
       y="432.42801"
       id="text26">t</text><path
       d="m 3198.82,391.533 c 6.08,1.604 10.75,5.068 14.02,10.391 3.26,5.323 4.89,11.744 4.89,19.265 0,7.542 -1.63,13.964 -4.88,19.266 -3.25,5.302 -7.93,8.755 -14.03,10.359 l -0.75,-2.406 c 4.81,-1.604 8.39,-4.771 10.73,-9.5 2.35,-4.729 3.52,-10.74 3.52,-18.031 0,-7.042 -1.17,-12.891 -3.5,-17.547 -2.33,-4.656 -5.95,-7.786 -10.84,-9.391 z"
       fill-rule="evenodd"
       id="path27" /><text
       fill="#000000"
       fill-opacity="0"
       font-family="Arial, Arial_MSFontService, sans-serif"
       font-size="59.2812px"
       x="3197.98"
       y="443.40399"
       id="text27">)</text><path
       d="m 2578,795 c 0,-8.837 7.16,-16 16,-16 8.84,0 16,7.163 16,16 0,8.836 -7.16,16 -16,16 -8.84,0 -16,-7.164 -16,-16 z"
       fill-rule="evenodd"
       id="path28" /></g></svg>
