<?xml version="1.0" standalone="no"?>
<!DOCTYPE svg PUBLIC "-//W3C//DTD SVG 1.1//EN"
"http://www.w3.org/Graphics/SVG/1.1/DTD/svg11.dtd">
<!-- Creator: fig2dev Version 3.2 Patchlevel 5e -->
<!-- CreationDate: Wed Feb 21 17:55:22 2018 -->
<!-- Magnification: 1.050 -->
<svg	xmlns="http://www.w3.org/2000/svg"
	xmlns:xlink="http://www.w3.org/1999/xlink"
	width="4.0in" height="4.4in"
	viewBox="2349 2113 4749 5222">
<g style="stroke-width:.025in; fill:none">
<!-- Line -->
<!--  polyline  -->
<polyline points="2362,4733
7086,4733
" style="stroke:#000000;stroke-width:8;
stroke-linejoin:round; stroke-linecap:butt;
stroke-dasharray:83 41 10 41;"/>
<!-- Line -->
<!--  polyline  -->
<polyline points="4722,7322
4722,2125
" style="stroke:#000000;stroke-width:8;
stroke-linejoin:round; stroke-linecap:butt;
stroke-dasharray:83 41 10 41;"/>
<!-- Line -->
<!--  spline  -->
<polyline points="4760,3493
4760,3492
4759,3490
4759,3485
4758,3483
4758,3482
4756,3480
4756,3478
4754,3475
4752,3471
4749,3468
4748,3467
4747,3466
4746,3465
4743,3463
4740,3461
4739,3460
4738,3460
4737,3459
4733,3458
4729,3457
4726,3456
4724,3456
4722,3456
4721,3456
4719,3457
4714,3457
4712,3458
4711,3458
4709,3459
4707,3459
4704,3461
4701,3463
4698,3465
4697,3466
4696,3467
4695,3468
4692,3471
4690,3475
4689,3476
4689,3477
4688,3479
4687,3482
4686,3486
4685,3489
4685,3491
4685,3493
4685,3495
4686,3498
4686,3502
4687,3505
4687,3506
4688,3507
4688,3509
4690,3512
4692,3516
4695,3519
4696,3520
4697,3520
4698,3522
4701,3524
4704,3526
4706,3527
4706,3528
4708,3528
4711,3530
4716,3531
4718,3532
4720,3532
4722,3532
4723,3532
4725,3531
4730,3531
4732,3530
4733,3530
4734,3529
4737,3528
4740,3526
4743,3524
4746,3522
4747,3520
4748,3520
4749,3519
4752,3516
4754,3512
4755,3511
4756,3509
4758,3506
4759,3502
4760,3499
4760,3496
4760,3493
" style="stroke:#cc0000;stroke-width:16;
stroke-linejoin:bevel; stroke-linecap:butt;
"/>
<!-- Line -->
<!--  spline  -->
<polyline points="4760,5974
4760,5973
4759,5970
4759,5966
4758,5963
4758,5962
4756,5961
4756,5959
4754,5955
4752,5952
4749,5949
4748,5948
4747,5948
4746,5946
4743,5944
4740,5942
4739,5941
4738,5940
4737,5940
4733,5938
4729,5937
4726,5935
4724,5935
4722,5935
4721,5935
4719,5937
4714,5937
4712,5938
4711,5938
4709,5939
4707,5940
4704,5942
4701,5944
4698,5946
4697,5948
4696,5948
4695,5949
4692,5952
4690,5955
4689,5956
4688,5959
4687,5962
4686,5966
4685,5969
4685,5972
4685,5974
4685,5975
4686,5977
4686,5983
4687,5985
4687,5986
4688,5988
4688,5990
4690,5993
4692,5996
4695,5999
4696,6001
4697,6002
4698,6003
4701,6005
4704,6007
4706,6008
4708,6009
4711,6010
4716,6011
4718,6012
4720,6012
4722,6012
4723,6012
4725,6011
4730,6011
4732,6010
4733,6010
4734,6009
4737,6009
4740,6007
4743,6005
4746,6003
4747,6002
4748,6001
4749,5999
4752,5996
4754,5993
4755,5992
4755,5991
4756,5989
4758,5986
4759,5982
4760,5979
4760,5976
4760,5974
" style="stroke:#0000cc;stroke-width:16;
stroke-linejoin:bevel; stroke-linecap:butt;
fill:#0000cc;
"/>
<!-- Line -->
<!--  spline  -->
<polyline points="2636,4733
2636,4732
2635,4730
2635,4725
2634,4723
2634,4722
2633,4721
2633,4719
2630,4716
2628,4712
2625,4709
2624,4708
2623,4707
2622,4706
2619,4703
2616,4701
2615,4700
2613,4699
2609,4698
2605,4697
2602,4696
2599,4696
2597,4696
2596,4696
2594,4697
2588,4697
2586,4698
2585,4698
2583,4699
2581,4699
2578,4701
2575,4703
2572,4706
2571,4707
2571,4708
2570,4709
2567,4712
2565,4716
2564,4717
2563,4718
2563,4719
2561,4722
2560,4726
2559,4729
2559,4731
2559,4733
2559,4734
2560,4738
2560,4742
2561,4745
2561,4746
2562,4747
2563,4749
2565,4752
2567,4755
2570,4759
2571,4760
2571,4761
2572,4762
2575,4765
2578,4767
2579,4768
2580,4768
2581,4769
2585,4770
2590,4771
2593,4772
2595,4772
2597,4772
2598,4772
2601,4771
2605,4771
2608,4770
2609,4770
2611,4769
2613,4769
2616,4767
2619,4765
2622,4762
2623,4761
2624,4760
2625,4759
2628,4755
2630,4752
2632,4751
2633,4749
2634,4746
2635,4742
2636,4739
2636,4735
2636,4733
" style="stroke:#0000cc;stroke-width:16;
stroke-linejoin:bevel; stroke-linecap:butt;
fill:#0000cc;
"/>
<!-- Line -->
<!--  spline  -->
<polyline points="6886,4733
6886,4732
6885,4730
6885,4725
6883,4723
6883,4722
6882,4721
6881,4719
6879,4716
6877,4712
6875,4709
6873,4708
6873,4707
6872,4706
6869,4703
6866,4701
6865,4700
6862,4699
6859,4698
6855,4697
6852,4696
6850,4696
6848,4696
6847,4696
6844,4697
6839,4697
6836,4698
6835,4698
6834,4699
6832,4699
6829,4701
6826,4703
6823,4706
6822,4707
6820,4708
6819,4709
6816,4712
6814,4716
6813,4717
6813,4718
6812,4719
6811,4722
6810,4726
6809,4729
6809,4731
6809,4733
6809,4734
6810,4738
6810,4742
6811,4745
6811,4746
6812,4747
6812,4749
6814,4752
6816,4755
6819,4759
6820,4760
6822,4761
6823,4762
6826,4765
6829,4767
6830,4768
6832,4769
6835,4770
6839,4771
6843,4772
6846,4772
6848,4772
6849,4772
6851,4771
6856,4771
6858,4770
6859,4770
6860,4769
6862,4769
6866,4767
6869,4765
6872,4762
6873,4761
6873,4760
6875,4759
6877,4755
6879,4752
6880,4751
6881,4751
6881,4749
6883,4746
6885,4742
6886,4739
6886,4735
6886,4733
" style="stroke:#cc0000;stroke-width:16;
stroke-linejoin:bevel; stroke-linecap:butt;
"/>
<!-- Line -->
<!--  spline  -->
<polyline points="6161,4733
6161,4732
6161,4730
6160,4725
6160,4723
6160,4722
6159,4721
6158,4719
6156,4716
6154,4712
6152,4709
6151,4708
6151,4707
6150,4706
6146,4703
6143,4701
6142,4700
6141,4700
6140,4699
6136,4698
6132,4697
6129,4696
6127,4696
6124,4696
6123,4696
6120,4697
6116,4697
6113,4698
6112,4698
6110,4699
6108,4699
6104,4701
6101,4703
6098,4706
6097,4707
6096,4708
6095,4709
6093,4712
6091,4716
6091,4717
6090,4718
6090,4719
6089,4722
6088,4726
6087,4729
6087,4731
6087,4733
6087,4734
6088,4738
6088,4742
6089,4745
6089,4746
6089,4747
6090,4749
6091,4752
6093,4755
6095,4759
6096,4760
6097,4761
6098,4762
6101,4765
6104,4767
6106,4768
6107,4768
6108,4769
6112,4770
6116,4771
6119,4772
6122,4772
6124,4772
6125,4772
6128,4771
6133,4771
6135,4770
6136,4770
6138,4769
6140,4769
6143,4767
6146,4765
6150,4762
6151,4761
6151,4760
6152,4759
6154,4755
6156,4752
6157,4751
6158,4751
6159,4749
6160,4746
6161,4742
6161,4739
6161,4735
6161,4733
" style="stroke:#ff0000;stroke-width:16;
stroke-linejoin:bevel; stroke-linecap:butt;
fill:#ff0000;
"/>
<!-- Line -->
<!--  spline  -->
<polyline points="3358,4733
3358,4732
3357,4730
3357,4725
3356,4723
3356,4722
3356,4721
3355,4719
3354,4716
3352,4712
3350,4709
3349,4708
3348,4707
3346,4706
3343,4703
3340,4701
3339,4700
3338,4700
3337,4699
3333,4698
3329,4697
3325,4696
3322,4696
3320,4696
3319,4696
3317,4697
3312,4697
3310,4698
3309,4698
3307,4699
3304,4699
3301,4701
3298,4703
3295,4706
3294,4707
3294,4708
3293,4709
3291,4712
3289,4716
3288,4717
3287,4718
3286,4719
3285,4722
3283,4726
3283,4729
3283,4731
3283,4733
3283,4734
3283,4738
3285,4742
3285,4745
3285,4746
3286,4747
3287,4749
3289,4752
3291,4755
3293,4759
3294,4760
3294,4761
3295,4762
3298,4765
3301,4767
3302,4768
3303,4768
3304,4769
3309,4770
3313,4771
3316,4772
3318,4772
3320,4772
3321,4772
3324,4771
3329,4771
3332,4770
3333,4770
3335,4769
3337,4769
3340,4767
3343,4765
3346,4762
3348,4761
3349,4760
3350,4759
3352,4755
3354,4752
3354,4751
3355,4751
3355,4749
3356,4746
3357,4742
3358,4739
3358,4735
3358,4733
" style="stroke:#ff0000;stroke-width:16;
stroke-linejoin:bevel; stroke-linecap:butt;
fill:#ff0000;
"/>
<!-- Line -->
<!--  spline  -->
<polyline points="4760,2330
4760,2329
4759,2326
4759,2322
4758,2319
4758,2318
4756,2316
4756,2313
4754,2310
4752,2307
4749,2304
4748,2303
4747,2302
4746,2301
4743,2299
4740,2297
4739,2296
4738,2296
4737,2295
4733,2293
4729,2292
4726,2291
4724,2291
4722,2291
4721,2291
4719,2292
4714,2292
4712,2293
4711,2293
4709,2295
4707,2295
4704,2297
4701,2299
4698,2301
4697,2302
4696,2303
4695,2304
4692,2307
4690,2310
4689,2311
4689,2312
4688,2313
4687,2318
4686,2322
4685,2325
4685,2328
4685,2330
4685,2331
4686,2333
4686,2339
4687,2341
4687,2342
4688,2344
4688,2346
4690,2349
4692,2352
4695,2355
4696,2356
4697,2356
4698,2358
4701,2360
4704,2362
4706,2363
4706,2364
4708,2364
4711,2366
4716,2367
4718,2368
4720,2368
4722,2368
4723,2368
4725,2367
4730,2367
4732,2366
4733,2366
4734,2365
4737,2364
4740,2362
4743,2360
4746,2358
4747,2356
4748,2356
4749,2355
4752,2352
4754,2349
4755,2348
4755,2347
4756,2346
4758,2342
4759,2338
4760,2334
4760,2332
4760,2330
" style="stroke:#ff0000;stroke-width:16;
stroke-linejoin:bevel; stroke-linecap:butt;
fill:#ff0000;
"/>
<!-- Line -->
<!--  polyline  -->
<polyline points="6124,4733
6121,4733
6115,4733
6106,4735
6091,4739
6072,4743
6050,4750
6025,4759
5996,4771
5964,4786
5928,4805
5889,4828
5848,4854
5805,4885
5760,4920
5713,4959
5666,5003
5615,5050
5565,5104
5516,5161
5464,5222
5414,5288
5363,5357
5313,5428
5265,5505
5217,5584
5171,5665
5127,5749
5084,5834
5044,5920
5006,6007
4971,6094
4937,6181
4907,6267
4878,6352
4852,6435
4829,6515
4809,6593
4791,6667
4775,6737
4764,6802
4751,6862
4743,6919
4737,6969
4730,7013
4726,7050
4724,7082
4722,7107
4722,7124
4722,7134
4722,7138
4722,7134
4722,7124
4722,7107
4721,7082
4719,7050
4714,7013
4708,6969
4701,6919
4693,6862
4681,6802
4669,6737
4654,6667
4636,6593
4616,6515
4593,6435
4566,6352
4538,6267
4508,6181
4474,6094
4438,6007
4401,5920
4361,5834
4318,5749
4274,5665
4227,5584
4180,5505
4132,5428
4081,5357
4031,5288
3981,5222
3929,5161
3880,5104
3829,5050
3779,5003
3732,4959
3685,4920
3639,4885
3596,4854
3555,4828
3517,4805
3481,4786
3448,4771
3420,4759
3395,4750
3373,4743
3354,4739
3339,4735
3330,4733
3323,4733
3320,4733
3323,4733
3330,4733
3339,4732
3354,4729
3373,4725
3395,4718
3420,4709
3448,4697
3481,4682
3517,4663
3555,4640
3596,4614
3639,4583
3685,4548
3732,4509
3779,4465
3829,4417
3880,4364
3929,4307
3981,4246
4031,4180
4081,4111
4132,4039
4180,3963
4227,3884
4274,3803
4318,3719
4361,3634
4401,3548
4438,3461
4474,3374
4508,3287
4538,3201
4566,3116
4593,3033
4616,2953
4636,2875
4654,2801
4669,2731
4681,2666
4693,2605
4701,2549
4708,2499
4714,2455
4719,2417
4721,2386
4722,2361
4722,2344
4722,2333
4722,2330
4722,2333
4722,2344
4722,2361
4724,2386
4726,2417
4730,2455
4737,2499
4743,2549
4751,2605
4764,2666
4775,2731
4791,2801
4809,2875
4829,2953
4852,3033
4878,3116
4907,3201
4937,3287
4971,3374
5006,3461
5044,3548
5084,3634
5127,3719
5171,3803
5217,3884
5265,3963
5313,4039
5363,4111
5414,4180
5464,4246
5516,4307
5565,4364
5615,4417
5666,4465
5713,4509
5760,4548
5805,4583
5848,4614
5889,4640
5928,4663
5964,4682
5996,4697
6025,4709
6050,4718
6072,4725
6091,4729
6106,4732
6115,4733
6121,4733
6124,4733
" style="stroke:#ff0000;stroke-width:32;
stroke-linejoin:round; stroke-linecap:butt;
"/>
<!-- Line -->
<!--  polyline  -->
<polyline points="6848,4733
6847,4695
6844,4656
6837,4617
6830,4579
6822,4540
6809,4502
6796,4462
6781,4425
6763,4388
6743,4351
6721,4313
6699,4278
6672,4241
6645,4206
6616,4171
6584,4136
6552,4102
6516,4069
6479,4037
6441,4005
6402,3974
6360,3944
6316,3913
6271,3885
6224,3857
6176,3829
6128,3804
6076,3778
6025,3754
5971,3731
5917,3708
5860,3687
5803,3667
5745,3647
5687,3629
5627,3612
5565,3596
5504,3581
5441,3567
5378,3554
5314,3543
5250,3533
5185,3524
5120,3516
5055,3509
4987,3504
4921,3500
4855,3496
4788,3493
4722,3493
4657,3493
4590,3496
4523,3500
4457,3504
4390,3509
4325,3516
4259,3524
4195,3533
4131,3543
4067,3554
4004,3567
3941,3581
3880,3596
3818,3612
3758,3629
3699,3647
3641,3667
3585,3687
3528,3708
3474,3731
3420,3754
3369,3778
3317,3804
3269,3829
3220,3857
3173,3885
3129,3913
3085,3944
3043,3974
3003,4005
2965,4037
2929,4069
2893,4102
2860,4136
2829,4171
2799,4206
2772,4241
2746,4278
2723,4313
2701,4351
2682,4388
2664,4425
2648,4462
2636,4502
2623,4540
2615,4579
2607,4617
2601,4656
2598,4695
2597,4733
2598,4773
2601,4812
2607,4851
2615,4889
2623,4928
2636,4965
2648,5005
2664,5043
2682,5080
2701,5117
2723,5154
2746,5190
2772,5227
2799,5261
2829,5297
2860,5332
2893,5365
2929,5399
2965,5430
3003,5463
3043,5493
3085,5524
3129,5554
3173,5583
3220,5611
3269,5638
3317,5664
3369,5690
3420,5714
3474,5737
3528,5760
3585,5781
3641,5801
3699,5821
3758,5839
3818,5856
3880,5871
3941,5887
4004,5901
4067,5913
4131,5925
4195,5934
4259,5944
4325,5952
4390,5959
4457,5964
4523,5968
4590,5972
4657,5974
4722,5974
4788,5974
4855,5972
4921,5968
4987,5964
5055,5959
5120,5952
5185,5944
5250,5934
5314,5925
5378,5913
5441,5901
5504,5887
5565,5871
5627,5856
5687,5839
5745,5821
5803,5801
5860,5781
5917,5760
5971,5737
6025,5714
6076,5690
6128,5664
6176,5638
6224,5611
6271,5583
6316,5554
6360,5524
6402,5493
6441,5463
6479,5430
6516,5399
6552,5365
6584,5332
6616,5297
6645,5261
6672,5227
6699,5190
6721,5154
6743,5117
6763,5080
6781,5043
6796,5005
6809,4965
6822,4928
6830,4889
6837,4851
6844,4812
6847,4773
6848,4733
" style="stroke:#0000cc;stroke-width:32;
stroke-linejoin:round; stroke-linecap:butt;
"/>
<!-- Line -->
<!--  spline  -->
<polyline points="6886,4733
6886,4732
6885,4730
6885,4725
6883,4723
6883,4722
6882,4721
6881,4719
6879,4716
6877,4712
6875,4709
6873,4708
6873,4707
6872,4706
6869,4703
6866,4701
6865,4700
6862,4699
6859,4698
6855,4697
6852,4696
6850,4696
6848,4696
6847,4696
6844,4697
6839,4697
6836,4698
6835,4698
6834,4699
6832,4699
6829,4701
6826,4703
6823,4706
6822,4707
6820,4708
6819,4709
6816,4712
6814,4716
6813,4717
6813,4718
6812,4719
6811,4722
6810,4726
6809,4729
6809,4731
6809,4733
6809,4734
6810,4738
6810,4742
6811,4745
6811,4746
6812,4747
6812,4749
6814,4752
6816,4755
6819,4759
6820,4760
6822,4761
6823,4762
6826,4765
6829,4767
6830,4768
6832,4769
6835,4770
6839,4771
6843,4772
6846,4772
6848,4772
6849,4772
6851,4771
6856,4771
6858,4770
6859,4770
6860,4769
6862,4769
6866,4767
6869,4765
6872,4762
6873,4761
6873,4760
6875,4759
6877,4755
6879,4752
6880,4751
6881,4751
6881,4749
6883,4746
6885,4742
6886,4739
6886,4735
6886,4733
" style="stroke:#0000cc;stroke-width:16;
stroke-linejoin:bevel; stroke-linecap:butt;
fill:#0000cc;
"/>
<!-- Line -->
<!--  polyline  -->
<polyline points="6124,4733
6848,4733
" style="stroke:#000000;stroke-width:8;
stroke-linejoin:round; stroke-linecap:butt;
"/>
<!-- Line -->
<!--  spline  -->
<polyline points="6024,4776
6024,4775
6023,4772
6023,4768
6022,4765
6022,4764
6020,4762
6020,4760
6018,4756
6016,4753
6014,4750
6013,4749
6012,4748
6011,4747
6008,4745
6005,4743
6004,4742
6003,4742
6002,4741
5997,4740
5993,4739
5990,4738
5987,4738
5985,4738
5984,4738
5982,4739
5976,4739
5974,4740
5973,4740
5972,4741
5970,4741
5967,4743
5964,4745
5961,4747
5960,4748
5960,4749
5958,4750
5955,4753
5953,4756
5952,4758
5951,4759
5951,4760
5949,4764
5948,4768
5947,4771
5947,4774
5947,4776
5947,4777
5948,4780
5948,4785
5949,4787
5949,4788
5950,4789
5951,4791
5953,4794
5955,4797
5958,4801
5960,4802
5960,4803
5961,4804
5964,4806
5967,4808
5968,4809
5970,4810
5973,4811
5977,4812
5981,4813
5983,4813
5985,4813
5986,4813
5989,4812
5993,4812
5996,4811
5997,4811
5999,4810
6002,4810
6005,4808
6008,4806
6011,4804
6012,4803
6013,4802
6014,4801
6016,4797
6018,4794
6019,4793
6020,4791
6022,4788
6023,4784
6024,4781
6024,4779
6024,4776
" style="stroke:#ff00ff;stroke-width:16;
stroke-linejoin:bevel; stroke-linecap:butt;
fill:#ff00ff;
"/>
<!-- Line -->
<!--  spline  -->
<polyline points="6812,4413
6812,4412
6812,4409
6811,4405
6811,4402
6811,4401
6810,4399
6810,4397
6808,4394
6806,4391
6804,4388
6803,4387
6802,4387
6801,4385
6797,4383
6794,4381
6793,4380
6792,4379
6790,4377
6787,4376
6783,4375
6780,4375
6777,4375
6775,4375
6774,4375
6772,4375
6767,4376
6765,4376
6764,4376
6762,4377
6760,4379
6756,4381
6752,4383
6749,4385
6748,4387
6747,4387
6746,4388
6744,4391
6742,4394
6742,4395
6741,4395
6741,4397
6740,4401
6739,4405
6738,4408
6738,4411
6738,4413
6738,4414
6739,4416
6739,4422
6740,4424
6740,4425
6740,4427
6741,4429
6742,4432
6744,4436
6746,4439
6747,4440
6748,4440
6749,4441
6752,4444
6755,4446
6758,4447
6759,4447
6760,4448
6764,4449
6768,4450
6771,4451
6773,4451
6775,4451
6776,4451
6779,4450
6784,4450
6786,4449
6787,4449
6789,4448
6791,4447
6794,4446
6797,4444
6801,4441
6802,4440
6803,4440
6804,4439
6806,4436
6808,4433
6809,4431
6809,4430
6810,4429
6811,4425
6812,4420
6812,4417
6812,4415
6812,4413
" style="stroke:#ff00ff;stroke-width:16;
stroke-linejoin:bevel; stroke-linecap:butt;
fill:#ff00ff;
"/>
<!-- Line -->
<!--  polyline  -->
<polyline points="5985,4776
6775,4413
" style="stroke:#ff00ff;stroke-width:16;
stroke-linejoin:round; stroke-linecap:butt;
"/>
<!-- Line -->
<!--  spline  -->
<polyline points="5670,5034
5670,5033
5670,5030
5669,5026
5669,5024
5669,5023
5668,5021
5667,5019
5665,5016
5662,5012
5660,5008
5658,5007
5657,5006
5654,5004
5651,5002
5650,5001
5648,5000
5645,4999
5640,4998
5637,4997
5634,4997
5632,4997
5631,4997
5629,4998
5624,4998
5622,4999
5620,4999
5618,5000
5616,5001
5613,5002
5610,5004
5607,5006
5606,5007
5605,5007
5604,5008
5602,5012
5599,5015
5598,5017
5598,5018
5597,5019
5596,5023
5595,5027
5594,5029
5594,5033
5594,5034
5594,5035
5595,5038
5595,5042
5596,5045
5596,5046
5597,5048
5597,5050
5599,5054
5602,5057
5604,5060
5605,5061
5606,5062
5607,5063
5610,5065
5613,5067
5614,5068
5615,5068
5617,5069
5620,5070
5625,5071
5628,5071
5630,5071
5632,5071
5633,5071
5636,5071
5640,5070
5644,5070
5645,5070
5646,5069
5648,5069
5651,5067
5654,5065
5657,5063
5658,5062
5658,5061
5660,5060
5662,5057
5665,5054
5666,5053
5667,5051
5668,5050
5669,5046
5670,5042
5670,5039
5670,5036
5670,5034
" style="stroke:#ff0000;stroke-width:16;
stroke-linejoin:bevel; stroke-linecap:butt;
fill:#ff0000;
"/>
<!-- Line -->
<!--  spline  -->
<polyline points="6600,4114
6600,4113
6599,4111
6599,4106
6598,4103
6598,4102
6598,4100
6597,4098
6596,4095
6594,4092
6592,4089
6590,4088
6590,4087
6587,4086
6584,4083
6581,4081
6579,4080
6577,4079
6574,4078
6570,4077
6566,4076
6564,4076
6562,4076
6561,4076
6559,4077
6554,4077
6552,4078
6551,4078
6549,4079
6546,4079
6543,4081
6540,4083
6537,4086
6536,4087
6535,4088
6534,4089
6532,4092
6530,4095
6529,4096
6529,4097
6528,4099
6527,4102
6525,4107
6524,4110
6524,4112
6524,4114
6524,4115
6525,4117
6525,4122
6527,4124
6527,4125
6528,4128
6528,4130
6530,4133
6532,4136
6534,4139
6535,4140
6536,4141
6537,4142
6540,4144
6543,4146
6544,4148
6545,4148
6548,4149
6551,4150
6555,4151
6558,4152
6560,4152
6562,4152
6563,4152
6565,4151
6571,4151
6573,4150
6574,4150
6576,4149
6578,4149
6580,4146
6584,4144
6587,4142
6590,4141
6590,4140
6592,4139
6594,4136
6596,4133
6597,4132
6597,4131
6597,4129
6598,4125
6599,4121
6600,4118
6600,4116
6600,4114
" style="stroke:#0000cc;stroke-width:16;
stroke-linejoin:bevel; stroke-linecap:butt;
fill:#0000cc;
"/>
<!-- Line -->
<!--  polyline  -->
<polyline points="5632,5034
6562,4114
" style="stroke:#000000;stroke-width:8;
stroke-linejoin:round; stroke-linecap:butt;
"/>
<!-- Line -->
<!--  spline  -->
<polyline points="5255,5584
5255,5583
5254,5581
5254,5575
5253,5573
5253,5572
5252,5570
5252,5568
5250,5565
5248,5562
5246,5559
5245,5558
5244,5556
5243,5555
5239,5553
5236,5551
5235,5550
5234,5550
5232,5549
5229,5548
5225,5547
5222,5546
5219,5546
5217,5546
5216,5546
5214,5547
5209,5547
5207,5548
5206,5548
5204,5549
5202,5549
5198,5551
5195,5553
5192,5555
5191,5556
5190,5558
5189,5559
5187,5562
5185,5565
5184,5566
5184,5567
5183,5569
5182,5572
5181,5576
5180,5580
5180,5582
5180,5584
5180,5585
5181,5588
5181,5592
5182,5595
5182,5596
5183,5597
5183,5599
5185,5603
5187,5606
5189,5609
5190,5610
5191,5611
5192,5612
5195,5614
5198,5616
5199,5617
5201,5617
5203,5618
5206,5619
5210,5620
5213,5622
5215,5622
5217,5622
5218,5622
5220,5620
5226,5620
5228,5619
5229,5619
5231,5618
5233,5618
5236,5616
5239,5614
5243,5612
5244,5611
5245,5610
5246,5609
5248,5606
5250,5603
5251,5602
5252,5599
5253,5596
5254,5592
5255,5589
5255,5586
5255,5584
" style="stroke:#ff0000;stroke-width:16;
stroke-linejoin:bevel; stroke-linecap:butt;
fill:#ff0000;
"/>
<!-- Line -->
<!--  spline  -->
<polyline points="6262,3857
6262,3856
6261,3854
6261,3848
6260,3846
6260,3845
6260,3843
6259,3841
6258,3838
6256,3835
6254,3832
6253,3830
6251,3830
6250,3829
6247,3827
6244,3825
6243,3824
6242,3823
6241,3823
6237,3821
6233,3820
6229,3819
6226,3819
6224,3819
6223,3819
6221,3820
6216,3820
6214,3821
6213,3821
6211,3822
6208,3823
6205,3825
6202,3827
6199,3829
6198,3830
6197,3832
6195,3835
6193,3838
6192,3839
6191,3840
6191,3841
6188,3845
6187,3849
6186,3853
6186,3855
6186,3857
6186,3858
6187,3861
6187,3865
6188,3868
6188,3869
6190,3870
6191,3872
6193,3876
6195,3879
6197,3882
6198,3884
6199,3886
6202,3888
6205,3890
6206,3891
6207,3891
6208,3891
6213,3892
6217,3893
6220,3895
6222,3895
6224,3895
6225,3895
6228,3893
6233,3893
6236,3892
6237,3892
6239,3892
6241,3891
6244,3890
6247,3888
6250,3886
6251,3884
6253,3884
6254,3882
6256,3879
6258,3876
6258,3875
6259,3875
6259,3872
6260,3869
6261,3865
6262,3862
6262,3859
6262,3857
" style="stroke:#0000cc;stroke-width:16;
stroke-linejoin:bevel; stroke-linecap:butt;
fill:#0000cc;
"/>
<!-- Line -->
<!--  polyline  -->
<polyline points="5217,5584
6224,3857
" style="stroke:#000000;stroke-width:8;
stroke-linejoin:round; stroke-linecap:butt;
"/>
<!-- Line -->
<!--  spline  -->
<polyline points="4934,6296
4934,6295
4933,6292
4933,6287
4932,6285
4932,6284
4932,6282
4931,6280
4930,6277
4928,6274
4925,6270
4924,6269
4923,6268
4922,6267
4919,6265
4916,6263
4915,6262
4914,6262
4913,6261
4909,6260
4904,6259
4901,6258
4898,6258
4896,6258
4895,6258
4893,6259
4888,6259
4886,6260
4885,6260
4882,6261
4880,6261
4877,6263
4874,6265
4871,6267
4870,6268
4870,6269
4869,6270
4867,6274
4865,6277
4864,6278
4862,6279
4862,6281
4860,6284
4859,6288
4858,6291
4858,6293
4858,6296
4858,6297
4859,6300
4859,6304
4860,6307
4860,6308
4861,6309
4862,6311
4865,6314
4867,6318
4869,6321
4870,6322
4871,6324
4874,6326
4877,6328
4878,6329
4879,6330
4880,6331
4885,6332
4889,6333
4892,6333
4894,6333
4896,6333
4897,6333
4900,6333
4904,6332
4908,6332
4909,6332
4911,6331
4913,6330
4916,6328
4919,6326
4922,6324
4923,6322
4924,6322
4925,6321
4928,6318
4930,6314
4930,6313
4931,6313
4931,6311
4932,6308
4933,6304
4934,6301
4934,6298
4934,6296
" style="stroke:#ff0000;stroke-width:16;
stroke-linejoin:bevel; stroke-linecap:butt;
fill:#ff0000;
"/>
<!-- Line -->
<!--  spline  -->
<polyline points="5822,3660
5822,3659
5821,3656
5821,3652
5820,3649
5820,3648
5819,3647
5819,3645
5817,3641
5815,3638
5813,3635
5812,3634
5811,3634
5809,3632
5806,3630
5803,3628
5802,3627
5801,3626
5799,3626
5796,3624
5792,3623
5788,3622
5786,3622
5784,3622
5783,3622
5781,3623
5776,3623
5774,3624
5773,3624
5771,3625
5769,3626
5766,3628
5762,3630
5759,3632
5757,3634
5755,3635
5753,3638
5751,3641
5750,3643
5750,3645
5749,3648
5748,3652
5746,3655
5746,3658
5746,3660
5746,3661
5748,3664
5748,3669
5749,3671
5749,3672
5749,3673
5750,3675
5751,3678
5753,3681
5755,3685
5757,3686
5757,3687
5759,3688
5762,3691
5765,3693
5767,3694
5770,3695
5773,3696
5777,3697
5780,3698
5782,3698
5784,3698
5785,3698
5787,3697
5793,3697
5795,3696
5796,3696
5798,3695
5800,3695
5803,3693
5806,3691
5809,3688
5811,3687
5812,3686
5813,3685
5815,3681
5817,3678
5818,3677
5818,3676
5819,3675
5820,3672
5821,3668
5822,3665
5822,3662
5822,3660
" style="stroke:#0000cc;stroke-width:16;
stroke-linejoin:bevel; stroke-linecap:butt;
fill:#0000cc;
"/>
<!-- Line -->
<!--  polyline  -->
<polyline points="4896,6296
5784,3660
" style="stroke:#000000;stroke-width:8;
stroke-linejoin:round; stroke-linecap:butt;
"/>
<!-- Line -->
<!--  spline  -->
<polyline points="4784,6901
4784,6900
4783,6897
4783,6893
4782,6890
4782,6889
4781,6888
4781,6886
4779,6882
4776,6879
4773,6876
4772,6875
4771,6875
4770,6873
4767,6871
4764,6869
4763,6868
4763,6867
4761,6867
4758,6865
4753,6864
4750,6862
4747,6862
4745,6862
4744,6862
4742,6864
4737,6864
4734,6865
4733,6865
4731,6866
4729,6867
4726,6869
4723,6871
4721,6873
4720,6875
4720,6876
4718,6879
4716,6882
4714,6883
4713,6883
4713,6886
4711,6889
4710,6893
4709,6896
4709,6899
4709,6901
4709,6902
4710,6904
4710,6910
4711,6912
4711,6913
4712,6915
4713,6917
4716,6920
4718,6923
4720,6927
4720,6928
4720,6929
4721,6930
4723,6932
4726,6934
4727,6935
4728,6935
4729,6936
4733,6937
4738,6938
4741,6939
4743,6939
4745,6939
4746,6939
4749,6938
4753,6938
4756,6937
4758,6937
4759,6936
4761,6936
4764,6934
4767,6932
4770,6930
4771,6929
4772,6928
4773,6927
4776,6923
4779,6920
4780,6919
4780,6918
4781,6916
4782,6913
4783,6909
4784,6906
4784,6903
4784,6901
" style="stroke:#ff0000;stroke-width:16;
stroke-linejoin:bevel; stroke-linecap:butt;
fill:#ff0000;
"/>
<!-- Line -->
<!--  spline  -->
<polyline points="5310,3535
5310,3534
5309,3532
5309,3527
5308,3525
5308,3524
5307,3522
5307,3520
5304,3517
5302,3513
5300,3510
5299,3509
5298,3508
5297,3507
5294,3505
5291,3503
5290,3502
5289,3502
5288,3501
5283,3500
5279,3499
5276,3498
5273,3498
5271,3498
5270,3498
5268,3499
5262,3499
5260,3500
5259,3500
5257,3501
5255,3501
5252,3503
5249,3505
5246,3507
5245,3508
5245,3509
5244,3510
5241,3513
5239,3517
5238,3518
5237,3519
5236,3521
5235,3524
5234,3528
5234,3531
5234,3533
5234,3535
5234,3537
5234,3540
5235,3544
5235,3547
5235,3548
5236,3549
5237,3551
5239,3554
5241,3558
5244,3561
5245,3562
5246,3564
5249,3566
5252,3568
5253,3569
5254,3570
5255,3570
5259,3572
5264,3573
5267,3574
5269,3574
5271,3574
5272,3574
5275,3573
5279,3573
5282,3572
5283,3572
5286,3571
5288,3570
5291,3568
5294,3566
5297,3564
5298,3562
5299,3562
5300,3561
5302,3558
5304,3554
5306,3553
5307,3551
5308,3548
5309,3544
5310,3541
5310,3538
5310,3535
" style="stroke:#0000cc;stroke-width:16;
stroke-linejoin:bevel; stroke-linecap:butt;
fill:#0000cc;
"/>
<!-- Line -->
<!--  polyline  -->
<polyline points="4745,6901
5271,3535
" style="stroke:#000000;stroke-width:8;
stroke-linejoin:round; stroke-linecap:butt;
"/>
<!-- Line -->
<!--  spline  -->
<polyline points="4760,7138
4760,7137
4759,7134
4759,7129
4758,7127
4758,7126
4756,7124
4756,7122
4754,7119
4752,7116
4749,7112
4748,7111
4747,7111
4746,7110
4743,7108
4740,7106
4739,7105
4738,7104
4737,7104
4733,7102
4729,7101
4726,7100
4724,7100
4722,7100
4721,7100
4719,7101
4714,7101
4712,7102
4711,7102
4709,7103
4707,7104
4704,7106
4701,7108
4698,7110
4697,7111
4696,7111
4695,7112
4692,7116
4690,7119
4689,7120
4689,7121
4688,7122
4687,7126
4686,7130
4685,7133
4685,7135
4685,7138
4685,7139
4686,7142
4686,7146
4687,7149
4687,7150
4688,7152
4688,7154
4690,7158
4692,7161
4695,7164
4696,7165
4697,7166
4698,7167
4701,7169
4704,7171
4706,7172
4708,7173
4711,7174
4716,7175
4718,7176
4720,7176
4722,7176
4723,7176
4725,7175
4730,7175
4732,7174
4733,7174
4734,7173
4737,7173
4740,7171
4743,7169
4746,7167
4747,7166
4748,7165
4749,7164
4752,7161
4754,7158
4755,7156
4755,7155
4756,7154
4758,7150
4759,7146
4760,7143
4760,7140
4760,7138
" style="stroke:#ff0000;stroke-width:16;
stroke-linejoin:bevel; stroke-linecap:butt;
fill:#ff0000;
"/>
<!-- Line -->
<!--  spline  -->
<polyline points="4760,3493
4760,3492
4759,3490
4759,3485
4758,3483
4758,3482
4756,3480
4756,3478
4754,3475
4752,3471
4749,3468
4748,3467
4747,3466
4746,3465
4743,3463
4740,3461
4739,3460
4738,3460
4737,3459
4733,3458
4729,3457
4726,3456
4724,3456
4722,3456
4721,3456
4719,3457
4714,3457
4712,3458
4711,3458
4709,3459
4707,3459
4704,3461
4701,3463
4698,3465
4697,3466
4696,3467
4695,3468
4692,3471
4690,3475
4689,3476
4689,3477
4688,3479
4687,3482
4686,3486
4685,3489
4685,3491
4685,3493
4685,3495
4686,3498
4686,3502
4687,3505
4687,3506
4688,3507
4688,3509
4690,3512
4692,3516
4695,3519
4696,3520
4697,3520
4698,3522
4701,3524
4704,3526
4706,3527
4706,3528
4708,3528
4711,3530
4716,3531
4718,3532
4720,3532
4722,3532
4723,3532
4725,3531
4730,3531
4732,3530
4733,3530
4734,3529
4737,3528
4740,3526
4743,3524
4746,3522
4747,3520
4748,3520
4749,3519
4752,3516
4754,3512
4755,3511
4756,3509
4758,3506
4759,3502
4760,3499
4760,3496
4760,3493
" style="stroke:#0000cc;stroke-width:16;
stroke-linejoin:bevel; stroke-linecap:butt;
"/>
<!-- Line -->
<!--  polyline  -->
<polyline points="4722,7138
4722,3493
" style="stroke:#000000;stroke-width:8;
stroke-linejoin:round; stroke-linecap:butt;
"/>
<!-- Circle -->
<circle cx="5989" cy="4775" r="852"
 style="stroke:#ff00ff;stroke-width:16;"/>
</g>
</svg>
