<svg width="3554" height="992" xmlns="http://www.w3.org/2000/svg" xmlns:xlink="http://www.w3.org/1999/xlink" xml:space="preserve" overflow="hidden"><g transform="translate(-584 8)"><path d="M0 0 482.163 391.796" stroke="#FF0000" stroke-width="4.58333" stroke-miterlimit="8" fill="none" fill-rule="evenodd" transform="matrix(1 0 0 -1 717.5 759.296)"/><path d="M1472.31 771.927 1199.5 367.5" stroke="#FF0000" stroke-width="4.58333" stroke-miterlimit="8" fill="none" fill-rule="evenodd"/><path d="M642.877 747.654C640.986 747.654 639.527 747.681 638.5 747.735L638.5 770.552 641.986 770.552C644.687 770.552 646.835 770.167 648.429 769.397 650.023 768.627 651.206 767.404 651.976 765.729 652.746 764.054 653.131 761.798 653.131 758.961 653.131 755.043 652.347 752.179 650.78 750.369 649.213 748.559 646.579 747.654 642.877 747.654ZM621.6 742.912 645.147 742.912C651.982 742.912 657.102 744.135 660.507 746.58 663.911 749.025 665.613 752.787 665.613 757.867 665.613 761.46 664.816 764.581 663.222 767.228 661.628 769.876 659.318 771.882 656.292 773.247 653.266 774.611 649.483 775.293 644.944 775.293 642.323 775.293 640.175 775.239 638.5 775.131L638.5 788.1C638.5 790.18 638.608 791.626 638.824 792.436 639.041 793.247 639.453 793.895 640.06 794.382 640.668 794.868 641.783 795.26 643.404 795.557L643.404 798.232 621.6 798.232 621.6 795.557C623.059 795.179 624.052 794.747 624.579 794.26 625.106 793.774 625.464 793.132 625.653 792.335 625.842 791.538 625.937 790.113 625.937 788.06L625.937 753.125C625.937 751.072 625.849 749.646 625.673 748.849 625.498 748.052 625.14 747.411 624.599 746.924 624.059 746.438 623.059 745.992 621.6 745.587Z" fill="#FF0000" fill-rule="evenodd"/><text fill="#000000" fill-opacity="0" font-family="Arial,Arial_MSFontService,sans-serif" font-size="55.3198" x="621.6" y="791.317">𝐏</text><path d="M680.277 779.393C678.887 779.393 677.725 779.755 676.792 780.48 675.859 781.205 675.119 782.267 674.573 783.667 674.027 785.067 673.64 786.775 673.411 788.79 673.183 790.806 673.069 793.094 673.069 795.656 673.069 798.614 673.213 801.171 673.501 803.325 673.789 805.48 674.235 807.252 674.841 808.642 675.447 810.032 676.206 811.055 677.12 811.71 678.033 812.365 679.125 812.693 680.396 812.693 681.587 812.693 682.63 812.385 683.523 811.769 684.417 811.154 685.157 810.196 685.742 808.895 686.328 807.595 686.77 805.946 687.068 803.951 687.366 801.955 687.515 799.597 687.515 796.877 687.515 793.819 687.351 791.188 687.023 788.984 686.696 786.78 686.234 784.968 685.638 783.548 685.042 782.128 684.293 781.081 683.389 780.406 682.486 779.731 681.448 779.393 680.277 779.393ZM680.396 776.504C682.759 776.504 684.779 776.946 686.457 777.829 688.135 778.713 689.505 779.974 690.568 781.612 691.63 783.25 692.409 785.251 692.906 787.614 693.402 789.977 693.65 792.647 693.65 795.626 693.65 802.238 692.479 807.237 690.136 810.623 687.793 814.008 684.397 815.701 679.949 815.701 675.541 815.701 672.265 814.103 670.12 810.906 667.976 807.709 666.903 802.864 666.903 796.371 666.903 792.975 667.236 790.036 667.901 787.554 668.566 785.072 669.5 783.012 670.701 781.374 671.902 779.736 673.327 778.514 674.975 777.71 676.623 776.906 678.43 776.504 680.396 776.504Z" fill="#FF0000" fill-rule="evenodd"/><text fill="#000000" fill-opacity="0" font-family="Arial,Arial_MSFontService,sans-serif" font-size="39.1973" x="666.903" y="810.801">0</text><path d="M1552.16 747.654C1550.26 747.654 1548.81 747.681 1547.78 747.735L1547.78 770.552 1551.26 770.552C1553.97 770.552 1556.11 770.167 1557.71 769.397 1559.3 768.627 1560.48 767.404 1561.25 765.729 1562.02 764.054 1562.41 761.798 1562.41 758.961 1562.41 755.043 1561.63 752.179 1560.06 750.369 1558.49 748.559 1555.86 747.654 1552.16 747.654ZM1530.88 742.912 1554.43 742.912C1561.26 742.912 1566.38 744.135 1569.79 746.58 1573.19 749.025 1574.89 752.787 1574.89 757.867 1574.89 761.46 1574.09 764.581 1572.5 767.228 1570.91 769.876 1568.6 771.882 1565.57 773.247 1562.54 774.611 1558.76 775.293 1554.22 775.293 1551.6 775.293 1549.45 775.239 1547.78 775.131L1547.78 788.1C1547.78 790.18 1547.89 791.626 1548.1 792.436 1548.32 793.247 1548.73 793.895 1549.34 794.382 1549.95 794.868 1551.06 795.26 1552.68 795.557L1552.68 798.232 1530.88 798.232 1530.88 795.557C1532.34 795.179 1533.33 794.747 1533.86 794.26 1534.38 793.774 1534.74 793.132 1534.93 792.335 1535.12 791.538 1535.22 790.113 1535.22 788.06L1535.22 753.125C1535.22 751.072 1535.13 749.646 1534.95 748.849 1534.78 748.052 1534.42 747.411 1533.88 746.924 1533.34 746.438 1532.34 745.992 1530.88 745.587Z" fill="#FF0000" fill-rule="evenodd"/><text fill="#000000" fill-opacity="0" font-family="Arial,Arial_MSFontService,sans-serif" font-size="55.3198" x="1530.88" y="791.317">𝐏</text><path d="M1589.67 776.504C1591.74 776.504 1593.5 776.737 1594.96 777.204 1596.42 777.67 1597.61 778.301 1598.52 779.095 1599.43 779.889 1600.09 780.843 1600.5 781.955 1600.91 783.067 1601.11 784.268 1601.11 785.559 1601.11 786.333 1601.06 787.053 1600.95 787.718 1600.84 788.383 1600.65 789.038 1600.38 789.684 1600.11 790.329 1599.76 790.979 1599.33 791.635 1598.89 792.29 1598.34 792.985 1597.69 793.72 1597.19 794.355 1596.55 795.09 1595.75 795.924 1594.96 796.758 1594.09 797.651 1593.14 798.604 1592.2 799.558 1591.21 800.55 1590.18 801.583 1589.15 802.615 1588.15 803.638 1587.17 804.651 1586.2 805.664 1585.31 806.646 1584.49 807.6 1583.68 808.553 1583.01 809.426 1582.5 810.221L1593.52 810.221C1594.45 810.221 1595.19 810.186 1595.75 810.116 1596.31 810.047 1596.77 809.893 1597.14 809.655 1597.5 809.416 1597.82 809.054 1598.07 808.568 1598.33 808.081 1598.63 807.411 1598.97 806.557L1601.74 806.557C1601.64 807.967 1601.54 809.387 1601.45 810.816 1601.37 812.246 1601.27 813.666 1601.17 815.076L1575.94 815.076 1575.94 813.527C1576.42 812.455 1576.98 811.397 1577.61 810.355 1578.25 809.312 1578.96 808.255 1579.76 807.183 1580.55 806.11 1581.45 805.003 1582.47 803.862 1583.48 802.72 1584.6 801.533 1585.83 800.302 1587.7 798.436 1589.22 796.842 1590.39 795.522 1591.56 794.201 1592.48 793.025 1593.16 791.992 1593.83 790.96 1594.3 790.006 1594.54 789.133 1594.79 788.259 1594.92 787.326 1594.92 786.333 1594.92 785.32 1594.77 784.387 1594.49 783.533 1594.2 782.679 1593.79 781.955 1593.25 781.359 1592.71 780.763 1592.03 780.297 1591.21 779.959 1590.38 779.621 1589.44 779.453 1588.36 779.453 1586.52 779.453 1584.97 779.954 1583.72 780.957 1582.47 781.959 1581.49 783.414 1580.8 785.32L1576.9 785.32 1576.9 779.512C1579.44 778.46 1581.78 777.695 1583.91 777.219 1586.05 776.742 1587.97 776.504 1589.67 776.504Z" fill="#FF0000" fill-rule="evenodd"/><text fill="#000000" fill-opacity="0" font-family="Arial,Arial_MSFontService,sans-serif" font-size="38.5718" x="1575.94" y="810.254">2</text><path d="M1189.9 406.186C1188.01 406.186 1186.55 406.213 1185.52 406.267L1185.52 429.084 1189.01 429.084C1191.71 429.084 1193.86 428.699 1195.45 427.929 1197.05 427.159 1198.23 425.936 1199 424.261 1199.77 422.586 1200.15 420.33 1200.15 417.493 1200.15 413.575 1199.37 410.711 1197.8 408.901 1196.24 407.091 1193.6 406.186 1189.9 406.186ZM1168.62 401.444 1192.17 401.444C1199.01 401.444 1204.13 402.667 1207.53 405.112 1210.93 407.557 1212.64 411.319 1212.64 416.399 1212.64 419.992 1211.84 423.113 1210.25 425.76 1208.65 428.408 1206.34 430.414 1203.32 431.779 1200.29 433.143 1196.51 433.825 1191.97 433.825 1189.35 433.825 1187.2 433.771 1185.52 433.663L1185.52 446.632C1185.52 448.712 1185.63 450.158 1185.85 450.968 1186.06 451.779 1186.48 452.427 1187.08 452.914 1187.69 453.4 1188.81 453.792 1190.43 454.089L1190.43 456.764 1168.62 456.764 1168.62 454.089C1170.08 453.711 1171.08 453.278 1171.6 452.792 1172.13 452.306 1172.49 451.664 1172.68 450.867 1172.87 450.07 1172.96 448.645 1172.96 446.591L1172.96 411.657C1172.96 409.603 1172.87 408.178 1172.7 407.381 1172.52 406.584 1172.16 405.943 1171.62 405.456 1171.08 404.97 1170.08 404.524 1168.62 404.119Z" fill="#FF0000" fill-rule="evenodd"/><text fill="#000000" fill-opacity="0" font-family="Arial,Arial_MSFontService,sans-serif" font-size="55.3198" x="1168.62" y="449.849">𝐏</text><path d="M1227.84 435.244 1229.66 435.244C1229.62 436.336 1229.59 437.314 1229.57 438.178 1229.55 439.042 1229.53 439.881 1229.52 440.695 1229.51 441.509 1229.51 442.313 1229.51 443.108L1229.51 465.744C1229.51 466.36 1229.53 466.891 1229.57 467.338 1229.61 467.785 1229.67 468.162 1229.76 468.47 1229.85 468.777 1229.97 469.04 1230.12 469.259 1230.27 469.477 1230.44 469.666 1230.64 469.825 1230.88 470.063 1231.2 470.247 1231.59 470.376 1231.99 470.505 1232.5 470.614 1233.11 470.703 1233.73 470.793 1234.47 470.862 1235.33 470.912 1236.2 470.962 1237.23 470.996 1238.44 471.016L1238.44 473.608 1214.82 473.608 1214.82 471.016C1216 470.977 1216.99 470.932 1217.8 470.882 1218.62 470.833 1219.31 470.763 1219.89 470.674 1220.46 470.584 1220.93 470.485 1221.27 470.376 1221.62 470.267 1221.92 470.133 1222.18 469.974 1222.46 469.795 1222.7 469.601 1222.9 469.393 1223.09 469.184 1223.25 468.921 1223.37 468.604 1223.49 468.286 1223.59 467.899 1223.66 467.442 1223.73 466.985 1223.76 466.419 1223.76 465.744L1223.76 444.388C1223.76 443.614 1223.61 443.068 1223.31 442.75 1223.02 442.432 1222.59 442.274 1222.03 442.274 1221.42 442.274 1220.5 442.591 1219.29 443.227 1218.08 443.862 1216.51 444.805 1214.59 446.056 1214.33 445.6 1214.09 445.143 1213.87 444.686 1213.65 444.229 1213.42 443.763 1213.19 443.286 1215.65 441.936 1218.09 440.591 1220.5 439.25 1222.91 437.91 1225.36 436.575 1227.84 435.244Z" fill="#FF0000" fill-rule="evenodd"/><text fill="#000000" fill-opacity="0" font-family="Arial,Arial_MSFontService,sans-serif" font-size="38.3633" x="1213.19" y="468.812">1</text><path d="M697.5 759.5C697.5 749.007 706.23 740.5 717 740.5 727.77 740.5 736.5 749.007 736.5 759.5 736.5 769.993 727.77 778.5 717 778.5 706.23 778.5 697.5 769.993 697.5 759.5Z" stroke="#000000" stroke-width="4.58333" stroke-miterlimit="8" fill-rule="evenodd"/><path d="M1180.5 374C1180.5 363.23 1189.23 354.5 1200 354.5 1210.77 354.5 1219.5 363.23 1219.5 374 1219.5 384.77 1210.77 393.5 1200 393.5 1189.23 393.5 1180.5 384.77 1180.5 374Z" stroke="#000000" stroke-width="4.58333" stroke-miterlimit="8" fill-rule="evenodd"/><path d="M1453.5 768C1453.5 757.23 1462.01 748.5 1472.5 748.5 1482.99 748.5 1491.5 757.23 1491.5 768 1491.5 778.77 1482.99 787.5 1472.5 787.5 1462.01 787.5 1453.5 778.77 1453.5 768Z" stroke="#000000" stroke-width="4.58333" stroke-miterlimit="8" fill-rule="evenodd"/><path d="M736.5 759.5 1453.69 768.11" stroke="#FF0000" stroke-width="4.58333" stroke-miterlimit="8" fill="none" fill-rule="evenodd"/><path d="M2063.37 874.145C2167.67 783.141 2271.98 692.137 2351.96 691.731 2431.95 691.324 2500.34 819.865 2543.26 871.703" stroke="#00B050" stroke-width="13.75" stroke-miterlimit="8" fill="none" fill-rule="evenodd"/><path d="M0 0 323.607 262.957" stroke="#00B050" stroke-width="4.58333" stroke-miterlimit="8" fill="none" fill-rule="evenodd" transform="matrix(1 0 0 -1 2055.5 872.457)"/><path d="M2544.07 858.944 2378.5 613.5" stroke="#00B050" stroke-width="4.58333" stroke-miterlimit="8" fill="none" fill-rule="evenodd"/><path d="M2357.5 620.5C2357.5 610.007 2366.23 601.5 2377 601.5 2387.77 601.5 2396.5 610.007 2396.5 620.5 2396.5 630.993 2387.77 639.5 2377 639.5 2366.23 639.5 2357.5 630.993 2357.5 620.5Z" stroke="#000000" stroke-width="4.58333" stroke-miterlimit="8" fill-rule="evenodd"/><path d="M2037.5 881C2037.5 870.23 2046.01 861.5 2056.5 861.5 2066.99 861.5 2075.5 870.23 2075.5 881 2075.5 891.77 2066.99 900.5 2056.5 900.5 2046.01 900.5 2037.5 891.77 2037.5 881Z" stroke="#000000" stroke-width="4.58333" stroke-miterlimit="8" fill-rule="evenodd"/><path d="M2520.5 864C2520.5 853.231 2529.01 844.5 2539.5 844.5 2549.99 844.5 2558.5 853.231 2558.5 864 2558.5 874.77 2549.99 883.5 2539.5 883.5 2529.01 883.5 2520.5 874.77 2520.5 864Z" stroke="#000000" stroke-width="4.58333" stroke-miterlimit="8" fill-rule="evenodd"/><path d="M1959.22 880.835C1957.33 880.835 1955.87 880.862 1954.84 880.916L1954.84 903.733 1958.33 903.733C1961.03 903.733 1963.18 903.348 1964.77 902.578 1966.37 901.808 1967.55 900.586 1968.32 898.91 1969.09 897.235 1969.47 894.979 1969.47 892.142 1969.47 888.225 1968.69 885.361 1967.12 883.551 1965.56 881.74 1962.92 880.835 1959.22 880.835ZM1937.94 876.094 1961.49 876.094C1968.32 876.094 1973.44 877.316 1976.85 879.761 1980.25 882.206 1981.96 885.969 1981.96 891.048 1981.96 894.642 1981.16 897.762 1979.56 900.41 1977.97 903.058 1975.66 905.064 1972.63 906.428 1969.61 907.793 1965.83 908.475 1961.29 908.475 1958.67 908.475 1956.52 908.421 1954.84 908.313L1954.84 921.282C1954.84 923.362 1954.95 924.807 1955.17 925.618 1955.38 926.429 1955.79 927.077 1956.4 927.563 1957.01 928.05 1958.13 928.441 1959.75 928.739L1959.75 931.413 1937.94 931.413 1937.94 928.739C1939.4 928.36 1940.39 927.928 1940.92 927.442 1941.45 926.955 1941.81 926.314 1942 925.517 1942.18 924.72 1942.28 923.294 1942.28 921.241L1942.28 886.306C1942.28 884.253 1942.19 882.828 1942.02 882.031 1941.84 881.234 1941.48 880.592 1940.94 880.106 1940.4 879.619 1939.4 879.174 1937.94 878.768Z" fill="#00B050" fill-rule="evenodd"/><text fill="#000000" fill-opacity="0" font-family="Arial,Arial_MSFontService,sans-serif" font-size="55.3198" x="1937.94" y="924.498">𝐏</text><path d="M1996.62 914.133C1995.23 914.133 1994.07 914.495 1993.13 915.22 1992.2 915.945 1991.46 917.007 1990.92 918.407 1990.37 919.807 1989.98 921.515 1989.75 923.53 1989.53 925.546 1989.41 927.834 1989.41 930.396 1989.41 933.354 1989.56 935.911 1989.84 938.065 1990.13 940.22 1990.58 941.992 1991.18 943.382 1991.79 944.772 1992.55 945.794 1993.46 946.45 1994.38 947.105 1995.47 947.433 1996.74 947.433 1997.93 947.433 1998.97 947.125 1999.87 946.509 2000.76 945.894 2001.5 944.936 2002.08 943.635 2002.67 942.334 2003.11 940.686 2003.41 938.691 2003.71 936.695 2003.86 934.337 2003.86 931.617 2003.86 928.559 2003.69 925.928 2003.37 923.724 2003.04 921.52 2002.58 919.708 2001.98 918.288 2001.38 916.868 2000.64 915.821 1999.73 915.146 1998.83 914.47 1997.79 914.133 1996.62 914.133ZM1996.74 911.244C1999.1 911.244 2001.12 911.686 2002.8 912.569 2004.48 913.453 2005.85 914.714 2006.91 916.352 2007.97 917.99 2008.75 919.991 2009.25 922.354 2009.74 924.717 2009.99 927.387 2009.99 930.366 2009.99 936.978 2008.82 941.977 2006.48 945.363 2004.13 948.748 2000.74 950.441 1996.29 950.441 1991.88 950.441 1988.61 948.843 1986.46 945.646 1984.32 942.449 1983.25 937.604 1983.25 931.11 1983.25 927.715 1983.58 924.776 1984.24 922.294 1984.91 919.812 1985.84 917.752 1987.04 916.114 1988.24 914.475 1989.67 913.254 1991.32 912.45 1992.97 911.646 1994.77 911.244 1996.74 911.244Z" fill="#00B050" fill-rule="evenodd"/><text fill="#000000" fill-opacity="0" font-family="Arial,Arial_MSFontService,sans-serif" font-size="39.1973" x="1983.25" y="945.541">0</text><path d="M2018.78 868.079 2026.46 868.079 2026.46 870.402 2016.54 894.26 2013.06 893.217ZM1997.78 868.079 2005.46 868.079 2005.46 870.402 1995.54 894.26 1992.06 893.217Z" fill="#00B050" fill-rule="evenodd"/><text fill="#000000" fill-opacity="0" font-family="Arial,Arial_MSFontService,sans-serif" font-size="26.1812" x="1992.06" y="890.987">′′</text><path d="M2425.16 561.09C2423.27 561.09 2421.81 561.117 2420.78 561.171L2420.78 583.988 2424.27 583.988C2426.97 583.988 2429.12 583.603 2430.71 582.833 2432.31 582.063 2433.49 580.84 2434.26 579.165 2435.03 577.49 2435.41 575.234 2435.41 572.397 2435.41 568.479 2434.63 565.616 2433.06 563.805 2431.5 561.995 2428.86 561.09 2425.16 561.09ZM2403.88 556.348 2427.43 556.348C2434.27 556.348 2439.39 557.571 2442.79 560.016 2446.19 562.461 2447.9 566.224 2447.9 571.303 2447.9 574.896 2447.1 578.017 2445.51 580.665 2443.91 583.312 2441.6 585.319 2438.58 586.683 2435.55 588.047 2431.77 588.73 2427.23 588.73 2424.61 588.73 2422.46 588.676 2420.78 588.568L2420.78 601.536C2420.78 603.617 2420.89 605.062 2421.11 605.873 2421.32 606.683 2421.74 607.332 2422.34 607.818 2422.95 608.304 2424.07 608.696 2425.69 608.993L2425.69 611.668 2403.88 611.668 2403.88 608.993C2405.34 608.615 2406.34 608.183 2406.86 607.696 2407.39 607.21 2407.75 606.568 2407.94 605.771 2408.13 604.974 2408.22 603.549 2408.22 601.496L2408.22 566.561C2408.22 564.508 2408.13 563.083 2407.96 562.286 2407.78 561.489 2407.42 560.847 2406.88 560.361 2406.34 559.874 2405.34 559.428 2403.88 559.023Z" fill="#00B050" fill-rule="evenodd"/><text fill="#000000" fill-opacity="0" font-family="Arial,Arial_MSFontService,sans-serif" font-size="55.3198" x="2403.88" y="604.753">𝐏</text><path d="M2463.1 591.615 2464.92 591.615C2464.88 592.707 2464.85 593.685 2464.83 594.549 2464.81 595.413 2464.79 596.252 2464.78 597.066 2464.77 597.88 2464.77 598.684 2464.77 599.479L2464.77 622.115C2464.77 622.731 2464.79 623.262 2464.83 623.709 2464.87 624.156 2464.93 624.533 2465.02 624.841 2465.11 625.148 2465.23 625.411 2465.38 625.63 2465.53 625.848 2465.7 626.037 2465.9 626.196 2466.14 626.434 2466.46 626.618 2466.85 626.747 2467.25 626.876 2467.76 626.985 2468.37 627.075 2468.99 627.164 2469.73 627.233 2470.59 627.283 2471.46 627.333 2472.49 627.367 2473.7 627.387L2473.7 629.979 2450.08 629.979 2450.08 627.387C2451.26 627.348 2452.25 627.303 2453.06 627.253 2453.88 627.204 2454.57 627.134 2455.15 627.045 2455.72 626.955 2456.19 626.856 2456.53 626.747 2456.88 626.638 2457.18 626.504 2457.44 626.345 2457.72 626.166 2457.96 625.972 2458.16 625.764 2458.36 625.555 2458.51 625.292 2458.63 624.975 2458.75 624.657 2458.85 624.27 2458.92 623.813 2458.99 623.356 2459.02 622.79 2459.02 622.115L2459.02 600.759C2459.02 599.985 2458.87 599.439 2458.57 599.121 2458.28 598.803 2457.85 598.645 2457.29 598.645 2456.68 598.645 2455.76 598.962 2454.55 599.598 2453.34 600.233 2451.77 601.176 2449.85 602.427 2449.59 601.971 2449.35 601.514 2449.13 601.057 2448.91 600.6 2448.69 600.134 2448.45 599.657 2450.91 598.307 2453.35 596.962 2455.76 595.621 2458.17 594.281 2460.62 592.946 2463.1 591.615Z" fill="#00B050" fill-rule="evenodd"/><text fill="#000000" fill-opacity="0" font-family="Arial,Arial_MSFontService,sans-serif" font-size="38.3633" x="2448.45" y="625.183">1</text><path d="M2484.72 548.448 2492.4 548.448 2492.4 550.771 2482.48 574.629 2479 573.587ZM2463.72 548.448 2471.4 548.448 2471.4 550.771 2461.48 574.629 2458 573.587Z" fill="#00B050" fill-rule="evenodd"/><text fill="#000000" fill-opacity="0" font-family="Arial,Arial_MSFontService,sans-serif" font-size="26.1812" x="2458" y="571.357">′′</text><path d="M2450.27 890.426C2448.38 890.426 2446.92 890.453 2445.89 890.507L2445.89 913.324 2449.38 913.324C2452.08 913.324 2454.22 912.939 2455.82 912.169 2457.41 911.399 2458.59 910.176 2459.36 908.501 2460.14 906.826 2460.52 904.57 2460.52 901.733 2460.52 897.815 2459.74 894.952 2458.17 893.141 2456.6 891.331 2453.97 890.426 2450.27 890.426ZM2428.99 885.684 2452.54 885.684C2459.37 885.684 2464.49 886.907 2467.9 889.352 2471.3 891.797 2473 895.559 2473 900.639 2473 904.232 2472.21 907.353 2470.61 910.001 2469.02 912.648 2466.71 914.655 2463.68 916.019 2460.66 917.383 2456.87 918.066 2452.33 918.066 2449.71 918.066 2447.56 918.012 2445.89 917.904L2445.89 930.872C2445.89 932.953 2446 934.398 2446.21 935.209 2446.43 936.019 2446.84 936.668 2447.45 937.154 2448.06 937.64 2449.17 938.032 2450.79 938.329L2450.79 941.004 2428.99 941.004 2428.99 938.329C2430.45 937.951 2431.44 937.519 2431.97 937.032 2432.5 936.546 2432.85 935.904 2433.04 935.107 2433.23 934.31 2433.33 932.885 2433.33 930.832L2433.33 895.897C2433.33 893.844 2433.24 892.419 2433.06 891.622 2432.89 890.824 2432.53 890.183 2431.99 889.696 2431.45 889.21 2430.45 888.764 2428.99 888.359Z" fill="#00B050" fill-rule="evenodd"/><text fill="#000000" fill-opacity="0" font-family="Arial,Arial_MSFontService,sans-serif" font-size="55.3198" x="2428.99" y="934.089">𝐏</text><path d="M2487.79 920.834C2489.85 920.834 2491.61 921.068 2493.07 921.534 2494.53 922.001 2495.72 922.631 2496.63 923.426 2497.54 924.22 2498.21 925.173 2498.61 926.285 2499.02 927.397 2499.22 928.598 2499.22 929.889 2499.22 930.664 2499.17 931.383 2499.06 932.049 2498.95 932.714 2498.76 933.369 2498.49 934.014 2498.23 934.66 2497.87 935.31 2497.44 935.965 2497 936.621 2496.45 937.316 2495.8 938.05 2495.3 938.686 2494.66 939.42 2493.86 940.254 2493.07 941.088 2492.2 941.982 2491.26 942.935 2490.31 943.888 2489.32 944.881 2488.29 945.914 2487.26 946.946 2486.26 947.969 2485.28 948.981 2484.31 949.994 2483.42 950.977 2482.6 951.93 2481.79 952.883 2481.12 953.757 2480.61 954.551L2491.63 954.551C2492.56 954.551 2493.31 954.516 2493.86 954.447 2494.42 954.377 2494.88 954.224 2495.25 953.985 2495.61 953.747 2495.93 953.385 2496.18 952.898 2496.44 952.412 2496.74 951.741 2497.08 950.888L2499.85 950.888C2499.75 952.297 2499.65 953.717 2499.57 955.147 2499.48 956.577 2499.38 957.996 2499.28 959.406L2474.05 959.406 2474.05 957.857C2474.53 956.785 2475.09 955.728 2475.72 954.685 2476.36 953.643 2477.07 952.585 2477.87 951.513 2478.66 950.441 2479.56 949.334 2480.58 948.192 2481.59 947.05 2482.71 945.864 2483.94 944.633 2485.81 942.766 2487.33 941.173 2488.5 939.852 2489.67 938.532 2490.6 937.355 2491.27 936.323 2491.95 935.29 2492.41 934.337 2492.66 933.463 2492.9 932.59 2493.03 931.656 2493.03 930.664 2493.03 929.651 2492.88 928.718 2492.6 927.864 2492.31 927.01 2491.9 926.285 2491.36 925.689 2490.82 925.094 2490.14 924.627 2489.32 924.289 2488.5 923.952 2487.55 923.783 2486.47 923.783 2484.63 923.783 2483.08 924.285 2481.83 925.287 2480.58 926.29 2479.6 927.745 2478.91 929.651L2475.01 929.651 2475.01 923.843C2477.55 922.79 2479.89 922.026 2482.02 921.549 2484.16 921.073 2486.08 920.834 2487.79 920.834Z" fill="#00B050" fill-rule="evenodd"/><text fill="#000000" fill-opacity="0" font-family="Arial,Arial_MSFontService,sans-serif" font-size="38.5718" x="2474.05" y="954.585">2</text><path d="M2509.82 877.669 2517.51 877.669 2517.51 879.993 2507.59 903.851 2504.1 902.808ZM2488.82 877.669 2496.51 877.669 2496.51 879.993 2486.59 903.851 2483.1 902.808Z" fill="#00B050" fill-rule="evenodd"/><text fill="#000000" fill-opacity="0" font-family="Arial,Arial_MSFontService,sans-serif" font-size="26.1812" x="2483.1" y="900.578">′′</text><path d="M0 0 444.218 19.25" stroke="#00B050" stroke-width="13.75" stroke-miterlimit="8" fill="none" fill-rule="evenodd" transform="matrix(1 0 0 -1 2076 880.25)"/><path d="M0 0 58.9492 104.898" stroke="#00B050" stroke-width="2.29167" stroke-miterlimit="8" fill="none" fill-rule="evenodd" transform="matrix(-1 0 0 1 2205.95 769)"/><path d="M0 0 95.9162 170.679" stroke="#00B050" stroke-width="2.29167" stroke-miterlimit="8" fill="none" fill-rule="evenodd" transform="matrix(-1 0 0 1 2324.92 699)"/><path d="M0 0 86.8361 154.522" stroke="#00B050" stroke-width="2.29167" stroke-miterlimit="8" fill="none" fill-rule="evenodd" transform="matrix(-1 0 0 1 2395.84 714)"/><path d="M0 0 59.8464 106.495" stroke="#00B050" stroke-width="2.29167" stroke-miterlimit="8" fill="none" fill-rule="evenodd" transform="matrix(-1 0 0 1 2452.85 762)"/><path d="M0 0 645.01 524.123" stroke="#00B050" stroke-width="4.58333" stroke-miterlimit="8" fill="none" fill-rule="evenodd" transform="matrix(1 0 0 -1 3010.5 643.623)"/><path d="M4031.76 679.8 3656.5 123.5" stroke="#00B050" stroke-width="4.58333" stroke-miterlimit="8" fill="none" fill-rule="evenodd"/><path d="M3633.5 128.5C3633.5 118.007 3642.23 109.5 3653 109.5 3663.77 109.5 3672.5 118.007 3672.5 128.5 3672.5 138.993 3663.77 147.5 3653 147.5 3642.23 147.5 3633.5 138.993 3633.5 128.5Z" stroke="#000000" stroke-width="4.58333" stroke-miterlimit="8" fill-rule="evenodd"/><path d="M2954.46 543.425C2952.57 543.425 2951.11 543.452 2950.08 543.506L2950.08 566.323 2953.57 566.323C2956.27 566.323 2958.42 565.938 2960.01 565.168 2961.6 564.398 2962.79 563.175 2963.56 561.5 2964.33 559.825 2964.71 557.569 2964.71 554.732 2964.71 550.814 2963.93 547.95 2962.36 546.14 2960.79 544.33 2958.16 543.425 2954.46 543.425ZM2933.18 538.683 2956.73 538.683C2963.56 538.683 2968.68 539.906 2972.09 542.351 2975.49 544.796 2977.19 548.558 2977.19 553.638 2977.19 557.231 2976.4 560.352 2974.8 562.999 2973.21 565.647 2970.9 567.653 2967.87 569.018 2964.85 570.382 2961.06 571.064 2956.52 571.064 2953.9 571.064 2951.76 571.01 2950.08 570.902L2950.08 583.871C2950.08 585.951 2950.19 587.397 2950.4 588.207 2950.62 589.018 2951.03 589.666 2951.64 590.153 2952.25 590.639 2953.36 591.031 2954.98 591.328L2954.98 594.003 2933.18 594.003 2933.18 591.328C2934.64 590.95 2935.63 590.518 2936.16 590.031 2936.69 589.545 2937.04 588.903 2937.23 588.106 2937.42 587.309 2937.52 585.884 2937.52 583.831L2937.52 548.896C2937.52 546.843 2937.43 545.417 2937.25 544.62 2937.08 543.823 2936.72 543.182 2936.18 542.695 2935.64 542.209 2934.64 541.763 2933.18 541.358Z" fill="#00B050" fill-rule="evenodd"/><text fill="#000000" fill-opacity="0" font-family="Arial,Arial_MSFontService,sans-serif" font-size="55.3198" x="2933.18" y="587.088">𝐏</text><path d="M2991.86 576.722C2990.47 576.722 2989.31 577.085 2988.37 577.81 2987.44 578.534 2986.7 579.597 2986.15 580.997 2985.61 582.396 2985.22 584.104 2984.99 586.12 2984.76 588.135 2984.65 590.424 2984.65 592.985 2984.65 595.944 2984.79 598.5 2985.08 600.655 2985.37 602.809 2985.82 604.581 2986.42 605.971 2987.03 607.361 2987.79 608.384 2988.7 609.039 2989.61 609.695 2990.71 610.022 2991.98 610.022 2993.17 610.022 2994.21 609.714 2995.1 609.099 2996 608.483 2996.74 607.525 2997.32 606.225 2997.91 604.924 2998.35 603.276 2998.65 601.28 2998.95 599.285 2999.09 596.927 2999.09 594.206 2999.09 591.148 2998.93 588.517 2998.6 586.313 2998.28 584.109 2997.81 582.297 2997.22 580.877 2996.62 579.458 2995.87 578.41 2994.97 577.735 2994.07 577.06 2993.03 576.722 2991.86 576.722ZM2991.98 573.833C2994.34 573.833 2996.36 574.275 2998.04 575.159 2999.72 576.042 3001.09 577.303 3002.15 578.941 3003.21 580.58 3003.99 582.58 3004.49 584.943 3004.98 587.306 3005.23 589.977 3005.23 592.955 3005.23 599.568 3004.06 604.567 3001.72 607.952 2999.37 611.338 2995.98 613.03 2991.53 613.03 2987.12 613.03 2983.84 611.432 2981.7 608.235 2979.56 605.038 2978.48 600.193 2978.48 593.7 2978.48 590.304 2978.82 587.366 2979.48 584.883 2980.15 582.401 2981.08 580.341 2982.28 578.703 2983.48 577.065 2984.91 575.844 2986.55 575.039 2988.2 574.235 2990.01 573.833 2991.98 573.833Z" fill="#00B050" fill-rule="evenodd"/><text fill="#000000" fill-opacity="0" font-family="Arial,Arial_MSFontService,sans-serif" font-size="39.1973" x="2978.48" y="608.131">0</text><path d="M2993.01 530.668 3000.7 530.668 3000.7 532.991 2990.78 556.849 2987.29 555.807Z" fill="#00B050" fill-rule="evenodd"/><text fill="#000000" fill-opacity="0" font-family="Arial,Arial_MSFontService,sans-serif" font-size="26.1812" x="2987.29" y="553.577">′</text><path d="M3640.57 34.7311C3638.68 34.7311 3637.22 34.7581 3636.2 34.8121L3636.2 57.629 3639.68 57.629C3642.38 57.629 3644.53 57.244 3646.12 56.474 3647.72 55.704 3648.9 54.4814 3649.67 52.8063 3650.44 51.1311 3650.83 48.8751 3650.83 46.0382 3650.83 42.1205 3650.04 39.2566 3648.48 37.4464 3646.91 35.6362 3644.27 34.7311 3640.57 34.7311ZM3619.3 29.9894 3642.84 29.9894C3649.68 29.9894 3654.8 31.2119 3658.2 33.6571 3661.61 36.1022 3663.31 39.8645 3663.31 44.944 3663.31 48.5374 3662.51 51.658 3660.92 54.3058 3659.32 56.9536 3657.01 58.9597 3653.99 60.3241 3650.96 61.6885 3647.18 62.3707 3642.64 62.3707 3640.02 62.3707 3637.87 62.3167 3636.2 62.2086L3636.2 75.1773C3636.2 77.2578 3636.3 78.7032 3636.52 79.5138 3636.74 80.3243 3637.15 80.9728 3637.76 81.4591 3638.36 81.9454 3639.48 82.3372 3641.1 82.6344L3641.1 85.3092 3619.3 85.3092 3619.3 82.6344C3620.75 82.2561 3621.75 81.8238 3622.27 81.3375 3622.8 80.8512 3623.16 80.2095 3623.35 79.4125 3623.54 78.6154 3623.63 77.1902 3623.63 75.1368L3623.63 40.2023C3623.63 38.1489 3623.54 36.7237 3623.37 35.9266 3623.19 35.1296 3622.83 34.4879 3622.29 34.0016 3621.75 33.5152 3620.75 33.0694 3619.3 32.6642Z" fill="#00B050" fill-rule="evenodd"/><text fill="#000000" fill-opacity="0" font-family="Arial,Arial_MSFontService,sans-serif" font-size="55.3198" x="3619.3" y="78.3942">𝐏</text><path d="M3678.51 65.2563 3680.33 65.2563C3680.29 66.3484 3680.26 67.3264 3680.24 68.1902 3680.22 69.0539 3680.21 69.8929 3680.2 70.707 3680.19 71.5211 3680.18 72.3253 3680.18 73.1196L3680.18 95.7563C3680.18 96.3719 3680.2 96.903 3680.24 97.3498 3680.28 97.7966 3680.34 98.1739 3680.43 98.4817 3680.52 98.7894 3680.64 99.0525 3680.79 99.271 3680.94 99.4894 3681.11 99.678 3681.31 99.8369 3681.55 100.075 3681.87 100.259 3682.27 100.388 3682.66 100.517 3683.17 100.626 3683.78 100.716 3684.4 100.805 3685.14 100.874 3686 100.924 3686.87 100.974 3687.91 101.008 3689.12 101.028L3689.12 103.62 3665.5 103.62 3665.5 101.028C3666.67 100.989 3667.66 100.944 3668.48 100.894 3669.29 100.845 3669.98 100.775 3670.56 100.686 3671.14 100.596 3671.6 100.497 3671.95 100.388 3672.29 100.279 3672.6 100.145 3672.85 99.9858 3673.13 99.8071 3673.37 99.6135 3673.57 99.405 3673.77 99.1965 3673.93 98.9334 3674.04 98.6157 3674.16 98.298 3674.26 97.9108 3674.33 97.4541 3674.4 96.9974 3674.43 96.4314 3674.43 95.7563L3674.43 74.4004C3674.43 73.6259 3674.28 73.0799 3673.99 72.7622 3673.69 72.4445 3673.26 72.2856 3672.7 72.2856 3672.09 72.2856 3671.18 72.6033 3669.96 73.2387 3668.75 73.8742 3667.18 74.8174 3665.26 76.0683 3665 75.6116 3664.76 75.1549 3664.54 74.6982 3664.32 74.2415 3664.1 73.7749 3663.86 73.2983 3666.32 71.9481 3668.76 70.6028 3671.17 69.2624 3673.58 67.9221 3676.03 66.5867 3678.51 65.2563Z" fill="#00B050" fill-rule="evenodd"/><text fill="#000000" fill-opacity="0" font-family="Arial,Arial_MSFontService,sans-serif" font-size="38.3633" x="3663.86" y="98.8242">1</text><path d="M3679.13 22.089 3686.81 22.089 3686.81 24.4122 3676.9 48.2702 3673.41 47.2277Z" fill="#00B050" fill-rule="evenodd"/><text fill="#000000" fill-opacity="0" font-family="Arial,Arial_MSFontService,sans-serif" font-size="26.1812" x="3673.41" y="44.9975">′</text><path d="M4087.61 602.646C4085.72 602.646 4084.26 602.673 4083.24 602.727L4083.24 625.544 4086.72 625.544C4089.43 625.544 4091.57 625.159 4093.17 624.389 4094.76 623.619 4095.94 622.396 4096.71 620.721 4097.48 619.046 4097.87 616.79 4097.87 613.953 4097.87 610.035 4097.08 607.171 4095.52 605.361 4093.95 603.551 4091.32 602.646 4087.61 602.646ZM4066.34 597.904 4089.88 597.904C4096.72 597.904 4101.84 599.127 4105.24 601.572 4108.65 604.017 4110.35 607.779 4110.35 612.859 4110.35 616.452 4109.55 619.573 4107.96 622.22 4106.37 624.868 4104.06 626.874 4101.03 628.239 4098 629.603 4094.22 630.285 4089.68 630.285 4087.06 630.285 4084.91 630.231 4083.24 630.123L4083.24 643.092C4083.24 645.172 4083.35 646.618 4083.56 647.428 4083.78 648.239 4084.19 648.887 4084.8 649.374 4085.41 649.86 4086.52 650.252 4088.14 650.549L4088.14 653.224 4066.34 653.224 4066.34 650.549C4067.8 650.171 4068.79 649.739 4069.32 649.252 4069.84 648.766 4070.2 648.124 4070.39 647.327 4070.58 646.53 4070.67 645.105 4070.67 643.052L4070.67 608.117C4070.67 606.064 4070.59 604.638 4070.41 603.841 4070.24 603.044 4069.88 602.403 4069.34 601.916 4068.8 601.43 4067.8 600.984 4066.34 600.579Z" fill="#00B050" fill-rule="evenodd"/><text fill="#000000" fill-opacity="0" font-family="Arial,Arial_MSFontService,sans-serif" font-size="55.3198" x="4066.34" y="646.309">𝐏</text><path d="M4125.13 633.054C4127.2 633.054 4128.96 633.287 4130.42 633.754 4131.88 634.221 4133.07 634.851 4133.98 635.645 4134.89 636.44 4135.55 637.393 4135.96 638.505 4136.37 639.617 4136.57 640.818 4136.57 642.109 4136.57 642.883 4136.52 643.603 4136.41 644.268 4136.3 644.933 4136.11 645.589 4135.84 646.234 4135.57 646.879 4135.22 647.53 4134.78 648.185 4134.35 648.84 4133.8 649.535 4133.15 650.27 4132.65 650.905 4132 651.64 4131.21 652.474 4130.42 653.308 4129.55 654.202 4128.6 655.155 4127.66 656.108 4126.67 657.101 4125.64 658.133 4124.61 659.166 4123.6 660.188 4122.63 661.201 4121.66 662.214 4120.76 663.197 4119.95 664.15 4119.14 665.103 4118.47 665.977 4117.96 666.771L4128.98 666.771C4129.91 666.771 4130.65 666.736 4131.21 666.667 4131.77 666.597 4132.23 666.443 4132.59 666.205 4132.96 665.967 4133.27 665.604 4133.53 665.118 4133.79 664.631 4134.09 663.961 4134.43 663.107L4137.2 663.107C4137.1 664.517 4137 665.937 4136.91 667.367 4136.82 668.796 4136.73 670.216 4136.63 671.626L4111.4 671.626 4111.4 670.077C4111.88 669.005 4112.44 667.947 4113.07 666.905 4113.71 665.862 4114.42 664.805 4115.21 663.733 4116.01 662.661 4116.91 661.554 4117.93 660.412 4118.94 659.27 4120.06 658.084 4121.29 656.852 4123.16 654.986 4124.68 653.392 4125.85 652.072 4127.02 650.751 4127.94 649.575 4128.62 648.542 4129.29 647.51 4129.75 646.557 4130 645.683 4130.25 644.809 4130.38 643.876 4130.38 642.883 4130.38 641.871 4130.23 640.937 4129.94 640.083 4129.66 639.23 4129.24 638.505 4128.71 637.909 4128.17 637.313 4127.49 636.847 4126.67 636.509 4125.84 636.172 4124.9 636.003 4123.82 636.003 4121.98 636.003 4120.43 636.504 4119.18 637.507 4117.93 638.51 4116.95 639.964 4116.26 641.871L4112.36 641.871 4112.36 636.062C4114.9 635.01 4117.24 634.246 4119.37 633.769 4121.5 633.292 4123.43 633.054 4125.13 633.054Z" fill="#00B050" fill-rule="evenodd"/><text fill="#000000" fill-opacity="0" font-family="Arial,Arial_MSFontService,sans-serif" font-size="38.5718" x="4111.4" y="666.804">2</text><path d="M4126.17 589.889 4133.86 589.889 4133.86 592.212 4123.94 616.07 4120.45 615.028Z" fill="#00B050" fill-rule="evenodd"/><text fill="#000000" fill-opacity="0" font-family="Arial,Arial_MSFontService,sans-serif" font-size="26.1812" x="4120.45" y="612.798">′</text><path d="M3009.03 641.551C3225.78 473.746 3442.53 305.942 3613.57 310.742 3784.61 315.542 3939.88 567.622 4035.29 670.351" stroke="#00B050" stroke-width="13.75" stroke-miterlimit="8" fill="none" fill-rule="evenodd"/><path d="M2989.5 642C2989.5 631.23 2998.23 622.5 3009 622.5 3019.77 622.5 3028.5 631.23 3028.5 642 3028.5 652.769 3019.77 661.5 3009 661.5 2998.23 661.5 2989.5 652.769 2989.5 642Z" stroke="#000000" stroke-width="4.58333" stroke-miterlimit="8" fill-rule="evenodd"/><path d="M4020.5 671.5C4020.5 661.007 4029.01 652.5 4039.5 652.5 4049.99 652.5 4058.5 661.007 4058.5 671.5 4058.5 681.993 4049.99 690.5 4039.5 690.5 4029.01 690.5 4020.5 681.993 4020.5 671.5Z" stroke="#000000" stroke-width="4.58333" stroke-miterlimit="8" fill-rule="evenodd"/><path d="M3215.5 883.5C3215.5 873.007 3224.23 864.5 3235 864.5 3245.77 864.5 3254.5 873.007 3254.5 883.5 3254.5 893.993 3245.77 902.5 3235 902.5 3224.23 902.5 3215.5 893.993 3215.5 883.5Z" stroke="#000000" stroke-width="4.58333" stroke-miterlimit="8" fill-rule="evenodd"/><path d="M3698.5 866.5C3698.5 856.006 3707.23 847.5 3718 847.5 3728.77 847.5 3737.5 856.006 3737.5 866.5 3737.5 876.993 3728.77 885.5 3718 885.5 3707.23 885.5 3698.5 876.993 3698.5 866.5Z" stroke="#000000" stroke-width="4.58333" stroke-miterlimit="8" fill-rule="evenodd"/><path d="M3137.61 883.249C3135.72 883.249 3134.26 883.276 3133.23 883.33L3133.23 906.147 3136.72 906.147C3139.42 906.147 3141.57 905.762 3143.16 904.992 3144.76 904.222 3145.94 903 3146.71 901.324 3147.48 899.649 3147.86 897.393 3147.86 894.556 3147.86 890.639 3147.08 887.775 3145.51 885.965 3143.95 884.154 3141.31 883.249 3137.61 883.249ZM3116.33 878.508 3139.88 878.508C3146.72 878.508 3151.84 879.73 3155.24 882.175 3158.64 884.62 3160.35 888.383 3160.35 893.462 3160.35 897.056 3159.55 900.176 3157.96 902.824 3156.36 905.472 3154.05 907.478 3151.03 908.842 3148 910.207 3144.22 910.889 3139.68 910.889 3137.06 910.889 3134.91 910.835 3133.23 910.727L3133.23 923.696C3133.23 925.776 3133.34 927.221 3133.56 928.032 3133.77 928.843 3134.19 929.491 3134.79 929.977 3135.4 930.464 3136.52 930.855 3138.14 931.153L3138.14 933.827 3116.33 933.827 3116.33 931.153C3117.79 930.774 3118.79 930.342 3119.31 929.856 3119.84 929.369 3120.2 928.728 3120.39 927.931 3120.58 927.134 3120.67 925.708 3120.67 923.655L3120.67 888.72C3120.67 886.667 3120.58 885.242 3120.41 884.445 3120.23 883.648 3119.87 883.006 3119.33 882.52 3118.79 882.033 3117.79 881.588 3116.33 881.182Z" fill="#00B050" fill-rule="evenodd"/><text fill="#000000" fill-opacity="0" font-family="Arial,Arial_MSFontService,sans-serif" font-size="55.3198" x="3116.33" y="926.912">𝐏</text><path d="M3175.01 916.547C3173.62 916.547 3172.46 916.909 3171.53 917.634 3170.59 918.359 3169.85 919.421 3169.31 920.821 3168.76 922.221 3168.37 923.929 3168.15 925.944 3167.92 927.96 3167.8 930.248 3167.8 932.81 3167.8 935.768 3167.95 938.325 3168.23 940.479 3168.52 942.634 3168.97 944.406 3169.57 945.796 3170.18 947.186 3170.94 948.208 3171.85 948.864 3172.77 949.519 3173.86 949.847 3175.13 949.847 3176.32 949.847 3177.36 949.539 3178.26 948.923 3179.15 948.308 3179.89 947.35 3180.48 946.049 3181.06 944.748 3181.5 943.1 3181.8 941.105 3182.1 939.109 3182.25 936.751 3182.25 934.031 3182.25 930.973 3182.08 928.342 3181.76 926.138 3181.43 923.934 3180.97 922.122 3180.37 920.702 3179.78 919.282 3179.03 918.235 3178.12 917.56 3177.22 916.884 3176.18 916.547 3175.01 916.547ZM3175.13 913.658C3177.49 913.658 3179.51 914.1 3181.19 914.983 3182.87 915.867 3184.24 917.128 3185.3 918.766 3186.36 920.404 3187.14 922.405 3187.64 924.768 3188.14 927.131 3188.38 929.801 3188.38 932.78 3188.38 939.392 3187.21 944.391 3184.87 947.777 3182.53 951.162 3179.13 952.855 3174.68 952.855 3170.27 952.855 3167 951.257 3164.85 948.06 3162.71 944.863 3161.64 940.018 3161.64 933.524 3161.64 930.129 3161.97 927.19 3162.64 924.708 3163.3 922.226 3164.23 920.166 3165.43 918.528 3166.64 916.889 3168.06 915.668 3169.71 914.864 3171.36 914.06 3173.16 913.658 3175.13 913.658Z" fill="#00B050" fill-rule="evenodd"/><text fill="#000000" fill-opacity="0" font-family="Arial,Arial_MSFontService,sans-serif" font-size="39.1973" x="3161.64" y="947.955">0</text><path d="M3197.17 870.493 3204.85 870.493 3204.85 872.816 3194.93 896.674 3191.45 895.631ZM3176.17 870.493 3183.85 870.493 3183.85 872.816 3173.93 896.674 3170.45 895.631Z" fill="#00B050" fill-rule="evenodd"/><text fill="#000000" fill-opacity="0" font-family="Arial,Arial_MSFontService,sans-serif" font-size="26.1812" x="3170.45" y="893.401">′′</text><path d="M3635.45 893.429C3633.56 893.429 3632.1 893.456 3631.08 893.51L3631.08 916.327 3634.56 916.327C3637.26 916.327 3639.41 915.942 3641.01 915.172 3642.6 914.402 3643.78 913.179 3644.55 911.504 3645.32 909.829 3645.71 907.573 3645.71 904.736 3645.71 900.818 3644.92 897.955 3643.36 896.144 3641.79 894.334 3639.16 893.429 3635.45 893.429ZM3614.18 888.687 3637.72 888.687C3644.56 888.687 3649.68 889.91 3653.08 892.355 3656.49 894.8 3658.19 898.562 3658.19 903.642 3658.19 907.235 3657.39 910.356 3655.8 913.004 3654.2 915.651 3651.89 917.658 3648.87 919.022 3645.84 920.386 3642.06 921.069 3637.52 921.069 3634.9 921.069 3632.75 921.015 3631.08 920.906L3631.08 933.875C3631.08 935.956 3631.19 937.401 3631.4 938.212 3631.62 939.022 3632.03 939.671 3632.64 940.157 3633.25 940.643 3634.36 941.035 3635.98 941.332L3635.98 944.007 3614.18 944.007 3614.18 941.332C3615.64 940.954 3616.63 940.522 3617.16 940.035 3617.68 939.549 3618.04 938.907 3618.23 938.11 3618.42 937.313 3618.51 935.888 3618.51 933.835L3618.51 898.9C3618.51 896.847 3618.43 895.422 3618.25 894.625 3618.07 893.827 3617.72 893.186 3617.18 892.699 3616.64 892.213 3615.64 891.767 3614.18 891.362Z" fill="#00B050" fill-rule="evenodd"/><text fill="#000000" fill-opacity="0" font-family="Arial,Arial_MSFontService,sans-serif" font-size="55.3198" x="3614.18" y="937.092">𝐏</text><path d="M3672.97 923.837C3675.04 923.837 3676.8 924.071 3678.26 924.537 3679.72 925.004 3680.91 925.634 3681.82 926.429 3682.73 927.223 3683.39 928.176 3683.8 929.288 3684.21 930.4 3684.41 931.601 3684.41 932.892 3684.41 933.667 3684.36 934.386 3684.25 935.052 3684.14 935.717 3683.95 936.372 3683.68 937.017 3683.41 937.663 3683.06 938.313 3682.62 938.968 3682.19 939.624 3681.64 940.319 3680.99 941.053 3680.49 941.689 3679.84 942.423 3679.05 943.257 3678.25 944.091 3677.39 944.985 3676.44 945.938 3675.5 946.891 3674.51 947.884 3673.48 948.917 3672.45 949.949 3671.44 950.972 3670.47 951.984 3669.5 952.997 3668.6 953.98 3667.79 954.933 3666.98 955.886 3666.31 956.76 3665.79 957.554L3676.82 957.554C3677.75 957.554 3678.49 957.519 3679.05 957.45 3679.6 957.38 3680.07 957.227 3680.43 956.988 3680.8 956.75 3681.11 956.388 3681.37 955.901 3681.63 955.415 3681.93 954.744 3682.27 953.891L3685.04 953.891C3684.94 955.3 3684.84 956.72 3684.75 958.15 3684.66 959.58 3684.57 960.999 3684.47 962.409L3659.24 962.409 3659.24 960.86C3659.72 959.788 3660.27 958.731 3660.91 957.688 3661.55 956.646 3662.26 955.588 3663.05 954.516 3663.85 953.444 3664.75 952.337 3665.76 951.195 3666.78 950.053 3667.9 948.867 3669.13 947.636 3671 945.769 3672.52 944.176 3673.69 942.855 3674.86 941.535 3675.78 940.358 3676.46 939.326 3677.13 938.293 3677.59 937.34 3677.84 936.466 3678.09 935.593 3678.22 934.659 3678.22 933.667 3678.22 932.654 3678.07 931.721 3677.78 930.867 3677.5 930.013 3677.08 929.288 3676.55 928.692 3676.01 928.097 3675.33 927.63 3674.51 927.292 3673.68 926.955 3672.73 926.786 3671.66 926.786 3669.82 926.786 3668.27 927.288 3667.02 928.29 3665.76 929.293 3664.79 930.748 3664.1 932.654L3660.2 932.654 3660.2 926.846C3662.74 925.793 3665.07 925.029 3667.21 924.552 3669.34 924.076 3671.27 923.837 3672.97 923.837Z" fill="#00B050" fill-rule="evenodd"/><text fill="#000000" fill-opacity="0" font-family="Arial,Arial_MSFontService,sans-serif" font-size="38.5718" x="3659.24" y="957.588">2</text><path d="M3695.01 880.672 3702.7 880.672 3702.7 882.996 3692.78 906.854 3689.29 905.811ZM3674.01 880.672 3681.7 880.672 3681.7 882.996 3671.78 906.854 3668.29 905.811Z" fill="#00B050" fill-rule="evenodd"/><text fill="#000000" fill-opacity="0" font-family="Arial,Arial_MSFontService,sans-serif" font-size="26.1812" x="3668.29" y="903.581">′′</text><path d="M0 0 444.218 19.25" stroke="#00B050" stroke-width="13.75" stroke-miterlimit="8" fill="none" fill-rule="evenodd" transform="matrix(1 0 0 -1 3254 883.25)"/><path d="M3215.13 874.78 3022 655" stroke="#00B050" stroke-width="13.75" stroke-miterlimit="8" fill="none" fill-rule="evenodd"/><path d="M0 0 289.07 181.108" stroke="#00B050" stroke-width="13.75" stroke-miterlimit="8" fill="none" fill-rule="evenodd" transform="matrix(1 0 0 -1 3731 852.108)"/><path d="M0 0 777.195 205.743" stroke="#00B050" stroke-width="13.75" stroke-miterlimit="8" fill="none" fill-rule="evenodd" transform="matrix(1 0 0 -1 3243 876.743)"/><path d="M3018 643 4020.18 671.57" stroke="#00B050" stroke-width="13.75" stroke-miterlimit="8" fill="none" fill-rule="evenodd"/><path d="M0 0 192.224 342.055" stroke="#00B050" stroke-width="2.29167" stroke-miterlimit="8" fill="none" fill-rule="evenodd" transform="matrix(-1 0 0 1 3310.22 427)"/><path d="M0 0 257.276 457.814" stroke="#00B050" stroke-width="2.29167" stroke-miterlimit="8" fill="none" fill-rule="evenodd" transform="matrix(-1 0 0 1 3426.28 363)"/><path d="M0 0 308.765 549.436" stroke="#00B050" stroke-width="2.29167" stroke-miterlimit="8" fill="none" fill-rule="evenodd" transform="matrix(-1 0 0 1 3536.76 308)"/><path d="M0 0 310.983 563.56" stroke="#00B050" stroke-width="2.29167" stroke-miterlimit="8" fill="none" fill-rule="evenodd" transform="matrix(-1 0 0 1 3613.98 311)"/><path d="M0 0 305.434 543.508" stroke="#00B050" stroke-width="2.29167" stroke-miterlimit="8" fill="none" fill-rule="evenodd" transform="matrix(-1 0 0 1 3690.43 337)"/><path d="M0 0 279.965 498.187" stroke="#00B050" stroke-width="2.29167" stroke-miterlimit="8" fill="none" fill-rule="evenodd" transform="matrix(-1 0 0 1 3748.96 375)"/><path d="M0 0 249.63 444.208" stroke="#00B050" stroke-width="2.29167" stroke-miterlimit="8" fill="none" fill-rule="evenodd" transform="matrix(-1 0 0 1 3803.63 419)"/><path d="M0 0 224.669 399.79" stroke="#00B050" stroke-width="2.29167" stroke-miterlimit="8" fill="none" fill-rule="evenodd" transform="matrix(-1 0 0 1 3862.67 463)"/><path d="M0 0 117.398 208.905" stroke="#00B050" stroke-width="2.29167" stroke-miterlimit="8" fill="none" fill-rule="evenodd" transform="matrix(-1 0 0 1 3197.4 503)"/><path d="M0 0 177.682 316.18" stroke="#00B050" stroke-width="2.29167" stroke-miterlimit="8" fill="none" fill-rule="evenodd" transform="matrix(-1 0 0 1 3903.68 529)"/><path d="M0 0 110.575 196.764" stroke="#00B050" stroke-width="2.29167" stroke-miterlimit="8" fill="none" fill-rule="evenodd" transform="matrix(-1 0 0 1 3950.57 583)"/><path d="M1638.5 588.25 1893 588.25 1893 560.5 1948.5 616 1893 671.5 1893 643.75 1638.5 643.75Z" stroke="#000000" stroke-width="4.58333" stroke-miterlimit="8" fill-rule="evenodd"/><path d="M2681.5 631.987 2752.99 631.987 2752.99 560.5 2787.01 560.5 2787.01 631.987 2858.5 631.987 2858.5 666.013 2787.01 666.013 2787.01 737.5 2752.99 737.5 2752.99 666.013 2681.5 666.013Z" stroke="#172C51" stroke-width="4.58333" stroke-miterlimit="8" fill-rule="evenodd"/></g></svg>