<svg width="4081" height="992" xmlns="http://www.w3.org/2000/svg" xmlns:xlink="http://www.w3.org/1999/xlink" xml:space="preserve" overflow="hidden"><g transform="translate(-143 -77)"><path d="M1413.36 581.242 1545.64 581.242 1545.64 605.547 1413.36 605.547ZM1413.36 647.453 1545.64 647.453 1545.64 671.759 1413.36 671.759Z" stroke="#172C51" stroke-width="4.58333" stroke-miterlimit="8" fill-rule="evenodd"/><path d="M0 0 289.07 181.108" stroke="#00B050" stroke-width="13.75" stroke-miterlimit="8" fill="none" fill-rule="evenodd" transform="matrix(1 0 0 -1 985 929.108)"/><path d="M472.905 943.833 270 728" stroke="#00B050" stroke-width="13.75" stroke-miterlimit="8" fill="none" fill-rule="evenodd"/><path d="M489.136 949.377C593.444 858.373 697.752 767.369 777.734 766.963 857.717 766.556 926.115 895.097 969.033 946.935" stroke="#00B050" stroke-width="13.75" stroke-miterlimit="8" fill="none" fill-rule="evenodd"/><path d="M201.836 616.243C199.945 616.243 198.486 616.27 197.459 616.324L197.459 639.141 200.945 639.141C203.647 639.141 205.795 638.756 207.389 637.986 208.983 637.216 210.165 635.993 210.935 634.318 211.705 632.643 212.09 630.387 212.09 627.55 212.09 623.632 211.306 620.768 209.739 618.958 208.172 617.148 205.538 616.243 201.836 616.243ZM180.56 611.501 204.106 611.501C210.941 611.501 216.061 612.724 219.466 615.169 222.87 617.614 224.572 621.376 224.572 626.456 224.572 630.049 223.775 633.17 222.181 635.817 220.587 638.465 218.277 640.471 215.251 641.836 212.225 643.2 208.442 643.882 203.903 643.882 201.282 643.882 199.135 643.828 197.459 643.72L197.459 656.689C197.459 658.769 197.567 660.215 197.784 661.025 198 661.836 198.412 662.484 199.02 662.971 199.628 663.457 200.742 663.849 202.363 664.146L202.363 666.821 180.56 666.821 180.56 664.146C182.018 663.768 183.011 663.335 183.538 662.849 184.065 662.363 184.423 661.721 184.612 660.924 184.801 660.127 184.896 658.702 184.896 656.648L184.896 621.714C184.896 619.66 184.808 618.235 184.633 617.438 184.457 616.641 184.099 616 183.559 615.513 183.018 615.027 182.018 614.581 180.56 614.176Z" fill="#00B050" fill-rule="evenodd"/><text fill="#000000" fill-opacity="0" font-family="Arial,Arial_MSFontService,sans-serif" font-size="55.3198" x="180.56" y="659.906">𝐏</text><path d="M239.236 649.54C237.846 649.54 236.684 649.903 235.751 650.627 234.818 651.352 234.078 652.415 233.532 653.814 232.986 655.214 232.599 656.922 232.371 658.938 232.142 660.953 232.028 663.241 232.028 665.803 232.028 668.762 232.172 671.318 232.46 673.473 232.748 675.627 233.195 677.399 233.8 678.789 234.406 680.179 235.165 681.202 236.079 681.857 236.992 682.512 238.084 682.84 239.355 682.84 240.547 682.84 241.589 682.532 242.483 681.917 243.376 681.301 244.116 680.343 244.702 679.042 245.287 677.742 245.729 676.094 246.027 674.098 246.325 672.103 246.474 669.745 246.474 667.024 246.474 663.966 246.31 661.335 245.982 659.131 245.655 656.927 245.193 655.115 244.597 653.695 244.002 652.276 243.252 651.228 242.349 650.553 241.445 649.878 240.408 649.54 239.236 649.54ZM239.355 646.651C241.718 646.651 243.739 647.093 245.417 647.977 247.094 648.86 248.465 650.121 249.527 651.759 250.589 653.397 251.369 655.398 251.865 657.761 252.361 660.124 252.61 662.795 252.61 665.773 252.61 672.385 251.438 677.384 249.095 680.77 246.752 684.156 243.356 685.848 238.908 685.848 234.5 685.848 231.224 684.25 229.079 681.053 226.935 677.856 225.863 673.011 225.863 666.518 225.863 663.122 226.195 660.184 226.86 657.701 227.526 655.219 228.459 653.159 229.66 651.521 230.861 649.883 232.286 648.662 233.934 647.857 235.582 647.053 237.389 646.651 239.355 646.651Z" fill="#00B050" fill-rule="evenodd"/><text fill="#000000" fill-opacity="0" font-family="Arial,Arial_MSFontService,sans-serif" font-size="39.1973" x="225.863" y="680.949">0</text><path d="M240.393 603.486 248.077 603.486 248.077 605.809 238.159 629.667 234.674 628.625Z" fill="#00B050" fill-rule="evenodd"/><text fill="#000000" fill-opacity="0" font-family="Arial,Arial_MSFontService,sans-serif" font-size="26.1812" x="234.674" y="626.395">′</text><path d="M1334.99 675.464C1333.1 675.464 1331.64 675.491 1330.62 675.545L1330.62 698.362 1334.1 698.362C1336.8 698.362 1338.95 697.977 1340.55 697.207 1342.14 696.437 1343.32 695.214 1344.09 693.539 1344.86 691.864 1345.25 689.608 1345.25 686.771 1345.25 682.853 1344.46 679.989 1342.9 678.179 1341.33 676.369 1338.7 675.464 1334.99 675.464ZM1313.72 670.722 1337.26 670.722C1344.1 670.722 1349.22 671.945 1352.62 674.39 1356.03 676.835 1357.73 680.597 1357.73 685.677 1357.73 689.27 1356.93 692.391 1355.34 695.038 1353.74 697.686 1351.43 699.692 1348.41 701.057 1345.38 702.421 1341.6 703.103 1337.06 703.103 1334.44 703.103 1332.29 703.049 1330.62 702.941L1330.62 715.91C1330.62 717.99 1330.73 719.436 1330.94 720.246 1331.16 721.057 1331.57 721.705 1332.18 722.192 1332.79 722.678 1333.9 723.07 1335.52 723.367L1335.52 726.042 1313.72 726.042 1313.72 723.367C1315.18 722.989 1316.17 722.556 1316.7 722.07 1317.22 721.584 1317.58 720.942 1317.77 720.145 1317.96 719.348 1318.05 717.923 1318.05 715.869L1318.05 680.935C1318.05 678.881 1317.97 677.456 1317.79 676.659 1317.61 675.862 1317.26 675.221 1316.72 674.734 1316.18 674.248 1315.18 673.802 1313.72 673.397Z" fill="#00B050" fill-rule="evenodd"/><text fill="#000000" fill-opacity="0" font-family="Arial,Arial_MSFontService,sans-serif" font-size="55.3198" x="1313.72" y="719.127">𝐏</text><path d="M1372.51 705.872C1374.58 705.872 1376.34 706.105 1377.8 706.572 1379.26 707.039 1380.45 707.669 1381.36 708.463 1382.27 709.258 1382.93 710.211 1383.34 711.323 1383.75 712.435 1383.95 713.636 1383.95 714.927 1383.95 715.701 1383.9 716.421 1383.79 717.086 1383.68 717.751 1383.49 718.407 1383.22 719.052 1382.95 719.697 1382.6 720.348 1382.16 721.003 1381.73 721.658 1381.18 722.353 1380.53 723.088 1380.03 723.723 1379.38 724.458 1378.59 725.292 1377.79 726.126 1376.93 727.02 1375.98 727.973 1375.04 728.926 1374.05 729.919 1373.02 730.951 1371.99 731.984 1370.98 733.006 1370.01 734.019 1369.04 735.032 1368.14 736.015 1367.33 736.968 1366.52 737.921 1365.85 738.795 1365.33 739.589L1376.36 739.589C1377.29 739.589 1378.03 739.554 1378.59 739.485 1379.15 739.415 1379.61 739.261 1379.97 739.023 1380.34 738.785 1380.65 738.422 1380.91 737.936 1381.17 737.449 1381.47 736.779 1381.81 735.925L1384.58 735.925C1384.48 737.335 1384.38 738.755 1384.29 740.185 1384.2 741.614 1384.11 743.034 1384.01 744.444L1358.78 744.444 1358.78 742.895C1359.26 741.823 1359.81 740.765 1360.45 739.723 1361.09 738.68 1361.8 737.623 1362.59 736.551 1363.39 735.479 1364.29 734.372 1365.3 733.23 1366.32 732.088 1367.44 730.902 1368.67 729.67 1370.54 727.804 1372.06 726.21 1373.23 724.89 1374.4 723.569 1375.32 722.393 1376 721.36 1376.67 720.328 1377.13 719.375 1377.38 718.501 1377.63 717.627 1377.76 716.694 1377.76 715.701 1377.76 714.689 1377.61 713.755 1377.32 712.901 1377.04 712.048 1376.62 711.323 1376.09 710.727 1375.55 710.131 1374.87 709.665 1374.05 709.327 1373.22 708.99 1372.27 708.821 1371.2 708.821 1369.36 708.821 1367.81 709.322 1366.56 710.325 1365.3 711.328 1364.33 712.782 1363.64 714.689L1359.73 714.689 1359.73 708.88C1362.28 707.828 1364.61 707.064 1366.75 706.587 1368.88 706.11 1370.81 705.872 1372.51 705.872Z" fill="#00B050" fill-rule="evenodd"/><text fill="#000000" fill-opacity="0" font-family="Arial,Arial_MSFontService,sans-serif" font-size="38.5718" x="1358.78" y="739.622">2</text><path d="M1373.55 662.707 1381.23 662.707 1381.23 665.03 1371.32 688.888 1367.83 687.846Z" fill="#00B050" fill-rule="evenodd"/><text fill="#000000" fill-opacity="0" font-family="Arial,Arial_MSFontService,sans-serif" font-size="26.1812" x="1367.83" y="685.616">′</text><path d="M256.413 714.369C473.159 546.564 689.905 378.76 860.948 383.56 1031.99 388.36 1187.25 640.44 1282.67 743.169" stroke="#00B050" stroke-width="13.75" stroke-miterlimit="8" fill="none" fill-rule="evenodd"/><path d="M237.5 715C237.5 704.23 246.007 695.5 256.5 695.5 266.993 695.5 275.5 704.23 275.5 715 275.5 725.77 266.993 734.5 256.5 734.5 246.007 734.5 237.5 725.77 237.5 715Z" stroke="#000000" stroke-width="4.58333" stroke-miterlimit="8" fill-rule="evenodd"/><path d="M945.5 939.5C945.5 929.007 954.231 920.5 965 920.5 975.77 920.5 984.5 929.007 984.5 939.5 984.5 949.993 975.77 958.5 965 958.5 954.231 958.5 945.5 949.993 945.5 939.5Z" stroke="#000000" stroke-width="4.58333" stroke-miterlimit="8" fill-rule="evenodd"/><path d="M384.99 956.067C383.099 956.067 381.64 956.094 380.613 956.148L380.613 978.965 384.099 978.965C386.801 978.965 388.948 978.58 390.543 977.81 392.137 977.04 393.319 975.818 394.089 974.142 394.859 972.467 395.244 970.211 395.244 967.374 395.244 963.457 394.46 960.593 392.893 958.783 391.326 956.972 388.692 956.067 384.99 956.067ZM363.713 951.326 387.26 951.326C394.095 951.326 399.215 952.548 402.62 954.993 406.024 957.438 407.726 961.201 407.726 966.28 407.726 969.874 406.929 972.994 405.335 975.642 403.741 978.29 401.431 980.296 398.405 981.66 395.379 983.025 391.596 983.707 387.057 983.707 384.436 983.707 382.289 983.653 380.613 983.545L380.613 996.514C380.613 998.594 380.721 1000.04 380.938 1000.85 381.154 1001.66 381.566 1002.31 382.174 1002.8 382.782 1003.28 383.896 1003.67 385.517 1003.97L385.517 1006.65 363.713 1006.65 363.713 1003.97C365.172 1003.59 366.165 1003.16 366.692 1002.67 367.219 1002.19 367.577 1001.55 367.766 1000.75 367.955 999.952 368.05 998.526 368.05 996.473L368.05 961.538C368.05 959.485 367.962 958.06 367.786 957.263 367.611 956.466 367.253 955.824 366.712 955.338 366.172 954.851 365.172 954.406 363.713 954Z" fill="#00B050" fill-rule="evenodd"/><text fill="#000000" fill-opacity="0" font-family="Arial,Arial_MSFontService,sans-serif" font-size="55.3198" x="363.713" y="999.73">𝐏</text><path d="M422.39 989.365C421 989.365 419.838 989.727 418.905 990.452 417.972 991.177 417.232 992.239 416.686 993.639 416.14 995.039 415.753 996.747 415.525 998.762 415.296 1000.78 415.182 1003.07 415.182 1005.63 415.182 1008.59 415.326 1011.14 415.614 1013.3 415.902 1015.45 416.349 1017.22 416.954 1018.61 417.56 1020 418.319 1021.03 419.233 1021.68 420.146 1022.34 421.238 1022.66 422.509 1022.66 423.701 1022.66 424.743 1022.36 425.637 1021.74 426.53 1021.13 427.27 1020.17 427.856 1018.87 428.441 1017.57 428.883 1015.92 429.181 1013.92 429.479 1011.93 429.628 1009.57 429.628 1006.85 429.628 1003.79 429.464 1001.16 429.136 998.956 428.809 996.752 428.347 994.94 427.751 993.52 427.156 992.1 426.406 991.053 425.503 990.378 424.599 989.702 423.562 989.365 422.39 989.365ZM422.509 986.476C424.872 986.476 426.893 986.918 428.57 987.801 430.248 988.685 431.618 989.946 432.681 991.584 433.743 993.222 434.523 995.223 435.019 997.586 435.515 999.949 435.764 1002.62 435.764 1005.6 435.764 1012.21 434.592 1017.21 432.249 1020.59 429.906 1023.98 426.51 1025.67 422.062 1025.67 417.654 1025.67 414.378 1024.07 412.233 1020.88 410.089 1017.68 409.017 1012.84 409.017 1006.34 409.017 1002.95 409.349 1000.01 410.014 997.526 410.68 995.044 411.613 992.984 412.814 991.346 414.015 989.707 415.44 988.486 417.088 987.682 418.736 986.878 420.543 986.476 422.509 986.476Z" fill="#00B050" fill-rule="evenodd"/><text fill="#000000" fill-opacity="0" font-family="Arial,Arial_MSFontService,sans-serif" font-size="39.1973" x="409.017" y="1020.77">0</text><path d="M444.547 943.311 452.231 943.311 452.231 945.634 442.313 969.492 438.828 968.449ZM423.547 943.311 431.231 943.311 431.231 945.634 421.313 969.492 417.828 968.449Z" fill="#00B050" fill-rule="evenodd"/><text fill="#000000" fill-opacity="0" font-family="Arial,Arial_MSFontService,sans-serif" font-size="26.1812" x="417.828" y="966.219">′′</text><path d="M871.519 945.995C869.627 945.995 868.168 946.023 867.142 946.077L867.142 968.893 870.627 968.893C873.329 968.893 875.477 968.508 877.071 967.738 878.665 966.968 879.847 965.746 880.617 964.071 881.387 962.396 881.772 960.14 881.772 957.303 881.772 953.385 880.989 950.521 879.422 948.711 877.854 946.901 875.22 945.995 871.519 945.995ZM850.242 941.254 873.788 941.254C880.624 941.254 885.744 942.476 889.148 944.922 892.552 947.367 894.255 951.129 894.255 956.208 894.255 959.802 893.458 962.922 891.863 965.57 890.269 968.218 887.959 970.224 884.933 971.589 881.907 972.953 878.125 973.635 873.586 973.635 870.965 973.635 868.817 973.581 867.142 973.473L867.142 986.442C867.142 988.522 867.25 989.968 867.466 990.778 867.682 991.589 868.094 992.237 868.702 992.724 869.31 993.21 870.424 993.602 872.046 993.899L872.046 996.574 850.242 996.574 850.242 993.899C851.701 993.521 852.694 993.088 853.221 992.602 853.747 992.116 854.105 991.474 854.295 990.677 854.484 989.88 854.578 988.455 854.578 986.401L854.578 951.467C854.578 949.413 854.49 947.988 854.315 947.191 854.139 946.394 853.781 945.752 853.241 945.266 852.701 944.78 851.701 944.334 850.242 943.929Z" fill="#00B050" fill-rule="evenodd"/><text fill="#000000" fill-opacity="0" font-family="Arial,Arial_MSFontService,sans-serif" font-size="55.3198" x="850.242" y="989.659">𝐏</text><path d="M909.038 976.404C911.103 976.404 912.865 976.637 914.324 977.104 915.784 977.57 916.97 978.201 917.884 978.995 918.797 979.789 919.457 980.743 919.864 981.855 920.271 982.967 920.475 984.168 920.475 985.459 920.475 986.233 920.42 986.953 920.311 987.618 920.202 988.283 920.013 988.939 919.745 989.584 919.477 990.229 919.125 990.88 918.688 991.535 918.251 992.19 917.705 992.885 917.05 993.62 916.553 994.255 915.908 994.99 915.114 995.824 914.319 996.658 913.451 997.551 912.508 998.505 911.564 999.458 910.576 1000.45 909.544 1001.48 908.511 1002.52 907.509 1003.54 906.536 1004.55 905.563 1005.56 904.669 1006.55 903.855 1007.5 903.041 1008.45 902.376 1009.33 901.859 1010.12L912.88 1010.12C913.813 1010.12 914.558 1010.09 915.114 1010.02 915.67 1009.95 916.131 1009.79 916.499 1009.55 916.866 1009.32 917.179 1008.95 917.437 1008.47 917.695 1007.98 917.993 1007.31 918.331 1006.46L921.101 1006.46C921.001 1007.87 920.907 1009.29 920.818 1010.72 920.728 1012.15 920.634 1013.57 920.535 1014.98L895.307 1014.98 895.307 1013.43C895.783 1012.35 896.339 1011.3 896.975 1010.25 897.61 1009.21 898.325 1008.15 899.119 1007.08 899.913 1006.01 900.817 1004.9 901.83 1003.76 902.842 1002.62 903.964 1001.43 905.195 1000.2 907.062 998.336 908.581 996.742 909.752 995.422 910.924 994.101 911.847 992.925 912.522 991.892 913.198 990.86 913.659 989.907 913.907 989.033 914.156 988.159 914.28 987.226 914.28 986.233 914.28 985.22 914.136 984.287 913.848 983.433 913.56 982.579 913.148 981.855 912.612 981.259 912.076 980.663 911.396 980.197 910.571 979.859 909.747 979.521 908.799 979.353 907.727 979.353 905.88 979.353 904.331 979.854 903.081 980.857 901.83 981.86 900.857 983.314 900.162 985.22L896.26 985.22 896.26 979.412C898.801 978.36 901.14 977.595 903.274 977.119 905.409 976.642 907.33 976.404 909.038 976.404Z" fill="#00B050" fill-rule="evenodd"/><text fill="#000000" fill-opacity="0" font-family="Arial,Arial_MSFontService,sans-serif" font-size="38.5718" x="895.307" y="1010.15">2</text><path d="M931.075 933.239 938.76 933.239 938.76 935.562 928.841 959.42 925.356 958.378ZM910.075 933.239 917.76 933.239 917.76 935.562 907.841 959.42 904.356 958.378Z" fill="#00B050" fill-rule="evenodd"/><text fill="#000000" fill-opacity="0" font-family="Arial,Arial_MSFontService,sans-serif" font-size="26.1812" x="904.356" y="956.147">′′</text><path d="M463.5 956.5C463.5 946.007 472.007 937.5 482.5 937.5 492.993 937.5 501.5 946.007 501.5 956.5 501.5 966.993 492.993 975.5 482.5 975.5 472.007 975.5 463.5 966.993 463.5 956.5Z" stroke="#000000" stroke-width="4.58333" stroke-miterlimit="8" fill-rule="evenodd"/><path d="M1267.5 744.5C1267.5 734.007 1276.23 725.5 1287 725.5 1297.77 725.5 1306.5 734.007 1306.5 744.5 1306.5 754.993 1297.77 763.5 1287 763.5 1276.23 763.5 1267.5 754.993 1267.5 744.5Z" stroke="#000000" stroke-width="4.58333" stroke-miterlimit="8" fill-rule="evenodd"/><path d="M0 0 182.431 324.629" stroke="#00B050" stroke-width="2.29167" stroke-miterlimit="8" fill="none" fill-rule="evenodd" transform="matrix(-1 0 0 1 554.431 500)"/><path d="M0 0 248.281 441.807" stroke="#00B050" stroke-width="2.29167" stroke-miterlimit="8" fill="none" fill-rule="evenodd" transform="matrix(-1 0 0 1 670.281 436)"/><path d="M0 0 308.765 549.436" stroke="#00B050" stroke-width="2.29167" stroke-miterlimit="8" fill="none" fill-rule="evenodd" transform="matrix(-1 0 0 1 780.765 381)"/><path d="M0 0 258.895 469.166" stroke="#00B050" stroke-width="2.29167" stroke-miterlimit="8" fill="none" fill-rule="evenodd" transform="matrix(-1 0 0 1 857.895 384)"/><path d="M0 0 205.806 366.225" stroke="#00B050" stroke-width="2.29167" stroke-miterlimit="8" fill="none" fill-rule="evenodd" transform="matrix(-1 0 0 1 934.807 409)"/><path d="M0 0 185.532 330.147" stroke="#00B050" stroke-width="2.29167" stroke-miterlimit="8" fill="none" fill-rule="evenodd" transform="matrix(-1 0 0 1 993.532 448)"/><path d="M0 0 181.545 323.053" stroke="#00B050" stroke-width="2.29167" stroke-miterlimit="8" fill="none" fill-rule="evenodd" transform="matrix(-1 0 0 1 1047.55 492)"/><path d="M0 0 190.897 339.695" stroke="#00B050" stroke-width="2.29167" stroke-miterlimit="8" fill="none" fill-rule="evenodd" transform="matrix(-1 0 0 1 1106.9 536)"/><path d="M0 0 117.398 208.905" stroke="#00B050" stroke-width="2.29167" stroke-miterlimit="8" fill="none" fill-rule="evenodd" transform="matrix(-1 0 0 1 441.398 576)"/><path d="M0 0 182.531 324.807" stroke="#00B050" stroke-width="2.29167" stroke-miterlimit="8" fill="none" fill-rule="evenodd" transform="matrix(-1 0 0 1 1152.53 593)"/><path d="M0 0 118.727 211.27" stroke="#00B050" stroke-width="2.29167" stroke-miterlimit="8" fill="none" fill-rule="evenodd" transform="matrix(-1 0 0 1 1197.73 650)"/><path d="M0 0 645.01 524.123" stroke="#00B050" stroke-width="4.58333" stroke-miterlimit="8" fill="none" fill-rule="evenodd" transform="matrix(1 0 0 -1 1690.5 729.623)"/><path d="M2711.76 764.8 2336.5 208.5" stroke="#00B050" stroke-width="4.58333" stroke-miterlimit="8" fill="none" fill-rule="evenodd"/><path d="M2313.5 214C2313.5 203.23 2322.01 194.5 2332.5 194.5 2342.99 194.5 2351.5 203.23 2351.5 214 2351.5 224.769 2342.99 233.5 2332.5 233.5 2322.01 233.5 2313.5 224.769 2313.5 214Z" stroke="#000000" stroke-width="4.58333" stroke-miterlimit="8" fill-rule="evenodd"/><path d="M1633.88 628.595C1631.99 628.595 1630.53 628.622 1629.51 628.676L1629.51 651.493 1632.99 651.493C1635.69 651.493 1637.84 651.108 1639.44 650.338 1641.03 649.568 1642.21 648.346 1642.98 646.671 1643.75 644.995 1644.14 642.739 1644.14 639.902 1644.14 635.985 1643.35 633.121 1641.79 631.311 1640.22 629.5 1637.58 628.595 1633.88 628.595ZM1612.61 623.854 1636.15 623.854C1642.99 623.854 1648.11 625.076 1651.51 627.521 1654.92 629.966 1656.62 633.729 1656.62 638.808 1656.62 642.402 1655.82 645.522 1654.23 648.17 1652.63 650.818 1650.32 652.824 1647.3 654.188 1644.27 655.553 1640.49 656.235 1635.95 656.235 1633.33 656.235 1631.18 656.181 1629.51 656.073L1629.51 669.042C1629.51 671.122 1629.61 672.568 1629.83 673.378 1630.05 674.189 1630.46 674.837 1631.07 675.323 1631.67 675.81 1632.79 676.201 1634.41 676.499L1634.41 679.173 1612.61 679.173 1612.61 676.499C1614.07 676.12 1615.06 675.688 1615.59 675.202 1616.11 674.715 1616.47 674.074 1616.66 673.277 1616.85 672.48 1616.94 671.055 1616.94 669.001L1616.94 634.067C1616.94 632.013 1616.86 630.588 1616.68 629.791 1616.5 628.994 1616.15 628.352 1615.61 627.866 1615.07 627.38 1614.07 626.934 1612.61 626.528Z" fill="#00B050" fill-rule="evenodd"/><text fill="#000000" fill-opacity="0" font-family="Arial,Arial_MSFontService,sans-serif" font-size="55.3198" x="1612.61" y="672.258">𝐏</text><path d="M1671.28 661.893C1669.89 661.893 1668.73 662.255 1667.8 662.98 1666.86 663.705 1666.13 664.767 1665.58 666.167 1665.03 667.567 1664.65 669.275 1664.42 671.29 1664.19 673.306 1664.07 675.594 1664.07 678.156 1664.07 681.114 1664.22 683.671 1664.51 685.825 1664.79 687.98 1665.24 689.752 1665.85 691.142 1666.45 692.532 1667.21 693.555 1668.13 694.21 1669.04 694.865 1670.13 695.193 1671.4 695.193 1672.59 695.193 1673.64 694.885 1674.53 694.269 1675.42 693.654 1676.16 692.696 1676.75 691.395 1677.33 690.095 1677.78 688.446 1678.07 686.451 1678.37 684.455 1678.52 682.097 1678.52 679.377 1678.52 676.319 1678.36 673.688 1678.03 671.484 1677.7 669.28 1677.24 667.468 1676.64 666.048 1676.05 664.628 1675.3 663.581 1674.4 662.906 1673.49 662.231 1672.45 661.893 1671.28 661.893ZM1671.4 659.004C1673.77 659.004 1675.79 659.446 1677.46 660.329 1679.14 661.213 1680.51 662.474 1681.57 664.112 1682.64 665.75 1683.42 667.751 1683.91 670.114 1684.41 672.477 1684.66 675.147 1684.66 678.126 1684.66 684.738 1683.48 689.737 1681.14 693.123 1678.8 696.508 1675.4 698.201 1670.96 698.201 1666.55 698.201 1663.27 696.603 1661.13 693.406 1658.98 690.209 1657.91 685.364 1657.91 678.87 1657.91 675.475 1658.24 672.536 1658.91 670.054 1659.57 667.572 1660.51 665.512 1661.71 663.874 1662.91 662.235 1664.33 661.014 1665.98 660.21 1667.63 659.406 1669.44 659.004 1671.4 659.004Z" fill="#00B050" fill-rule="evenodd"/><text fill="#000000" fill-opacity="0" font-family="Arial,Arial_MSFontService,sans-serif" font-size="39.1973" x="1657.91" y="693.301">0</text><path d="M1672.44 615.839 1680.12 615.839 1680.12 618.162 1670.21 642.02 1666.72 640.977Z" fill="#00B050" fill-rule="evenodd"/><text fill="#000000" fill-opacity="0" font-family="Arial,Arial_MSFontService,sans-serif" font-size="26.1812" x="1666.72" y="638.747">′</text><path d="M2320 119.902C2318.11 119.902 2316.65 119.929 2315.62 119.983L2315.62 142.8 2319.11 142.8C2321.81 142.8 2323.96 142.415 2325.55 141.645 2327.15 140.875 2328.33 139.652 2329.1 137.977 2329.87 136.302 2330.25 134.046 2330.25 131.209 2330.25 127.291 2329.47 124.427 2327.9 122.617 2326.33 120.807 2323.7 119.902 2320 119.902ZM2298.72 115.16 2322.27 115.16C2329.1 115.16 2334.22 116.383 2337.63 118.828 2341.03 121.273 2342.73 125.035 2342.73 130.115 2342.73 133.708 2341.94 136.829 2340.34 139.476 2338.75 142.124 2336.44 144.13 2333.41 145.495 2330.39 146.859 2326.6 147.541 2322.07 147.541 2319.44 147.541 2317.3 147.487 2315.62 147.379L2315.62 160.348C2315.62 162.428 2315.73 163.874 2315.95 164.684 2316.16 165.495 2316.57 166.143 2317.18 166.63 2317.79 167.116 2318.9 167.508 2320.53 167.805L2320.53 170.48 2298.72 170.48 2298.72 167.805C2300.18 167.427 2301.17 166.994 2301.7 166.508 2302.23 166.022 2302.59 165.38 2302.77 164.583 2302.96 163.786 2303.06 162.361 2303.06 160.307L2303.06 125.373C2303.06 123.319 2302.97 121.894 2302.79 121.097 2302.62 120.3 2302.26 119.658 2301.72 119.172 2301.18 118.686 2300.18 118.24 2298.72 117.835Z" fill="#00B050" fill-rule="evenodd"/><text fill="#000000" fill-opacity="0" font-family="Arial,Arial_MSFontService,sans-serif" font-size="55.3198" x="2298.72" y="163.565">𝐏</text><path d="M2357.94 150.427 2359.76 150.427C2359.72 151.519 2359.69 152.497 2359.67 153.361 2359.65 154.225 2359.63 155.063 2359.62 155.878 2359.61 156.692 2359.61 157.496 2359.61 158.29L2359.61 180.927C2359.61 181.542 2359.63 182.074 2359.67 182.52 2359.71 182.967 2359.77 183.344 2359.86 183.652 2359.95 183.96 2360.07 184.223 2360.22 184.442 2360.37 184.66 2360.54 184.849 2360.74 185.007 2360.98 185.246 2361.29 185.429 2361.69 185.559 2362.09 185.688 2362.6 185.797 2363.21 185.886 2363.83 185.975 2364.57 186.045 2365.43 186.095 2366.29 186.144 2367.33 186.179 2368.54 186.199L2368.54 188.79 2344.92 188.79 2344.92 186.199C2346.09 186.159 2347.09 186.114 2347.9 186.065 2348.72 186.015 2349.41 185.946 2349.99 185.856 2350.56 185.767 2351.02 185.668 2351.37 185.559 2351.72 185.449 2352.02 185.315 2352.28 185.156 2352.56 184.978 2352.8 184.784 2352.99 184.576 2353.19 184.367 2353.35 184.104 2353.47 183.786 2353.59 183.469 2353.68 183.081 2353.75 182.625 2353.82 182.168 2353.86 181.602 2353.86 180.927L2353.86 159.571C2353.86 158.797 2353.71 158.25 2353.41 157.933 2353.11 157.615 2352.69 157.456 2352.13 157.456 2351.52 157.456 2350.6 157.774 2349.39 158.409 2348.18 159.045 2346.61 159.988 2344.68 161.239 2344.43 160.782 2344.19 160.326 2343.97 159.869 2343.75 159.412 2343.52 158.945 2343.28 158.469 2345.75 157.119 2348.18 155.773 2350.6 154.433 2353.01 153.093 2355.46 151.757 2357.94 150.427Z" fill="#00B050" fill-rule="evenodd"/><text fill="#000000" fill-opacity="0" font-family="Arial,Arial_MSFontService,sans-serif" font-size="38.3633" x="2343.28" y="183.995">1</text><path d="M2358.56 107.26 2366.24 107.26 2366.24 109.583 2356.32 133.441 2352.84 132.398Z" fill="#00B050" fill-rule="evenodd"/><text fill="#000000" fill-opacity="0" font-family="Arial,Arial_MSFontService,sans-serif" font-size="26.1812" x="2352.84" y="130.168">′</text><path d="M2767.04 687.816C2765.15 687.816 2763.69 687.843 2762.66 687.897L2762.66 710.714 2766.15 710.714C2768.85 710.714 2771 710.329 2772.59 709.559 2774.19 708.789 2775.37 707.567 2776.14 705.892 2776.91 704.216 2777.29 701.96 2777.29 699.123 2777.29 695.206 2776.51 692.342 2774.94 690.532 2773.38 688.721 2770.74 687.816 2767.04 687.816ZM2745.76 683.075 2769.31 683.075C2776.15 683.075 2781.27 684.297 2784.67 686.742 2788.07 689.188 2789.78 692.95 2789.78 698.029 2789.78 701.623 2788.98 704.743 2787.39 707.391 2785.79 710.039 2783.48 712.045 2780.46 713.409 2777.43 714.774 2773.65 715.456 2769.11 715.456 2766.49 715.456 2764.34 715.402 2762.66 715.294L2762.66 728.263C2762.66 730.343 2762.77 731.789 2762.99 732.599 2763.2 733.41 2763.62 734.058 2764.22 734.544 2764.83 735.031 2765.95 735.422 2767.57 735.72L2767.57 738.394 2745.76 738.394 2745.76 735.72C2747.22 735.341 2748.22 734.909 2748.74 734.423 2749.27 733.936 2749.63 733.295 2749.82 732.498 2750.01 731.701 2750.1 730.276 2750.1 728.222L2750.1 693.288C2750.1 691.234 2750.01 689.809 2749.84 689.012 2749.66 688.215 2749.3 687.573 2748.76 687.087 2748.22 686.601 2747.22 686.155 2745.76 685.749Z" fill="#00B050" fill-rule="evenodd"/><text fill="#000000" fill-opacity="0" font-family="Arial,Arial_MSFontService,sans-serif" font-size="55.3198" x="2745.76" y="731.479">𝐏</text><path d="M2804.56 718.225C2806.62 718.225 2808.39 718.458 2809.85 718.925 2811.31 719.391 2812.49 720.022 2813.41 720.816 2814.32 721.61 2814.98 722.563 2815.39 723.675 2815.79 724.787 2816 725.989 2816 727.279 2816 728.054 2815.94 728.774 2815.83 729.439 2815.72 730.104 2815.54 730.759 2815.27 731.405 2815 732.05 2814.65 732.7 2814.21 733.356 2813.77 734.011 2813.23 734.706 2812.57 735.441 2812.08 736.076 2811.43 736.811 2810.64 737.645 2809.84 738.479 2808.97 739.372 2808.03 740.325 2807.09 741.278 2806.1 742.271 2805.07 743.304 2804.03 744.336 2803.03 745.359 2802.06 746.372 2801.08 747.384 2800.19 748.367 2799.38 749.32 2798.56 750.274 2797.9 751.147 2797.38 751.942L2808.4 751.942C2809.34 751.942 2810.08 751.907 2810.64 751.837 2811.19 751.768 2811.65 751.614 2812.02 751.376 2812.39 751.137 2812.7 750.775 2812.96 750.288 2813.22 749.802 2813.52 749.132 2813.85 748.278L2816.62 748.278C2816.52 749.688 2816.43 751.108 2816.34 752.537 2816.25 753.967 2816.16 755.387 2816.06 756.797L2790.83 756.797 2790.83 755.248C2791.31 754.175 2791.86 753.118 2792.5 752.076 2793.13 751.033 2793.85 749.976 2794.64 748.903 2795.44 747.831 2796.34 746.724 2797.35 745.582 2798.36 744.441 2799.49 743.254 2800.72 742.023 2802.58 740.157 2804.1 738.563 2805.27 737.243 2806.45 735.922 2807.37 734.746 2808.04 733.713 2808.72 732.68 2809.18 731.727 2809.43 730.854 2809.68 729.98 2809.8 729.047 2809.8 728.054 2809.8 727.041 2809.66 726.108 2809.37 725.254 2809.08 724.4 2808.67 723.675 2808.13 723.08 2807.6 722.484 2806.92 722.017 2806.09 721.68 2805.27 721.342 2804.32 721.173 2803.25 721.173 2801.4 721.173 2799.85 721.675 2798.6 722.678 2797.35 723.68 2796.38 725.135 2795.68 727.041L2791.78 727.041 2791.78 721.233C2794.32 720.181 2796.66 719.416 2798.8 718.94 2800.93 718.463 2802.85 718.225 2804.56 718.225Z" fill="#00B050" fill-rule="evenodd"/><text fill="#000000" fill-opacity="0" font-family="Arial,Arial_MSFontService,sans-serif" font-size="38.5718" x="2790.83" y="751.975">2</text><path d="M2805.6 675.06 2813.28 675.06 2813.28 677.383 2803.36 701.241 2799.88 700.198Z" fill="#00B050" fill-rule="evenodd"/><text fill="#000000" fill-opacity="0" font-family="Arial,Arial_MSFontService,sans-serif" font-size="26.1812" x="2799.88" y="697.968">′</text><path d="M1688.46 726.722C1905.21 558.917 2121.95 391.112 2292.99 395.912 2464.04 400.713 2619.3 652.793 2714.72 755.522" stroke="#00B050" stroke-width="13.75" stroke-miterlimit="8" fill="none" fill-rule="evenodd"/><path d="M2699.5 757C2699.5 746.23 2708.23 737.5 2719 737.5 2729.77 737.5 2738.5 746.23 2738.5 757 2738.5 767.77 2729.77 776.5 2719 776.5 2708.23 776.5 2699.5 767.77 2699.5 757Z" stroke="#000000" stroke-width="4.58333" stroke-miterlimit="8" fill-rule="evenodd"/><path d="M1697 728 2699.18 756.57" stroke="#00B050" stroke-width="13.75" stroke-miterlimit="8" fill="none" fill-rule="evenodd"/><path d="M0 0 122.539 218.054" stroke="#00B050" stroke-width="2.29167" stroke-miterlimit="8" fill="none" fill-rule="evenodd" transform="matrix(-1 0 0 1 1990.54 512)"/><path d="M0 0 162.245 288.708" stroke="#00B050" stroke-width="2.29167" stroke-miterlimit="8" fill="none" fill-rule="evenodd" transform="matrix(-1 0 0 1 2106.24 448)"/><path d="M0 0 188.611 335.626" stroke="#00B050" stroke-width="2.29167" stroke-miterlimit="8" fill="none" fill-rule="evenodd" transform="matrix(-1 0 0 1 2216.61 394)"/><path d="M0 0 186.948 338.785" stroke="#00B050" stroke-width="2.29167" stroke-miterlimit="8" fill="none" fill-rule="evenodd" transform="matrix(-1 0 0 1 2292.95 396)"/><path d="M0 0 181.375 322.75" stroke="#00B050" stroke-width="2.29167" stroke-miterlimit="8" fill="none" fill-rule="evenodd" transform="matrix(-1 0 0 1 2369.38 422)"/><path d="M0 0 161.069 286.617" stroke="#00B050" stroke-width="2.29167" stroke-miterlimit="8" fill="none" fill-rule="evenodd" transform="matrix(-1 0 0 1 2431.07 456)"/><path d="M0 0 134.775 239.828" stroke="#00B050" stroke-width="2.29167" stroke-miterlimit="8" fill="none" fill-rule="evenodd" transform="matrix(-1 0 0 1 2485.78 500)"/><path d="M0 0 111.46 198.339" stroke="#00B050" stroke-width="2.29167" stroke-miterlimit="8" fill="none" fill-rule="evenodd" transform="matrix(-1 0 0 1 2542.46 548)"/><path d="M0 0 78.9283 140.45" stroke="#00B050" stroke-width="2.29167" stroke-miterlimit="8" fill="none" fill-rule="evenodd" transform="matrix(-1 0 0 1 1876.93 588)"/><path d="M0 0 80.7731 143.733" stroke="#00B050" stroke-width="2.29167" stroke-miterlimit="8" fill="none" fill-rule="evenodd" transform="matrix(-1 0 0 1 2582.77 614)"/><path d="M0 0 46.4284 82.618" stroke="#00B050" stroke-width="2.29167" stroke-miterlimit="8" fill="none" fill-rule="evenodd" transform="matrix(-1 0 0 1 2629.43 668)"/><path d="M1669.5 727C1669.5 716.23 1678.01 707.5 1688.5 707.5 1698.99 707.5 1707.5 716.23 1707.5 727 1707.5 737.77 1698.99 746.5 1688.5 746.5 1678.01 746.5 1669.5 737.77 1669.5 727Z" stroke="#000000" stroke-width="4.58333" stroke-miterlimit="8" fill-rule="evenodd"/><path d="M3323.44 958.588C3427.75 867.584 3532.06 776.581 3612.04 776.174 3692.02 775.767 3760.42 904.308 3803.34 956.146" stroke="#00B050" stroke-width="13.75" stroke-miterlimit="8" fill="none" fill-rule="evenodd"/><path d="M0 0 444.218 19.25" stroke="#00B050" stroke-width="13.75" stroke-miterlimit="8" fill="none" fill-rule="evenodd" transform="matrix(1 0 0 -1 3340 968.25)"/><path d="M3040.89 628.595C3039 628.595 3037.54 628.622 3036.52 628.676L3036.52 651.493 3040 651.493C3042.71 651.493 3044.85 651.108 3046.45 650.338 3048.04 649.568 3049.22 648.346 3049.99 646.671 3050.76 644.995 3051.15 642.739 3051.15 639.902 3051.15 635.985 3050.36 633.121 3048.8 631.311 3047.23 629.5 3044.6 628.595 3040.89 628.595ZM3019.62 623.854 3043.16 623.854C3050 623.854 3055.12 625.076 3058.52 627.521 3061.93 629.966 3063.63 633.729 3063.63 638.808 3063.63 642.402 3062.83 645.522 3061.24 648.17 3059.65 650.818 3057.34 652.824 3054.31 654.188 3051.28 655.553 3047.5 656.235 3042.96 656.235 3040.34 656.235 3038.19 656.181 3036.52 656.073L3036.52 669.042C3036.52 671.122 3036.63 672.568 3036.84 673.378 3037.06 674.189 3037.47 674.837 3038.08 675.323 3038.69 675.81 3039.8 676.201 3041.42 676.499L3041.42 679.173 3019.62 679.173 3019.62 676.499C3021.08 676.12 3022.07 675.688 3022.6 675.202 3023.12 674.715 3023.48 674.074 3023.67 673.277 3023.86 672.48 3023.95 671.055 3023.95 669.001L3023.95 634.067C3023.95 632.013 3023.87 630.588 3023.69 629.791 3023.52 628.994 3023.16 628.352 3022.62 627.866 3022.08 627.38 3021.08 626.934 3019.62 626.528Z" fill="#00B050" fill-rule="evenodd"/><text fill="#000000" fill-opacity="0" font-family="Arial,Arial_MSFontService,sans-serif" font-size="55.3198" x="3019.62" y="672.258">𝐏</text><path d="M3078.29 661.893C3076.9 661.893 3075.74 662.255 3074.81 662.98 3073.88 663.705 3073.14 664.767 3072.59 666.167 3072.04 667.567 3071.66 669.275 3071.43 671.29 3071.2 673.306 3071.09 675.594 3071.09 678.156 3071.09 681.114 3071.23 683.671 3071.52 685.825 3071.81 687.98 3072.25 689.752 3072.86 691.142 3073.46 692.532 3074.22 693.555 3075.14 694.21 3076.05 694.865 3077.14 695.193 3078.41 695.193 3079.6 695.193 3080.65 694.885 3081.54 694.269 3082.43 693.654 3083.17 692.696 3083.76 691.395 3084.35 690.095 3084.79 688.446 3085.09 686.451 3085.38 684.455 3085.53 682.097 3085.53 679.377 3085.53 676.319 3085.37 673.688 3085.04 671.484 3084.71 669.28 3084.25 667.468 3083.66 666.048 3083.06 664.628 3082.31 663.581 3081.41 662.906 3080.5 662.231 3079.47 661.893 3078.29 661.893ZM3078.41 659.004C3080.78 659.004 3082.8 659.446 3084.47 660.329 3086.15 661.213 3087.52 662.474 3088.59 664.112 3089.65 665.75 3090.43 667.751 3090.92 670.114 3091.42 672.477 3091.67 675.147 3091.67 678.126 3091.67 684.738 3090.5 689.737 3088.15 693.123 3085.81 696.508 3082.41 698.201 3077.97 698.201 3073.56 698.201 3070.28 696.603 3068.14 693.406 3065.99 690.209 3064.92 685.364 3064.92 678.87 3064.92 675.475 3065.25 672.536 3065.92 670.054 3066.58 667.572 3067.52 665.512 3068.72 663.874 3069.92 662.235 3071.34 661.014 3072.99 660.21 3074.64 659.406 3076.45 659.004 3078.41 659.004Z" fill="#00B050" fill-rule="evenodd"/><text fill="#000000" fill-opacity="0" font-family="Arial,Arial_MSFontService,sans-serif" font-size="39.1973" x="3064.92" y="693.301">0</text><path d="M3079.45 615.839 3087.14 615.839 3087.14 618.162 3077.22 642.02 3073.73 640.977Z" fill="#00B050" fill-rule="evenodd"/><text fill="#000000" fill-opacity="0" font-family="Arial,Arial_MSFontService,sans-serif" font-size="26.1812" x="3073.73" y="638.747">′</text><path d="M4174.05 687.816C4172.16 687.816 4170.7 687.843 4169.68 687.897L4169.68 710.714 4173.16 710.714C4175.86 710.714 4178.01 710.329 4179.6 709.559 4181.2 708.789 4182.38 707.567 4183.15 705.892 4183.92 704.216 4184.31 701.96 4184.31 699.123 4184.31 695.206 4183.52 692.342 4181.96 690.532 4180.39 688.721 4177.75 687.816 4174.05 687.816ZM4152.78 683.075 4176.32 683.075C4183.16 683.075 4188.28 684.297 4191.68 686.742 4195.09 689.188 4196.79 692.95 4196.79 698.029 4196.79 701.623 4195.99 704.743 4194.4 707.391 4192.8 710.039 4190.49 712.045 4187.47 713.409 4184.44 714.774 4180.66 715.456 4176.12 715.456 4173.5 715.456 4171.35 715.402 4169.68 715.294L4169.68 728.263C4169.68 730.343 4169.78 731.789 4170 732.599 4170.22 733.41 4170.63 734.058 4171.24 734.544 4171.84 735.031 4172.96 735.422 4174.58 735.72L4174.58 738.394 4152.78 738.394 4152.78 735.72C4154.23 735.341 4155.23 734.909 4155.75 734.423 4156.28 733.936 4156.64 733.295 4156.83 732.498 4157.02 731.701 4157.11 730.276 4157.11 728.222L4157.11 693.288C4157.11 691.234 4157.02 689.809 4156.85 689.012 4156.67 688.215 4156.31 687.573 4155.77 687.087 4155.23 686.601 4154.23 686.155 4152.78 685.749Z" fill="#00B050" fill-rule="evenodd"/><text fill="#000000" fill-opacity="0" font-family="Arial,Arial_MSFontService,sans-serif" font-size="55.3198" x="4152.78" y="731.479">𝐏</text><path d="M4211.57 718.225C4213.64 718.225 4215.4 718.458 4216.86 718.925 4218.32 719.391 4219.5 720.022 4220.42 720.816 4221.33 721.61 4221.99 722.563 4222.4 723.675 4222.81 724.787 4223.01 725.989 4223.01 727.279 4223.01 728.054 4222.95 728.774 4222.84 729.439 4222.74 730.104 4222.55 730.759 4222.28 731.405 4222.01 732.05 4221.66 732.7 4221.22 733.356 4220.78 734.011 4220.24 734.706 4219.58 735.441 4219.09 736.076 4218.44 736.811 4217.65 737.645 4216.85 738.479 4215.98 739.372 4215.04 740.325 4214.1 741.278 4213.11 742.271 4212.08 743.304 4211.04 744.336 4210.04 745.359 4209.07 746.372 4208.1 747.384 4207.2 748.367 4206.39 749.32 4205.57 750.274 4204.91 751.147 4204.39 751.942L4215.41 751.942C4216.35 751.942 4217.09 751.907 4217.65 751.837 4218.2 751.768 4218.67 751.614 4219.03 751.376 4219.4 751.137 4219.71 750.775 4219.97 750.288 4220.23 749.802 4220.53 749.132 4220.86 748.278L4223.63 748.278C4223.54 749.688 4223.44 751.108 4223.35 752.537 4223.26 753.967 4223.17 755.387 4223.07 756.797L4197.84 756.797 4197.84 755.248C4198.32 754.175 4198.87 753.118 4199.51 752.076 4200.14 751.033 4200.86 749.976 4201.65 748.903 4202.45 747.831 4203.35 746.724 4204.36 745.582 4205.38 744.441 4206.5 743.254 4207.73 742.023 4209.6 740.157 4211.11 738.563 4212.29 737.243 4213.46 735.922 4214.38 734.746 4215.06 733.713 4215.73 732.68 4216.19 731.727 4216.44 730.854 4216.69 729.98 4216.81 729.047 4216.81 728.054 4216.81 727.041 4216.67 726.108 4216.38 725.254 4216.09 724.4 4215.68 723.675 4215.15 723.08 4214.61 722.484 4213.93 722.017 4213.1 721.68 4212.28 721.342 4211.33 721.173 4210.26 721.173 4208.41 721.173 4206.87 721.675 4205.61 722.678 4204.36 723.68 4203.39 725.135 4202.7 727.041L4198.79 727.041 4198.79 721.233C4201.33 720.181 4203.67 719.416 4205.81 718.94 4207.94 718.463 4209.86 718.225 4211.57 718.225Z" fill="#00B050" fill-rule="evenodd"/><text fill="#000000" fill-opacity="0" font-family="Arial,Arial_MSFontService,sans-serif" font-size="38.5718" x="4197.84" y="751.975">2</text><path d="M4212.61 675.06 4220.29 675.06 4220.29 677.383 4210.38 701.241 4206.89 700.198Z" fill="#00B050" fill-rule="evenodd"/><text fill="#000000" fill-opacity="0" font-family="Arial,Arial_MSFontService,sans-serif" font-size="26.1812" x="4206.89" y="697.968">′</text><path d="M3784.5 951.5C3784.5 941.007 3793.23 932.5 3804 932.5 3814.77 932.5 3823.5 941.007 3823.5 951.5 3823.5 961.993 3814.77 970.5 3804 970.5 3793.23 970.5 3784.5 961.993 3784.5 951.5Z" stroke="#000000" stroke-width="4.58333" stroke-miterlimit="8" fill-rule="evenodd"/><path d="M3224.05 968.42C3222.16 968.42 3220.7 968.447 3219.67 968.501L3219.67 991.318 3223.16 991.318C3225.86 991.318 3228.01 990.933 3229.6 990.163 3231.19 989.393 3232.38 988.17 3233.15 986.495 3233.92 984.82 3234.3 982.564 3234.3 979.727 3234.3 975.809 3233.52 972.945 3231.95 971.135 3230.38 969.325 3227.75 968.42 3224.05 968.42ZM3202.77 963.678 3226.32 963.678C3233.15 963.678 3238.27 964.901 3241.68 967.346 3245.08 969.791 3246.78 973.553 3246.78 978.633 3246.78 982.226 3245.99 985.347 3244.39 987.995 3242.8 990.642 3240.49 992.648 3237.46 994.013 3234.44 995.377 3230.65 996.06 3226.12 996.06 3223.49 996.06 3221.35 996.005 3219.67 995.897L3219.67 1008.87C3219.67 1010.95 3219.78 1012.39 3220 1013.2 3220.21 1014.01 3220.62 1014.66 3221.23 1015.15 3221.84 1015.63 3222.95 1016.03 3224.58 1016.32L3224.58 1019 3202.77 1019 3202.77 1016.32C3204.23 1015.94 3205.22 1015.51 3205.75 1015.03 3206.28 1014.54 3206.64 1013.9 3206.82 1013.1 3207.01 1012.3 3207.11 1010.88 3207.11 1008.83L3207.11 973.891C3207.11 971.838 3207.02 970.412 3206.84 969.615 3206.67 968.818 3206.31 968.177 3205.77 967.69 3205.23 967.204 3204.23 966.758 3202.77 966.353Z" fill="#00B050" fill-rule="evenodd"/><text fill="#000000" fill-opacity="0" font-family="Arial,Arial_MSFontService,sans-serif" font-size="55.3198" x="3202.77" y="1012.08">𝐏</text><path d="M3261.45 1001.72C3260.06 1001.72 3258.9 1002.08 3257.96 1002.8 3257.03 1003.53 3256.29 1004.59 3255.74 1005.99 3255.2 1007.39 3254.81 1009.1 3254.58 1011.11 3254.35 1013.13 3254.24 1015.42 3254.24 1017.98 3254.24 1020.94 3254.38 1023.5 3254.67 1025.65 3254.96 1027.8 3255.41 1029.58 3256.01 1030.97 3256.62 1032.36 3257.38 1033.38 3258.29 1034.03 3259.2 1034.69 3260.3 1035.02 3261.57 1035.02 3262.76 1035.02 3263.8 1034.71 3264.7 1034.09 3265.59 1033.48 3266.33 1032.52 3266.91 1031.22 3267.5 1029.92 3267.94 1028.27 3268.24 1026.28 3268.54 1024.28 3268.69 1021.92 3268.69 1019.2 3268.69 1016.14 3268.52 1013.51 3268.19 1011.31 3267.87 1009.1 3267.41 1007.29 3266.81 1005.87 3266.21 1004.45 3265.46 1003.41 3264.56 1002.73 3263.66 1002.06 3262.62 1001.72 3261.45 1001.72ZM3261.57 998.828C3263.93 998.828 3265.95 999.27 3267.63 1000.15 3269.31 1001.04 3270.68 1002.3 3271.74 1003.94 3272.8 1005.57 3273.58 1007.58 3274.08 1009.94 3274.57 1012.3 3274.82 1014.97 3274.82 1017.95 3274.82 1024.56 3273.65 1029.56 3271.31 1032.95 3268.96 1036.33 3265.57 1038.03 3261.12 1038.03 3256.71 1038.03 3253.44 1036.43 3251.29 1033.23 3249.15 1030.03 3248.07 1025.19 3248.07 1018.7 3248.07 1015.3 3248.41 1012.36 3249.07 1009.88 3249.74 1007.4 3250.67 1005.34 3251.87 1003.7 3253.07 1002.06 3254.5 1000.84 3256.15 1000.03 3257.79 999.23 3259.6 998.828 3261.57 998.828Z" fill="#00B050" fill-rule="evenodd"/><text fill="#000000" fill-opacity="0" font-family="Arial,Arial_MSFontService,sans-serif" font-size="39.1973" x="3248.07" y="1033.13">0</text><path d="M3283.6 955.663 3291.29 955.663 3291.29 957.987 3281.37 981.844 3277.89 980.802ZM3262.6 955.663 3270.29 955.663 3270.29 957.987 3260.37 981.844 3256.89 980.802Z" fill="#00B050" fill-rule="evenodd"/><text fill="#000000" fill-opacity="0" font-family="Arial,Arial_MSFontService,sans-serif" font-size="26.1812" x="3256.89" y="978.572">′′</text><path d="M3721.89 978.6C3720 978.6 3718.54 978.627 3717.51 978.681L3717.51 1001.5 3721 1001.5C3723.7 1001.5 3725.85 1001.11 3727.44 1000.34 3729.04 999.573 3730.22 998.35 3730.99 996.675 3731.76 995 3732.15 992.744 3732.15 989.907 3732.15 985.989 3731.36 983.125 3729.79 981.315 3728.23 979.505 3725.59 978.6 3721.89 978.6ZM3700.61 973.858 3724.16 973.858C3731 973.858 3736.12 975.081 3739.52 977.526 3742.93 979.971 3744.63 983.733 3744.63 988.812 3744.63 992.406 3743.83 995.527 3742.24 998.174 3740.64 1000.82 3738.33 1002.83 3735.31 1004.19 3732.28 1005.56 3728.5 1006.24 3723.96 1006.24 3721.34 1006.24 3719.19 1006.19 3717.51 1006.08L3717.51 1019.05C3717.51 1021.13 3717.62 1022.57 3717.84 1023.38 3718.06 1024.19 3718.47 1024.84 3719.08 1025.33 3719.68 1025.81 3720.8 1026.21 3722.42 1026.5L3722.42 1029.18 3700.61 1029.18 3700.61 1026.5C3702.07 1026.12 3703.07 1025.69 3703.59 1025.21 3704.12 1024.72 3704.48 1024.08 3704.67 1023.28 3704.86 1022.48 3704.95 1021.06 3704.95 1019.01L3704.95 984.071C3704.95 982.017 3704.86 980.592 3704.69 979.795 3704.51 978.998 3704.15 978.356 3703.61 977.87 3703.07 977.384 3702.07 976.938 3700.61 976.533Z" fill="#00B050" fill-rule="evenodd"/><text fill="#000000" fill-opacity="0" font-family="Arial,Arial_MSFontService,sans-serif" font-size="55.3198" x="3700.61" y="1022.26">𝐏</text><path d="M3759.41 1009.01C3761.48 1009.01 3763.24 1009.24 3764.7 1009.71 3766.16 1010.17 3767.34 1010.81 3768.26 1011.6 3769.17 1012.39 3769.83 1013.35 3770.24 1014.46 3770.64 1015.57 3770.85 1016.77 3770.85 1018.06 3770.85 1018.84 3770.79 1019.56 3770.68 1020.22 3770.58 1020.89 3770.39 1021.54 3770.12 1022.19 3769.85 1022.83 3769.5 1023.48 3769.06 1024.14 3768.62 1024.79 3768.08 1025.49 3767.42 1026.22 3766.93 1026.86 3766.28 1027.59 3765.49 1028.43 3764.69 1029.26 3763.82 1030.16 3762.88 1031.11 3761.94 1032.06 3760.95 1033.05 3759.92 1034.09 3758.88 1035.12 3757.88 1036.14 3756.91 1037.16 3755.94 1038.17 3755.04 1039.15 3754.23 1040.1 3753.41 1041.06 3752.75 1041.93 3752.23 1042.72L3763.25 1042.72C3764.19 1042.72 3764.93 1042.69 3765.49 1042.62 3766.04 1042.55 3766.5 1042.4 3766.87 1042.16 3767.24 1041.92 3767.55 1041.56 3767.81 1041.07 3768.07 1040.59 3768.37 1039.92 3768.7 1039.06L3771.47 1039.06C3771.37 1040.47 3771.28 1041.89 3771.19 1043.32 3771.1 1044.75 3771.01 1046.17 3770.91 1047.58L3745.68 1047.58 3745.68 1046.03C3746.16 1044.96 3746.71 1043.9 3747.35 1042.86 3747.98 1041.82 3748.7 1040.76 3749.49 1039.69 3750.29 1038.61 3751.19 1037.51 3752.2 1036.37 3753.22 1035.22 3754.34 1034.04 3755.57 1032.81 3757.43 1030.94 3758.95 1029.35 3760.13 1028.03 3761.3 1026.71 3762.22 1025.53 3762.9 1024.5 3763.57 1023.46 3764.03 1022.51 3764.28 1021.64 3764.53 1020.76 3764.65 1019.83 3764.65 1018.84 3764.65 1017.82 3764.51 1016.89 3764.22 1016.04 3763.93 1015.18 3763.52 1014.46 3762.98 1013.86 3762.45 1013.27 3761.77 1012.8 3760.94 1012.46 3760.12 1012.13 3759.17 1011.96 3758.1 1011.96 3756.25 1011.96 3754.7 1012.46 3753.45 1013.46 3752.2 1014.46 3751.23 1015.92 3750.53 1017.82L3746.63 1017.82 3746.63 1012.02C3749.17 1010.96 3751.51 1010.2 3753.65 1009.72 3755.78 1009.25 3757.7 1009.01 3759.41 1009.01Z" fill="#00B050" fill-rule="evenodd"/><text fill="#000000" fill-opacity="0" font-family="Arial,Arial_MSFontService,sans-serif" font-size="38.5718" x="3745.68" y="1042.76">2</text><path d="M3781.45 965.843 3789.13 965.843 3789.13 968.166 3779.21 992.024 3775.73 990.982ZM3760.45 965.843 3768.13 965.843 3768.13 968.166 3758.21 992.024 3754.73 990.982Z" fill="#00B050" fill-rule="evenodd"/><text fill="#000000" fill-opacity="0" font-family="Arial,Arial_MSFontService,sans-serif" font-size="26.1812" x="3754.73" y="988.751">′′</text><path d="M3302.13 959.78 3109 740" stroke="#00B050" stroke-width="13.75" stroke-miterlimit="8" fill="none" fill-rule="evenodd"/><path d="M0 0 289.07 181.108" stroke="#00B050" stroke-width="13.75" stroke-miterlimit="8" fill="none" fill-rule="evenodd" transform="matrix(1 0 0 -1 3817 937.108)"/><path d="M0 0 777.195 205.743" stroke="#00B050" stroke-width="13.75" stroke-miterlimit="8" fill="none" fill-rule="evenodd" transform="matrix(1 0 0 -1 3329 961.742)"/><path d="M3104 728 4106.18 756.57" stroke="#00B050" stroke-width="13.75" stroke-miterlimit="8" fill="none" fill-rule="evenodd"/><path d="M3076.5 727C3076.5 716.23 3085.01 707.5 3095.5 707.5 3105.99 707.5 3114.5 716.23 3114.5 727 3114.5 737.77 3105.99 746.5 3095.5 746.5 3085.01 746.5 3076.5 737.77 3076.5 727Z" stroke="#000000" stroke-width="4.58333" stroke-miterlimit="8" fill-rule="evenodd"/><path d="M3302.5 968.5C3302.5 958.007 3311.01 949.5 3321.5 949.5 3331.99 949.5 3340.5 958.007 3340.5 968.5 3340.5 978.993 3331.99 987.5 3321.5 987.5 3311.01 987.5 3302.5 978.993 3302.5 968.5Z" stroke="#000000" stroke-width="4.58333" stroke-miterlimit="8" fill-rule="evenodd"/><path d="M4106.5 757C4106.5 746.23 4115.23 737.5 4126 737.5 4136.77 737.5 4145.5 746.23 4145.5 757 4145.5 767.77 4136.77 776.5 4126 776.5 4115.23 776.5 4106.5 767.77 4106.5 757Z" stroke="#000000" stroke-width="4.58333" stroke-miterlimit="8" fill-rule="evenodd"/><path d="M0 0 70.0655 124.679" stroke="#00B050" stroke-width="2.29167" stroke-miterlimit="8" fill="none" fill-rule="evenodd" transform="matrix(-1 0 0 1 3275.07 729)"/><path d="M0 0 95.0316 169.105" stroke="#00B050" stroke-width="2.29167" stroke-miterlimit="8" fill="none" fill-rule="evenodd" transform="matrix(-1 0 0 1 3351.03 737)"/><path d="M0 0 117.683 209.413" stroke="#00B050" stroke-width="2.29167" stroke-miterlimit="8" fill="none" fill-rule="evenodd" transform="matrix(-1 0 0 1 3432.68 734)"/><path d="M0 0 52.7098 95.5199" stroke="#00B050" stroke-width="2.29167" stroke-miterlimit="8" fill="none" fill-rule="evenodd" transform="matrix(-1 0 0 1 3509.71 740)"/><path d="M0 0 21.6268 38.4841" stroke="#00B050" stroke-width="2.29167" stroke-miterlimit="8" fill="none" fill-rule="evenodd" transform="matrix(-1 0 0 1 3599.63 737)"/><path d="M0 0 19.1771 34.1245" stroke="#00B050" stroke-width="2.29167" stroke-miterlimit="8" fill="none" fill-rule="evenodd" transform="matrix(-1 0 0 1 3672.18 751)"/><path d="M0 0 44.6543 79.4609" stroke="#00B050" stroke-width="2.29167" stroke-miterlimit="8" fill="none" fill-rule="evenodd" transform="matrix(-1 0 0 1 3748.65 756)"/><path d="M0 0 82.8338 147.4" stroke="#00B050" stroke-width="2.29167" stroke-miterlimit="8" fill="none" fill-rule="evenodd" transform="matrix(-1 0 0 1 3840.83 740)"/><path d="M0 0 38.308 68.1675" stroke="#00B050" stroke-width="2.29167" stroke-miterlimit="8" fill="none" fill-rule="evenodd" transform="matrix(-1 0 0 1 3204.31 729)"/><path d="M0 0 104.557 186.055" stroke="#00B050" stroke-width="2.29167" stroke-miterlimit="8" fill="none" fill-rule="evenodd" transform="matrix(-1 0 0 1 3916.56 744)"/><path d="M0 0 64.1465 114.146" stroke="#00B050" stroke-width="2.29167" stroke-miterlimit="8" fill="none" fill-rule="evenodd" transform="matrix(-1 0 0 1 3990.15 751)"/><path d="M2821.5 622.698 2883.7 622.698 2883.7 560.5 2914.3 560.5 2914.3 622.698 2976.5 622.698 2976.5 652.303 2914.3 652.303 2914.3 714.5 2883.7 714.5 2883.7 652.303 2821.5 652.303Z" stroke="#172C51" stroke-width="4.58333" stroke-miterlimit="8" fill-rule="evenodd"/></g></svg>