<svg width="2298" height="1611" xmlns="http://www.w3.org/2000/svg" xmlns:xlink="http://www.w3.org/1999/xlink" xml:space="preserve" overflow="hidden"><g transform="translate(-961 -410)"><path d="M0 0 670.645 204.919" stroke="#4472C4" stroke-width="6.875" stroke-linejoin="round" stroke-miterlimit="10" stroke-dasharray="27.5 20.625" fill="none" fill-rule="evenodd" transform="matrix(1 0 0 -1 2228.5 1238.42)"/><path d="M1153.5 1564.69 2008.81 680.5 2420.5 1795.5 1153.5 1564.69Z" stroke="#172C51" stroke-width="4.58333" stroke-miterlimit="8" fill="none" fill-rule="evenodd"/><path d="M2284.51 1231.19C2297.91 1258.45 2283.65 1292.9 2252.66 1308.14" stroke="#4472C4" stroke-width="4.58333" stroke-miterlimit="8" fill="none" fill-rule="evenodd"/><path d="M0 0 599.799 316.138" stroke="#ED7D31" stroke-width="6.875" stroke-linejoin="round" stroke-miterlimit="10" stroke-dasharray="27.5 20.625" fill="none" fill-rule="evenodd" transform="matrix(1 0 0 -1 2150.5 1038.64)"/><path d="M2204.12 1033.49C2217.52 1060.74 2203.26 1095.2 2172.27 1110.44" stroke="#ED7D31" stroke-width="4.58333" stroke-miterlimit="8" fill="none" fill-rule="evenodd"/><path d="M2354.19 1257.98C2350.75 1257.98 2347.89 1259.64 2345.59 1262.95 2343.3 1266.26 2341.42 1271.28 2339.96 1278L2334.49 1303.41C2334.35 1304.04 2334.29 1304.56 2334.29 1305 2334.29 1305.72 2334.46 1306.35 2334.79 1306.86 2335.13 1307.37 2335.63 1307.88 2336.29 1308.38 2336.96 1308.88 2337.81 1309.31 2338.87 1309.68 2339.92 1310.04 2341.26 1310.22 2342.88 1310.22 2345.07 1310.22 2347.06 1309.55 2348.86 1308.2 2350.65 1306.85 2352.07 1304.93 2353.09 1302.44 2354.12 1299.96 2354.63 1297.12 2354.63 1293.93 2354.63 1290.88 2353.79 1288.49 2352.1 1286.76 2350.41 1285.03 2348 1284.04 2344.86 1283.8L2345.43 1280.92C2348.35 1280.71 2350.98 1279.87 2353.34 1278.41 2355.69 1276.95 2357.53 1275.04 2358.87 1272.67 2360.2 1270.31 2360.87 1267.72 2360.87 1264.91 2360.87 1262.67 2360.31 1260.96 2359.19 1259.77 2358.07 1258.58 2356.4 1257.98 2354.19 1257.98ZM2354.59 1254.78C2358.75 1254.78 2361.97 1255.71 2364.24 1257.56 2366.51 1259.41 2367.64 1262.04 2367.64 1265.44 2367.64 1266.82 2367.45 1268.31 2367.05 1269.92 2366.66 1271.53 2365.89 1273.11 2364.72 1274.66 2363.56 1276.21 2361.95 1277.65 2359.88 1278.98 2357.81 1280.3 2355.28 1281.44 2352.28 1282.38L2352.2 1282.71C2358.63 1284.97 2361.85 1289.2 2361.85 1295.39 2361.85 1298.58 2361.14 1301.56 2359.72 1304.35 2358.3 1307.13 2356.22 1309.34 2353.48 1310.97 2350.73 1312.61 2347.58 1313.43 2344.01 1313.43 2341.72 1313.43 2339.7 1313.24 2337.96 1312.88 2336.21 1312.51 2334.41 1311.89 2332.54 1310.99L2328.21 1330.2 2321.6 1330.2 2333.6 1276.63C2334.68 1271.82 2336.14 1267.83 2337.98 1264.67 2339.81 1261.51 2342.11 1259.07 2344.86 1257.36 2347.62 1255.64 2350.86 1254.78 2354.59 1254.78Z" fill="#4472C4" fill-rule="evenodd"/><text fill="#000000" fill-opacity="0" font-family="Arial,Arial_MSFontService,sans-serif" font-size="75.4214" x="2321.6" y="1320.78">𝛽</text><path d="M2405.15 1254.21 2406.24 1257.34C2399.92 1259.42 2395.24 1263.48 2392.2 1269.51 2389.16 1275.55 2387.64 1283.14 2387.64 1292.27 2387.64 1301.73 2389.16 1309.52 2392.2 1315.65 2395.24 1321.79 2399.88 1325.89 2406.12 1327.97L2405.15 1331.09C2397.23 1329.01 2391.17 1324.54 2386.95 1317.66 2382.74 1310.78 2380.63 1302.46 2380.63 1292.68 2380.63 1282.92 2382.75 1274.59 2386.97 1267.69 2391.2 1260.79 2397.26 1256.3 2405.15 1254.21Z" fill="#4472C4" fill-rule="evenodd"/><text fill="#000000" fill-opacity="0" font-family="Arial,Arial_MSFontService,sans-serif" font-size="76.8804" x="2380.63" y="1321.48">(</text><path d="M2430.69 1260.25C2428.83 1260.25 2427.27 1260.81 2426.01 1261.91 2424.75 1263.02 2423.74 1264.62 2422.97 1266.7 2422.2 1268.78 2421.65 1271.31 2421.33 1274.3 2421 1277.28 2420.84 1280.65 2420.84 1284.41 2420.84 1293.22 2421.66 1299.68 2423.29 1303.8 2424.93 1307.92 2427.46 1309.98 2430.89 1309.98 2434.16 1309.98 2436.59 1308.04 2438.17 1304.16 2439.75 1300.29 2440.54 1294.28 2440.54 1286.15 2440.54 1279.94 2440.13 1274.9 2439.32 1271.05 2438.51 1267.2 2437.38 1264.44 2435.94 1262.77 2434.49 1261.09 2432.74 1260.25 2430.69 1260.25ZM2430.89 1256.81C2436.81 1256.81 2441.21 1259.09 2444.1 1263.66 2447 1268.22 2448.44 1275.13 2448.44 1284.37 2448.44 1293.93 2446.89 1301.17 2443.8 1306.07 2440.71 1310.97 2436.19 1313.43 2430.24 1313.43 2424.41 1313.43 2420.06 1311.13 2417.21 1306.54 2414.36 1301.94 2412.94 1294.97 2412.94 1285.62 2412.94 1280.65 2413.38 1276.36 2414.26 1272.74 2415.13 1269.12 2416.36 1266.12 2417.94 1263.76 2419.52 1261.39 2421.42 1259.65 2423.64 1258.51 2425.85 1257.38 2428.27 1256.81 2430.89 1256.81Z" fill="#4472C4" fill-rule="evenodd"/><text fill="#000000" fill-opacity="0" font-family="Arial,Arial_MSFontService,sans-serif" font-size="56.6167" x="2412.94" y="1306.35">0</text><path d="M2457.96 1303.37 2466.15 1303.37 2466.15 1312.78 2457.96 1312.78Z" fill="#4472C4" fill-rule="evenodd"/><text fill="#000000" fill-opacity="0" font-family="Arial,Arial_MSFontService,sans-serif" font-size="9.40234" x="2457.96" y="1311.6">.</text><path d="M2505.38 1254.78 2508.54 1254.78 2507.94 1264.18 2484.63 1264.18 2484.63 1281.98C2486.04 1281.38 2487.56 1280.94 2489.21 1280.64 2490.86 1280.34 2492.51 1280.19 2494.16 1280.19 2497.37 1280.19 2500.22 1280.85 2502.71 1282.16 2505.19 1283.47 2507.11 1285.33 2508.46 1287.75 2509.81 1290.17 2510.49 1292.97 2510.49 1296.16 2510.49 1299.78 2509.73 1302.89 2508.22 1305.48 2506.71 1308.08 2504.52 1310.05 2501.65 1311.4 2498.79 1312.75 2495.4 1313.43 2491.48 1313.43 2486.81 1313.43 2481.92 1312.47 2476.81 1310.55L2476.81 1301.96 2481.71 1301.96C2482.53 1304.71 2483.75 1306.74 2485.38 1308.03 2487.02 1309.33 2489.13 1309.98 2491.72 1309.98 2495.32 1309.98 2498.03 1308.9 2499.87 1306.74 2501.71 1304.58 2502.63 1301.35 2502.63 1297.05 2502.63 1294.19 2502.14 1291.82 2501.17 1289.94 2500.2 1288.06 2498.88 1286.7 2497.24 1285.87 2495.59 1285.03 2493.67 1284.61 2491.48 1284.61 2489.64 1284.61 2488.06 1284.72 2486.74 1284.95 2485.42 1285.18 2484 1285.54 2482.48 1286.03L2479.24 1284.12 2479.24 1257.46 2501.57 1257.46C2502.49 1257.46 2503.15 1257.38 2503.56 1257.23 2503.96 1257.09 2504.29 1256.86 2504.53 1256.54 2504.77 1256.23 2505.06 1255.65 2505.38 1254.78Z" fill="#4472C4" fill-rule="evenodd"/><text fill="#000000" fill-opacity="0" font-family="Arial,Arial_MSFontService,sans-serif" font-size="58.6431" x="2476.81" y="1306.09">5</text><path d="M2519.2 1254.21C2527.09 1256.3 2533.15 1260.79 2537.38 1267.69 2541.6 1274.59 2543.72 1282.92 2543.72 1292.68 2543.72 1302.46 2541.61 1310.78 2537.4 1317.66 2533.18 1324.54 2527.12 1329.01 2519.2 1331.09L2518.23 1327.97C2524.47 1325.89 2529.11 1321.79 2532.15 1315.65 2535.19 1309.52 2536.71 1301.73 2536.71 1292.27 2536.71 1283.14 2535.19 1275.55 2532.17 1269.51 2529.14 1263.48 2524.45 1259.42 2518.11 1257.34Z" fill="#4472C4" fill-rule="evenodd"/><text fill="#000000" fill-opacity="0" font-family="Arial,Arial_MSFontService,sans-serif" font-size="76.8804" x="2518.11" y="1321.48">)</text><path d="M2282.24 1010.7C2278.8 1010.7 2275.94 1012.35 2273.64 1015.66 2271.35 1018.97 2269.47 1023.99 2268.01 1030.72L2262.54 1056.13C2262.4 1056.75 2262.34 1057.28 2262.34 1057.71 2262.34 1058.44 2262.51 1059.06 2262.84 1059.57 2263.18 1060.08 2263.68 1060.59 2264.34 1061.09 2265.01 1061.59 2265.86 1062.02 2266.92 1062.39 2267.97 1062.75 2269.31 1062.94 2270.93 1062.94 2273.12 1062.94 2275.11 1062.26 2276.91 1060.91 2278.7 1059.56 2280.12 1057.64 2281.14 1055.15 2282.17 1052.67 2282.68 1049.83 2282.68 1046.64 2282.68 1043.59 2281.84 1041.2 2280.15 1039.47 2278.46 1037.74 2276.05 1036.75 2272.91 1036.51L2273.48 1033.63C2276.4 1033.42 2279.03 1032.58 2281.39 1031.12 2283.74 1029.66 2285.58 1027.75 2286.92 1025.39 2288.25 1023.02 2288.92 1020.44 2288.92 1017.63 2288.92 1015.38 2288.36 1013.67 2287.24 1012.48 2286.12 1011.29 2284.45 1010.7 2282.24 1010.7ZM2282.64 1007.49C2286.8 1007.49 2290.02 1008.42 2292.29 1010.27 2294.56 1012.12 2295.69 1014.75 2295.69 1018.15 2295.69 1019.53 2295.5 1021.02 2295.1 1022.63 2294.71 1024.24 2293.94 1025.82 2292.77 1027.37 2291.61 1028.93 2290 1030.36 2287.93 1031.69 2285.86 1033.01 2283.33 1034.15 2280.33 1035.09L2280.25 1035.42C2286.68 1037.69 2289.9 1041.92 2289.9 1048.1 2289.9 1051.29 2289.19 1054.28 2287.77 1057.06 2286.35 1059.84 2284.27 1062.05 2281.53 1063.69 2278.78 1065.32 2275.63 1066.14 2272.06 1066.14 2269.77 1066.14 2267.75 1065.95 2266 1065.59 2264.26 1065.23 2262.46 1064.6 2260.59 1063.71L2256.26 1082.92 2249.65 1082.92 2261.65 1029.34C2262.73 1024.53 2264.19 1020.54 2266.03 1017.38 2267.86 1014.22 2270.16 1011.78 2272.91 1010.07 2275.67 1008.35 2278.91 1007.49 2282.64 1007.49Z" fill="#ED7D31" fill-rule="evenodd"/><text fill="#000000" fill-opacity="0" font-family="Arial,Arial_MSFontService,sans-serif" font-size="75.4214" x="2249.65" y="1073.49">𝛽</text><path d="M2333.2 1006.93 2334.29 1010.05C2327.97 1012.13 2323.29 1016.19 2320.25 1022.23 2317.21 1028.26 2315.69 1035.85 2315.69 1044.98 2315.69 1054.44 2317.21 1062.23 2320.25 1068.37 2323.29 1074.5 2327.93 1078.61 2334.17 1080.69L2333.2 1083.81C2325.28 1081.73 2319.22 1077.25 2315 1070.37 2310.79 1063.5 2308.68 1055.17 2308.68 1045.39 2308.68 1035.63 2310.8 1027.31 2315.02 1020.4 2319.25 1013.5 2325.31 1009.01 2333.2 1006.93Z" fill="#ED7D31" fill-rule="evenodd"/><text fill="#000000" fill-opacity="0" font-family="Arial,Arial_MSFontService,sans-serif" font-size="76.8804" x="2308.68" y="1074.2">(</text><path d="M2349.99 1007.53 2356.96 1007.53C2357.06 1008.59 2357.8 1009.36 2359.17 1009.86 2360.53 1010.36 2362.56 1010.61 2365.26 1010.61 2366.62 1010.61 2367.93 1010.55 2369.2 1010.43 2370.47 1010.31 2372.28 1010.01 2374.63 1009.52L2375.15 1013.25C2369.78 1014.09 2365.64 1015.18 2362.75 1016.53 2359.86 1017.88 2357.69 1019.43 2356.25 1021.17 2354.8 1022.91 2354.08 1024.81 2354.08 1026.87 2354.08 1028.76 2354.71 1030.2 2355.98 1031.18 2357.25 1032.17 2359.05 1032.66 2361.37 1032.66 2362.56 1032.66 2363.78 1032.54 2365.02 1032.3L2367.13 1031.89 2367.86 1035.54 2364.94 1036.11C2361.16 1036.84 2357.84 1037.85 2354.99 1039.15 2352.14 1040.44 2349.95 1041.99 2348.43 1043.79 2346.9 1045.58 2346.14 1047.59 2346.14 1049.8 2346.14 1051.32 2346.37 1052.55 2346.82 1053.49 2347.28 1054.44 2348.05 1055.32 2349.11 1056.13 2350.18 1056.94 2351.86 1057.91 2354.16 1059.04 2356.86 1060.37 2358.8 1061.48 2359.98 1062.37 2361.15 1063.26 2362 1064.19 2362.53 1065.16 2363.06 1066.14 2363.32 1067.33 2363.32 1068.73 2363.32 1071.24 2362.35 1073.57 2360.4 1075.72 2358.46 1077.87 2355.21 1080.16 2350.68 1082.59L2348.85 1079.63C2350.96 1078.39 2352.49 1077.42 2353.43 1076.71 2354.38 1076.01 2355.13 1075.31 2355.7 1074.61 2356.27 1073.9 2356.67 1073.24 2356.9 1072.62 2357.13 1072 2357.24 1071.34 2357.24 1070.64 2357.24 1069.72 2357.05 1068.94 2356.67 1068.31 2356.29 1067.67 2355.59 1067.01 2354.55 1066.32 2353.51 1065.63 2351.9 1064.8 2349.74 1063.83 2347.5 1062.85 2345.61 1061.83 2344.07 1060.77 2342.53 1059.7 2341.27 1058.38 2340.28 1056.8 2339.29 1055.21 2338.8 1053.36 2338.8 1051.22 2338.8 1047.76 2340.21 1044.7 2343.02 1042.02 2345.83 1039.35 2350.08 1037.09 2355.78 1035.26L2355.78 1034.93C2350.11 1033.47 2347.27 1030.69 2347.27 1026.58 2347.27 1023.69 2348.51 1021.2 2350.98 1019.1 2353.45 1017.01 2357.44 1015.23 2362.95 1013.78L2362.95 1013.61 2362.43 1013.61C2358.65 1013.61 2355.65 1013.09 2353.45 1012.05 2351.25 1011.01 2350.09 1009.51 2349.99 1007.53Z" fill="#ED7D31" fill-rule="evenodd"/><text fill="#000000" fill-opacity="0" font-family="Arial,Arial_MSFontService,sans-serif" font-size="75.0566" x="2338.8" y="1073.21">𝜉</text><path d="M2381.16 1006.93C2389.05 1009.01 2395.11 1013.5 2399.33 1020.4 2403.56 1027.31 2405.68 1035.63 2405.68 1045.39 2405.68 1055.17 2403.57 1063.5 2399.35 1070.37 2395.14 1077.25 2389.07 1081.73 2381.16 1083.81L2380.19 1080.69C2386.43 1078.61 2391.07 1074.5 2394.11 1068.37 2397.15 1062.23 2398.67 1054.44 2398.67 1044.98 2398.67 1035.85 2397.15 1028.26 2394.13 1022.23 2391.1 1016.19 2386.41 1012.13 2380.06 1010.05Z" fill="#ED7D31" fill-rule="evenodd"/><text fill="#000000" fill-opacity="0" font-family="Arial,Arial_MSFontService,sans-serif" font-size="76.8804" x="2380.06" y="1074.2">)</text><path d="M997.322 989.162 997.322 1010.64C998.916 1010.72 1000.75 1010.76 1002.83 1010.76 1005.4 1010.76 1007.51 1010.45 1009.18 1009.81 1010.84 1009.18 1012.13 1008.07 1013.05 1006.49 1013.97 1004.91 1014.42 1002.74 1014.42 999.983 1014.42 997.659 1014.07 995.714 1013.37 994.147 1012.67 992.58 1011.51 991.357 1009.91 990.479 1008.3 989.601 1005.98 989.162 1002.96 989.162ZM1002.83 964.927C1000.94 964.927 999.105 964.994 997.322 965.129L997.322 984.42 1002.71 984.42C1005.41 984.42 1007.53 984.029 1009.07 983.245 1010.61 982.462 1011.78 981.347 1012.58 979.902 1013.38 978.456 1013.78 976.464 1013.78 973.924 1013.78 970.817 1012.9 968.541 1011.16 967.095 1009.42 965.65 1006.64 964.927 1002.83 964.927ZM980.422 960.185 1006.97 960.185C1009.72 960.185 1012 960.307 1013.8 960.55 1015.59 960.793 1017.22 961.178 1018.68 961.705 1020.14 962.232 1021.31 962.826 1022.19 963.488 1023.06 964.15 1023.81 964.913 1024.41 965.778 1025.02 966.642 1025.5 967.629 1025.83 968.736 1026.17 969.844 1026.34 971.073 1026.34 972.424 1026.34 978.531 1022.67 983.11 1015.32 986.163L1015.32 986.528C1019.1 987.717 1021.98 989.439 1023.97 991.695 1025.95 993.951 1026.95 996.66 1026.95 999.821 1026.95 1002.52 1026.49 1004.87 1025.59 1006.87 1024.68 1008.87 1023.31 1010.51 1021.46 1011.8 1019.61 1013.08 1017.43 1014.02 1014.93 1014.61 1012.43 1015.21 1009.25 1015.5 1005.39 1015.5L980.422 1015.5 980.422 1012.83C981.881 1012.45 982.874 1012.02 983.401 1011.53 983.928 1011.05 984.286 1010.41 984.475 1009.61 984.664 1008.81 984.758 1007.39 984.758 1005.33L984.758 970.398C984.758 968.345 984.671 966.919 984.495 966.122 984.319 965.325 983.961 964.684 983.421 964.197 982.881 963.711 981.881 963.265 980.422 962.86Z" fill="#5B9BD5" fill-rule="evenodd"/><text fill="#000000" fill-opacity="0" font-family="Arial,Arial_MSFontService,sans-serif" font-size="55.3198" x="980.422" y="1008.59">𝐁</text><path d="M1043.69 953.729 1051.38 953.729 1051.38 956.052 1041.46 979.91 1037.97 978.867Z" fill="#5B9BD5" fill-rule="evenodd"/><text fill="#000000" fill-opacity="0" font-family="Arial,Arial_MSFontService,sans-serif" font-size="26.1812" x="1037.97" y="976.637">′</text><path d="M1140.85 953.391C1148.74 955.471 1154.8 959.963 1159.03 966.866 1163.26 973.769 1165.37 982.098 1165.37 991.851 1165.37 1001.63 1163.27 1009.96 1159.05 1016.84 1154.84 1023.71 1148.77 1028.19 1140.85 1030.27L1139.88 1027.15C1146.12 1025.07 1150.76 1020.96 1153.8 1014.83 1156.84 1008.7 1158.36 1000.9 1158.36 991.446 1158.36 982.314 1156.85 974.729 1153.82 968.69 1150.8 962.651 1146.11 958.592 1139.76 956.511ZM1089.96 953.391 1091.06 956.511C1084.73 958.592 1080.05 962.651 1077.01 968.69 1073.97 974.729 1072.45 982.314 1072.45 991.446 1072.45 1000.9 1073.97 1008.7 1077.01 1014.83 1080.05 1020.96 1084.69 1025.07 1090.94 1027.15L1089.96 1030.27C1082.05 1028.19 1075.98 1023.71 1071.77 1016.84 1067.55 1009.96 1065.44 1001.63 1065.44 991.851 1065.44 982.098 1067.56 973.769 1071.79 966.866 1076.01 959.963 1082.07 955.471 1089.96 953.391Z" fill="#5B9BD5" fill-rule="evenodd"/><path d="M1115.36 962.982C1113.5 962.982 1111.94 963.535 1110.68 964.643 1109.43 965.751 1108.41 967.345 1107.64 969.425 1106.87 971.506 1106.33 974.039 1106 977.024 1105.68 980.01 1105.52 983.38 1105.52 987.136 1105.52 995.944 1106.33 1002.41 1107.97 1006.53 1109.6 1010.65 1112.14 1012.71 1115.57 1012.71 1118.84 1012.71 1121.26 1010.77 1122.84 1006.89 1124.42 1003.02 1125.21 997.011 1125.21 988.878 1125.21 982.664 1124.81 977.632 1124 973.782 1123.19 969.932 1122.06 967.169 1120.61 965.494 1119.17 963.819 1117.42 962.982 1115.36 962.982ZM1115.57 959.537C1121.48 959.537 1125.89 961.82 1128.78 966.386 1131.67 970.952 1133.12 977.855 1133.12 987.095 1133.12 996.66 1131.57 1003.89 1128.48 1008.8 1125.38 1013.7 1120.86 1016.15 1114.92 1016.15 1109.08 1016.15 1104.74 1013.86 1101.89 1009.26 1099.04 1004.67 1097.61 997.7 1097.61 988.352 1097.61 983.38 1098.05 979.084 1098.93 975.464 1099.81 971.844 1101.04 968.851 1102.62 966.487 1104.2 964.123 1106.1 962.374 1108.31 961.239 1110.53 960.104 1112.95 959.537 1115.57 959.537Z" fill="#5B9BD5" fill-rule="evenodd"/><text fill="#000000" fill-opacity="0" font-family="Arial,Arial_MSFontService,sans-serif" font-size="56.6167" x="1097.61" y="1009.08">0</text><path d="M1201.41 997.511 1251.34 997.511 1251.34 1002.9 1201.41 1002.9ZM1201.41 980.692 1251.34 980.692 1251.34 986.082 1201.41 986.082Z" fill="#5B9BD5" fill-rule="evenodd"/><text fill="#000000" fill-opacity="0" font-family="Arial,Arial_MSFontService,sans-serif" font-size="22.209" x="1201.41" y="1000.12">=</text><path d="M1303.47 959.537C1308.49 959.537 1312.29 960.638 1314.86 962.84 1317.42 965.042 1318.71 968.237 1318.71 972.424 1318.71 973.856 1318.56 975.173 1318.28 976.376 1318 977.578 1317.55 978.767 1316.94 979.942 1316.34 981.117 1315.52 982.381 1314.49 983.732 1313.47 985.082 1312.33 986.454 1311.09 987.845 1309.84 989.236 1307.7 991.553 1304.64 994.795 1299.51 1000.23 1295.74 1004.97 1293.34 1009.02L1308.62 1009.02C1309.94 1009.02 1311.01 1008.94 1311.82 1008.78 1312.63 1008.62 1313.28 1008.35 1313.76 1007.97 1314.25 1007.59 1314.63 1007.1 1314.92 1006.49 1315.2 1005.88 1315.56 1004.94 1315.99 1003.67L1319.44 1003.67 1318.75 1015.5 1285.39 1015.5 1285.39 1013.56C1286.55 1010.72 1288.12 1007.82 1290.09 1004.85 1292.07 1001.87 1294.86 998.375 1298.48 994.35 1301.62 990.891 1303.87 988.271 1305.25 986.487 1306.76 984.542 1307.89 982.86 1308.64 981.442 1309.38 980.023 1309.91 978.686 1310.24 977.43 1310.56 976.173 1310.72 974.91 1310.72 973.64 1310.72 971.614 1310.4 969.824 1309.75 968.27 1309.1 966.717 1308.11 965.494 1306.77 964.603 1305.43 963.711 1303.75 963.265 1301.73 963.265 1296.67 963.265 1293.27 966.075 1291.51 971.695L1286.61 971.695 1286.61 963.914C1289.88 962.374 1292.94 961.259 1295.79 960.57 1298.64 959.881 1301.2 959.537 1303.47 959.537Z" fill="#5B9BD5" fill-rule="evenodd"/><text fill="#000000" fill-opacity="0" font-family="Arial,Arial_MSFontService,sans-serif" font-size="55.9683" x="1285.39" y="1008.51">2</text><path d="M1357.81 956.943 1358.91 960.064C1352.58 962.144 1347.9 966.203 1344.86 972.242 1341.82 978.281 1340.3 985.866 1340.3 994.998 1340.3 1004.45 1341.82 1012.25 1344.86 1018.38 1347.9 1024.52 1352.54 1028.62 1358.79 1030.7L1357.81 1033.82C1349.9 1031.74 1343.83 1027.26 1339.62 1020.39 1335.4 1013.51 1333.29 1005.18 1333.29 995.403 1333.29 985.65 1335.41 977.321 1339.64 970.418 1343.86 963.515 1349.92 959.023 1357.81 956.943Z" fill="#5B9BD5" fill-rule="evenodd"/><text fill="#000000" fill-opacity="0" font-family="Arial,Arial_MSFontService,sans-serif" font-size="76.8803" x="1333.29" y="1024.21">(</text><path d="M1386.15 964.927C1384.26 964.927 1382.8 964.954 1381.77 965.008L1381.77 987.825 1385.26 987.825C1387.96 987.825 1390.11 987.44 1391.7 986.67 1393.3 985.9 1394.48 984.677 1395.25 983.002 1396.02 981.327 1396.4 979.071 1396.4 976.234 1396.4 972.316 1395.62 969.452 1394.05 967.642 1392.48 965.832 1389.85 964.927 1386.15 964.927ZM1364.87 960.185 1388.42 960.185C1395.25 960.185 1400.37 961.408 1403.78 963.853 1407.18 966.298 1408.88 970.06 1408.88 975.14 1408.88 978.733 1408.09 981.854 1406.49 984.502 1404.9 987.149 1402.59 989.155 1399.56 990.52 1396.54 991.884 1392.75 992.566 1388.22 992.566 1385.6 992.566 1383.45 992.512 1381.77 992.404L1381.77 1005.37C1381.77 1007.45 1381.88 1008.9 1382.1 1009.71 1382.31 1010.52 1382.72 1011.17 1383.33 1011.65 1383.94 1012.14 1385.05 1012.53 1386.68 1012.83L1386.68 1015.5 1364.87 1015.5 1364.87 1012.83C1366.33 1012.45 1367.32 1012.02 1367.85 1011.53 1368.38 1011.05 1368.74 1010.41 1368.92 1009.61 1369.11 1008.81 1369.21 1007.39 1369.21 1005.33L1369.21 970.398C1369.21 968.345 1369.12 966.919 1368.95 966.122 1368.77 965.325 1368.41 964.684 1367.87 964.197 1367.33 963.711 1366.33 963.265 1364.87 962.86Z" fill="#5B9BD5" fill-rule="evenodd"/><text fill="#000000" fill-opacity="0" font-family="Arial,Arial_MSFontService,sans-serif" font-size="55.3198" x="1364.87" y="1008.59">𝐏</text><path d="M1424.09 993.985 1425.91 993.985C1425.87 995.077 1425.84 996.055 1425.82 996.919 1425.8 997.783 1425.78 998.622 1425.77 999.436 1425.76 1000.25 1425.76 1001.05 1425.76 1001.85L1425.76 1024.49C1425.76 1025.1 1425.78 1025.63 1425.82 1026.08 1425.86 1026.53 1425.92 1026.9 1426.01 1027.21 1426.1 1027.52 1426.22 1027.78 1426.37 1028 1426.52 1028.22 1426.69 1028.41 1426.89 1028.57 1427.13 1028.8 1427.44 1028.99 1427.84 1029.12 1428.24 1029.25 1428.75 1029.36 1429.36 1029.44 1429.98 1029.53 1430.72 1029.6 1431.58 1029.65 1432.44 1029.7 1433.48 1029.74 1434.69 1029.76L1434.69 1032.35 1411.07 1032.35 1411.07 1029.76C1412.24 1029.72 1413.24 1029.67 1414.05 1029.62 1414.87 1029.57 1415.56 1029.5 1416.14 1029.41 1416.71 1029.33 1417.17 1029.23 1417.52 1029.12 1417.87 1029.01 1418.17 1028.87 1418.43 1028.71 1418.71 1028.54 1418.95 1028.34 1419.14 1028.13 1419.34 1027.93 1419.5 1027.66 1419.62 1027.34 1419.74 1027.03 1419.83 1026.64 1419.9 1026.18 1419.97 1025.73 1420.01 1025.16 1420.01 1024.49L1420.01 1003.13C1420.01 1002.35 1419.86 1001.81 1419.56 1001.49 1419.26 1001.17 1418.84 1001.01 1418.28 1001.01 1417.67 1001.01 1416.75 1001.33 1415.54 1001.97 1414.33 1002.6 1412.76 1003.55 1410.83 1004.8 1410.58 1004.34 1410.34 1003.88 1410.12 1003.43 1409.9 1002.97 1409.67 1002.5 1409.43 1002.03 1411.9 1000.68 1414.33 999.332 1416.75 997.991 1419.16 996.651 1421.61 995.316 1424.09 993.985Z" fill="#5B9BD5" fill-rule="evenodd"/><text fill="#000000" fill-opacity="0" font-family="Arial,Arial_MSFontService,sans-serif" font-size="38.3633" x="1409.43" y="1027.55">1</text><path d="M1466.72 989.081 1516.65 989.081 1516.65 994.471 1466.72 994.471Z" fill="#5B9BD5" fill-rule="evenodd"/><text fill="#000000" fill-opacity="0" font-family="Arial,Arial_MSFontService,sans-serif" font-size="5.39014" x="1466.72" y="993.797">−</text><path d="M1566.66 964.927C1564.77 964.927 1563.31 964.954 1562.29 965.008L1562.29 987.825 1565.77 987.825C1568.47 987.825 1570.62 987.44 1572.22 986.67 1573.81 985.9 1574.99 984.677 1575.76 983.002 1576.53 981.327 1576.92 979.071 1576.92 976.234 1576.92 972.316 1576.13 969.452 1574.57 967.642 1573 965.832 1570.36 964.927 1566.66 964.927ZM1545.39 960.185 1568.93 960.185C1575.77 960.185 1580.89 961.408 1584.29 963.853 1587.7 966.298 1589.4 970.06 1589.4 975.14 1589.4 978.733 1588.6 981.854 1587.01 984.502 1585.41 987.149 1583.1 989.155 1580.08 990.52 1577.05 991.884 1573.27 992.566 1568.73 992.566 1566.11 992.566 1563.96 992.512 1562.29 992.404L1562.29 1005.37C1562.29 1007.45 1562.39 1008.9 1562.61 1009.71 1562.83 1010.52 1563.24 1011.17 1563.85 1011.65 1564.45 1012.14 1565.57 1012.53 1567.19 1012.83L1567.19 1015.5 1545.39 1015.5 1545.39 1012.83C1546.85 1012.45 1547.84 1012.02 1548.37 1011.53 1548.89 1011.05 1549.25 1010.41 1549.44 1009.61 1549.63 1008.81 1549.72 1007.39 1549.72 1005.33L1549.72 970.398C1549.72 968.345 1549.64 966.919 1549.46 966.122 1549.28 965.325 1548.93 964.684 1548.39 964.197 1547.85 963.711 1546.85 963.265 1545.39 962.86Z" fill="#5B9BD5" fill-rule="evenodd"/><text fill="#000000" fill-opacity="0" font-family="Arial,Arial_MSFontService,sans-serif" font-size="55.3198" x="1545.39" y="1008.59">𝐏</text><path d="M1604.06 996.666C1602.67 996.666 1601.51 997.028 1600.58 997.753 1599.65 998.478 1598.91 999.54 1598.36 1000.94 1597.81 1002.34 1597.43 1004.05 1597.2 1006.06 1596.97 1008.08 1596.86 1010.37 1596.86 1012.93 1596.86 1015.89 1597 1018.44 1597.29 1020.6 1597.58 1022.75 1598.02 1024.53 1598.63 1025.92 1599.23 1027.31 1599.99 1028.33 1600.91 1028.98 1601.82 1029.64 1602.91 1029.97 1604.18 1029.97 1605.37 1029.97 1606.42 1029.66 1607.31 1029.04 1608.2 1028.43 1608.94 1027.47 1609.53 1026.17 1610.11 1024.87 1610.56 1023.22 1610.85 1021.22 1611.15 1019.23 1611.3 1016.87 1611.3 1014.15 1611.3 1011.09 1611.14 1008.46 1610.81 1006.26 1610.48 1004.05 1610.02 1002.24 1609.42 1000.82 1608.83 999.401 1608.08 998.354 1607.18 997.679 1606.27 997.004 1605.23 996.666 1604.06 996.666ZM1604.18 993.777C1606.55 993.777 1608.57 994.219 1610.24 995.102 1611.92 995.986 1613.29 997.247 1614.35 998.885 1615.42 1000.52 1616.2 1002.52 1616.69 1004.89 1617.19 1007.25 1617.44 1009.92 1617.44 1012.9 1617.44 1019.51 1616.27 1024.51 1613.92 1027.9 1611.58 1031.28 1608.18 1032.97 1603.74 1032.97 1599.33 1032.97 1596.05 1031.38 1593.91 1028.18 1591.76 1024.98 1590.69 1020.14 1590.69 1013.64 1590.69 1010.25 1591.02 1007.31 1591.69 1004.83 1592.35 1002.35 1593.29 1000.28 1594.49 998.647 1595.69 997.009 1597.11 995.787 1598.76 994.983 1600.41 994.179 1602.22 993.777 1604.18 993.777Z" fill="#5B9BD5" fill-rule="evenodd"/><text fill="#000000" fill-opacity="0" font-family="Arial,Arial_MSFontService,sans-serif" font-size="39.1973" x="1590.69" y="1028.07">0</text><path d="M1627.4 956.943C1635.29 959.023 1641.35 963.515 1645.57 970.418 1649.8 977.321 1651.92 985.65 1651.92 995.403 1651.92 1005.18 1649.81 1013.51 1645.59 1020.39 1641.38 1027.26 1635.31 1031.74 1627.4 1033.82L1626.42 1030.7C1632.67 1028.62 1637.31 1024.52 1640.35 1018.38 1643.39 1012.25 1644.91 1004.45 1644.91 994.998 1644.91 985.866 1643.39 978.281 1640.37 972.242 1637.34 966.203 1632.65 962.144 1626.3 960.064Z" fill="#5B9BD5" fill-rule="evenodd"/><text fill="#000000" fill-opacity="0" font-family="Arial,Arial_MSFontService,sans-serif" font-size="76.8803" x="1626.3" y="1024.21">)</text><path d="M1522.09 1857.06 1522.09 1878.54C1523.69 1878.62 1525.53 1878.66 1527.61 1878.66 1530.17 1878.66 1532.29 1878.35 1533.95 1877.71 1535.61 1877.08 1536.9 1875.97 1537.82 1874.39 1538.74 1872.81 1539.2 1870.64 1539.2 1867.88 1539.2 1865.56 1538.85 1863.61 1538.14 1862.05 1537.44 1860.48 1536.29 1859.26 1534.68 1858.38 1533.07 1857.5 1530.75 1857.06 1527.73 1857.06ZM1527.61 1832.83C1525.71 1832.83 1523.88 1832.89 1522.09 1833.03L1522.09 1852.32 1527.48 1852.32C1530.19 1852.32 1532.31 1851.93 1533.85 1851.15 1535.39 1850.36 1536.56 1849.25 1537.35 1847.8 1538.15 1846.36 1538.55 1844.36 1538.55 1841.82 1538.55 1838.72 1537.68 1836.44 1535.93 1834.99 1534.19 1833.55 1531.42 1832.83 1527.61 1832.83ZM1505.19 1828.09 1531.74 1828.09C1534.5 1828.09 1536.77 1828.21 1538.57 1828.45 1540.37 1828.69 1541.99 1829.08 1543.45 1829.6 1544.91 1830.13 1546.08 1830.73 1546.96 1831.39 1547.84 1832.05 1548.58 1832.81 1549.19 1833.68 1549.79 1834.54 1550.27 1835.53 1550.61 1836.64 1550.94 1837.74 1551.11 1838.97 1551.11 1840.32 1551.11 1846.43 1547.44 1851.01 1540.09 1854.06L1540.09 1854.43C1543.87 1855.62 1546.76 1857.34 1548.74 1859.6 1550.73 1861.85 1551.72 1864.56 1551.72 1867.72 1551.72 1870.42 1551.27 1872.77 1550.36 1874.77 1549.46 1876.77 1548.08 1878.41 1546.23 1879.7 1544.38 1880.98 1542.2 1881.92 1539.7 1882.51 1537.2 1883.11 1534.02 1883.4 1530.16 1883.4L1505.19 1883.4 1505.19 1880.73C1506.65 1880.35 1507.65 1879.92 1508.17 1879.43 1508.7 1878.95 1509.06 1878.31 1509.25 1877.51 1509.44 1876.71 1509.53 1875.29 1509.53 1873.23L1509.53 1838.3C1509.53 1836.24 1509.44 1834.82 1509.27 1834.02 1509.09 1833.23 1508.73 1832.58 1508.19 1832.1 1507.65 1831.61 1506.65 1831.17 1505.19 1830.76Z" fill="#70AD47" fill-rule="evenodd"/><text fill="#000000" fill-opacity="0" font-family="Arial,Arial_MSFontService,sans-serif" font-size="55.3198" x="1505.19" y="1876.49">𝐁</text><path d="M1568.47 1821.63 1576.15 1821.63 1576.15 1823.95 1566.23 1847.81 1562.75 1846.77Z" fill="#70AD47" fill-rule="evenodd"/><text fill="#000000" fill-opacity="0" font-family="Arial,Arial_MSFontService,sans-serif" font-size="26.1812" x="1562.75" y="1844.54">′</text><path d="M1665.63 1821.29C1673.52 1823.37 1679.57 1827.86 1683.8 1834.77 1688.03 1841.67 1690.15 1850 1690.15 1859.75 1690.15 1869.53 1688.04 1877.86 1683.82 1884.74 1679.61 1891.61 1673.54 1896.09 1665.63 1898.17L1664.65 1895.05C1670.89 1892.97 1675.54 1888.86 1678.57 1882.73 1681.61 1876.6 1683.13 1868.8 1683.13 1859.35 1683.13 1850.21 1681.62 1842.63 1678.59 1836.59 1675.57 1830.55 1670.88 1826.49 1664.53 1824.41ZM1614.73 1821.29 1615.83 1824.41C1609.51 1826.49 1604.83 1830.55 1601.79 1836.59 1598.75 1842.63 1597.23 1850.21 1597.23 1859.35 1597.23 1868.8 1598.75 1876.6 1601.79 1882.73 1604.83 1888.86 1609.47 1892.97 1615.71 1895.05L1614.73 1898.17C1606.82 1896.09 1600.75 1891.61 1596.54 1884.74 1592.32 1877.86 1590.22 1869.53 1590.22 1859.75 1590.22 1850 1592.33 1841.67 1596.56 1834.77 1600.79 1827.86 1606.85 1823.37 1614.73 1821.29Z" fill="#70AD47" fill-rule="evenodd"/><path d="M1643.34 1827.44 1645.57 1827.44C1645.41 1830.03 1645.33 1833.62 1645.33 1838.22L1645.33 1872.83C1645.33 1874.39 1645.41 1875.58 1645.59 1876.37 1645.76 1877.17 1646.07 1877.82 1646.52 1878.32 1646.97 1878.82 1647.61 1879.21 1648.45 1879.49 1649.28 1879.78 1650.34 1879.99 1651.61 1880.14 1652.88 1880.29 1654.55 1880.39 1656.63 1880.45L1656.63 1883.4 1626.68 1883.4 1626.68 1880.45C1629.68 1880.31 1631.82 1880.13 1633.11 1879.9 1634.39 1879.67 1635.37 1879.33 1636.04 1878.87 1636.72 1878.41 1637.21 1877.76 1637.52 1876.92 1637.83 1876.08 1637.99 1874.72 1637.99 1872.83L1637.99 1839.96C1637.99 1838.88 1637.8 1838.09 1637.42 1837.59 1637.04 1837.09 1636.49 1836.84 1635.76 1836.84 1634.9 1836.84 1633.67 1837.28 1632.07 1838.18 1630.48 1839.07 1628.51 1840.3 1626.16 1841.86L1624.37 1838.74Z" fill="#70AD47" fill-rule="evenodd"/><text fill="#000000" fill-opacity="0" font-family="Arial,Arial_MSFontService,sans-serif" font-size="55.9683" x="1624.37" y="1876.41">1</text><path d="M1726.18 1865.41 1776.11 1865.41 1776.11 1870.8 1726.18 1870.8ZM1726.18 1848.59 1776.11 1848.59 1776.11 1853.98 1726.18 1853.98Z" fill="#70AD47" fill-rule="evenodd"/><text fill="#000000" fill-opacity="0" font-family="Arial,Arial_MSFontService,sans-serif" font-size="22.209" x="1726.18" y="1868.02">=</text><path d="M1828.24 1827.44C1833.27 1827.44 1837.06 1828.54 1839.63 1830.74 1842.2 1832.94 1843.48 1836.14 1843.48 1840.32 1843.48 1841.76 1843.34 1843.07 1843.05 1844.28 1842.77 1845.48 1842.32 1846.67 1841.72 1847.84 1841.11 1849.02 1840.29 1850.28 1839.26 1851.63 1838.24 1852.98 1837.1 1854.35 1835.86 1855.74 1834.62 1857.14 1832.47 1859.45 1829.42 1862.7 1824.28 1868.13 1820.51 1872.87 1818.11 1876.92L1833.39 1876.92C1834.71 1876.92 1835.78 1876.84 1836.59 1876.68 1837.4 1876.52 1838.05 1876.25 1838.53 1875.87 1839.02 1875.49 1839.41 1875 1839.69 1874.39 1839.97 1873.78 1840.33 1872.84 1840.76 1871.57L1844.21 1871.57 1843.52 1883.4 1810.17 1883.4 1810.17 1881.46C1811.33 1878.62 1812.89 1875.72 1814.87 1872.75 1816.84 1869.77 1819.64 1866.28 1823.26 1862.25 1826.39 1858.79 1828.65 1856.17 1830.02 1854.39 1831.54 1852.44 1832.67 1850.76 1833.41 1849.34 1834.15 1847.92 1834.68 1846.59 1835.01 1845.33 1835.33 1844.07 1835.5 1842.81 1835.5 1841.54 1835.5 1839.51 1835.17 1837.72 1834.52 1836.17 1833.87 1834.62 1832.88 1833.39 1831.54 1832.5 1830.21 1831.61 1828.52 1831.17 1826.5 1831.17 1821.45 1831.17 1818.04 1833.98 1816.29 1839.59L1811.38 1839.59 1811.38 1831.81C1814.65 1830.27 1817.71 1829.16 1820.56 1828.47 1823.41 1827.78 1825.97 1827.44 1828.24 1827.44Z" fill="#70AD47" fill-rule="evenodd"/><text fill="#000000" fill-opacity="0" font-family="Arial,Arial_MSFontService,sans-serif" font-size="55.9683" x="1810.17" y="1876.41">2</text><path d="M1882.58 1824.84 1883.68 1827.96C1877.36 1830.04 1872.68 1834.1 1869.64 1840.14 1866.6 1846.18 1865.08 1853.77 1865.08 1862.9 1865.08 1872.35 1866.6 1880.15 1869.64 1886.28 1872.68 1892.42 1877.32 1896.52 1883.56 1898.6L1882.58 1901.72C1874.67 1899.64 1868.6 1895.16 1864.39 1888.29 1860.17 1881.41 1858.07 1873.08 1858.07 1863.3 1858.07 1853.55 1860.18 1845.22 1864.41 1838.32 1868.64 1831.42 1874.7 1826.92 1882.58 1824.84Z" fill="#70AD47" fill-rule="evenodd"/><text fill="#000000" fill-opacity="0" font-family="Arial,Arial_MSFontService,sans-serif" font-size="76.8804" x="1858.07" y="1892.11">(</text><path d="M1910.92 1832.83C1909.03 1832.83 1907.57 1832.85 1906.54 1832.91L1906.54 1855.72 1910.03 1855.72C1912.73 1855.72 1914.88 1855.34 1916.47 1854.57 1918.07 1853.8 1919.25 1852.58 1920.02 1850.9 1920.79 1849.23 1921.17 1846.97 1921.17 1844.13 1921.17 1840.22 1920.39 1837.35 1918.82 1835.54 1917.26 1833.73 1914.62 1832.83 1910.92 1832.83ZM1889.64 1828.09 1913.19 1828.09C1920.03 1828.09 1925.15 1829.31 1928.55 1831.75 1931.96 1834.2 1933.66 1837.96 1933.66 1843.04 1933.66 1846.63 1932.86 1849.75 1931.27 1852.4 1929.67 1855.05 1927.36 1857.06 1924.34 1858.42 1921.31 1859.78 1917.53 1860.47 1912.99 1860.47 1910.37 1860.47 1908.22 1860.41 1906.54 1860.3L1906.54 1873.27C1906.54 1875.35 1906.65 1876.8 1906.87 1877.61 1907.08 1878.42 1907.5 1879.07 1908.1 1879.55 1908.71 1880.04 1909.83 1880.43 1911.45 1880.73L1911.45 1883.4 1889.64 1883.4 1889.64 1880.73C1891.1 1880.35 1892.1 1879.92 1892.62 1879.43 1893.15 1878.95 1893.51 1878.31 1893.7 1877.51 1893.89 1876.71 1893.98 1875.29 1893.98 1873.23L1893.98 1838.3C1893.98 1836.24 1893.89 1834.82 1893.72 1834.02 1893.54 1833.23 1893.18 1832.58 1892.64 1832.1 1892.1 1831.61 1891.1 1831.17 1889.64 1830.76Z" fill="#70AD47" fill-rule="evenodd"/><text fill="#000000" fill-opacity="0" font-family="Arial,Arial_MSFontService,sans-serif" font-size="55.3198" x="1889.64" y="1876.49">𝐏</text><path d="M1948.44 1861.68C1950.51 1861.68 1952.27 1861.91 1953.73 1862.38 1955.19 1862.84 1956.37 1863.47 1957.29 1864.27 1958.2 1865.06 1958.86 1866.02 1959.27 1867.13 1959.67 1868.24 1959.88 1869.44 1959.88 1870.73 1959.88 1871.51 1959.82 1872.23 1959.71 1872.89 1959.6 1873.56 1959.42 1874.21 1959.15 1874.86 1958.88 1875.5 1958.53 1876.15 1958.09 1876.81 1957.65 1877.46 1957.11 1878.16 1956.45 1878.89 1955.96 1879.53 1955.31 1880.26 1954.52 1881.1 1953.72 1881.93 1952.85 1882.82 1951.91 1883.78 1950.97 1884.73 1949.98 1885.72 1948.95 1886.76 1947.91 1887.79 1946.91 1888.81 1945.94 1889.82 1944.97 1890.84 1944.07 1891.82 1943.26 1892.77 1942.44 1893.73 1941.78 1894.6 1941.26 1895.39L1952.28 1895.39C1953.22 1895.39 1953.96 1895.36 1954.52 1895.29 1955.07 1895.22 1955.53 1895.07 1955.9 1894.83 1956.27 1894.59 1956.58 1894.23 1956.84 1893.74 1957.1 1893.25 1957.4 1892.58 1957.73 1891.73L1960.5 1891.73C1960.4 1893.14 1960.31 1894.56 1960.22 1895.99 1960.13 1897.42 1960.04 1898.84 1959.94 1900.25L1934.71 1900.25 1934.71 1898.7C1935.19 1897.63 1935.74 1896.57 1936.38 1895.53 1937.01 1894.49 1937.73 1893.43 1938.52 1892.36 1939.32 1891.28 1940.22 1890.18 1941.23 1889.03 1942.24 1887.89 1943.37 1886.71 1944.6 1885.48 1946.46 1883.61 1947.98 1882.02 1949.16 1880.69 1950.33 1879.37 1951.25 1878.2 1951.93 1877.17 1952.6 1876.13 1953.06 1875.18 1953.31 1874.31 1953.56 1873.43 1953.68 1872.5 1953.68 1871.51 1953.68 1870.49 1953.54 1869.56 1953.25 1868.71 1952.96 1867.85 1952.55 1867.13 1952.01 1866.53 1951.48 1865.94 1950.8 1865.47 1949.97 1865.13 1949.15 1864.79 1948.2 1864.63 1947.13 1864.63 1945.28 1864.63 1943.73 1865.13 1942.48 1866.13 1941.23 1867.13 1940.26 1868.59 1939.56 1870.49L1935.66 1870.49 1935.66 1864.69C1938.2 1863.63 1940.54 1862.87 1942.68 1862.39 1944.81 1861.92 1946.73 1861.68 1948.44 1861.68Z" fill="#70AD47" fill-rule="evenodd"/><text fill="#000000" fill-opacity="0" font-family="Arial,Arial_MSFontService,sans-serif" font-size="38.5718" x="1934.71" y="1895.43">2</text><path d="M1993.39 1856.98 2043.32 1856.98 2043.32 1862.37 1993.39 1862.37Z" fill="#70AD47" fill-rule="evenodd"/><text fill="#000000" fill-opacity="0" font-family="Arial,Arial_MSFontService,sans-serif" font-size="5.39014" x="1993.39" y="1861.7">−</text><path d="M2093.34 1832.83C2091.45 1832.83 2089.99 1832.85 2088.96 1832.91L2088.96 1855.72 2092.45 1855.72C2095.15 1855.72 2097.3 1855.34 2098.89 1854.57 2100.48 1853.8 2101.67 1852.58 2102.44 1850.9 2103.21 1849.23 2103.59 1846.97 2103.59 1844.13 2103.59 1840.22 2102.81 1837.35 2101.24 1835.54 2099.67 1833.73 2097.04 1832.83 2093.34 1832.83ZM2072.06 1828.09 2095.61 1828.09C2102.44 1828.09 2107.56 1829.31 2110.97 1831.75 2114.37 1834.2 2116.07 1837.96 2116.07 1843.04 2116.07 1846.63 2115.28 1849.75 2113.68 1852.4 2112.09 1855.05 2109.78 1857.06 2106.75 1858.42 2103.73 1859.78 2099.94 1860.47 2095.41 1860.47 2092.78 1860.47 2090.64 1860.41 2088.96 1860.3L2088.96 1873.27C2088.96 1875.35 2089.07 1876.8 2089.29 1877.61 2089.5 1878.42 2089.91 1879.07 2090.52 1879.55 2091.13 1880.04 2092.24 1880.43 2093.86 1880.73L2093.86 1883.4 2072.06 1883.4 2072.06 1880.73C2073.52 1880.35 2074.51 1879.92 2075.04 1879.43 2075.57 1878.95 2075.92 1878.31 2076.11 1877.51 2076.3 1876.71 2076.4 1875.29 2076.4 1873.23L2076.4 1838.3C2076.4 1836.24 2076.31 1834.82 2076.13 1834.02 2075.96 1833.23 2075.6 1832.58 2075.06 1832.1 2074.52 1831.61 2073.52 1831.17 2072.06 1830.76Z" fill="#70AD47" fill-rule="evenodd"/><text fill="#000000" fill-opacity="0" font-family="Arial,Arial_MSFontService,sans-serif" font-size="55.3198" x="2072.06" y="1876.49">𝐏</text><path d="M2131.28 1861.89 2133.09 1861.89C2133.06 1862.98 2133.03 1863.96 2133.01 1864.82 2132.99 1865.68 2132.97 1866.52 2132.96 1867.34 2132.95 1868.15 2132.95 1868.95 2132.95 1869.75L2132.95 1892.39C2132.95 1893 2132.97 1893.53 2133.01 1893.98 2133.05 1894.43 2133.11 1894.8 2133.2 1895.11 2133.29 1895.42 2133.41 1895.68 2133.56 1895.9 2133.71 1896.12 2133.88 1896.31 2134.08 1896.47 2134.32 1896.7 2134.63 1896.89 2135.03 1897.02 2135.43 1897.15 2135.93 1897.26 2136.55 1897.34 2137.17 1897.43 2137.91 1897.5 2138.77 1897.55 2139.63 1897.6 2140.67 1897.64 2141.88 1897.66L2141.88 1900.25 2118.26 1900.25 2118.26 1897.66C2119.43 1897.62 2120.43 1897.57 2121.24 1897.52 2122.05 1897.47 2122.75 1897.4 2123.33 1897.31 2123.9 1897.23 2124.36 1897.13 2124.71 1897.02 2125.06 1896.91 2125.36 1896.77 2125.62 1896.61 2125.9 1896.44 2126.14 1896.24 2126.33 1896.03 2126.53 1895.83 2126.69 1895.56 2126.81 1895.24 2126.93 1894.93 2127.02 1894.54 2127.09 1894.08 2127.16 1893.63 2127.2 1893.06 2127.2 1892.39L2127.2 1871.03C2127.2 1870.26 2127.05 1869.71 2126.75 1869.39 2126.45 1869.07 2126.03 1868.91 2125.47 1868.91 2124.85 1868.91 2123.94 1869.23 2122.73 1869.87 2121.52 1870.5 2119.95 1871.45 2118.02 1872.7 2117.77 1872.24 2117.53 1871.78 2117.31 1871.33 2117.09 1870.87 2116.86 1870.4 2116.62 1869.93 2119.09 1868.58 2121.52 1867.23 2123.94 1865.89 2126.35 1864.55 2128.8 1863.22 2131.28 1861.89Z" fill="#70AD47" fill-rule="evenodd"/><text fill="#000000" fill-opacity="0" font-family="Arial,Arial_MSFontService,sans-serif" font-size="38.3633" x="2116.62" y="1895.45">1</text><path d="M2152.17 1824.84C2160.06 1826.92 2166.12 1831.42 2170.35 1838.32 2174.57 1845.22 2176.69 1853.55 2176.69 1863.3 2176.69 1873.08 2174.58 1881.41 2170.37 1888.29 2166.15 1895.16 2160.09 1899.64 2152.17 1901.72L2151.2 1898.6C2157.44 1896.52 2162.08 1892.42 2165.12 1886.28 2168.16 1880.15 2169.68 1872.35 2169.68 1862.9 2169.68 1853.77 2168.16 1846.18 2165.14 1840.14 2162.11 1834.1 2157.43 1830.04 2151.08 1827.96Z" fill="#70AD47" fill-rule="evenodd"/><text fill="#000000" fill-opacity="0" font-family="Arial,Arial_MSFontService,sans-serif" font-size="76.8804" x="2151.08" y="1892.11">)</text><path d="M1.64669-1.59378 840.872 865.49 837.579 868.678-1.64669 1.59378ZM845.916 854.226 855.161 883.549 826.156 873.351Z" fill="#5B9BD5" transform="matrix(1 0 0 -1 1153.5 1564.05)"/><path d="M1153.91 1562.25 2398.14 1788.79 2397.32 1793.29 1153.09 1566.75ZM2395.68 1776.69 2420.27 1795.14 2390.76 1803.75Z" fill="#70AD47"/><path d="M2010.65 679.706 2414.32 1772.41 2410.02 1773.99 2006.35 681.294ZM2423.48 1764.13 2420.11 1794.69 2397.69 1773.66Z" fill="#FF0000"/><path d="M2455.13 1650.35 2455.13 1671.83C2456.72 1671.91 2458.56 1671.95 2460.64 1671.95 2463.2 1671.95 2465.32 1671.63 2466.98 1671 2468.64 1670.36 2469.93 1669.26 2470.85 1667.68 2471.77 1666.1 2472.23 1663.93 2472.23 1661.17 2472.23 1658.85 2471.88 1656.9 2471.17 1655.34 2470.47 1653.77 2469.32 1652.55 2467.71 1651.67 2466.1 1650.79 2463.78 1650.35 2460.76 1650.35ZM2460.64 1626.12C2458.75 1626.12 2456.91 1626.18 2455.13 1626.32L2455.13 1645.61 2460.52 1645.61C2463.22 1645.61 2465.34 1645.22 2466.88 1644.43 2468.42 1643.65 2469.59 1642.54 2470.38 1641.09 2471.18 1639.64 2471.58 1637.65 2471.58 1635.11 2471.58 1632.01 2470.71 1629.73 2468.97 1628.28 2467.22 1626.84 2464.45 1626.12 2460.64 1626.12ZM2438.23 1621.37 2464.77 1621.37C2467.53 1621.37 2469.8 1621.5 2471.6 1621.74 2473.4 1621.98 2475.02 1622.37 2476.48 1622.89 2477.94 1623.42 2479.11 1624.01 2479.99 1624.68 2480.87 1625.34 2481.61 1626.1 2482.22 1626.97 2482.83 1627.83 2483.3 1628.82 2483.64 1629.92 2483.97 1631.03 2484.14 1632.26 2484.14 1633.61 2484.14 1639.72 2480.47 1644.3 2473.12 1647.35L2473.12 1647.72C2476.9 1648.91 2479.79 1650.63 2481.77 1652.88 2483.76 1655.14 2484.75 1657.85 2484.75 1661.01 2484.75 1663.71 2484.3 1666.06 2483.39 1668.06 2482.49 1670.06 2481.11 1671.7 2479.26 1672.99 2477.41 1674.27 2475.23 1675.21 2472.73 1675.8 2470.24 1676.4 2467.05 1676.69 2463.19 1676.69L2438.23 1676.69 2438.23 1674.02C2439.68 1673.64 2440.68 1673.21 2441.2 1672.72 2441.73 1672.24 2442.09 1671.59 2442.28 1670.8 2442.47 1670 2442.56 1668.57 2442.56 1666.52L2442.56 1631.59C2442.56 1629.53 2442.47 1628.11 2442.3 1627.31 2442.12 1626.51 2441.76 1625.87 2441.22 1625.39 2440.68 1624.9 2439.68 1624.45 2438.23 1624.05Z" fill="#FF0000" fill-rule="evenodd"/><text fill="#000000" fill-opacity="0" font-family="Arial,Arial_MSFontService,sans-serif" font-size="55.3198" x="2438.23" y="1669.78">𝐁</text><path d="M2522.5 1614.92 2530.18 1614.92 2530.18 1617.24 2520.26 1641.1 2516.78 1640.06ZM2501.5 1614.92 2509.18 1614.92 2509.18 1617.24 2499.26 1641.1 2495.78 1640.06Z" fill="#FF0000" fill-rule="evenodd"/><text fill="#000000" fill-opacity="0" font-family="Arial,Arial_MSFontService,sans-serif" font-size="26.1812" x="2495.78" y="1637.83">′′</text><path d="M2619.85 1614.58C2627.74 1616.66 2633.8 1621.15 2638.03 1628.05 2642.26 1634.96 2644.37 1643.29 2644.37 1653.04 2644.37 1662.82 2642.27 1671.15 2638.05 1678.02 2633.84 1684.9 2627.77 1689.38 2619.85 1691.46L2618.88 1688.34C2625.12 1686.26 2629.76 1682.15 2632.8 1676.02 2635.84 1669.89 2637.36 1662.09 2637.36 1652.63 2637.36 1643.5 2635.85 1635.92 2632.82 1629.88 2629.8 1623.84 2625.11 1619.78 2618.76 1617.7ZM2568.96 1614.58 2570.06 1617.7C2563.74 1619.78 2559.05 1623.84 2556.02 1629.88 2552.98 1635.92 2551.46 1643.5 2551.46 1652.63 2551.46 1662.09 2552.98 1669.89 2556.02 1676.02 2559.05 1682.15 2563.7 1686.26 2569.94 1688.34L2568.96 1691.46C2561.05 1689.38 2554.98 1684.9 2550.77 1678.02 2546.55 1671.15 2544.44 1662.82 2544.44 1653.04 2544.44 1643.29 2546.56 1634.96 2550.79 1628.05 2555.02 1621.15 2561.07 1616.66 2568.96 1614.58Z" fill="#FF0000" fill-rule="evenodd"/><path d="M2594.37 1624.17C2592.5 1624.17 2590.94 1624.72 2589.69 1625.83 2588.43 1626.94 2587.42 1628.53 2586.65 1630.61 2585.88 1632.69 2585.33 1635.23 2585 1638.21 2584.68 1641.2 2584.52 1644.57 2584.52 1648.32 2584.52 1657.13 2585.34 1663.6 2586.97 1667.72 2588.6 1671.84 2591.14 1673.9 2594.57 1673.9 2597.84 1673.9 2600.26 1671.96 2601.84 1668.08 2603.42 1664.2 2604.21 1658.2 2604.21 1650.07 2604.21 1643.85 2603.81 1638.82 2603 1634.97 2602.19 1631.12 2601.06 1628.36 2599.61 1626.68 2598.17 1625.01 2596.42 1624.17 2594.37 1624.17ZM2594.57 1620.73C2600.49 1620.73 2604.89 1623.01 2607.78 1627.57 2610.67 1632.14 2612.12 1639.04 2612.12 1648.28 2612.12 1657.85 2610.57 1665.08 2607.48 1669.99 2604.38 1674.89 2599.86 1677.34 2593.92 1677.34 2588.08 1677.34 2583.74 1675.05 2580.89 1670.45 2578.04 1665.86 2576.62 1658.89 2576.62 1649.54 2576.62 1644.57 2577.05 1640.27 2577.93 1636.65 2578.81 1633.03 2580.04 1630.04 2581.62 1627.68 2583.2 1625.31 2585.1 1623.56 2587.31 1622.43 2589.53 1621.29 2591.95 1620.73 2594.57 1620.73Z" fill="#FF0000" fill-rule="evenodd"/><text fill="#000000" fill-opacity="0" font-family="Arial,Arial_MSFontService,sans-serif" font-size="56.6167" x="2576.62" y="1670.26">0</text><path d="M2680.41 1658.7 2730.34 1658.7 2730.34 1664.09 2680.41 1664.09ZM2680.41 1641.88 2730.34 1641.88 2730.34 1647.27 2680.41 1647.27Z" fill="#FF0000" fill-rule="evenodd"/><text fill="#000000" fill-opacity="0" font-family="Arial,Arial_MSFontService,sans-serif" font-size="22.209" x="2680.41" y="1661.31">=</text><path d="M2780.56 1650.35 2780.56 1671.83C2782.16 1671.91 2784 1671.95 2786.08 1671.95 2788.64 1671.95 2790.76 1671.63 2792.42 1671 2794.08 1670.36 2795.37 1669.26 2796.29 1667.68 2797.21 1666.1 2797.67 1663.93 2797.67 1661.17 2797.67 1658.85 2797.32 1656.9 2796.61 1655.34 2795.91 1653.77 2794.76 1652.55 2793.15 1651.67 2791.54 1650.79 2789.22 1650.35 2786.2 1650.35ZM2786.08 1626.12C2784.19 1626.12 2782.35 1626.18 2780.56 1626.32L2780.56 1645.61 2785.96 1645.61C2788.66 1645.61 2790.78 1645.22 2792.32 1644.43 2793.86 1643.65 2795.03 1642.54 2795.82 1641.09 2796.62 1639.64 2797.02 1637.65 2797.02 1635.11 2797.02 1632.01 2796.15 1629.73 2794.41 1628.28 2792.66 1626.84 2789.89 1626.12 2786.08 1626.12ZM2763.67 1621.37 2790.21 1621.37C2792.97 1621.37 2795.24 1621.5 2797.04 1621.74 2798.84 1621.98 2800.46 1622.37 2801.92 1622.89 2803.38 1623.42 2804.55 1624.01 2805.43 1624.68 2806.31 1625.34 2807.05 1626.1 2807.66 1626.97 2808.27 1627.83 2808.74 1628.82 2809.08 1629.92 2809.41 1631.03 2809.58 1632.26 2809.58 1633.61 2809.58 1639.72 2805.91 1644.3 2798.56 1647.35L2798.56 1647.72C2802.34 1648.91 2805.23 1650.63 2807.21 1652.88 2809.2 1655.14 2810.19 1657.85 2810.19 1661.01 2810.19 1663.71 2809.74 1666.06 2808.83 1668.06 2807.93 1670.06 2806.55 1671.7 2804.7 1672.99 2802.85 1674.27 2800.67 1675.21 2798.17 1675.8 2795.67 1676.4 2792.49 1676.69 2788.63 1676.69L2763.67 1676.69 2763.67 1674.02C2765.12 1673.64 2766.12 1673.21 2766.64 1672.72 2767.17 1672.24 2767.53 1671.59 2767.72 1670.8 2767.91 1670 2768 1668.57 2768 1666.52L2768 1631.59C2768 1629.53 2767.91 1628.11 2767.74 1627.31 2767.56 1626.51 2767.2 1625.87 2766.66 1625.39 2766.12 1624.9 2765.12 1624.45 2763.67 1624.05Z" fill="#FF0000" fill-rule="evenodd"/><text fill="#000000" fill-opacity="0" font-family="Arial,Arial_MSFontService,sans-serif" font-size="55.3198" x="2763.67" y="1669.78">𝐁</text><path d="M2826.94 1614.92 2834.62 1614.92 2834.62 1617.24 2824.7 1641.1 2821.22 1640.06Z" fill="#FF0000" fill-rule="evenodd"/><text fill="#000000" fill-opacity="0" font-family="Arial,Arial_MSFontService,sans-serif" font-size="26.1812" x="2821.22" y="1637.83">′</text><path d="M2924.1 1614.58C2931.99 1616.66 2938.04 1621.15 2942.27 1628.05 2946.5 1634.96 2948.62 1643.29 2948.62 1653.04 2948.62 1662.82 2946.51 1671.15 2942.29 1678.02 2938.08 1684.9 2932.01 1689.38 2924.1 1691.46L2923.12 1688.34C2929.36 1686.26 2934.01 1682.15 2937.04 1676.02 2940.08 1669.89 2941.6 1662.09 2941.6 1652.63 2941.6 1643.5 2940.09 1635.92 2937.07 1629.88 2934.04 1623.84 2929.35 1619.78 2923 1617.7ZM2873.21 1614.58 2874.3 1617.7C2867.98 1619.78 2863.3 1623.84 2860.26 1629.88 2857.22 1635.92 2855.7 1643.5 2855.7 1652.63 2855.7 1662.09 2857.22 1669.89 2860.26 1676.02 2863.3 1682.15 2867.94 1686.26 2874.18 1688.34L2873.21 1691.46C2865.29 1689.38 2859.22 1684.9 2855.01 1678.02 2850.79 1671.15 2848.69 1662.82 2848.69 1653.04 2848.69 1643.29 2850.8 1634.96 2855.03 1628.05 2859.26 1621.15 2865.32 1616.66 2873.21 1614.58Z" fill="#FF0000" fill-rule="evenodd"/><path d="M2901.81 1620.73 2904.04 1620.73C2903.88 1623.32 2903.8 1626.91 2903.8 1631.51L2903.8 1666.12C2903.8 1667.68 2903.88 1668.86 2904.06 1669.66 2904.23 1670.46 2904.55 1671.11 2904.99 1671.61 2905.44 1672.11 2906.08 1672.5 2906.92 1672.78 2907.75 1673.07 2908.81 1673.28 2910.08 1673.43 2911.35 1673.58 2913.02 1673.68 2915.1 1673.73L2915.1 1676.69 2885.15 1676.69 2885.15 1673.73C2888.15 1673.6 2890.29 1673.42 2891.58 1673.19 2892.86 1672.96 2893.84 1672.61 2894.51 1672.15 2895.19 1671.69 2895.68 1671.05 2895.99 1670.21 2896.3 1669.37 2896.46 1668.01 2896.46 1666.12L2896.46 1633.25C2896.46 1632.17 2896.27 1631.38 2895.89 1630.88 2895.51 1630.38 2894.96 1630.13 2894.23 1630.13 2893.37 1630.13 2892.14 1630.57 2890.54 1631.46 2888.95 1632.36 2886.98 1633.59 2884.63 1635.15L2882.84 1632.03Z" fill="#FF0000" fill-rule="evenodd"/><text fill="#000000" fill-opacity="0" font-family="Arial,Arial_MSFontService,sans-serif" font-size="55.9683" x="2882.84" y="1669.7">1</text><path d="M2980.07 1650.27 3030 1650.27 3030 1655.66 2980.07 1655.66Z" fill="#FF0000" fill-rule="evenodd"/><text fill="#000000" fill-opacity="0" font-family="Arial,Arial_MSFontService,sans-serif" font-size="5.39014" x="2980.07" y="1654.99">−</text><path d="M3075.64 1650.35 3075.64 1671.83C3077.23 1671.91 3079.07 1671.95 3081.15 1671.95 3083.72 1671.95 3085.83 1671.63 3087.49 1671 3089.16 1670.36 3090.45 1669.26 3091.36 1667.68 3092.28 1666.1 3092.74 1663.93 3092.74 1661.17 3092.74 1658.85 3092.39 1656.9 3091.69 1655.34 3090.99 1653.77 3089.83 1652.55 3088.22 1651.67 3086.62 1650.79 3084.3 1650.35 3081.27 1650.35ZM3081.15 1626.12C3079.26 1626.12 3077.42 1626.18 3075.64 1626.32L3075.64 1645.61 3081.03 1645.61C3083.73 1645.61 3085.85 1645.22 3087.39 1644.43 3088.93 1643.65 3090.1 1642.54 3090.9 1641.09 3091.7 1639.64 3092.09 1637.65 3092.09 1635.11 3092.09 1632.01 3091.22 1629.73 3089.48 1628.28 3087.74 1626.84 3084.96 1626.12 3081.15 1626.12ZM3058.74 1621.37 3085.29 1621.37C3088.04 1621.37 3090.32 1621.5 3092.11 1621.74 3093.91 1621.98 3095.54 1622.37 3097 1622.89 3098.46 1623.42 3099.63 1624.01 3100.5 1624.68 3101.38 1625.34 3102.12 1626.1 3102.73 1626.97 3103.34 1627.83 3103.81 1628.82 3104.15 1629.92 3104.49 1631.03 3104.66 1632.26 3104.66 1633.61 3104.66 1639.72 3100.98 1644.3 3093.63 1647.35L3093.63 1647.72C3097.42 1648.91 3100.3 1650.63 3102.29 1652.88 3104.27 1655.14 3105.27 1657.85 3105.27 1661.01 3105.27 1663.71 3104.81 1666.06 3103.91 1668.06 3103 1670.06 3101.62 1671.7 3099.77 1672.99 3097.92 1674.27 3095.75 1675.21 3093.25 1675.8 3090.75 1676.4 3087.57 1676.69 3083.7 1676.69L3058.74 1676.69 3058.74 1674.02C3060.2 1673.64 3061.19 1673.21 3061.72 1672.72 3062.25 1672.24 3062.6 1671.59 3062.79 1670.8 3062.98 1670 3063.08 1668.57 3063.08 1666.52L3063.08 1631.59C3063.08 1629.53 3062.99 1628.11 3062.81 1627.31 3062.64 1626.51 3062.28 1625.87 3061.74 1625.39 3061.2 1624.9 3060.2 1624.45 3058.74 1624.05Z" fill="#FF0000" fill-rule="evenodd"/><text fill="#000000" fill-opacity="0" font-family="Arial,Arial_MSFontService,sans-serif" font-size="55.3198" x="3058.74" y="1669.78">𝐁</text><path d="M3119.25 1613.15 3126.83 1613.15 3126.83 1615.46 3117.06 1638.96 3113.62 1637.95Z" fill="#FF0000" fill-rule="evenodd"/><text fill="#000000" fill-opacity="0" font-family="Arial,Arial_MSFontService,sans-serif" font-size="25.8159" x="3113.62" y="1635.74">′</text><path d="M3162.25 1618.13 3163.35 1621.25C3157.03 1623.33 3152.34 1627.39 3149.3 1633.43 3146.27 1639.47 3144.75 1647.05 3144.75 1656.19 3144.75 1665.64 3146.27 1673.44 3149.3 1679.57 3152.34 1685.7 3156.98 1689.81 3163.23 1691.89L3162.25 1695.01C3154.34 1692.93 3148.27 1688.45 3144.06 1681.58 3139.84 1674.7 3137.73 1666.37 3137.73 1656.59 3137.73 1646.84 3139.85 1638.51 3144.08 1631.61 3148.31 1624.7 3154.36 1620.21 3162.25 1618.13Z" fill="#FF0000" fill-rule="evenodd"/><text fill="#000000" fill-opacity="0" font-family="Arial,Arial_MSFontService,sans-serif" font-size="76.8804" x="3137.73" y="1685.4">(</text><path d="M3187.79 1624.17C3185.93 1624.17 3184.37 1624.72 3183.11 1625.83 3181.86 1626.94 3180.84 1628.53 3180.07 1630.61 3179.3 1632.69 3178.76 1635.23 3178.43 1638.21 3178.11 1641.2 3177.95 1644.57 3177.95 1648.32 3177.95 1657.13 3178.76 1663.6 3180.4 1667.72 3182.03 1671.84 3184.56 1673.9 3188 1673.9 3191.27 1673.9 3193.69 1671.96 3195.27 1668.08 3196.85 1664.2 3197.64 1658.2 3197.64 1650.07 3197.64 1643.85 3197.24 1638.82 3196.43 1634.97 3195.62 1631.12 3194.49 1628.36 3193.04 1626.68 3191.6 1625.01 3189.85 1624.17 3187.79 1624.17ZM3188 1620.73C3193.91 1620.73 3198.32 1623.01 3201.21 1627.57 3204.1 1632.14 3205.54 1639.04 3205.54 1648.28 3205.54 1657.85 3204 1665.08 3200.9 1669.99 3197.81 1674.89 3193.29 1677.34 3187.35 1677.34 3181.51 1677.34 3177.17 1675.05 3174.32 1670.45 3171.47 1665.86 3170.04 1658.89 3170.04 1649.54 3170.04 1644.57 3170.48 1640.27 3171.36 1636.65 3172.24 1633.03 3173.47 1630.04 3175.05 1627.68 3176.63 1625.31 3178.53 1623.56 3180.74 1622.43 3182.96 1621.29 3185.38 1620.73 3188 1620.73Z" fill="#FF0000" fill-rule="evenodd"/><text fill="#000000" fill-opacity="0" font-family="Arial,Arial_MSFontService,sans-serif" font-size="56.6167" x="3170.04" y="1670.26">0</text><path d="M3213.28 1618.13C3221.17 1620.21 3227.23 1624.7 3231.46 1631.61 3235.69 1638.51 3237.8 1646.84 3237.8 1656.59 3237.8 1666.37 3235.69 1674.7 3231.48 1681.58 3227.26 1688.45 3221.2 1692.93 3213.28 1695.01L3212.31 1691.89C3218.55 1689.81 3223.19 1685.7 3226.23 1679.57 3229.27 1673.44 3230.79 1665.64 3230.79 1656.19 3230.79 1647.05 3229.28 1639.47 3226.25 1633.43 3223.22 1627.39 3218.54 1623.33 3212.19 1621.25Z" fill="#FF0000" fill-rule="evenodd"/><text fill="#000000" fill-opacity="0" font-family="Arial,Arial_MSFontService,sans-serif" font-size="76.8804" x="3212.19" y="1685.4">)</text><path d="M0.682281-2.18775 1025.58 317.442 1024.22 321.817-0.682281 2.18775ZM1024.61 305.138 1046.77 326.452 1016.43 331.391Z" fill="#4472C4" transform="matrix(1 0 0 -1 1153.5 1563.95)"/><path d="M1.07067-2.02618 975.245 512.746 973.104 516.799-1.07067 2.02618ZM976.547 500.475 994.437 525.48 963.699 524.789Z" fill="#ED7D31" transform="matrix(1 0 0 -1 1153.5 1563.98)"/><path d="M1479.97 1276.47 1479.97 1297.95C1481.56 1298.03 1483.4 1298.08 1485.48 1298.08 1488.05 1298.08 1490.16 1297.76 1491.82 1297.12 1493.49 1296.49 1494.78 1295.38 1495.69 1293.8 1496.61 1292.22 1497.07 1290.05 1497.07 1287.29 1497.07 1284.97 1496.72 1283.03 1496.02 1281.46 1495.32 1279.89 1494.16 1278.67 1492.55 1277.79 1490.95 1276.91 1488.63 1276.47 1485.6 1276.47ZM1485.48 1252.24C1483.59 1252.24 1481.75 1252.31 1479.97 1252.44L1479.97 1271.73 1485.36 1271.73C1488.06 1271.73 1490.18 1271.34 1491.72 1270.56 1493.26 1269.77 1494.43 1268.66 1495.23 1267.21 1496.03 1265.77 1496.42 1263.78 1496.42 1261.24 1496.42 1258.13 1495.55 1255.85 1493.81 1254.41 1492.07 1252.96 1489.29 1252.24 1485.48 1252.24ZM1463.07 1247.5 1489.62 1247.5C1492.37 1247.5 1494.65 1247.62 1496.44 1247.86 1498.24 1248.1 1499.87 1248.49 1501.33 1249.02 1502.79 1249.54 1503.96 1250.14 1504.83 1250.8 1505.71 1251.46 1506.45 1252.23 1507.06 1253.09 1507.67 1253.95 1508.14 1254.94 1508.48 1256.05 1508.82 1257.16 1508.99 1258.39 1508.99 1259.74 1508.99 1265.84 1505.31 1270.42 1497.96 1273.47L1497.96 1273.84C1501.75 1275.03 1504.63 1276.75 1506.62 1279.01 1508.6 1281.26 1509.6 1283.97 1509.6 1287.13 1509.6 1289.83 1509.14 1292.19 1508.24 1294.18 1507.33 1296.18 1505.96 1297.83 1504.1 1299.11 1502.25 1300.39 1500.08 1301.33 1497.58 1301.93 1495.08 1302.52 1491.9 1302.82 1488.04 1302.82L1463.07 1302.82 1463.07 1300.14C1464.53 1299.76 1465.52 1299.33 1466.05 1298.85 1466.58 1298.36 1466.93 1297.72 1467.12 1296.92 1467.31 1296.12 1467.41 1294.7 1467.41 1292.64L1467.41 1257.71C1467.41 1255.66 1467.32 1254.23 1467.14 1253.43 1466.97 1252.64 1466.61 1252 1466.07 1251.51 1465.53 1251.02 1464.53 1250.58 1463.07 1250.17Z" fill="#ED7D31" fill-rule="evenodd"/><text fill="#000000" fill-opacity="0" font-family="Arial,Arial_MSFontService,sans-serif" font-size="55.3198" x="1463.07" y="1295.9">𝐁</text><path d="M1523.58 1239.27 1531.16 1239.27 1531.16 1241.58 1521.39 1265.09 1517.95 1264.07Z" fill="#ED7D31" fill-rule="evenodd"/><text fill="#000000" fill-opacity="0" font-family="Arial,Arial_MSFontService,sans-serif" font-size="25.8159" x="1517.95" y="1261.86">′</text><path d="M1566.58 1244.25 1567.68 1247.38C1561.36 1249.46 1556.67 1253.52 1553.64 1259.55 1550.6 1265.59 1549.08 1273.18 1549.08 1282.31 1549.08 1291.77 1550.6 1299.56 1553.64 1305.69 1556.67 1311.83 1561.32 1315.93 1567.56 1318.01L1566.58 1321.14C1558.67 1319.05 1552.6 1314.58 1548.39 1307.7 1544.17 1300.82 1542.06 1292.5 1542.06 1282.72 1542.06 1272.96 1544.18 1264.63 1548.41 1257.73 1552.64 1250.83 1558.69 1246.34 1566.58 1244.25Z" fill="#ED7D31" fill-rule="evenodd"/><text fill="#000000" fill-opacity="0" font-family="Arial,Arial_MSFontService,sans-serif" font-size="76.8804" x="1542.06" y="1311.53">(</text><path d="M1583.37 1244.86 1590.34 1244.86C1590.45 1245.92 1591.19 1246.69 1592.55 1247.19 1593.91 1247.69 1595.95 1247.94 1598.65 1247.94 1600 1247.94 1601.31 1247.88 1602.58 1247.76 1603.85 1247.64 1605.66 1247.33 1608.01 1246.85L1608.54 1250.58C1603.16 1251.41 1599.03 1252.51 1596.14 1253.86 1593.25 1255.21 1591.08 1256.76 1589.63 1258.5 1588.19 1260.24 1587.46 1262.14 1587.46 1264.19 1587.46 1266.09 1588.1 1267.52 1589.37 1268.51 1590.64 1269.5 1592.43 1269.99 1594.76 1269.99 1595.95 1269.99 1597.16 1269.87 1598.41 1269.62L1600.51 1269.22 1601.24 1272.87 1598.32 1273.43C1594.54 1274.16 1591.23 1275.18 1588.38 1276.47 1585.52 1277.77 1583.34 1279.32 1581.81 1281.11 1580.28 1282.91 1579.52 1284.92 1579.52 1287.13 1579.52 1288.65 1579.75 1289.88 1580.21 1290.82 1580.67 1291.77 1581.43 1292.64 1582.5 1293.45 1583.57 1294.27 1585.25 1295.24 1587.54 1296.37 1590.25 1297.7 1592.18 1298.8 1593.36 1299.7 1594.54 1300.59 1595.39 1301.52 1595.91 1302.49 1596.44 1303.47 1596.7 1304.65 1596.7 1306.06 1596.7 1308.57 1595.73 1310.9 1593.79 1313.05 1591.84 1315.2 1588.6 1317.49 1584.06 1319.92L1582.24 1316.96C1584.34 1315.72 1585.87 1314.75 1586.81 1314.04 1587.76 1313.34 1588.52 1312.64 1589.08 1311.94 1589.65 1311.23 1590.05 1310.57 1590.28 1309.95 1590.51 1309.33 1590.62 1308.67 1590.62 1307.96 1590.62 1307.05 1590.44 1306.27 1590.06 1305.63 1589.68 1305 1588.97 1304.34 1587.93 1303.65 1586.89 1302.96 1585.29 1302.13 1583.13 1301.16 1580.88 1300.18 1578.99 1299.16 1577.45 1298.1 1575.91 1297.03 1574.65 1295.7 1573.66 1294.12 1572.68 1292.54 1572.18 1290.69 1572.18 1288.55 1572.18 1285.09 1573.59 1282.03 1576.4 1279.35 1579.21 1276.68 1583.46 1274.42 1589.17 1272.58L1589.17 1272.26C1583.49 1270.8 1580.65 1268.02 1580.65 1263.91 1580.65 1261.02 1581.89 1258.53 1584.36 1256.43 1586.84 1254.34 1590.83 1252.56 1596.34 1251.1L1596.34 1250.94 1595.81 1250.94C1592.03 1250.94 1589.04 1250.42 1586.84 1249.38 1584.63 1248.34 1583.48 1246.83 1583.37 1244.86Z" fill="#ED7D31" fill-rule="evenodd"/><text fill="#000000" fill-opacity="0" font-family="Arial,Arial_MSFontService,sans-serif" font-size="75.0566" x="1572.18" y="1310.54">𝜉</text><path d="M1614.54 1244.25C1622.43 1246.34 1628.49 1250.83 1632.72 1257.73 1636.95 1264.63 1639.06 1272.96 1639.06 1282.72 1639.06 1292.5 1636.95 1300.82 1632.74 1307.7 1628.52 1314.58 1622.46 1319.05 1614.54 1321.14L1613.57 1318.01C1619.81 1315.93 1624.45 1311.83 1627.49 1305.69 1630.53 1299.56 1632.05 1291.77 1632.05 1282.31 1632.05 1273.18 1630.54 1265.59 1627.51 1259.55 1624.48 1253.52 1619.8 1249.46 1613.45 1247.38Z" fill="#ED7D31" fill-rule="evenodd"/><text fill="#000000" fill-opacity="0" font-family="Arial,Arial_MSFontService,sans-serif" font-size="76.8804" x="1613.45" y="1311.53">)</text><path d="M1456.8 1523.74 1456.8 1545.22C1458.4 1545.3 1460.23 1545.34 1462.31 1545.34 1464.88 1545.34 1466.99 1545.02 1468.66 1544.38 1470.32 1543.75 1471.61 1542.64 1472.53 1541.06 1473.44 1539.48 1473.9 1537.31 1473.9 1534.56 1473.9 1532.23 1473.55 1530.29 1472.85 1528.72 1472.15 1527.15 1470.99 1525.93 1469.39 1525.05 1467.78 1524.17 1465.46 1523.74 1462.44 1523.74ZM1462.31 1499.5C1460.42 1499.5 1458.58 1499.57 1456.8 1499.7L1456.8 1518.99 1462.19 1518.99C1464.89 1518.99 1467.01 1518.6 1468.55 1517.82 1470.09 1517.04 1471.26 1515.92 1472.06 1514.48 1472.86 1513.03 1473.26 1511.04 1473.26 1508.5 1473.26 1505.39 1472.38 1503.11 1470.64 1501.67 1468.9 1500.22 1466.12 1499.5 1462.31 1499.5ZM1439.9 1494.76 1466.45 1494.76C1469.2 1494.76 1471.48 1494.88 1473.28 1495.12 1475.07 1495.37 1476.7 1495.75 1478.16 1496.28 1479.62 1496.81 1480.79 1497.4 1481.67 1498.06 1482.54 1498.72 1483.29 1499.49 1483.89 1500.35 1484.5 1501.22 1484.97 1502.2 1485.31 1503.31 1485.65 1504.42 1485.82 1505.65 1485.82 1507 1485.82 1513.1 1482.14 1517.68 1474.8 1520.74L1474.8 1521.1C1478.58 1522.29 1481.46 1524.01 1483.45 1526.27 1485.43 1528.52 1486.43 1531.23 1486.43 1534.39 1486.43 1537.1 1485.97 1539.45 1485.07 1541.45 1484.16 1543.45 1482.79 1545.09 1480.94 1546.37 1479.09 1547.65 1476.91 1548.59 1474.41 1549.19 1471.91 1549.78 1468.73 1550.08 1464.87 1550.08L1439.9 1550.08 1439.9 1547.4C1441.36 1547.03 1442.35 1546.59 1442.88 1546.11 1443.41 1545.62 1443.77 1544.98 1443.95 1544.18 1444.14 1543.38 1444.24 1541.96 1444.24 1539.91L1444.24 1504.97C1444.24 1502.92 1444.15 1501.49 1443.97 1500.7 1443.8 1499.9 1443.44 1499.26 1442.9 1498.77 1442.36 1498.28 1441.36 1497.84 1439.9 1497.43Z" fill="#4472C4" fill-rule="evenodd"/><text fill="#000000" fill-opacity="0" font-family="Arial,Arial_MSFontService,sans-serif" font-size="55.3198" x="1439.9" y="1543.16">𝐁</text><path d="M1503.17 1488.3 1510.86 1488.3 1510.86 1490.63 1500.94 1514.48 1497.45 1513.44Z" fill="#4472C4" fill-rule="evenodd"/><text fill="#000000" fill-opacity="0" font-family="Arial,Arial_MSFontService,sans-serif" font-size="26.1812" x="1497.45" y="1511.21">′</text><path d="M1663.35 1487.96C1671.24 1490.04 1677.3 1494.54 1681.53 1501.44 1685.76 1508.34 1687.87 1516.67 1687.87 1526.42 1687.87 1536.21 1685.77 1544.53 1681.55 1551.41 1677.34 1558.29 1671.27 1562.76 1663.35 1564.84L1662.38 1561.72C1668.62 1559.64 1673.26 1555.54 1676.3 1549.4 1679.34 1543.27 1680.86 1535.48 1680.86 1526.02 1680.86 1516.89 1679.35 1509.3 1676.32 1503.26 1673.3 1497.22 1668.61 1493.17 1662.26 1491.08ZM1549.44 1487.96 1550.54 1491.08C1544.21 1493.17 1539.53 1497.22 1536.49 1503.26 1533.45 1509.3 1531.93 1516.89 1531.93 1526.02 1531.93 1535.48 1533.45 1543.27 1536.49 1549.4 1539.53 1555.54 1544.17 1559.64 1550.41 1561.72L1549.44 1564.84C1541.53 1562.76 1535.46 1558.29 1531.25 1551.41 1527.03 1544.53 1524.92 1536.21 1524.92 1526.42 1524.92 1516.67 1527.04 1508.34 1531.27 1501.44 1535.49 1494.54 1541.55 1490.04 1549.44 1487.96Z" fill="#4472C4" fill-rule="evenodd"/><path d="M1574.84 1497.55C1572.98 1497.55 1571.42 1498.11 1570.16 1499.22 1568.91 1500.32 1567.89 1501.92 1567.12 1504 1566.35 1506.08 1565.81 1508.61 1565.48 1511.6 1565.16 1514.58 1565 1517.95 1565 1521.71 1565 1530.52 1565.81 1536.98 1567.45 1541.1 1569.08 1545.22 1571.62 1547.28 1575.05 1547.28 1578.32 1547.28 1580.74 1545.34 1582.32 1541.47 1583.9 1537.59 1584.69 1531.58 1584.69 1523.45 1584.69 1517.24 1584.29 1512.21 1583.48 1508.36 1582.67 1504.51 1581.54 1501.74 1580.09 1500.07 1578.65 1498.39 1576.9 1497.55 1574.84 1497.55ZM1575.05 1494.11C1580.96 1494.11 1585.37 1496.39 1588.26 1500.96 1591.15 1505.53 1592.6 1512.43 1592.6 1521.67 1592.6 1531.23 1591.05 1538.47 1587.96 1543.37 1584.86 1548.27 1580.34 1550.73 1574.4 1550.73 1568.56 1550.73 1564.22 1548.43 1561.37 1543.84 1558.52 1539.24 1557.09 1532.27 1557.09 1522.93 1557.09 1517.95 1557.53 1513.66 1558.41 1510.04 1559.29 1506.42 1560.52 1503.42 1562.1 1501.06 1563.68 1498.7 1565.58 1496.95 1567.79 1495.81 1570.01 1494.68 1572.43 1494.11 1575.05 1494.11Z" fill="#4472C4" fill-rule="evenodd"/><text fill="#000000" fill-opacity="0" font-family="Arial,Arial_MSFontService,sans-serif" font-size="56.6167" x="1557.09" y="1543.65">0</text><path d="M1602.12 1540.68 1610.3 1540.68 1610.3 1550.08 1602.12 1550.08Z" fill="#4472C4" fill-rule="evenodd"/><text fill="#000000" fill-opacity="0" font-family="Arial,Arial_MSFontService,sans-serif" font-size="9.40234" x="1602.12" y="1548.9">.</text><path d="M1649.54 1492.08 1652.7 1492.08 1652.09 1501.49 1628.79 1501.49 1628.79 1519.28C1630.19 1518.68 1631.72 1518.24 1633.37 1517.94 1635.02 1517.64 1636.66 1517.49 1638.31 1517.49 1641.53 1517.49 1644.38 1518.15 1646.86 1519.46 1649.35 1520.77 1651.27 1522.63 1652.62 1525.05 1653.97 1527.47 1654.64 1530.27 1654.64 1533.46 1654.64 1537.08 1653.89 1540.19 1652.37 1542.78 1650.86 1545.38 1648.67 1547.35 1645.81 1548.7 1642.95 1550.05 1639.55 1550.73 1635.64 1550.73 1630.96 1550.73 1626.07 1549.77 1620.97 1547.85L1620.97 1539.26 1625.87 1539.26C1626.68 1542.01 1627.9 1544.04 1629.54 1545.34 1631.17 1546.63 1633.29 1547.28 1635.88 1547.28 1639.47 1547.28 1642.19 1546.2 1644.03 1544.04 1645.86 1541.88 1646.78 1538.65 1646.78 1534.35 1646.78 1531.49 1646.3 1529.12 1645.32 1527.24 1644.35 1525.36 1643.04 1524.01 1641.39 1523.17 1639.74 1522.33 1637.83 1521.91 1635.64 1521.91 1633.8 1521.91 1632.22 1522.03 1630.9 1522.26 1629.57 1522.49 1628.15 1522.84 1626.64 1523.33L1623.4 1521.43 1623.4 1494.76 1645.73 1494.76C1646.65 1494.76 1647.31 1494.68 1647.71 1494.54 1648.12 1494.39 1648.44 1494.16 1648.69 1493.85 1648.93 1493.54 1649.21 1492.95 1649.54 1492.08Z" fill="#4472C4" fill-rule="evenodd"/><text fill="#000000" fill-opacity="0" font-family="Arial,Arial_MSFontService,sans-serif" font-size="58.6431" x="1620.97" y="1543.4">5</text><path d="M1723.91 1532.08 1773.84 1532.08 1773.84 1537.47 1723.91 1537.47ZM1723.91 1515.27 1773.84 1515.27 1773.84 1520.66 1723.91 1520.66Z" fill="#4472C4" fill-rule="evenodd"/><text fill="#000000" fill-opacity="0" font-family="Arial,Arial_MSFontService,sans-serif" font-size="22.209" x="1723.91" y="1534.7">=</text><path d="M1824.06 1461.29 1824.06 1482.77C1825.66 1482.85 1827.5 1482.89 1829.58 1482.89 1832.14 1482.89 1834.26 1482.57 1835.92 1481.94 1837.58 1481.3 1838.87 1480.19 1839.79 1478.61 1840.71 1477.03 1841.17 1474.86 1841.17 1472.11 1841.17 1469.78 1840.82 1467.84 1840.11 1466.27 1839.41 1464.71 1838.26 1463.48 1836.65 1462.6 1835.04 1461.73 1832.72 1461.29 1829.7 1461.29ZM1829.58 1437.05C1827.68 1437.05 1825.85 1437.12 1824.06 1437.26L1824.06 1456.55 1829.45 1456.55C1832.16 1456.55 1834.28 1456.15 1835.82 1455.37 1837.36 1454.59 1838.53 1453.47 1839.32 1452.03 1840.12 1450.58 1840.52 1448.59 1840.52 1446.05 1840.52 1442.94 1839.65 1440.67 1837.9 1439.22 1836.16 1437.78 1833.39 1437.05 1829.58 1437.05ZM1807.16 1432.31 1833.71 1432.31C1836.47 1432.31 1838.74 1432.43 1840.54 1432.68 1842.34 1432.92 1843.96 1433.3 1845.42 1433.83 1846.88 1434.36 1848.05 1434.95 1848.93 1435.61 1849.81 1436.28 1850.55 1437.04 1851.16 1437.9 1851.76 1438.77 1852.24 1439.75 1852.58 1440.86 1852.91 1441.97 1853.08 1443.2 1853.08 1444.55 1853.08 1450.66 1849.41 1455.24 1842.06 1458.29L1842.06 1458.65C1845.84 1459.84 1848.73 1461.56 1850.71 1463.82 1852.7 1466.08 1853.69 1468.79 1853.69 1471.95 1853.69 1474.65 1853.24 1477 1852.33 1479 1851.43 1481 1850.05 1482.64 1848.2 1483.92 1846.35 1485.21 1844.17 1486.14 1841.67 1486.74 1839.17 1487.33 1835.99 1487.63 1832.13 1487.63L1807.16 1487.63 1807.16 1484.96C1808.62 1484.58 1809.62 1484.15 1810.14 1483.66 1810.67 1483.17 1811.03 1482.53 1811.22 1481.73 1811.41 1480.94 1811.5 1479.51 1811.5 1477.46L1811.5 1442.52C1811.5 1440.47 1811.41 1439.04 1811.24 1438.25 1811.06 1437.45 1810.7 1436.81 1810.16 1436.32 1809.62 1435.84 1808.62 1435.39 1807.16 1434.99Z" fill="#4472C4" fill-rule="evenodd"/><text fill="#000000" fill-opacity="0" font-family="Arial,Arial_MSFontService,sans-serif" font-size="55.3198" x="1807.16" y="1480.72">𝐁</text><path d="M1870.44 1425.85 1878.12 1425.85 1878.12 1428.18 1868.2 1452.04 1864.72 1450.99Z" fill="#4472C4" fill-rule="evenodd"/><text fill="#000000" fill-opacity="0" font-family="Arial,Arial_MSFontService,sans-serif" font-size="26.1812" x="1864.72" y="1448.76">′</text><path d="M1967.6 1425.52C1975.49 1427.6 1981.54 1432.09 1985.77 1438.99 1990 1445.89 1992.11 1454.22 1992.11 1463.98 1992.11 1473.76 1990.01 1482.09 1985.79 1488.96 1981.58 1495.84 1975.51 1500.32 1967.6 1502.4L1966.62 1499.28C1972.86 1497.2 1977.5 1493.09 1980.54 1486.96 1983.58 1480.82 1985.1 1473.03 1985.1 1463.57 1985.1 1454.44 1983.59 1446.85 1980.56 1440.82 1977.54 1434.78 1972.85 1430.72 1966.5 1428.64ZM1916.7 1425.52 1917.8 1428.64C1911.48 1430.72 1906.8 1434.78 1903.76 1440.82 1900.72 1446.85 1899.2 1454.44 1899.2 1463.57 1899.2 1473.03 1900.72 1480.82 1903.76 1486.96 1906.8 1493.09 1911.44 1497.2 1917.68 1499.28L1916.7 1502.4C1908.79 1500.32 1902.72 1495.84 1898.51 1488.96 1894.29 1482.09 1892.19 1473.76 1892.19 1463.98 1892.19 1454.22 1894.3 1445.89 1898.53 1438.99 1902.76 1432.09 1908.82 1427.6 1916.7 1425.52Z" fill="#4472C4" fill-rule="evenodd"/><path d="M1942.11 1435.11C1940.24 1435.11 1938.68 1435.66 1937.43 1436.77 1936.17 1437.88 1935.16 1439.47 1934.39 1441.55 1933.62 1443.63 1933.07 1446.16 1932.75 1449.15 1932.42 1452.14 1932.26 1455.51 1932.26 1459.26 1932.26 1468.07 1933.08 1474.53 1934.71 1478.65 1936.35 1482.77 1938.88 1484.83 1942.31 1484.83 1945.58 1484.83 1948 1482.9 1949.58 1479.02 1951.17 1475.14 1951.96 1469.14 1951.96 1461 1951.96 1454.79 1951.55 1449.76 1950.74 1445.91 1949.93 1442.06 1948.8 1439.29 1947.36 1437.62 1945.91 1435.94 1944.16 1435.11 1942.11 1435.11ZM1942.31 1431.66C1948.23 1431.66 1952.63 1433.95 1955.52 1438.51 1958.41 1443.08 1959.86 1449.98 1959.86 1459.22 1959.86 1468.79 1958.31 1476.02 1955.22 1480.92 1952.12 1485.83 1947.61 1488.28 1941.66 1488.28 1935.83 1488.28 1931.48 1485.98 1928.63 1481.39 1925.78 1476.8 1924.36 1469.83 1924.36 1460.48 1924.36 1455.51 1924.8 1451.21 1925.67 1447.59 1926.55 1443.97 1927.78 1440.98 1929.36 1438.61 1930.94 1436.25 1932.84 1434.5 1935.06 1433.36 1937.27 1432.23 1939.69 1431.66 1942.31 1431.66Z" fill="#4472C4" fill-rule="evenodd"/><text fill="#000000" fill-opacity="0" font-family="Arial,Arial_MSFontService,sans-serif" font-size="56.6167" x="1924.36" y="1481.2">0</text><path d="M2045.66 1437.86 2051.41 1437.86 2051.41 1461.21 2073.5 1461.21 2073.5 1466.6 2051.41 1466.6 2051.41 1489.94 2045.66 1489.94 2045.66 1466.6 2023.57 1466.6 2023.57 1461.21 2045.66 1461.21Z" fill="#4472C4" fill-rule="evenodd"/><text fill="#000000" fill-opacity="0" font-family="Arial,Arial_MSFontService,sans-serif" font-size="52.0776" x="2023.57" y="1483.43">+</text><path d="M2119.14 1461.29 2119.14 1482.77C2120.73 1482.85 2122.57 1482.89 2124.65 1482.89 2127.22 1482.89 2129.33 1482.57 2130.99 1481.94 2132.66 1481.3 2133.95 1480.19 2134.86 1478.61 2135.78 1477.03 2136.24 1474.86 2136.24 1472.11 2136.24 1469.78 2135.89 1467.84 2135.19 1466.27 2134.49 1464.71 2133.33 1463.48 2131.72 1462.6 2130.12 1461.73 2127.8 1461.29 2124.77 1461.29ZM2124.65 1437.05C2122.76 1437.05 2120.92 1437.12 2119.14 1437.26L2119.14 1456.55 2124.53 1456.55C2127.23 1456.55 2129.35 1456.15 2130.89 1455.37 2132.43 1454.59 2133.6 1453.47 2134.4 1452.03 2135.2 1450.58 2135.59 1448.59 2135.59 1446.05 2135.59 1442.94 2134.72 1440.67 2132.98 1439.22 2131.24 1437.78 2128.46 1437.05 2124.65 1437.05ZM2102.24 1432.31 2128.78 1432.31C2131.54 1432.31 2133.82 1432.43 2135.61 1432.68 2137.41 1432.92 2139.04 1433.3 2140.5 1433.83 2141.96 1434.36 2143.12 1434.95 2144 1435.61 2144.88 1436.28 2145.62 1437.04 2146.23 1437.9 2146.84 1438.77 2147.31 1439.75 2147.65 1440.86 2147.99 1441.97 2148.16 1443.2 2148.16 1444.55 2148.16 1450.66 2144.48 1455.24 2137.13 1458.29L2137.13 1458.65C2140.92 1459.84 2143.8 1461.56 2145.79 1463.82 2147.77 1466.08 2148.76 1468.79 2148.76 1471.95 2148.76 1474.65 2148.31 1477 2147.41 1479 2146.5 1481 2145.12 1482.64 2143.27 1483.92 2141.42 1485.21 2139.25 1486.14 2136.75 1486.74 2134.25 1487.33 2131.07 1487.63 2127.2 1487.63L2102.24 1487.63 2102.24 1484.96C2103.7 1484.58 2104.69 1484.15 2105.22 1483.66 2105.75 1483.17 2106.1 1482.53 2106.29 1481.73 2106.48 1480.94 2106.58 1479.51 2106.58 1477.46L2106.58 1442.52C2106.58 1440.47 2106.49 1439.04 2106.31 1438.25 2106.14 1437.45 2105.78 1436.81 2105.24 1436.32 2104.7 1435.84 2103.7 1435.39 2102.24 1434.99Z" fill="#4472C4" fill-rule="evenodd"/><text fill="#000000" fill-opacity="0" font-family="Arial,Arial_MSFontService,sans-serif" font-size="55.3198" x="2102.24" y="1480.72">𝐁</text><path d="M2165.51 1425.85 2173.19 1425.85 2173.19 1428.18 2163.28 1452.04 2159.79 1450.99Z" fill="#4472C4" fill-rule="evenodd"/><text fill="#000000" fill-opacity="0" font-family="Arial,Arial_MSFontService,sans-serif" font-size="26.1812" x="2159.79" y="1448.76">′</text><path d="M2262.67 1425.52C2270.56 1427.6 2276.62 1432.09 2280.85 1438.99 2285.08 1445.89 2287.19 1454.22 2287.19 1463.98 2287.19 1473.76 2285.08 1482.09 2280.87 1488.96 2276.65 1495.84 2270.59 1500.32 2262.67 1502.4L2261.7 1499.28C2267.94 1497.2 2272.58 1493.09 2275.62 1486.96 2278.66 1480.82 2280.18 1473.03 2280.18 1463.57 2280.18 1454.44 2278.67 1446.85 2275.64 1440.82 2272.61 1434.78 2267.93 1430.72 2261.58 1428.64ZM2211.78 1425.52 2212.87 1428.64C2206.55 1430.72 2201.87 1434.78 2198.83 1440.82 2195.79 1446.85 2194.27 1454.44 2194.27 1463.57 2194.27 1473.03 2195.79 1480.82 2198.83 1486.96 2201.87 1493.09 2206.51 1497.2 2212.75 1499.28L2211.78 1502.4C2203.86 1500.32 2197.8 1495.84 2193.58 1488.96 2189.37 1482.09 2187.26 1473.76 2187.26 1463.98 2187.26 1454.22 2189.38 1445.89 2193.6 1438.99 2197.83 1432.09 2203.89 1427.6 2211.78 1425.52Z" fill="#4472C4" fill-rule="evenodd"/><path d="M2240.38 1431.66 2242.61 1431.66C2242.45 1434.26 2242.37 1437.85 2242.37 1442.44L2242.37 1477.05C2242.37 1478.62 2242.46 1479.8 2242.63 1480.6 2242.81 1481.4 2243.12 1482.04 2243.57 1482.54 2244.01 1483.04 2244.65 1483.44 2245.49 1483.72 2246.33 1484 2247.38 1484.22 2248.65 1484.37 2249.92 1484.52 2251.6 1484.62 2253.68 1484.67L2253.68 1487.63 2223.73 1487.63 2223.73 1484.67C2226.73 1484.54 2228.87 1484.35 2230.15 1484.12 2231.43 1483.9 2232.41 1483.55 2233.09 1483.09 2233.76 1482.63 2234.26 1481.98 2234.57 1481.15 2234.88 1480.31 2235.03 1478.94 2235.03 1477.05L2235.03 1444.19C2235.03 1443.1 2234.85 1442.31 2234.47 1441.81 2234.09 1441.31 2233.53 1441.06 2232.81 1441.06 2231.94 1441.06 2230.71 1441.51 2229.12 1442.4 2227.52 1443.29 2225.55 1444.52 2223.2 1446.09L2221.42 1442.97Z" fill="#4472C4" fill-rule="evenodd"/><text fill="#000000" fill-opacity="0" font-family="Arial,Arial_MSFontService,sans-serif" font-size="55.9683" x="2221.42" y="1480.63">1</text><path d="M2048.86 1549.29C2053.88 1549.29 2057.68 1550.39 2060.24 1552.6 2062.81 1554.8 2064.09 1557.99 2064.09 1562.18 2064.09 1563.61 2063.95 1564.93 2063.67 1566.13 2063.39 1567.33 2062.94 1568.52 2062.33 1569.7 2061.72 1570.87 2060.91 1572.14 2059.88 1573.49 2058.85 1574.84 2057.72 1576.21 2056.48 1577.6 2055.23 1578.99 2053.08 1581.31 2050.03 1584.55 2044.9 1589.98 2041.13 1594.72 2038.72 1598.78L2054 1598.78C2055.33 1598.78 2056.39 1598.7 2057.21 1598.53 2058.02 1598.37 2058.66 1598.1 2059.15 1597.72 2059.64 1597.35 2060.02 1596.85 2060.31 1596.24 2060.59 1595.64 2060.95 1594.7 2061.38 1593.43L2064.82 1593.43 2064.14 1605.26 2030.78 1605.26 2030.78 1603.32C2031.94 1600.48 2033.51 1597.58 2035.48 1594.6 2037.45 1591.63 2040.25 1588.13 2043.87 1584.11 2047.01 1580.65 2049.26 1578.03 2050.64 1576.24 2052.15 1574.3 2053.28 1572.62 2054.02 1571.2 2054.77 1569.78 2055.3 1568.44 2055.62 1567.19 2055.95 1565.93 2056.11 1564.67 2056.11 1563.4 2056.11 1561.37 2055.79 1559.58 2055.14 1558.03 2054.49 1556.47 2053.5 1555.25 2052.16 1554.36 2050.82 1553.47 2049.14 1553.02 2047.11 1553.02 2042.06 1553.02 2038.66 1555.83 2036.9 1561.45L2032 1561.45 2032 1553.67C2035.27 1552.13 2038.33 1551.02 2041.18 1550.33 2044.03 1549.64 2046.59 1549.29 2048.86 1549.29Z" fill="#4472C4" fill-rule="evenodd"/><text fill="#000000" fill-opacity="0" font-family="Arial,Arial_MSFontService,sans-serif" font-size="55.9683" x="2030.78" y="1598.27">2</text><path d="M1802.4 1524.07 1966.4 1524.07 2130.4 1524.07 2294.4 1524.07 2294.4 1529.07 2130.4 1529.07 1966.4 1529.07 1802.4 1529.07Z" fill="#4472C4" fill-rule="evenodd"/><path d="M1257.5 1444.5C1301.5 1458.2 1345.5 1471.91 1353.25 1496.57 1361 1521.24 1331.36 1571.03 1304.01 1592.5" stroke="#172C51" stroke-width="4.58333" stroke-miterlimit="8" fill="none" fill-rule="evenodd"/><path d="M1229.44 1405.73C1227.26 1405.73 1225.39 1406.96 1223.83 1409.42 1222.28 1411.88 1220.91 1415.76 1219.72 1421.05L1215.58 1439.41C1219.42 1439.28 1222.73 1438.01 1225.51 1435.62 1228.3 1433.23 1230.44 1430 1231.96 1425.92 1233.47 1421.84 1234.23 1417.62 1234.23 1413.27 1234.23 1410.92 1233.82 1409.08 1232.99 1407.74 1232.17 1406.4 1230.98 1405.73 1229.44 1405.73ZM1210.72 1402.41 1212.83 1405.21C1208.86 1408.04 1205.7 1411.41 1203.35 1415.3 1200.99 1419.19 1199.82 1423.02 1199.82 1426.81 1199.82 1430.32 1200.6 1433.09 1202.17 1435.12 1203.74 1437.14 1206.1 1438.48 1209.26 1439.13L1213.4 1420.53C1214.77 1414.37 1216.96 1409.82 1219.94 1406.89 1222.93 1403.96 1226.3 1402.49 1230.05 1402.49 1233.75 1402.49 1236.54 1403.52 1238.4 1405.59 1240.27 1407.66 1241.2 1410.76 1241.2 1414.89 1241.2 1420.05 1240.12 1424.74 1237.98 1428.96 1235.83 1433.17 1232.77 1436.47 1228.8 1438.84 1224.82 1441.22 1220.2 1442.45 1214.94 1442.53L1211.13 1459.43 1204.76 1459.43 1208.57 1442.45C1203.55 1441.88 1199.68 1440.21 1196.96 1437.45 1194.25 1434.68 1192.89 1431.04 1192.89 1426.52 1192.89 1417.55 1198.83 1409.52 1210.72 1402.41Z" fill-rule="evenodd"/><text fill="#000000" fill-opacity="0" font-family="Arial,Arial_MSFontService,sans-serif" font-size="57.022" x="1192.89" y="1452.3">𝜑</text><path d="M0 0 268.613 267.903" stroke="#5B9BD5" stroke-width="6.875" stroke-linejoin="round" stroke-miterlimit="10" stroke-dasharray="27.5 20.625" fill="none" fill-rule="evenodd" transform="matrix(1 0 0 -1 2008.5 681.403)"/><path d="M2420.5 1795.5 2786.25 1857.29" stroke="#70AD47" stroke-width="6.875" stroke-linejoin="round" stroke-miterlimit="10" stroke-dasharray="27.5 20.625" fill="none" fill-rule="evenodd"/><path d="M2420.5 1795.5 2503 2016.65" stroke="#FF0000" stroke-width="6.875" stroke-linejoin="round" stroke-miterlimit="10" stroke-dasharray="27.5 20.625" fill="none" fill-rule="evenodd"/><path d="M2062.79 654.174C2076.19 681.432 2061.93 715.885 2030.94 731.128" stroke="#5B9BD5" stroke-width="4.58333" stroke-miterlimit="8" fill="none" fill-rule="evenodd"/><path d="M2124.49 633.602C2121.06 633.602 2118.19 635.257 2115.9 638.567 2113.6 641.876 2111.72 646.895 2110.26 653.622L2104.79 679.033C2104.66 679.655 2104.59 680.181 2104.59 680.614 2104.59 681.343 2104.76 681.965 2105.09 682.478 2105.43 682.991 2105.93 683.498 2106.59 683.998 2107.26 684.498 2108.11 684.93 2109.17 685.295 2110.22 685.659 2111.56 685.842 2113.18 685.842 2115.37 685.842 2117.36 685.166 2119.16 683.815 2120.95 682.464 2122.37 680.546 2123.39 678.06 2124.42 675.575 2124.93 672.738 2124.93 669.55 2124.93 666.497 2124.09 664.106 2122.4 662.376 2120.71 660.647 2118.3 659.661 2115.17 659.418L2115.73 656.54C2118.65 656.324 2121.29 655.487 2123.64 654.028 2125.99 652.569 2127.83 650.657 2129.17 648.293 2130.51 645.929 2131.17 643.342 2131.17 640.532 2131.17 638.29 2130.61 636.574 2129.49 635.385 2128.37 634.196 2126.7 633.602 2124.49 633.602ZM2124.89 630.4C2129.05 630.4 2132.27 631.326 2134.54 633.176 2136.81 635.027 2137.94 637.655 2137.94 641.059 2137.94 642.437 2137.75 643.93 2137.35 645.537 2136.96 647.145 2136.19 648.725 2135.02 650.279 2133.86 651.833 2132.25 653.271 2130.18 654.595 2128.11 655.919 2125.58 657.054 2122.58 657.999L2122.5 658.324C2128.93 660.593 2132.15 664.822 2132.15 671.009 2132.15 674.197 2131.44 677.182 2130.02 679.965 2128.6 682.748 2126.52 684.957 2123.78 686.591 2121.04 688.226 2117.88 689.043 2114.31 689.043 2112.02 689.043 2110 688.861 2108.26 688.496 2106.51 688.132 2104.71 687.503 2102.85 686.612L2098.51 705.822 2091.9 705.822 2103.9 652.245C2104.98 647.435 2106.44 643.45 2108.28 640.289 2110.11 637.128 2112.41 634.689 2115.17 632.974 2117.92 631.258 2121.16 630.4 2124.89 630.4Z" fill="#5B9BD5" fill-rule="evenodd"/><text fill="#000000" fill-opacity="0" font-family="Arial,Arial_MSFontService,sans-serif" font-size="75.4214" x="2091.9" y="696.394">𝛽</text><path d="M2175.45 629.833 2176.55 632.954C2170.22 635.034 2165.54 639.093 2162.5 645.132 2159.46 651.171 2157.94 658.756 2157.94 667.888 2157.94 677.344 2159.46 685.139 2162.5 691.272 2165.54 697.406 2170.18 701.512 2176.42 703.593L2175.45 706.713C2167.53 704.633 2161.47 700.155 2157.25 693.279 2153.04 686.402 2150.93 678.074 2150.93 668.293 2150.93 658.54 2153.05 650.211 2157.27 643.308 2161.5 636.405 2167.56 631.913 2175.45 629.833Z" fill="#5B9BD5" fill-rule="evenodd"/><text fill="#000000" fill-opacity="0" font-family="Arial,Arial_MSFontService,sans-serif" font-size="76.8804" x="2150.93" y="697.103">(</text><path d="M2200.99 635.872C2199.13 635.872 2197.57 636.425 2196.31 637.533 2195.05 638.641 2194.04 640.235 2193.27 642.315 2192.5 644.396 2191.95 646.929 2191.63 649.914 2191.31 652.9 2191.14 656.27 2191.14 660.026 2191.14 668.834 2191.96 675.298 2193.59 679.418 2195.23 683.538 2197.76 685.599 2201.19 685.599 2204.46 685.599 2206.89 683.66 2208.47 679.783 2210.05 675.906 2210.84 669.901 2210.84 661.768 2210.84 655.554 2210.43 650.522 2209.62 646.672 2208.81 642.822 2207.69 640.059 2206.24 638.384 2204.79 636.709 2203.04 635.872 2200.99 635.872ZM2201.19 632.427C2207.11 632.427 2211.51 634.71 2214.41 639.276 2217.3 643.842 2218.74 650.745 2218.74 659.985 2218.74 669.55 2217.2 676.784 2214.1 681.688 2211.01 686.591 2206.49 689.043 2200.55 689.043 2194.71 689.043 2190.37 686.747 2187.52 682.154 2184.67 677.561 2183.24 670.59 2183.24 661.242 2183.24 656.27 2183.68 651.974 2184.56 648.354 2185.44 644.734 2186.66 641.741 2188.25 639.377 2189.83 637.013 2191.72 635.264 2193.94 634.129 2196.16 632.994 2198.57 632.427 2201.19 632.427Z" fill="#5B9BD5" fill-rule="evenodd"/><text fill="#000000" fill-opacity="0" font-family="Arial,Arial_MSFontService,sans-serif" font-size="56.6167" x="2183.24" y="681.966">0</text><path d="M2226.48 629.833C2234.37 631.913 2240.43 636.405 2244.66 643.308 2248.88 650.211 2251 658.54 2251 668.293 2251 678.074 2248.89 686.402 2244.68 693.279 2240.46 700.155 2234.4 704.633 2226.48 706.713L2225.51 703.593C2231.75 701.512 2236.39 697.406 2239.43 691.272 2242.47 685.139 2243.99 677.344 2243.99 667.888 2243.99 658.756 2242.47 651.171 2239.45 645.132 2236.42 639.093 2231.73 635.034 2225.39 632.954Z" fill="#5B9BD5" fill-rule="evenodd"/><text fill="#000000" fill-opacity="0" font-family="Arial,Arial_MSFontService,sans-serif" font-size="76.8804" x="2225.39" y="697.103">)</text><path d="M2593.67 1911.29C2590.24 1911.29 2587.38 1912.95 2585.08 1916.26 2582.79 1919.57 2580.91 1924.59 2579.45 1931.32L2573.98 1956.73C2573.84 1957.35 2573.78 1957.87 2573.78 1958.31 2573.78 1959.04 2573.94 1959.66 2574.28 1960.17 2574.62 1960.68 2575.12 1961.19 2575.78 1961.69 2576.44 1962.19 2577.3 1962.62 2578.36 1962.99 2579.41 1963.35 2580.75 1963.53 2582.37 1963.53 2584.56 1963.53 2586.55 1962.86 2588.35 1961.51 2590.14 1960.16 2591.55 1958.24 2592.58 1955.75 2593.61 1953.27 2594.12 1950.43 2594.12 1947.24 2594.12 1944.19 2593.28 1941.8 2591.59 1940.07 2589.9 1938.34 2587.49 1937.35 2584.35 1937.11L2584.92 1934.23C2587.84 1934.02 2590.47 1933.18 2592.82 1931.72 2595.17 1930.26 2597.02 1928.35 2598.36 1925.99 2599.69 1923.62 2600.36 1921.03 2600.36 1918.22 2600.36 1915.98 2599.8 1914.27 2598.68 1913.08 2597.56 1911.89 2595.89 1911.29 2593.67 1911.29ZM2594.08 1908.09C2598.24 1908.09 2601.46 1909.02 2603.73 1910.87 2605.99 1912.72 2607.13 1915.35 2607.13 1918.75 2607.13 1920.13 2606.93 1921.62 2606.54 1923.23 2606.15 1924.84 2605.37 1926.42 2604.21 1927.97 2603.05 1929.53 2601.44 1930.96 2599.37 1932.29 2597.3 1933.61 2594.77 1934.75 2591.77 1935.69L2591.69 1936.02C2598.12 1938.29 2601.33 1942.51 2601.33 1948.7 2601.33 1951.89 2600.62 1954.88 2599.21 1957.66 2597.79 1960.44 2595.71 1962.65 2592.97 1964.28 2590.22 1965.92 2587.07 1966.74 2583.5 1966.74 2581.21 1966.74 2579.19 1966.55 2577.44 1966.19 2575.7 1965.82 2573.9 1965.2 2572.03 1964.3L2567.7 1983.51 2561.09 1983.51 2573.09 1929.94C2574.17 1925.13 2575.63 1921.14 2577.46 1917.98 2579.3 1914.82 2581.6 1912.38 2584.35 1910.67 2587.11 1908.95 2590.35 1908.09 2594.08 1908.09Z" fill="#70AD47" fill-rule="evenodd"/><text fill="#000000" fill-opacity="0" font-family="Arial,Arial_MSFontService,sans-serif" font-size="75.4214" x="2561.09" y="1974.09">𝛽</text><path d="M2644.64 1907.53 2645.73 1910.65C2639.41 1912.73 2634.73 1916.79 2631.69 1922.82 2628.65 1928.86 2627.13 1936.45 2627.13 1945.58 2627.13 1955.04 2628.65 1962.83 2631.69 1968.97 2634.73 1975.1 2639.37 1979.2 2645.61 1981.29L2644.64 1984.41C2636.72 1982.33 2630.66 1977.85 2626.44 1970.97 2622.23 1964.1 2620.12 1955.77 2620.12 1945.99 2620.12 1936.23 2622.23 1927.9 2626.46 1921 2630.69 1914.1 2636.75 1909.61 2644.64 1907.53Z" fill="#70AD47" fill-rule="evenodd"/><text fill="#000000" fill-opacity="0" font-family="Arial,Arial_MSFontService,sans-serif" font-size="76.8804" x="2620.12" y="1974.8">(</text><path d="M2673.38 1910.12 2675.61 1910.12C2675.45 1912.71 2675.37 1916.31 2675.37 1920.9L2675.37 1955.51C2675.37 1957.08 2675.45 1958.26 2675.63 1959.06 2675.8 1959.85 2676.12 1960.5 2676.56 1961 2677.01 1961.5 2677.65 1961.89 2678.49 1962.18 2679.32 1962.46 2680.38 1962.68 2681.65 1962.83 2682.92 1962.97 2684.59 1963.08 2686.67 1963.13L2686.67 1966.09 2656.72 1966.09 2656.72 1963.13C2659.72 1962.99 2661.86 1962.81 2663.15 1962.58 2664.43 1962.35 2665.41 1962.01 2666.08 1961.55 2666.76 1961.09 2667.25 1960.44 2667.56 1959.6 2667.88 1958.77 2668.03 1957.4 2668.03 1955.51L2668.03 1922.64C2668.03 1921.56 2667.84 1920.77 2667.46 1920.27 2667.08 1919.77 2666.53 1919.52 2665.8 1919.52 2664.94 1919.52 2663.71 1919.97 2662.11 1920.86 2660.52 1921.75 2658.55 1922.98 2656.2 1924.55L2654.41 1921.43Z" fill="#70AD47" fill-rule="evenodd"/><text fill="#000000" fill-opacity="0" font-family="Arial,Arial_MSFontService,sans-serif" font-size="55.9683" x="2654.41" y="1959.09">1</text><path d="M2695.67 1907.53C2703.56 1909.61 2709.62 1914.1 2713.84 1921 2718.07 1927.9 2720.19 1936.23 2720.19 1945.99 2720.19 1955.77 2718.08 1964.1 2713.86 1970.97 2709.65 1977.85 2703.58 1982.33 2695.67 1984.41L2694.69 1981.29C2700.94 1979.2 2705.58 1975.1 2708.62 1968.97 2711.66 1962.83 2713.17 1955.04 2713.17 1945.58 2713.17 1936.45 2711.66 1928.86 2708.64 1922.82 2705.61 1916.79 2700.92 1912.73 2694.57 1910.65Z" fill="#70AD47" fill-rule="evenodd"/><text fill="#000000" fill-opacity="0" font-family="Arial,Arial_MSFontService,sans-serif" font-size="76.8804" x="2694.57" y="1974.8">)</text><path d="M2490.12 1804.15C2503.52 1831.41 2489.26 1865.86 2458.27 1881.1" stroke="#00B050" stroke-width="4.58333" stroke-miterlimit="8" fill="none" fill-rule="evenodd"/><path d="M2193.5 1238.5C2193.5 1228.01 2202.01 1219.5 2212.5 1219.5 2222.99 1219.5 2231.5 1228.01 2231.5 1238.5 2231.5 1248.99 2222.99 1257.5 2212.5 1257.5 2202.01 1257.5 2193.5 1248.99 2193.5 1238.5Z" stroke="#000000" stroke-width="4.58333" stroke-miterlimit="8" fill-rule="evenodd"/></g></svg>