<svg width="3481" height="1004" xmlns="http://www.w3.org/2000/svg" xmlns:xlink="http://www.w3.org/1999/xlink" xml:space="preserve" overflow="hidden"><g transform="translate(-474 -1044)"><path d="M1737.46 1567.59 1964.54 1567.59 1964.54 1595.59 1737.46 1595.59ZM1737.46 1616.41 1964.54 1616.41 1964.54 1644.41 1737.46 1644.41Z" stroke="#172C51" stroke-width="4.58333" stroke-miterlimit="8" fill-rule="evenodd"/><path d="M820.023 1928.73C924.331 1837.73 1028.64 1746.73 1108.62 1746.32 1188.6 1745.91 1257 1874.45 1299.92 1926.29" stroke="#00B050" stroke-width="13.75" stroke-miterlimit="8" fill="none" fill-rule="evenodd"/><path d="M0 0 645.01 524.123" stroke="#00B050" stroke-width="4.58333" stroke-miterlimit="8" fill="none" fill-rule="evenodd" transform="matrix(1 0 0 -1 588.5 1696.62)"/><path d="M1609.76 1731.8 1234.5 1175.5" stroke="#00B050" stroke-width="4.58333" stroke-miterlimit="8" fill="none" fill-rule="evenodd"/><path d="M1212.5 1181C1212.5 1170.23 1221.01 1161.5 1231.5 1161.5 1241.99 1161.5 1250.5 1170.23 1250.5 1181 1250.5 1191.77 1241.99 1200.5 1231.5 1200.5 1221.01 1200.5 1212.5 1191.77 1212.5 1181Z" stroke="#000000" stroke-width="4.58333" stroke-miterlimit="8" fill-rule="evenodd"/><path d="M532.723 1595.6C530.832 1595.6 529.373 1595.63 528.346 1595.68L528.346 1618.5 531.832 1618.5C534.534 1618.5 536.682 1618.11 538.276 1617.34 539.87 1616.57 541.052 1615.35 541.822 1613.68 542.592 1612 542.977 1609.74 542.977 1606.91 542.977 1602.99 542.193 1600.13 540.626 1598.32 539.059 1596.51 536.425 1595.6 532.723 1595.6ZM511.447 1590.86 534.993 1590.86C541.829 1590.86 546.948 1592.08 550.353 1594.53 553.757 1596.97 555.459 1600.73 555.459 1605.81 555.459 1609.41 554.662 1612.53 553.068 1615.17 551.474 1617.82 549.164 1619.83 546.138 1621.19 543.112 1622.56 539.329 1623.24 534.79 1623.24 532.17 1623.24 530.022 1623.19 528.346 1623.08L528.346 1636.05C528.346 1638.13 528.455 1639.57 528.671 1640.38 528.887 1641.19 529.299 1641.84 529.907 1642.33 530.515 1642.81 531.629 1643.21 533.25 1643.5L533.25 1646.18 511.447 1646.18 511.447 1643.5C512.906 1643.12 513.898 1642.69 514.425 1642.21 514.952 1641.72 515.31 1641.08 515.499 1640.28 515.688 1639.48 515.783 1638.06 515.783 1636.01L515.783 1601.07C515.783 1599.02 515.695 1597.59 515.52 1596.8 515.344 1596 514.986 1595.36 514.446 1594.87 513.905 1594.38 512.906 1593.94 511.447 1593.53Z" fill="#00B050" fill-rule="evenodd"/><text fill="#000000" fill-opacity="0" font-family="Arial,Arial_MSFontService,sans-serif" font-size="55.3198" x="511.447" y="1639.26">𝐏</text><path d="M570.123 1628.9C568.733 1628.9 567.572 1629.26 566.638 1629.98 565.705 1630.71 564.965 1631.77 564.419 1633.17 563.873 1634.57 563.486 1636.28 563.258 1638.29 563.029 1640.31 562.915 1642.6 562.915 1645.16 562.915 1648.12 563.059 1650.68 563.347 1652.83 563.635 1654.98 564.082 1656.76 564.687 1658.15 565.293 1659.54 566.052 1660.56 566.966 1661.21 567.879 1661.87 568.971 1662.2 570.242 1662.2 571.434 1662.2 572.476 1661.89 573.37 1661.27 574.263 1660.66 575.003 1659.7 575.589 1658.4 576.174 1657.1 576.616 1655.45 576.914 1653.46 577.212 1651.46 577.361 1649.1 577.361 1646.38 577.361 1643.32 577.197 1640.69 576.869 1638.49 576.542 1636.28 576.08 1634.47 575.484 1633.05 574.889 1631.63 574.139 1630.59 573.236 1629.91 572.332 1629.24 571.295 1628.9 570.123 1628.9ZM570.242 1626.01C572.605 1626.01 574.626 1626.45 576.304 1627.33 577.981 1628.22 579.352 1629.48 580.414 1631.12 581.476 1632.75 582.256 1634.76 582.752 1637.12 583.248 1639.48 583.497 1642.15 583.497 1645.13 583.497 1651.74 582.325 1656.74 579.982 1660.13 577.639 1663.51 574.243 1665.21 569.795 1665.21 565.387 1665.21 562.111 1663.61 559.966 1660.41 557.822 1657.21 556.75 1652.37 556.75 1645.88 556.75 1642.48 557.082 1639.54 557.747 1637.06 558.413 1634.58 559.346 1632.52 560.547 1630.88 561.749 1629.24 563.173 1628.02 564.821 1627.21 566.469 1626.41 568.276 1626.01 570.242 1626.01Z" fill="#00B050" fill-rule="evenodd"/><text fill="#000000" fill-opacity="0" font-family="Arial,Arial_MSFontService,sans-serif" font-size="39.1973" x="556.75" y="1660.31">0</text><path d="M571.28 1582.84 578.964 1582.84 578.964 1585.17 569.046 1609.02 565.561 1607.98Z" fill="#00B050" fill-rule="evenodd"/><text fill="#000000" fill-opacity="0" font-family="Arial,Arial_MSFontService,sans-serif" font-size="26.1812" x="565.561" y="1605.75">′</text><path d="M1218.84 1086.91C1216.95 1086.91 1215.49 1086.93 1214.46 1086.99L1214.46 1109.8 1217.95 1109.8C1220.65 1109.8 1222.8 1109.42 1224.39 1108.65 1225.99 1107.88 1227.17 1106.66 1227.94 1104.98 1228.71 1103.31 1229.09 1101.05 1229.09 1098.21 1229.09 1094.3 1228.31 1091.43 1226.74 1089.62 1225.17 1087.81 1222.54 1086.91 1218.84 1086.91ZM1197.56 1082.16 1221.11 1082.16C1227.94 1082.16 1233.06 1083.39 1236.47 1085.83 1239.87 1088.28 1241.57 1092.04 1241.57 1097.12 1241.57 1100.71 1240.78 1103.83 1239.18 1106.48 1237.59 1109.13 1235.28 1111.13 1232.25 1112.5 1229.23 1113.86 1225.44 1114.55 1220.91 1114.55 1218.29 1114.55 1216.14 1114.49 1214.46 1114.38L1214.46 1127.35C1214.46 1129.43 1214.57 1130.88 1214.79 1131.69 1215 1132.5 1215.41 1133.15 1216.02 1133.63 1216.63 1134.12 1217.74 1134.51 1219.37 1134.81L1219.37 1137.48 1197.56 1137.48 1197.56 1134.81C1199.02 1134.43 1200.01 1134 1200.54 1133.51 1201.07 1133.03 1201.43 1132.38 1201.61 1131.59 1201.8 1130.79 1201.9 1129.37 1201.9 1127.31L1201.9 1092.38C1201.9 1090.32 1201.81 1088.9 1201.64 1088.1 1201.46 1087.3 1201.1 1086.66 1200.56 1086.18 1200.02 1085.69 1199.02 1085.24 1197.56 1084.84Z" fill="#00B050" fill-rule="evenodd"/><text fill="#000000" fill-opacity="0" font-family="Arial,Arial_MSFontService,sans-serif" font-size="55.3198" x="1197.56" y="1130.57">𝐏</text><path d="M1256.78 1117.43 1258.6 1117.43C1258.56 1118.52 1258.53 1119.5 1258.51 1120.37 1258.49 1121.23 1258.47 1122.07 1258.46 1122.88 1258.45 1123.7 1258.45 1124.5 1258.45 1125.29L1258.45 1147.93C1258.45 1148.55 1258.47 1149.08 1258.51 1149.53 1258.55 1149.97 1258.61 1150.35 1258.7 1150.66 1258.79 1150.96 1258.91 1151.23 1259.06 1151.45 1259.21 1151.66 1259.38 1151.85 1259.58 1152.01 1259.82 1152.25 1260.13 1152.43 1260.53 1152.56 1260.93 1152.69 1261.44 1152.8 1262.05 1152.89 1262.67 1152.98 1263.41 1153.05 1264.27 1153.1 1265.13 1153.15 1266.17 1153.18 1267.38 1153.2L1267.38 1155.79 1243.76 1155.79 1243.76 1153.2C1244.93 1153.16 1245.93 1153.12 1246.74 1153.07 1247.56 1153.02 1248.25 1152.95 1248.83 1152.86 1249.4 1152.77 1249.86 1152.67 1250.21 1152.56 1250.56 1152.45 1250.86 1152.32 1251.12 1152.16 1251.4 1151.98 1251.64 1151.79 1251.83 1151.58 1252.03 1151.37 1252.19 1151.11 1252.31 1150.79 1252.43 1150.47 1252.52 1150.09 1252.59 1149.63 1252.66 1149.17 1252.7 1148.61 1252.7 1147.93L1252.7 1126.58C1252.7 1125.8 1252.55 1125.26 1252.25 1124.94 1251.95 1124.62 1251.53 1124.46 1250.97 1124.46 1250.36 1124.46 1249.44 1124.78 1248.23 1125.41 1247.02 1126.05 1245.45 1126.99 1243.52 1128.24 1243.27 1127.79 1243.03 1127.33 1242.81 1126.87 1242.59 1126.42 1242.36 1125.95 1242.12 1125.47 1244.59 1124.12 1247.02 1122.78 1249.44 1121.44 1251.85 1120.1 1254.3 1118.76 1256.78 1117.43Z" fill="#00B050" fill-rule="evenodd"/><text fill="#000000" fill-opacity="0" font-family="Arial,Arial_MSFontService,sans-serif" font-size="38.3633" x="1242.12" y="1151">1</text><path d="M1257.4 1074.26 1265.08 1074.26 1265.08 1076.59 1255.16 1100.45 1251.68 1099.4Z" fill="#00B050" fill-rule="evenodd"/><text fill="#000000" fill-opacity="0" font-family="Arial,Arial_MSFontService,sans-serif" font-size="26.1812" x="1251.68" y="1097.17">′</text><path d="M1665.88 1654.82C1663.99 1654.82 1662.53 1654.85 1661.5 1654.9L1661.5 1677.72 1664.99 1677.72C1667.69 1677.72 1669.84 1677.33 1671.43 1676.56 1673.03 1675.79 1674.21 1674.57 1674.98 1672.9 1675.75 1671.22 1676.13 1668.96 1676.13 1666.13 1676.13 1662.21 1675.35 1659.35 1673.78 1657.54 1672.22 1655.73 1669.58 1654.82 1665.88 1654.82ZM1644.6 1650.08 1668.15 1650.08C1674.99 1650.08 1680.11 1651.3 1683.51 1653.75 1686.91 1656.19 1688.62 1659.95 1688.62 1665.03 1688.62 1668.63 1687.82 1671.75 1686.23 1674.4 1684.63 1677.04 1682.32 1679.05 1679.3 1680.41 1676.27 1681.78 1672.49 1682.46 1667.95 1682.46 1665.33 1682.46 1663.18 1682.41 1661.5 1682.3L1661.5 1695.27C1661.5 1697.35 1661.61 1698.79 1661.83 1699.6 1662.04 1700.41 1662.46 1701.06 1663.06 1701.55 1663.67 1702.04 1664.79 1702.43 1666.41 1702.72L1666.41 1705.4 1644.6 1705.4 1644.6 1702.72C1646.06 1702.35 1647.06 1701.91 1647.58 1701.43 1648.11 1700.94 1648.47 1700.3 1648.66 1699.5 1648.85 1698.71 1648.94 1697.28 1648.94 1695.23L1648.94 1660.29C1648.94 1658.24 1648.85 1656.81 1648.68 1656.02 1648.5 1655.22 1648.14 1654.58 1647.6 1654.09 1647.06 1653.61 1646.06 1653.16 1644.6 1652.75Z" fill="#00B050" fill-rule="evenodd"/><text fill="#000000" fill-opacity="0" font-family="Arial,Arial_MSFontService,sans-serif" font-size="55.3198" x="1644.6" y="1698.48">𝐏</text><path d="M1703.4 1685.23C1705.46 1685.23 1707.23 1685.46 1708.69 1685.93 1710.15 1686.4 1711.33 1687.03 1712.25 1687.82 1713.16 1688.61 1713.82 1689.57 1714.23 1690.68 1714.63 1691.79 1714.84 1692.99 1714.84 1694.28 1714.84 1695.06 1714.78 1695.78 1714.67 1696.44 1714.56 1697.11 1714.38 1697.76 1714.11 1698.41 1713.84 1699.05 1713.49 1699.7 1713.05 1700.36 1712.61 1701.02 1712.07 1701.71 1711.41 1702.45 1710.92 1703.08 1710.27 1703.82 1709.48 1704.65 1708.68 1705.48 1707.81 1706.38 1706.87 1707.33 1705.93 1708.28 1704.94 1709.28 1703.91 1710.31 1702.87 1711.34 1701.87 1712.36 1700.9 1713.38 1699.92 1714.39 1699.03 1715.37 1698.22 1716.33 1697.4 1717.28 1696.74 1718.15 1696.22 1718.95L1707.24 1718.95C1708.18 1718.95 1708.92 1718.91 1709.48 1718.84 1710.03 1718.77 1710.49 1718.62 1710.86 1718.38 1711.23 1718.14 1711.54 1717.78 1711.8 1717.29 1712.06 1716.81 1712.36 1716.14 1712.69 1715.28L1715.46 1715.28C1715.36 1716.69 1715.27 1718.11 1715.18 1719.54 1715.09 1720.97 1715 1722.39 1714.9 1723.8L1689.67 1723.8 1689.67 1722.25C1690.15 1721.18 1690.7 1720.12 1691.34 1719.08 1691.97 1718.04 1692.69 1716.98 1693.48 1715.91 1694.28 1714.84 1695.18 1713.73 1696.19 1712.59 1697.2 1711.45 1698.33 1710.26 1699.56 1709.03 1701.42 1707.16 1702.94 1705.57 1704.11 1704.25 1705.29 1702.93 1706.21 1701.75 1706.88 1700.72 1707.56 1699.69 1708.02 1698.73 1708.27 1697.86 1708.52 1696.98 1708.64 1696.05 1708.64 1695.06 1708.64 1694.05 1708.5 1693.11 1708.21 1692.26 1707.92 1691.4 1707.51 1690.68 1706.97 1690.08 1706.44 1689.49 1705.76 1689.02 1704.93 1688.68 1704.11 1688.35 1703.16 1688.18 1702.09 1688.18 1700.24 1688.18 1698.69 1688.68 1697.44 1689.68 1696.19 1690.69 1695.22 1692.14 1694.52 1694.05L1690.62 1694.05 1690.62 1688.24C1693.16 1687.19 1695.5 1686.42 1697.64 1685.94 1699.77 1685.47 1701.69 1685.23 1703.4 1685.23Z" fill="#00B050" fill-rule="evenodd"/><text fill="#000000" fill-opacity="0" font-family="Arial,Arial_MSFontService,sans-serif" font-size="38.5718" x="1689.67" y="1718.98">2</text><path d="M1704.44 1642.06 1712.12 1642.06 1712.12 1644.39 1702.2 1668.25 1698.72 1667.2Z" fill="#00B050" fill-rule="evenodd"/><text fill="#000000" fill-opacity="0" font-family="Arial,Arial_MSFontService,sans-serif" font-size="26.1812" x="1698.72" y="1664.97">′</text><path d="M587.3 1693.73C804.046 1525.92 1020.79 1358.12 1191.83 1362.92 1362.88 1367.72 1518.14 1619.8 1613.56 1722.53" stroke="#00B050" stroke-width="13.75" stroke-miterlimit="8" fill="none" fill-rule="evenodd"/><path d="M568.5 1694C568.5 1683.23 577.007 1674.5 587.5 1674.5 597.993 1674.5 606.5 1683.23 606.5 1694 606.5 1704.77 597.993 1713.5 587.5 1713.5 577.007 1713.5 568.5 1704.77 568.5 1694Z" stroke="#000000" stroke-width="4.58333" stroke-miterlimit="8" fill-rule="evenodd"/><path d="M1598.5 1724C1598.5 1713.23 1607.23 1704.5 1618 1704.5 1628.77 1704.5 1637.5 1713.23 1637.5 1724 1637.5 1734.77 1628.77 1743.5 1618 1743.5 1607.23 1743.5 1598.5 1734.77 1598.5 1724Z" stroke="#000000" stroke-width="4.58333" stroke-miterlimit="8" fill-rule="evenodd"/><path d="M0 0 323.607 262.957" stroke="#00B050" stroke-width="4.58333" stroke-miterlimit="8" fill="none" fill-rule="evenodd" transform="matrix(1 0 0 -1 812.5 1927.46)"/><path d="M1301.07 1912.94 1135.5 1667.5" stroke="#00B050" stroke-width="4.58333" stroke-miterlimit="8" fill="none" fill-rule="evenodd"/><path d="M1114.5 1675.5C1114.5 1665.01 1123.23 1656.5 1134 1656.5 1144.77 1656.5 1153.5 1665.01 1153.5 1675.5 1153.5 1685.99 1144.77 1694.5 1134 1694.5 1123.23 1694.5 1114.5 1685.99 1114.5 1675.5Z" stroke="#000000" stroke-width="4.58333" stroke-miterlimit="8" fill-rule="evenodd"/><path d="M794.5 1935.5C794.5 1925.01 803.007 1916.5 813.5 1916.5 823.993 1916.5 832.5 1925.01 832.5 1935.5 832.5 1945.99 823.993 1954.5 813.5 1954.5 803.007 1954.5 794.5 1945.99 794.5 1935.5Z" stroke="#000000" stroke-width="4.58333" stroke-miterlimit="8" fill-rule="evenodd"/><path d="M1276.5 1918.5C1276.5 1908.01 1285.23 1899.5 1296 1899.5 1306.77 1899.5 1315.5 1908.01 1315.5 1918.5 1315.5 1928.99 1306.77 1937.5 1296 1937.5 1285.23 1937.5 1276.5 1928.99 1276.5 1918.5Z" stroke="#000000" stroke-width="4.58333" stroke-miterlimit="8" fill-rule="evenodd"/><path d="M715.877 1935.42C713.986 1935.42 712.527 1935.45 711.5 1935.51L711.5 1958.32 714.986 1958.32C717.688 1958.32 719.836 1957.94 721.43 1957.17 723.024 1956.4 724.206 1955.17 724.976 1953.5 725.746 1951.82 726.131 1949.57 726.131 1946.73 726.131 1942.81 725.347 1939.95 723.78 1938.14 722.213 1936.33 719.579 1935.42 715.877 1935.42ZM694.601 1930.68 718.147 1930.68C724.983 1930.68 730.102 1931.91 733.507 1934.35 736.911 1936.8 738.613 1940.56 738.613 1945.64 738.613 1949.23 737.816 1952.35 736.222 1955 734.628 1957.65 732.318 1959.65 729.292 1961.02 726.266 1962.38 722.483 1963.06 717.944 1963.06 715.323 1963.06 713.176 1963.01 711.5 1962.9L711.5 1975.87C711.5 1977.95 711.609 1979.4 711.825 1980.21 712.041 1981.02 712.453 1981.67 713.061 1982.15 713.669 1982.64 714.783 1983.03 716.404 1983.33L716.404 1986 694.601 1986 694.601 1983.33C696.06 1982.95 697.052 1982.52 697.579 1982.03 698.106 1981.54 698.464 1980.9 698.653 1980.11 698.842 1979.31 698.937 1977.88 698.937 1975.83L698.937 1940.9C698.937 1938.84 698.849 1937.42 698.674 1936.62 698.498 1935.82 698.14 1935.18 697.6 1934.69 697.059 1934.21 696.06 1933.76 694.601 1933.36Z" fill="#00B050" fill-rule="evenodd"/><text fill="#000000" fill-opacity="0" font-family="Arial,Arial_MSFontService,sans-serif" font-size="55.3198" x="694.601" y="1979.09">𝐏</text><path d="M753.277 1968.72C751.887 1968.72 750.726 1969.08 749.792 1969.81 748.859 1970.53 748.119 1971.6 747.573 1973 747.027 1974.4 746.64 1976.1 746.412 1978.12 746.183 1980.13 746.069 1982.42 746.069 1984.98 746.069 1987.94 746.213 1990.5 746.501 1992.65 746.789 1994.81 747.236 1996.58 747.841 1997.97 748.447 1999.36 749.206 2000.38 750.12 2001.04 751.033 2001.69 752.125 2002.02 753.396 2002.02 754.588 2002.02 755.63 2001.71 756.524 2001.1 757.417 2000.48 758.157 1999.52 758.743 1998.22 759.328 1996.92 759.77 1995.28 760.068 1993.28 760.366 1991.28 760.515 1988.93 760.515 1986.21 760.515 1983.15 760.351 1980.52 760.023 1978.31 759.696 1976.11 759.234 1974.3 758.638 1972.88 758.043 1971.46 757.293 1970.41 756.39 1969.73 755.486 1969.06 754.449 1968.72 753.277 1968.72ZM753.396 1965.83C755.759 1965.83 757.78 1966.27 759.458 1967.16 761.135 1968.04 762.506 1969.3 763.568 1970.94 764.63 1972.58 765.41 1974.58 765.906 1976.94 766.402 1979.31 766.651 1981.98 766.651 1984.95 766.651 1991.57 765.479 1996.57 763.136 1999.95 760.793 2003.34 757.397 2005.03 752.949 2005.03 748.541 2005.03 745.265 2003.43 743.12 2000.23 740.976 1997.04 739.904 1992.19 739.904 1985.7 739.904 1982.3 740.236 1979.37 740.901 1976.88 741.567 1974.4 742.5 1972.34 743.701 1970.7 744.903 1969.06 746.327 1967.84 747.975 1967.04 749.623 1966.23 751.43 1965.83 753.396 1965.83Z" fill="#00B050" fill-rule="evenodd"/><text fill="#000000" fill-opacity="0" font-family="Arial,Arial_MSFontService,sans-serif" font-size="39.1973" x="739.904" y="2000.13">0</text><path d="M775.434 1922.67 783.118 1922.67 783.118 1924.99 773.2 1948.85 769.715 1947.81ZM754.434 1922.67 762.118 1922.67 762.118 1924.99 752.2 1948.85 748.715 1947.81Z" fill="#00B050" fill-rule="evenodd"/><text fill="#000000" fill-opacity="0" font-family="Arial,Arial_MSFontService,sans-serif" font-size="26.1812" x="748.715" y="1945.58">′′</text><path d="M1181.82 1615.68C1179.93 1615.68 1178.47 1615.71 1177.44 1615.76L1177.44 1638.58 1180.93 1638.58C1183.63 1638.58 1185.78 1638.19 1187.37 1637.42 1188.97 1636.65 1190.15 1635.43 1190.92 1633.75 1191.69 1632.08 1192.07 1629.82 1192.07 1626.99 1192.07 1623.07 1191.29 1620.2 1189.72 1618.39 1188.15 1616.58 1185.52 1615.68 1181.82 1615.68ZM1160.54 1610.94 1184.09 1610.94C1190.92 1610.94 1196.04 1612.16 1199.45 1614.61 1202.85 1617.05 1204.55 1620.81 1204.55 1625.89 1204.55 1629.49 1203.76 1632.61 1202.16 1635.25 1200.57 1637.9 1198.26 1639.91 1195.23 1641.27 1192.21 1642.64 1188.42 1643.32 1183.89 1643.32 1181.27 1643.32 1179.12 1643.26 1177.44 1643.16L1177.44 1656.13C1177.44 1658.21 1177.55 1659.65 1177.77 1660.46 1177.98 1661.27 1178.39 1661.92 1179 1662.41 1179.61 1662.89 1180.72 1663.29 1182.35 1663.58L1182.35 1666.26 1160.54 1666.26 1160.54 1663.58C1162 1663.2 1162.99 1662.77 1163.52 1662.29 1164.05 1661.8 1164.41 1661.16 1164.59 1660.36 1164.78 1659.56 1164.88 1658.14 1164.88 1656.09L1164.88 1621.15C1164.88 1619.1 1164.79 1617.67 1164.62 1616.87 1164.44 1616.08 1164.08 1615.44 1163.54 1614.95 1163 1614.46 1162 1614.02 1160.54 1613.61Z" fill="#00B050" fill-rule="evenodd"/><text fill="#000000" fill-opacity="0" font-family="Arial,Arial_MSFontService,sans-serif" font-size="55.3198" x="1160.54" y="1659.34">𝐏</text><path d="M1219.76 1646.2 1221.58 1646.2C1221.54 1647.3 1221.51 1648.27 1221.49 1649.14 1221.47 1650 1221.45 1650.84 1221.44 1651.66 1221.43 1652.47 1221.43 1653.27 1221.43 1654.07L1221.43 1676.7C1221.43 1677.32 1221.45 1677.85 1221.49 1678.3 1221.53 1678.74 1221.59 1679.12 1221.68 1679.43 1221.77 1679.74 1221.89 1680 1222.04 1680.22 1222.19 1680.44 1222.36 1680.63 1222.56 1680.79 1222.8 1681.02 1223.11 1681.21 1223.51 1681.34 1223.91 1681.47 1224.42 1681.57 1225.03 1681.66 1225.65 1681.75 1226.39 1681.82 1227.25 1681.87 1228.11 1681.92 1229.15 1681.96 1230.36 1681.98L1230.36 1684.57 1206.74 1684.57 1206.74 1681.98C1207.91 1681.94 1208.91 1681.89 1209.72 1681.84 1210.54 1681.79 1211.23 1681.72 1211.81 1681.63 1212.38 1681.54 1212.84 1681.45 1213.19 1681.34 1213.54 1681.23 1213.84 1681.09 1214.1 1680.93 1214.38 1680.76 1214.62 1680.56 1214.81 1680.35 1215.01 1680.14 1215.17 1679.88 1215.29 1679.56 1215.41 1679.25 1215.5 1678.86 1215.57 1678.4 1215.64 1677.95 1215.68 1677.38 1215.68 1676.7L1215.68 1655.35C1215.68 1654.57 1215.53 1654.03 1215.23 1653.71 1214.93 1653.39 1214.51 1653.23 1213.95 1653.23 1213.34 1653.23 1212.42 1653.55 1211.21 1654.19 1210 1654.82 1208.43 1655.77 1206.5 1657.02 1206.25 1656.56 1206.01 1656.1 1205.79 1655.65 1205.57 1655.19 1205.34 1654.72 1205.1 1654.25 1207.57 1652.9 1210 1651.55 1212.42 1650.21 1214.83 1648.87 1217.28 1647.53 1219.76 1646.2Z" fill="#00B050" fill-rule="evenodd"/><text fill="#000000" fill-opacity="0" font-family="Arial,Arial_MSFontService,sans-serif" font-size="38.3633" x="1205.1" y="1679.77">1</text><path d="M1241.38 1603.04 1249.06 1603.04 1249.06 1605.36 1239.14 1629.22 1235.66 1628.18ZM1220.38 1603.04 1228.06 1603.04 1228.06 1605.36 1218.14 1629.22 1214.66 1628.18Z" fill="#00B050" fill-rule="evenodd"/><text fill="#000000" fill-opacity="0" font-family="Arial,Arial_MSFontService,sans-serif" font-size="26.1812" x="1214.66" y="1625.95">′′</text><path d="M1202.41 1925.35C1200.51 1925.35 1199.06 1925.38 1198.03 1925.43L1198.03 1948.25 1201.51 1948.25C1204.22 1948.25 1206.36 1947.87 1207.96 1947.1 1209.55 1946.33 1210.73 1945.1 1211.5 1943.43 1212.27 1941.75 1212.66 1939.5 1212.66 1936.66 1212.66 1932.74 1211.88 1929.88 1210.31 1928.07 1208.74 1926.26 1206.11 1925.35 1202.41 1925.35ZM1181.13 1920.61 1204.68 1920.61C1211.51 1920.61 1216.63 1921.83 1220.04 1924.28 1223.44 1926.72 1225.14 1930.49 1225.14 1935.57 1225.14 1939.16 1224.34 1942.28 1222.75 1944.93 1221.16 1947.58 1218.85 1949.58 1215.82 1950.95 1212.79 1952.31 1209.01 1952.99 1204.47 1952.99 1201.85 1952.99 1199.7 1952.94 1198.03 1952.83L1198.03 1965.8C1198.03 1967.88 1198.14 1969.32 1198.35 1970.14 1198.57 1970.95 1198.98 1971.59 1199.59 1972.08 1200.2 1972.57 1201.31 1972.96 1202.93 1973.26L1202.93 1975.93 1181.13 1975.93 1181.13 1973.26C1182.59 1972.88 1183.58 1972.45 1184.11 1971.96 1184.63 1971.47 1184.99 1970.83 1185.18 1970.03 1185.37 1969.24 1185.47 1967.81 1185.47 1965.76L1185.47 1930.82C1185.47 1928.77 1185.38 1927.35 1185.2 1926.55 1185.03 1925.75 1184.67 1925.11 1184.13 1924.62 1183.59 1924.14 1182.59 1923.69 1181.13 1923.29Z" fill="#00B050" fill-rule="evenodd"/><text fill="#000000" fill-opacity="0" font-family="Arial,Arial_MSFontService,sans-serif" font-size="55.3198" x="1181.13" y="1969.02">𝐏</text><path d="M1239.92 1955.76C1241.99 1955.76 1243.75 1955.99 1245.21 1956.46 1246.67 1956.93 1247.86 1957.56 1248.77 1958.35 1249.68 1959.15 1250.34 1960.1 1250.75 1961.21 1251.16 1962.32 1251.36 1963.53 1251.36 1964.82 1251.36 1965.59 1251.31 1966.31 1251.2 1966.98 1251.09 1967.64 1250.9 1968.3 1250.63 1968.94 1250.36 1969.59 1250.01 1970.24 1249.57 1970.89 1249.14 1971.55 1248.59 1972.24 1247.94 1972.98 1247.44 1973.61 1246.8 1974.35 1246 1975.18 1245.21 1976.02 1244.34 1976.91 1243.39 1977.86 1242.45 1978.81 1241.46 1979.81 1240.43 1980.84 1239.4 1981.87 1238.4 1982.9 1237.42 1983.91 1236.45 1984.92 1235.56 1985.9 1234.74 1986.86 1233.93 1987.81 1233.26 1988.68 1232.75 1989.48L1243.77 1989.48C1244.7 1989.48 1245.44 1989.44 1246 1989.37 1246.56 1989.3 1247.02 1989.15 1247.39 1988.91 1247.75 1988.67 1248.07 1988.31 1248.32 1987.82 1248.58 1987.34 1248.88 1986.67 1249.22 1985.81L1251.99 1985.81C1251.89 1987.22 1251.79 1988.64 1251.7 1990.07 1251.62 1991.5 1251.52 1992.92 1251.42 1994.33L1226.19 1994.33 1226.19 1992.78C1226.67 1991.71 1227.23 1990.65 1227.86 1989.61 1228.5 1988.57 1229.21 1987.51 1230.01 1986.44 1230.8 1985.37 1231.7 1984.26 1232.72 1983.12 1233.73 1981.98 1234.85 1980.79 1236.08 1979.56 1237.95 1977.69 1239.47 1976.1 1240.64 1974.78 1241.81 1973.46 1242.73 1972.28 1243.41 1971.25 1244.08 1970.22 1244.55 1969.26 1244.79 1968.39 1245.04 1967.52 1245.17 1966.58 1245.17 1965.59 1245.17 1964.58 1245.02 1963.64 1244.73 1962.79 1244.45 1961.94 1244.03 1961.21 1243.5 1960.62 1242.96 1960.02 1242.28 1959.55 1241.46 1959.22 1240.63 1958.88 1239.69 1958.71 1238.61 1958.71 1236.77 1958.71 1235.22 1959.21 1233.97 1960.21 1232.72 1961.22 1231.74 1962.67 1231.05 1964.58L1227.15 1964.58 1227.15 1958.77C1229.69 1957.72 1232.03 1956.95 1234.16 1956.48 1236.3 1956 1238.22 1955.76 1239.92 1955.76Z" fill="#00B050" fill-rule="evenodd"/><text fill="#000000" fill-opacity="0" font-family="Arial,Arial_MSFontService,sans-serif" font-size="38.5718" x="1226.19" y="1989.51">2</text><path d="M1261.96 1912.6 1269.65 1912.6 1269.65 1914.92 1259.73 1938.78 1256.24 1937.73ZM1240.96 1912.6 1248.65 1912.6 1248.65 1914.92 1238.73 1938.78 1235.24 1937.73Z" fill="#00B050" fill-rule="evenodd"/><text fill="#000000" fill-opacity="0" font-family="Arial,Arial_MSFontService,sans-serif" font-size="26.1812" x="1235.24" y="1935.5">′′</text><path d="M803.127 1922.78 610 1703" stroke="#00B050" stroke-width="13.75" stroke-miterlimit="8" fill="none" fill-rule="evenodd"/><path d="M0 0 289.07 181.108" stroke="#00B050" stroke-width="13.75" stroke-miterlimit="8" fill="none" fill-rule="evenodd" transform="matrix(1 0 0 -1 1316 1908.11)"/><path d="M0 0 192.224 342.055" stroke="#00B050" stroke-width="2.29167" stroke-miterlimit="8" fill="none" fill-rule="evenodd" transform="matrix(-1 0 0 1 885.224 1479)"/><path d="M0 0 257.276 457.814" stroke="#00B050" stroke-width="2.29167" stroke-miterlimit="8" fill="none" fill-rule="evenodd" transform="matrix(-1 0 0 1 1001.28 1415)"/><path d="M0 0 308.765 549.436" stroke="#00B050" stroke-width="2.29167" stroke-miterlimit="8" fill="none" fill-rule="evenodd" transform="matrix(-1 0 0 1 1111.76 1361)"/><path d="M0 0 258.895 469.166" stroke="#00B050" stroke-width="2.29167" stroke-miterlimit="8" fill="none" fill-rule="evenodd" transform="matrix(-1 0 0 1 1188.89 1363)"/><path d="M0 0 205.806 366.225" stroke="#00B050" stroke-width="2.29167" stroke-miterlimit="8" fill="none" fill-rule="evenodd" transform="matrix(-1 0 0 1 1264.81 1389)"/><path d="M0 0 185.532 330.147" stroke="#00B050" stroke-width="2.29167" stroke-miterlimit="8" fill="none" fill-rule="evenodd" transform="matrix(-1 0 0 1 1324.53 1427)"/><path d="M0 0 181.545 323.053" stroke="#00B050" stroke-width="2.29167" stroke-miterlimit="8" fill="none" fill-rule="evenodd" transform="matrix(-1 0 0 1 1378.55 1471)"/><path d="M0 0 190.897 339.695" stroke="#00B050" stroke-width="2.29167" stroke-miterlimit="8" fill="none" fill-rule="evenodd" transform="matrix(-1 0 0 1 1437.9 1515)"/><path d="M0 0 117.398 208.905" stroke="#00B050" stroke-width="2.29167" stroke-miterlimit="8" fill="none" fill-rule="evenodd" transform="matrix(-1 0 0 1 772.398 1556)"/><path d="M0 0 182.531 324.807" stroke="#00B050" stroke-width="2.29167" stroke-miterlimit="8" fill="none" fill-rule="evenodd" transform="matrix(-1 0 0 1 1483.53 1573)"/><path d="M0 0 118.727 211.27" stroke="#00B050" stroke-width="2.29167" stroke-miterlimit="8" fill="none" fill-rule="evenodd" transform="matrix(-1 0 0 1 1528.73 1630)"/><path d="M0 0 645.01 524.123" stroke="#00B050" stroke-width="4.58333" stroke-miterlimit="8" fill="none" fill-rule="evenodd" transform="matrix(1 0 0 -1 2073.5 1708.62)"/><path d="M3095.76 1744.8 2720.5 1188.5" stroke="#00B050" stroke-width="4.58333" stroke-miterlimit="8" fill="none" fill-rule="evenodd"/><path d="M2697.5 1193C2697.5 1182.23 2706.01 1173.5 2716.5 1173.5 2726.99 1173.5 2735.5 1182.23 2735.5 1193 2735.5 1203.77 2726.99 1212.5 2716.5 1212.5 2706.01 1212.5 2697.5 1203.77 2697.5 1193Z" stroke="#000000" stroke-width="4.58333" stroke-miterlimit="8" fill-rule="evenodd"/><path d="M2017.85 1607.95C2015.96 1607.95 2014.5 1607.98 2013.47 1608.03L2013.47 1630.85 2016.96 1630.85C2019.66 1630.85 2021.81 1630.47 2023.4 1629.7 2025 1628.93 2026.18 1627.7 2026.95 1626.03 2027.72 1624.35 2028.1 1622.1 2028.1 1619.26 2028.1 1615.34 2027.32 1612.48 2025.75 1610.67 2024.19 1608.86 2021.55 1607.95 2017.85 1607.95ZM1996.57 1603.21 2020.12 1603.21C2026.96 1603.21 2032.08 1604.43 2035.48 1606.88 2038.88 1609.32 2040.59 1613.09 2040.59 1618.17 2040.59 1621.76 2039.79 1624.88 2038.19 1627.53 2036.6 1630.18 2034.29 1632.18 2031.26 1633.55 2028.24 1634.91 2024.46 1635.59 2019.92 1635.59 2017.3 1635.59 2015.15 1635.54 2013.47 1635.43L2013.47 1648.4C2013.47 1650.48 2013.58 1651.92 2013.8 1652.74 2014.01 1653.55 2014.43 1654.19 2015.03 1654.68 2015.64 1655.17 2016.76 1655.56 2018.38 1655.86L2018.38 1658.53 1996.57 1658.53 1996.57 1655.86C1998.03 1655.48 1999.03 1655.05 1999.55 1654.56 2000.08 1654.07 2000.44 1653.43 2000.63 1652.63 2000.81 1651.84 2000.91 1650.41 2000.91 1648.36L2000.91 1613.42C2000.91 1611.37 2000.82 1609.95 2000.65 1609.15 2000.47 1608.35 2000.11 1607.71 1999.57 1607.22 1999.03 1606.74 1998.03 1606.29 1996.57 1605.89Z" fill="#00B050" fill-rule="evenodd"/><text fill="#000000" fill-opacity="0" font-family="Arial,Arial_MSFontService,sans-serif" font-size="55.3198" x="1996.57" y="1651.62">𝐏</text><path d="M2055.25 1641.25C2053.86 1641.25 2052.7 1641.61 2051.76 1642.34 2050.83 1643.06 2050.09 1644.12 2049.55 1645.52 2049 1646.92 2048.61 1648.63 2048.38 1650.65 2048.16 1652.66 2048.04 1654.95 2048.04 1657.51 2048.04 1660.47 2048.19 1663.03 2048.47 1665.18 2048.76 1667.34 2049.21 1669.11 2049.81 1670.5 2050.42 1671.89 2051.18 1672.91 2052.09 1673.57 2053.01 1674.22 2054.1 1674.55 2055.37 1674.55 2056.56 1674.55 2057.6 1674.24 2058.5 1673.63 2059.39 1673.01 2060.13 1672.05 2060.72 1670.75 2061.3 1669.45 2061.74 1667.8 2062.04 1665.81 2062.34 1663.81 2062.49 1661.45 2062.49 1658.73 2062.49 1655.68 2062.32 1653.05 2062 1650.84 2061.67 1648.64 2061.21 1646.82 2060.61 1645.41 2060.02 1643.99 2059.27 1642.94 2058.36 1642.26 2057.46 1641.59 2056.42 1641.25 2055.25 1641.25ZM2055.37 1638.36C2057.73 1638.36 2059.75 1638.8 2061.43 1639.69 2063.11 1640.57 2064.48 1641.83 2065.54 1643.47 2066.6 1645.11 2067.38 1647.11 2067.88 1649.47 2068.38 1651.83 2068.62 1654.5 2068.62 1657.48 2068.62 1664.1 2067.45 1669.09 2065.11 1672.48 2062.77 1675.87 2059.37 1677.56 2054.92 1677.56 2050.51 1677.56 2047.24 1675.96 2045.09 1672.76 2042.95 1669.57 2041.88 1664.72 2041.88 1658.23 2041.88 1654.83 2042.21 1651.89 2042.87 1649.41 2043.54 1646.93 2044.47 1644.87 2045.67 1643.23 2046.88 1641.59 2048.3 1640.37 2049.95 1639.57 2051.6 1638.76 2053.4 1638.36 2055.37 1638.36Z" fill="#00B050" fill-rule="evenodd"/><text fill="#000000" fill-opacity="0" font-family="Arial,Arial_MSFontService,sans-serif" font-size="39.1973" x="2041.88" y="1672.66">0</text><path d="M2056.41 1595.2 2064.09 1595.2 2064.09 1597.52 2054.17 1621.38 2050.69 1620.33Z" fill="#00B050" fill-rule="evenodd"/><text fill="#000000" fill-opacity="0" font-family="Arial,Arial_MSFontService,sans-serif" font-size="26.1812" x="2050.69" y="1618.1">′</text><path d="M2703.97 1099.26C2702.07 1099.26 2700.62 1099.29 2699.59 1099.34L2699.59 1122.16 2703.07 1122.16C2705.78 1122.16 2707.92 1121.77 2709.52 1121 2711.11 1120.23 2712.29 1119.01 2713.06 1117.33 2713.83 1115.66 2714.22 1113.4 2714.22 1110.57 2714.22 1106.65 2713.44 1103.78 2711.87 1101.97 2710.3 1100.16 2707.67 1099.26 2703.97 1099.26ZM2682.69 1094.52 2706.24 1094.52C2713.07 1094.52 2718.19 1095.74 2721.59 1098.18 2725 1100.63 2726.7 1104.39 2726.7 1109.47 2726.7 1113.07 2725.9 1116.19 2724.31 1118.83 2722.72 1121.48 2720.41 1123.49 2717.38 1124.85 2714.35 1126.22 2710.57 1126.9 2706.03 1126.9 2703.41 1126.9 2701.26 1126.84 2699.59 1126.74L2699.59 1139.71C2699.59 1141.79 2699.7 1143.23 2699.91 1144.04 2700.13 1144.85 2700.54 1145.5 2701.15 1145.99 2701.76 1146.47 2702.87 1146.86 2704.49 1147.16L2704.49 1149.84 2682.69 1149.84 2682.69 1147.16C2684.15 1146.78 2685.14 1146.35 2685.67 1145.87 2686.19 1145.38 2686.55 1144.74 2686.74 1143.94 2686.93 1143.14 2687.03 1141.72 2687.03 1139.66L2687.03 1104.73C2687.03 1102.68 2686.94 1101.25 2686.76 1100.45 2686.59 1099.66 2686.23 1099.02 2685.69 1098.53 2685.15 1098.04 2684.15 1097.6 2682.69 1097.19Z" fill="#00B050" fill-rule="evenodd"/><text fill="#000000" fill-opacity="0" font-family="Arial,Arial_MSFontService,sans-serif" font-size="55.3198" x="2682.69" y="1142.92">𝐏</text><path d="M2741.91 1129.78 2743.72 1129.78C2743.68 1130.88 2743.65 1131.85 2743.63 1132.72 2743.61 1133.58 2743.6 1134.42 2743.59 1135.23 2743.58 1136.05 2743.57 1136.85 2743.57 1137.65L2743.57 1160.28C2743.57 1160.9 2743.59 1161.43 2743.63 1161.88 2743.67 1162.32 2743.74 1162.7 2743.83 1163.01 2743.92 1163.32 2744.04 1163.58 2744.18 1163.8 2744.33 1164.02 2744.51 1164.21 2744.71 1164.36 2744.94 1164.6 2745.26 1164.79 2745.66 1164.92 2746.06 1165.04 2746.56 1165.15 2747.18 1165.24 2747.79 1165.33 2748.53 1165.4 2749.4 1165.45 2750.26 1165.5 2751.3 1165.54 2752.51 1165.56L2752.51 1168.15 2728.89 1168.15 2728.89 1165.56C2730.06 1165.52 2731.05 1165.47 2731.87 1165.42 2732.68 1165.37 2733.38 1165.3 2733.95 1165.21 2734.53 1165.12 2734.99 1165.03 2735.34 1164.92 2735.69 1164.81 2735.99 1164.67 2736.25 1164.51 2736.52 1164.33 2736.76 1164.14 2736.96 1163.93 2737.16 1163.72 2737.32 1163.46 2737.44 1163.14 2737.56 1162.83 2737.65 1162.44 2737.72 1161.98 2737.79 1161.53 2737.82 1160.96 2737.82 1160.28L2737.82 1138.93C2737.82 1138.15 2737.68 1137.61 2737.38 1137.29 2737.08 1136.97 2736.65 1136.81 2736.1 1136.81 2735.48 1136.81 2734.57 1137.13 2733.36 1137.77 2732.15 1138.4 2730.58 1139.35 2728.65 1140.6 2728.39 1140.14 2728.15 1139.68 2727.94 1139.23 2727.72 1138.77 2727.49 1138.3 2727.25 1137.83 2729.71 1136.48 2732.15 1135.13 2734.56 1133.79 2736.98 1132.45 2739.42 1131.11 2741.91 1129.78Z" fill="#00B050" fill-rule="evenodd"/><text fill="#000000" fill-opacity="0" font-family="Arial,Arial_MSFontService,sans-serif" font-size="38.3633" x="2727.25" y="1163.35">1</text><path d="M2742.52 1086.62 2750.21 1086.62 2750.21 1088.94 2740.29 1112.8 2736.8 1111.76Z" fill="#00B050" fill-rule="evenodd"/><text fill="#000000" fill-opacity="0" font-family="Arial,Arial_MSFontService,sans-serif" font-size="26.1812" x="2736.8" y="1109.53">′</text><path d="M3151.01 1667.17C3149.12 1667.17 3147.66 1667.2 3146.63 1667.25L3146.63 1690.07 3150.12 1690.07C3152.82 1690.07 3154.97 1689.69 3156.56 1688.92 3158.15 1688.15 3159.34 1686.92 3160.11 1685.25 3160.88 1683.57 3161.26 1681.32 3161.26 1678.48 3161.26 1674.56 3160.48 1671.7 3158.91 1669.89 3157.34 1668.08 3154.71 1667.17 3151.01 1667.17ZM3129.73 1662.43 3153.28 1662.43C3160.11 1662.43 3165.23 1663.65 3168.64 1666.1 3172.04 1668.54 3173.74 1672.31 3173.74 1677.39 3173.74 1680.98 3172.95 1684.1 3171.35 1686.75 3169.76 1689.4 3167.45 1691.4 3164.42 1692.77 3161.4 1694.13 3157.61 1694.81 3153.07 1694.81 3150.45 1694.81 3148.31 1694.76 3146.63 1694.65L3146.63 1707.62C3146.63 1709.7 3146.74 1711.15 3146.95 1711.96 3147.17 1712.77 3147.58 1713.42 3148.19 1713.9 3148.8 1714.39 3149.91 1714.78 3151.53 1715.08L3151.53 1717.75 3129.73 1717.75 3129.73 1715.08C3131.19 1714.7 3132.18 1714.27 3132.71 1713.78 3133.24 1713.29 3133.59 1712.65 3133.78 1711.85 3133.97 1711.06 3134.07 1709.63 3134.07 1707.58L3134.07 1672.64C3134.07 1670.59 3133.98 1669.17 3133.8 1668.37 3133.63 1667.57 3133.27 1666.93 3132.73 1666.44 3132.19 1665.96 3131.19 1665.51 3129.73 1665.11Z" fill="#00B050" fill-rule="evenodd"/><text fill="#000000" fill-opacity="0" font-family="Arial,Arial_MSFontService,sans-serif" font-size="55.3198" x="3129.73" y="1710.84">𝐏</text><path d="M3188.53 1697.58C3190.59 1697.58 3192.35 1697.82 3193.81 1698.28 3195.27 1698.75 3196.46 1699.38 3197.37 1700.17 3198.29 1700.97 3198.95 1701.92 3199.35 1703.03 3199.76 1704.14 3199.96 1705.35 3199.96 1706.64 3199.96 1707.41 3199.91 1708.13 3199.8 1708.8 3199.69 1709.46 3199.5 1710.12 3199.23 1710.76 3198.97 1711.41 3198.61 1712.06 3198.18 1712.71 3197.74 1713.37 3197.19 1714.06 3196.54 1714.8 3196.04 1715.43 3195.4 1716.17 3194.6 1717 3193.81 1717.84 3192.94 1718.73 3192 1719.68 3191.05 1720.64 3190.07 1721.63 3189.03 1722.66 3188 1723.69 3187 1724.72 3186.02 1725.73 3185.05 1726.74 3184.16 1727.72 3183.34 1728.68 3182.53 1729.63 3181.86 1730.5 3181.35 1731.3L3192.37 1731.3C3193.3 1731.3 3194.05 1731.26 3194.6 1731.19 3195.16 1731.13 3195.62 1730.97 3195.99 1730.73 3196.36 1730.49 3196.67 1730.13 3196.93 1729.65 3197.18 1729.16 3197.48 1728.49 3197.82 1727.64L3200.59 1727.64C3200.49 1729.05 3200.4 1730.46 3200.31 1731.89 3200.22 1733.32 3200.12 1734.74 3200.02 1736.15L3174.8 1736.15 3174.8 1734.6C3175.27 1733.53 3175.83 1732.48 3176.46 1731.43 3177.1 1730.39 3177.81 1729.33 3178.61 1728.26 3179.4 1727.19 3180.31 1726.08 3181.32 1724.94 3182.33 1723.8 3183.45 1722.61 3184.68 1721.38 3186.55 1719.51 3188.07 1717.92 3189.24 1716.6 3190.41 1715.28 3191.34 1714.1 3192.01 1713.07 3192.69 1712.04 3193.15 1711.08 3193.4 1710.21 3193.64 1709.34 3193.77 1708.4 3193.77 1707.41 3193.77 1706.4 3193.62 1705.47 3193.34 1704.61 3193.05 1703.76 3192.64 1703.03 3192.1 1702.44 3191.56 1701.84 3190.88 1701.37 3190.06 1701.04 3189.24 1700.7 3188.29 1700.53 3187.22 1700.53 3185.37 1700.53 3183.82 1701.03 3182.57 1702.03 3181.32 1703.04 3180.35 1704.49 3179.65 1706.4L3175.75 1706.4 3175.75 1700.59C3178.29 1699.54 3180.63 1698.77 3182.76 1698.3 3184.9 1697.82 3186.82 1697.58 3188.53 1697.58Z" fill="#00B050" fill-rule="evenodd"/><text fill="#000000" fill-opacity="0" font-family="Arial,Arial_MSFontService,sans-serif" font-size="38.5718" x="3174.8" y="1731.33">2</text><path d="M3189.56 1654.42 3197.25 1654.42 3197.25 1656.74 3187.33 1680.6 3183.85 1679.56Z" fill="#00B050" fill-rule="evenodd"/><text fill="#000000" fill-opacity="0" font-family="Arial,Arial_MSFontService,sans-serif" font-size="26.1812" x="3183.85" y="1677.33">′</text><path d="M2072.43 1706.08C2289.17 1538.27 2505.92 1370.47 2676.96 1375.27 2848 1380.07 3003.27 1632.15 3098.68 1734.88" stroke="#00B050" stroke-width="13.75" stroke-miterlimit="8" fill="none" fill-rule="evenodd"/><path d="M2053.5 1706.5C2053.5 1696.01 2062.01 1687.5 2072.5 1687.5 2082.99 1687.5 2091.5 1696.01 2091.5 1706.5 2091.5 1716.99 2082.99 1725.5 2072.5 1725.5 2062.01 1725.5 2053.5 1716.99 2053.5 1706.5Z" stroke="#000000" stroke-width="4.58333" stroke-miterlimit="8" fill-rule="evenodd"/><path d="M3083.5 1736C3083.5 1725.23 3092.23 1716.5 3103 1716.5 3113.77 1716.5 3122.5 1725.23 3122.5 1736 3122.5 1746.77 3113.77 1755.5 3103 1755.5 3092.23 1755.5 3083.5 1746.77 3083.5 1736Z" stroke="#000000" stroke-width="4.58333" stroke-miterlimit="8" fill-rule="evenodd"/><path d="M2279.5 1948C2279.5 1937.23 2288.01 1928.5 2298.5 1928.5 2308.99 1928.5 2317.5 1937.23 2317.5 1948 2317.5 1958.77 2308.99 1967.5 2298.5 1967.5 2288.01 1967.5 2279.5 1958.77 2279.5 1948Z" stroke="#000000" stroke-width="4.58333" stroke-miterlimit="8" fill-rule="evenodd"/><path d="M2761.5 1931C2761.5 1920.23 2770.23 1911.5 2781 1911.5 2791.77 1911.5 2800.5 1920.23 2800.5 1931 2800.5 1941.77 2791.77 1950.5 2781 1950.5 2770.23 1950.5 2761.5 1941.77 2761.5 1931Z" stroke="#000000" stroke-width="4.58333" stroke-miterlimit="8" fill-rule="evenodd"/><path d="M2201 1947.78C2199.11 1947.78 2197.65 1947.8 2196.63 1947.86L2196.63 1970.68 2200.11 1970.68C2202.81 1970.68 2204.96 1970.29 2206.56 1969.52 2208.15 1968.75 2209.33 1967.53 2210.1 1965.85 2210.87 1964.18 2211.26 1961.92 2211.26 1959.08 2211.26 1955.17 2210.47 1952.3 2208.91 1950.49 2207.34 1948.68 2204.71 1947.78 2201 1947.78ZM2179.73 1943.04 2203.27 1943.04C2210.11 1943.04 2215.23 1944.26 2218.63 1946.7 2222.04 1949.15 2223.74 1952.91 2223.74 1957.99 2223.74 1961.58 2222.94 1964.7 2221.35 1967.35 2219.75 1970 2217.44 1972.01 2214.42 1973.37 2211.39 1974.73 2207.61 1975.42 2203.07 1975.42 2200.45 1975.42 2198.3 1975.36 2196.63 1975.25L2196.63 1988.22C2196.63 1990.3 2196.74 1991.75 2196.95 1992.56 2197.17 1993.37 2197.58 1994.02 2198.19 1994.51 2198.8 1994.99 2199.91 1995.38 2201.53 1995.68L2201.53 1998.36 2179.73 1998.36 2179.73 1995.68C2181.19 1995.3 2182.18 1994.87 2182.71 1994.38 2183.23 1993.9 2183.59 1993.26 2183.78 1992.46 2183.97 1991.66 2184.06 1990.24 2184.06 1988.18L2184.06 1953.25C2184.06 1951.19 2183.98 1949.77 2183.8 1948.97 2183.62 1948.18 2183.27 1947.53 2182.73 1947.05 2182.19 1946.56 2181.19 1946.12 2179.73 1945.71Z" fill="#00B050" fill-rule="evenodd"/><text fill="#000000" fill-opacity="0" font-family="Arial,Arial_MSFontService,sans-serif" font-size="55.3198" x="2179.73" y="1991.44">𝐏</text><path d="M2238.4 1981.07C2237.01 1981.07 2235.85 1981.44 2234.92 1982.16 2233.99 1982.89 2233.25 1983.95 2232.7 1985.35 2232.15 1986.75 2231.77 1988.46 2231.54 1990.47 2231.31 1992.49 2231.2 1994.78 2231.2 1997.34 2231.2 2000.3 2231.34 2002.85 2231.63 2005.01 2231.92 2007.16 2232.36 2008.93 2232.97 2010.32 2233.57 2011.71 2234.33 2012.74 2235.25 2013.39 2236.16 2014.05 2237.25 2014.37 2238.52 2014.37 2239.71 2014.37 2240.76 2014.07 2241.65 2013.45 2242.54 2012.84 2243.28 2011.88 2243.87 2010.58 2244.45 2009.28 2244.9 2007.63 2245.19 2005.63 2245.49 2003.64 2245.64 2001.28 2245.64 1998.56 2245.64 1995.5 2245.48 1992.87 2245.15 1990.67 2244.82 1988.46 2244.36 1986.65 2243.76 1985.23 2243.17 1983.81 2242.42 1982.76 2241.52 1982.09 2240.61 1981.41 2239.58 1981.07 2238.4 1981.07ZM2238.52 1978.19C2240.89 1978.19 2242.91 1978.63 2244.58 1979.51 2246.26 1980.39 2247.63 1981.66 2248.69 1983.29 2249.76 1984.93 2250.54 1986.93 2251.03 1989.3 2251.53 1991.66 2251.78 1994.33 2251.78 1997.31 2251.78 2003.92 2250.61 2008.92 2248.26 2012.3 2245.92 2015.69 2242.52 2017.38 2238.08 2017.38 2233.67 2017.38 2230.39 2015.78 2228.25 2012.59 2226.1 2009.39 2225.03 2004.55 2225.03 1998.05 2225.03 1994.66 2225.36 1991.72 2226.03 1989.24 2226.69 1986.75 2227.63 1984.69 2228.83 1983.06 2230.03 1981.42 2231.45 1980.2 2233.1 1979.39 2234.75 1978.59 2236.56 1978.19 2238.52 1978.19Z" fill="#00B050" fill-rule="evenodd"/><text fill="#000000" fill-opacity="0" font-family="Arial,Arial_MSFontService,sans-serif" font-size="39.1973" x="2225.03" y="2012.48">0</text><path d="M2260.56 1935.02 2268.24 1935.02 2268.24 1937.34 2258.33 1961.2 2254.84 1960.16ZM2239.56 1935.02 2247.24 1935.02 2247.24 1937.34 2237.33 1961.2 2233.84 1960.16Z" fill="#00B050" fill-rule="evenodd"/><text fill="#000000" fill-opacity="0" font-family="Arial,Arial_MSFontService,sans-serif" font-size="26.1812" x="2233.84" y="1957.93">′′</text><path d="M2698.85 1957.96C2696.96 1957.96 2695.5 1957.98 2694.47 1958.04L2694.47 1980.85 2697.96 1980.85C2700.66 1980.85 2702.81 1980.47 2704.4 1979.7 2705.99 1978.93 2707.18 1977.71 2707.95 1976.03 2708.72 1974.36 2709.1 1972.1 2709.1 1969.26 2709.1 1965.35 2708.32 1962.48 2706.75 1960.67 2705.18 1958.86 2702.55 1957.96 2698.85 1957.96ZM2677.57 1953.22 2701.12 1953.22C2707.95 1953.22 2713.07 1954.44 2716.48 1956.88 2719.88 1959.33 2721.58 1963.09 2721.58 1968.17 2721.58 1971.76 2720.79 1974.88 2719.19 1977.53 2717.6 1980.18 2715.29 1982.19 2712.26 1983.55 2709.24 1984.91 2705.45 1985.6 2700.91 1985.6 2698.29 1985.6 2696.15 1985.54 2694.47 1985.43L2694.47 1998.4C2694.47 2000.48 2694.58 2001.93 2694.79 2002.74 2695.01 2003.55 2695.42 2004.2 2696.03 2004.68 2696.64 2005.17 2697.75 2005.56 2699.37 2005.86L2699.37 2008.53 2677.57 2008.53 2677.57 2005.86C2679.03 2005.48 2680.02 2005.05 2680.55 2004.56 2681.08 2004.08 2681.43 2003.44 2681.62 2002.64 2681.81 2001.84 2681.91 2000.42 2681.91 1998.36L2681.91 1963.43C2681.91 1961.37 2681.82 1959.95 2681.64 1959.15 2681.47 1958.36 2681.11 1957.71 2680.57 1957.23 2680.03 1956.74 2679.03 1956.3 2677.57 1955.89Z" fill="#00B050" fill-rule="evenodd"/><text fill="#000000" fill-opacity="0" font-family="Arial,Arial_MSFontService,sans-serif" font-size="55.3198" x="2677.57" y="2001.62">𝐏</text><path d="M2736.37 1988.37C2738.43 1988.37 2740.19 1988.6 2741.65 1989.07 2743.11 1989.53 2744.3 1990.16 2745.21 1990.96 2746.13 1991.75 2746.79 1992.7 2747.19 1993.82 2747.6 1994.93 2747.8 1996.13 2747.8 1997.42 2747.8 1998.19 2747.75 1998.91 2747.64 1999.58 2747.53 2000.24 2747.34 2000.9 2747.07 2001.55 2746.81 2002.19 2746.45 2002.84 2746.02 2003.5 2745.58 2004.15 2745.03 2004.85 2744.38 2005.58 2743.88 2006.22 2743.24 2006.95 2742.44 2007.79 2741.65 2008.62 2740.78 2009.51 2739.84 2010.47 2738.89 2011.42 2737.9 2012.41 2736.87 2013.44 2735.84 2014.48 2734.84 2015.5 2733.86 2016.51 2732.89 2017.52 2732 2018.51 2731.18 2019.46 2730.37 2020.41 2729.7 2021.29 2729.19 2022.08L2740.21 2022.08C2741.14 2022.08 2741.89 2022.05 2742.44 2021.98 2743 2021.91 2743.46 2021.75 2743.83 2021.52 2744.19 2021.28 2744.51 2020.92 2744.77 2020.43 2745.02 2019.94 2745.32 2019.27 2745.66 2018.42L2748.43 2018.42C2748.33 2019.83 2748.24 2021.25 2748.15 2022.68 2748.06 2024.11 2747.96 2025.53 2747.86 2026.94L2722.64 2026.94 2722.64 2025.39C2723.11 2024.32 2723.67 2023.26 2724.3 2022.22 2724.94 2021.17 2725.65 2020.12 2726.45 2019.04 2727.24 2017.97 2728.15 2016.86 2729.16 2015.72 2730.17 2014.58 2731.29 2013.39 2732.52 2012.16 2734.39 2010.3 2735.91 2008.7 2737.08 2007.38 2738.25 2006.06 2739.18 2004.89 2739.85 2003.85 2740.53 2002.82 2740.99 2001.87 2741.24 2000.99 2741.48 2000.12 2741.61 1999.19 2741.61 1998.19 2741.61 1997.18 2741.46 1996.25 2741.18 1995.39 2740.89 1994.54 2740.48 1993.82 2739.94 1993.22 2739.4 1992.62 2738.72 1992.16 2737.9 1991.82 2737.08 1991.48 2736.13 1991.31 2735.06 1991.31 2733.21 1991.31 2731.66 1991.82 2730.41 1992.82 2729.16 1993.82 2728.19 1995.28 2727.49 1997.18L2723.59 1997.18 2723.59 1991.37C2726.13 1990.32 2728.47 1989.56 2730.6 1989.08 2732.74 1988.6 2734.66 1988.37 2736.37 1988.37Z" fill="#00B050" fill-rule="evenodd"/><text fill="#000000" fill-opacity="0" font-family="Arial,Arial_MSFontService,sans-serif" font-size="38.5718" x="2722.64" y="2022.12">2</text><path d="M2758.4 1945.2 2766.09 1945.2 2766.09 1947.52 2756.17 1971.38 2752.68 1970.34ZM2737.4 1945.2 2745.09 1945.2 2745.09 1947.52 2735.17 1971.38 2731.68 1970.34Z" fill="#00B050" fill-rule="evenodd"/><text fill="#000000" fill-opacity="0" font-family="Arial,Arial_MSFontService,sans-serif" font-size="26.1812" x="2731.68" y="1968.11">′′</text><path d="M0 0 444.218 19.25" stroke="#00B050" stroke-width="13.75" stroke-miterlimit="8" fill="none" fill-rule="evenodd" transform="matrix(1 0 0 -1 2317 1947.25)"/><path d="M2279.13 1939.78 2086 1720" stroke="#00B050" stroke-width="13.75" stroke-miterlimit="8" fill="none" fill-rule="evenodd"/><path d="M0 0 289.07 181.108" stroke="#00B050" stroke-width="13.75" stroke-miterlimit="8" fill="none" fill-rule="evenodd" transform="matrix(1 0 0 -1 2794 1917.11)"/><path d="M0 0 777.195 205.743" stroke="#00B050" stroke-width="13.75" stroke-miterlimit="8" fill="none" fill-rule="evenodd" transform="matrix(1 0 0 -1 2306 1941.74)"/><path d="M2081 1707 3083.18 1735.57" stroke="#00B050" stroke-width="13.75" stroke-miterlimit="8" fill="none" fill-rule="evenodd"/><path d="M0 0 192.224 342.055" stroke="#00B050" stroke-width="2.29167" stroke-miterlimit="8" fill="none" fill-rule="evenodd" transform="matrix(-1 0 0 1 2374.22 1491)"/><path d="M0 0 257.276 457.814" stroke="#00B050" stroke-width="2.29167" stroke-miterlimit="8" fill="none" fill-rule="evenodd" transform="matrix(-1 0 0 1 2490.28 1428)"/><path d="M0 0 308.765 549.436" stroke="#00B050" stroke-width="2.29167" stroke-miterlimit="8" fill="none" fill-rule="evenodd" transform="matrix(-1 0 0 1 2600.76 1373)"/><path d="M0 0 310.983 563.56" stroke="#00B050" stroke-width="2.29167" stroke-miterlimit="8" fill="none" fill-rule="evenodd" transform="matrix(-1 0 0 1 2676.98 1375)"/><path d="M0 0 305.434 543.508" stroke="#00B050" stroke-width="2.29167" stroke-miterlimit="8" fill="none" fill-rule="evenodd" transform="matrix(-1 0 0 1 2753.43 1401)"/><path d="M0 0 279.965 498.187" stroke="#00B050" stroke-width="2.29167" stroke-miterlimit="8" fill="none" fill-rule="evenodd" transform="matrix(-1 0 0 1 2812.96 1439)"/><path d="M0 0 249.63 444.208" stroke="#00B050" stroke-width="2.29167" stroke-miterlimit="8" fill="none" fill-rule="evenodd" transform="matrix(-1 0 0 1 2867.63 1484)"/><path d="M0 0 224.669 399.79" stroke="#00B050" stroke-width="2.29167" stroke-miterlimit="8" fill="none" fill-rule="evenodd" transform="matrix(-1 0 0 1 2926.67 1527)"/><path d="M0 0 117.398 208.905" stroke="#00B050" stroke-width="2.29167" stroke-miterlimit="8" fill="none" fill-rule="evenodd" transform="matrix(-1 0 0 1 2260.4 1568)"/><path d="M0 0 177.682 316.18" stroke="#00B050" stroke-width="2.29167" stroke-miterlimit="8" fill="none" fill-rule="evenodd" transform="matrix(-1 0 0 1 2966.68 1594)"/><path d="M0 0 110.575 196.764" stroke="#00B050" stroke-width="2.29167" stroke-miterlimit="8" fill="none" fill-rule="evenodd" transform="matrix(-1 0 0 1 3013.57 1648)"/><rect x="3234.57" y="1624.59" width="249.866" height="30.811" stroke="#172C51" stroke-width="4.58333" stroke-miterlimit="8"/><path d="M3457.18 1937.95C3561.48 1846.94 3665.79 1755.94 3745.77 1755.53 3825.76 1755.12 3894.15 1883.67 3937.07 1935.5" stroke="#00B050" stroke-width="13.75" stroke-miterlimit="8" fill="none" fill-rule="evenodd"/><path d="M0 0 323.607 262.957" stroke="#00B050" stroke-width="4.58333" stroke-miterlimit="8" fill="none" fill-rule="evenodd" transform="matrix(1 0 0 -1 3449.5 1936.46)"/><path d="M3938.07 1922.94 3772.5 1677.5" stroke="#00B050" stroke-width="4.58333" stroke-miterlimit="8" fill="none" fill-rule="evenodd"/><path d="M3751.5 1684.5C3751.5 1674.01 3760.23 1665.5 3771 1665.5 3781.77 1665.5 3790.5 1674.01 3790.5 1684.5 3790.5 1694.99 3781.77 1703.5 3771 1703.5 3760.23 1703.5 3751.5 1694.99 3751.5 1684.5Z" stroke="#000000" stroke-width="4.58333" stroke-miterlimit="8" fill-rule="evenodd"/><path d="M3431.5 1945C3431.5 1934.23 3440.01 1925.5 3450.5 1925.5 3460.99 1925.5 3469.5 1934.23 3469.5 1945 3469.5 1955.77 3460.99 1964.5 3450.5 1964.5 3440.01 1964.5 3431.5 1955.77 3431.5 1945Z" stroke="#000000" stroke-width="4.58333" stroke-miterlimit="8" fill-rule="evenodd"/><path d="M3913.5 1928C3913.5 1917.23 3922.23 1908.5 3933 1908.5 3943.77 1908.5 3952.5 1917.23 3952.5 1928 3952.5 1938.77 3943.77 1947.5 3933 1947.5 3922.23 1947.5 3913.5 1938.77 3913.5 1928Z" stroke="#000000" stroke-width="4.58333" stroke-miterlimit="8" fill-rule="evenodd"/><path d="M3353.03 1944.64C3351.14 1944.64 3349.68 1944.66 3348.65 1944.72L3348.65 1967.53 3352.14 1967.53C3354.84 1967.53 3356.99 1967.15 3358.58 1966.38 3360.18 1965.61 3361.36 1964.39 3362.13 1962.71 3362.9 1961.04 3363.28 1958.78 3363.28 1955.94 3363.28 1952.03 3362.5 1949.16 3360.93 1947.35 3359.36 1945.54 3356.73 1944.64 3353.03 1944.64ZM3331.75 1939.89 3355.3 1939.89C3362.13 1939.89 3367.25 1941.12 3370.66 1943.56 3374.06 1946.01 3375.76 1949.77 3375.76 1954.85 3375.76 1958.44 3374.97 1961.56 3373.37 1964.21 3371.78 1966.86 3369.47 1968.86 3366.44 1970.23 3363.42 1971.59 3359.64 1972.28 3355.1 1972.28 3352.48 1972.28 3350.33 1972.22 3348.65 1972.11L3348.65 1985.08C3348.65 1987.16 3348.76 1988.61 3348.98 1989.42 3349.19 1990.23 3349.6 1990.88 3350.21 1991.36 3350.82 1991.85 3351.93 1992.24 3353.56 1992.54L3353.56 1995.21 3331.75 1995.21 3331.75 1992.54C3333.21 1992.16 3334.2 1991.73 3334.73 1991.24 3335.26 1990.76 3335.62 1990.11 3335.8 1989.32 3335.99 1988.52 3336.09 1987.09 3336.09 1985.04L3336.09 1950.11C3336.09 1948.05 3336 1946.63 3335.83 1945.83 3335.65 1945.03 3335.29 1944.39 3334.75 1943.91 3334.21 1943.42 3333.21 1942.97 3331.75 1942.57Z" fill="#00B050" fill-rule="evenodd"/><text fill="#000000" fill-opacity="0" font-family="Arial,Arial_MSFontService,sans-serif" font-size="55.3198" x="3331.75" y="1988.3">𝐏</text><path d="M3390.43 1977.93C3389.04 1977.93 3387.88 1978.3 3386.94 1979.02 3386.01 1979.75 3385.27 1980.81 3384.72 1982.21 3384.18 1983.61 3383.79 1985.32 3383.56 1987.33 3383.33 1989.35 3383.22 1991.63 3383.22 1994.2 3383.22 1997.15 3383.36 1999.71 3383.65 2001.87 3383.94 2004.02 3384.39 2005.79 3384.99 2007.18 3385.6 2008.57 3386.36 2009.6 3387.27 2010.25 3388.18 2010.91 3389.28 2011.23 3390.55 2011.23 3391.74 2011.23 3392.78 2010.93 3393.68 2010.31 3394.57 2009.69 3395.31 2008.74 3395.89 2007.44 3396.48 2006.14 3396.92 2004.49 3397.22 2002.49 3397.52 2000.5 3397.67 1998.14 3397.67 1995.42 3397.67 1992.36 3397.5 1989.73 3397.18 1987.52 3396.85 1985.32 3396.39 1983.51 3395.79 1982.09 3395.19 1980.67 3394.44 1979.62 3393.54 1978.95 3392.64 1978.27 3391.6 1977.93 3390.43 1977.93ZM3390.55 1975.04C3392.91 1975.04 3394.93 1975.49 3396.61 1976.37 3398.29 1977.25 3399.66 1978.51 3400.72 1980.15 3401.78 1981.79 3402.56 1983.79 3403.06 1986.15 3403.55 1988.52 3403.8 1991.19 3403.8 1994.17 3403.8 2000.78 3402.63 2005.78 3400.29 2009.16 3397.94 2012.55 3394.55 2014.24 3390.1 2014.24 3385.69 2014.24 3382.42 2012.64 3380.27 2009.45 3378.13 2006.25 3377.06 2001.4 3377.06 1994.91 3377.06 1991.52 3377.39 1988.58 3378.05 1986.09 3378.72 1983.61 3379.65 1981.55 3380.85 1979.91 3382.05 1978.28 3383.48 1977.05 3385.13 1976.25 3386.78 1975.45 3388.58 1975.04 3390.55 1975.04Z" fill="#00B050" fill-rule="evenodd"/><text fill="#000000" fill-opacity="0" font-family="Arial,Arial_MSFontService,sans-serif" font-size="39.1973" x="3377.06" y="2009.34">0</text><path d="M3412.59 1931.88 3420.27 1931.88 3420.27 1934.2 3410.35 1958.06 3406.87 1957.02ZM3391.59 1931.88 3399.27 1931.88 3399.27 1934.2 3389.35 1958.06 3385.87 1957.02Z" fill="#00B050" fill-rule="evenodd"/><text fill="#000000" fill-opacity="0" font-family="Arial,Arial_MSFontService,sans-serif" font-size="26.1812" x="3385.87" y="1954.79">′′</text><path d="M3818.97 1624.89C3817.08 1624.89 3815.62 1624.92 3814.59 1624.97L3814.59 1647.79 3818.08 1647.79C3820.78 1647.79 3822.93 1647.4 3824.52 1646.63 3826.12 1645.86 3827.3 1644.64 3828.07 1642.97 3828.84 1641.29 3829.22 1639.03 3829.22 1636.2 3829.22 1632.28 3828.44 1629.42 3826.87 1627.61 3825.31 1625.8 3822.67 1624.89 3818.97 1624.89ZM3797.69 1620.15 3821.24 1620.15C3828.08 1620.15 3833.2 1621.37 3836.6 1623.82 3840 1626.26 3841.71 1630.02 3841.71 1635.1 3841.71 1638.7 3840.91 1641.82 3839.32 1644.47 3837.72 1647.11 3835.41 1649.12 3832.39 1650.48 3829.36 1651.85 3825.58 1652.53 3821.04 1652.53 3818.42 1652.53 3816.27 1652.48 3814.59 1652.37L3814.59 1665.34C3814.59 1667.42 3814.7 1668.86 3814.92 1669.67 3815.13 1670.48 3815.55 1671.13 3816.15 1671.62 3816.76 1672.1 3817.88 1672.5 3819.5 1672.79L3819.5 1675.47 3797.69 1675.47 3797.69 1672.79C3799.15 1672.42 3800.15 1671.98 3800.67 1671.5 3801.2 1671.01 3801.56 1670.37 3801.75 1669.57 3801.94 1668.78 3802.03 1667.35 3802.03 1665.3L3802.03 1630.36C3802.03 1628.31 3801.94 1626.88 3801.77 1626.09 3801.59 1625.29 3801.23 1624.65 3800.69 1624.16 3800.15 1623.67 3799.15 1623.23 3797.69 1622.82Z" fill="#00B050" fill-rule="evenodd"/><text fill="#000000" fill-opacity="0" font-family="Arial,Arial_MSFontService,sans-serif" font-size="55.3198" x="3797.69" y="1668.55">𝐏</text><path d="M3856.91 1655.42 3858.73 1655.42C3858.69 1656.51 3858.66 1657.49 3858.64 1658.35 3858.62 1659.21 3858.6 1660.05 3858.59 1660.87 3858.58 1661.68 3858.58 1662.48 3858.58 1663.28L3858.58 1685.92C3858.58 1686.53 3858.6 1687.06 3858.64 1687.51 3858.68 1687.96 3858.74 1688.33 3858.83 1688.64 3858.92 1688.95 3859.04 1689.21 3859.19 1689.43 3859.34 1689.65 3859.51 1689.84 3859.71 1690 3859.95 1690.23 3860.27 1690.42 3860.66 1690.55 3861.06 1690.68 3861.57 1690.79 3862.18 1690.88 3862.8 1690.96 3863.54 1691.03 3864.4 1691.08 3865.27 1691.13 3866.3 1691.17 3867.51 1691.19L3867.51 1693.78 3843.89 1693.78 3843.89 1691.19C3845.07 1691.15 3846.06 1691.1 3846.87 1691.05 3847.69 1691 3848.38 1690.93 3848.96 1690.85 3849.53 1690.76 3850 1690.66 3850.34 1690.55 3850.69 1690.44 3850.99 1690.3 3851.25 1690.15 3851.53 1689.97 3851.77 1689.77 3851.97 1689.56 3852.16 1689.36 3852.32 1689.09 3852.44 1688.78 3852.56 1688.46 3852.66 1688.07 3852.73 1687.61 3852.8 1687.16 3852.83 1686.59 3852.83 1685.92L3852.83 1664.56C3852.83 1663.79 3852.68 1663.24 3852.38 1662.92 3852.09 1662.6 3851.66 1662.45 3851.1 1662.45 3850.49 1662.45 3849.57 1662.76 3848.36 1663.4 3847.15 1664.03 3845.58 1664.98 3843.66 1666.23 3843.4 1665.77 3843.16 1665.31 3842.94 1664.86 3842.72 1664.4 3842.49 1663.93 3842.26 1663.46 3844.72 1662.11 3847.16 1660.76 3849.57 1659.42 3851.98 1658.08 3854.43 1656.75 3856.91 1655.42Z" fill="#00B050" fill-rule="evenodd"/><text fill="#000000" fill-opacity="0" font-family="Arial,Arial_MSFontService,sans-serif" font-size="38.3633" x="3842.26" y="1688.98">1</text><path d="M3878.53 1612.25 3886.21 1612.25 3886.21 1614.57 3876.29 1638.43 3872.81 1637.39ZM3857.53 1612.25 3865.21 1612.25 3865.21 1614.57 3855.29 1638.43 3851.81 1637.39Z" fill="#00B050" fill-rule="evenodd"/><text fill="#000000" fill-opacity="0" font-family="Arial,Arial_MSFontService,sans-serif" font-size="26.1812" x="3851.81" y="1635.16">′′</text><path d="M3844.08 1954.23C3842.18 1954.23 3840.73 1954.25 3839.7 1954.31L3839.7 1977.12 3843.18 1977.12C3845.89 1977.12 3848.03 1976.74 3849.63 1975.97 3851.22 1975.2 3852.4 1973.98 3853.17 1972.3 3853.94 1970.63 3854.33 1968.37 3854.33 1965.53 3854.33 1961.62 3853.55 1958.75 3851.98 1956.94 3850.41 1955.13 3847.78 1954.23 3844.08 1954.23ZM3822.8 1949.48 3846.35 1949.48C3853.18 1949.48 3858.3 1950.71 3861.71 1953.15 3865.11 1955.6 3866.81 1959.36 3866.81 1964.44 3866.81 1968.03 3866.01 1971.15 3864.42 1973.8 3862.83 1976.45 3860.52 1978.46 3857.49 1979.82 3854.46 1981.18 3850.68 1981.87 3846.14 1981.87 3843.52 1981.87 3841.37 1981.81 3839.7 1981.7L3839.7 1994.67C3839.7 1996.75 3839.81 1998.2 3840.02 1999.01 3840.24 1999.82 3840.65 2000.47 3841.26 2000.95 3841.87 2001.44 3842.98 2001.83 3844.6 2002.13L3844.6 2004.8 3822.8 2004.8 3822.8 2002.13C3824.26 2001.75 3825.25 2001.32 3825.78 2000.83 3826.3 2000.35 3826.66 1999.7 3826.85 1998.91 3827.04 1998.11 3827.14 1996.69 3827.14 1994.63L3827.14 1959.7C3827.14 1957.64 3827.05 1956.22 3826.87 1955.42 3826.7 1954.63 3826.34 1953.98 3825.8 1953.5 3825.26 1953.01 3824.26 1952.56 3822.8 1952.16Z" fill="#00B050" fill-rule="evenodd"/><text fill="#000000" fill-opacity="0" font-family="Arial,Arial_MSFontService,sans-serif" font-size="55.3198" x="3822.8" y="1997.89">𝐏</text><path d="M3881.59 1984.64C3883.66 1984.64 3885.42 1984.87 3886.88 1985.33 3888.34 1985.8 3889.53 1986.43 3890.44 1987.23 3891.35 1988.02 3892.01 1988.97 3892.42 1990.09 3892.83 1991.2 3893.03 1992.4 3893.03 1993.69 3893.03 1994.46 3892.98 1995.18 3892.87 1995.85 3892.76 1996.51 3892.57 1997.17 3892.3 1997.81 3892.03 1998.46 3891.68 1999.11 3891.25 1999.77 3890.81 2000.42 3890.26 2001.12 3889.61 2001.85 3889.11 2002.49 3888.47 2003.22 3887.67 2004.05 3886.88 2004.89 3886.01 2005.78 3885.06 2006.74 3884.12 2007.69 3883.13 2008.68 3882.1 2009.71 3881.07 2010.75 3880.07 2011.77 3879.09 2012.78 3878.12 2013.79 3877.23 2014.78 3876.41 2015.73 3875.6 2016.68 3874.93 2017.56 3874.42 2018.35L3885.44 2018.35C3886.37 2018.35 3887.12 2018.32 3887.67 2018.25 3888.23 2018.18 3888.69 2018.02 3889.06 2017.79 3889.42 2017.55 3889.74 2017.19 3889.99 2016.7 3890.25 2016.21 3890.55 2015.54 3890.89 2014.69L3893.66 2014.69C3893.56 2016.1 3893.46 2017.52 3893.38 2018.95 3893.29 2020.38 3893.19 2021.8 3893.09 2023.21L3867.86 2023.21 3867.86 2021.66C3868.34 2020.59 3868.9 2019.53 3869.53 2018.49 3870.17 2017.44 3870.88 2016.39 3871.68 2015.31 3872.47 2014.24 3873.37 2013.13 3874.39 2011.99 3875.4 2010.85 3876.52 2009.66 3877.75 2008.43 3879.62 2006.57 3881.14 2004.97 3882.31 2003.65 3883.48 2002.33 3884.4 2001.16 3885.08 2000.12 3885.75 1999.09 3886.22 1998.14 3886.46 1997.26 3886.71 1996.39 3886.84 1995.46 3886.84 1994.46 3886.84 1993.45 3886.69 1992.52 3886.41 1991.66 3886.12 1990.81 3885.71 1990.09 3885.17 1989.49 3884.63 1988.89 3883.95 1988.43 3883.13 1988.09 3882.3 1987.75 3881.36 1987.58 3880.28 1987.58 3878.44 1987.58 3876.89 1988.09 3875.64 1989.09 3874.39 1990.09 3873.41 1991.55 3872.72 1993.45L3868.82 1993.45 3868.82 1987.64C3871.36 1986.59 3873.7 1985.83 3875.83 1985.35 3877.97 1984.87 3879.89 1984.64 3881.59 1984.64Z" fill="#00B050" fill-rule="evenodd"/><text fill="#000000" fill-opacity="0" font-family="Arial,Arial_MSFontService,sans-serif" font-size="38.5718" x="3867.86" y="2018.39">2</text><path d="M3903.63 1941.47 3911.32 1941.47 3911.32 1943.79 3901.4 1967.65 3897.91 1966.61ZM3882.63 1941.47 3890.32 1941.47 3890.32 1943.79 3880.4 1967.65 3876.91 1966.61Z" fill="#00B050" fill-rule="evenodd"/><text fill="#000000" fill-opacity="0" font-family="Arial,Arial_MSFontService,sans-serif" font-size="26.1812" x="3876.91" y="1964.38">′′</text><path d="M0 0 444.218 19.25" stroke="#00B050" stroke-width="13.75" stroke-miterlimit="8" fill="none" fill-rule="evenodd" transform="matrix(1 0 0 -1 3469 1943.25)"/><path d="M0 0 58.9492 104.898" stroke="#00B050" stroke-width="2.29167" stroke-miterlimit="8" fill="none" fill-rule="evenodd" transform="matrix(-1 0 0 1 3599.95 1832)"/><path d="M0 0 95.9162 170.679" stroke="#00B050" stroke-width="2.29167" stroke-miterlimit="8" fill="none" fill-rule="evenodd" transform="matrix(-1 0 0 1 3718.92 1763)"/><path d="M0 0 86.8361 154.522" stroke="#00B050" stroke-width="2.29167" stroke-miterlimit="8" fill="none" fill-rule="evenodd" transform="matrix(-1 0 0 1 3789.84 1778)"/><path d="M0 0 59.8464 106.495" stroke="#00B050" stroke-width="2.29167" stroke-miterlimit="8" fill="none" fill-rule="evenodd" transform="matrix(-1 0 0 1 3846.85 1826)"/></g></svg>