<svg width="1242" height="982" xmlns="http://www.w3.org/2000/svg" xmlns:xlink="http://www.w3.org/1999/xlink" xml:space="preserve" overflow="hidden"><g transform="translate(-2334 -849)"><path d="M2680.42 1734.1C2784.72 1643.1 2889.03 1552.09 2969.02 1551.69 3049 1551.28 3117.4 1679.82 3160.31 1731.66" stroke="#00B050" stroke-width="13.75" stroke-miterlimit="8" fill="none" fill-rule="evenodd"/><path d="M0 0 482.163 391.796" stroke="#FF0000" stroke-width="4.58333" stroke-miterlimit="8" fill="none" fill-rule="evenodd" transform="matrix(1 0 0 -1 2560.5 1616.3)"/><path d="M3315.31 1628.93 3042.5 1224.5" stroke="#FF0000" stroke-width="4.58333" stroke-miterlimit="8" fill="none" fill-rule="evenodd"/><path d="M2560.21 1618.93C2721.9 1485.97 2883.59 1353.01 3009.42 1354.53 3135.25 1356.04 3246.28 1549.58 3315.18 1628.04" stroke="#FF0000" stroke-width="13.75" stroke-miterlimit="8" fill="none" fill-rule="evenodd"/><path d="M2486.06 1604.32C2484.17 1604.32 2482.71 1604.35 2481.68 1604.4L2481.68 1627.22 2485.17 1627.22C2487.87 1627.22 2490.02 1626.83 2491.61 1626.06 2493.21 1625.29 2494.39 1624.07 2495.16 1622.4 2495.93 1620.72 2496.31 1618.46 2496.31 1615.63 2496.31 1611.71 2495.53 1608.85 2493.96 1607.04 2492.4 1605.23 2489.76 1604.32 2486.06 1604.32ZM2464.78 1599.58 2488.33 1599.58C2495.17 1599.58 2500.29 1600.8 2503.69 1603.25 2507.09 1605.69 2508.8 1609.45 2508.8 1614.53 2508.8 1618.13 2508 1621.25 2506.41 1623.89 2504.81 1626.54 2502.5 1628.55 2499.48 1629.91 2496.45 1631.28 2492.67 1631.96 2488.13 1631.96 2485.51 1631.96 2483.36 1631.91 2481.68 1631.8L2481.68 1644.77C2481.68 1646.85 2481.79 1648.29 2482.01 1649.1 2482.22 1649.91 2482.64 1650.56 2483.24 1651.05 2483.85 1651.53 2484.97 1651.93 2486.59 1652.22L2486.59 1654.9 2464.78 1654.9 2464.78 1652.22C2466.24 1651.85 2467.24 1651.41 2467.76 1650.93 2468.29 1650.44 2468.65 1649.8 2468.84 1649 2469.03 1648.2 2469.12 1646.78 2469.12 1644.73L2469.12 1609.79C2469.12 1607.74 2469.03 1606.31 2468.86 1605.52 2468.68 1604.72 2468.32 1604.08 2467.78 1603.59 2467.24 1603.1 2466.24 1602.66 2464.78 1602.25Z" fill="#FF0000" fill-rule="evenodd"/><text fill="#000000" fill-opacity="0" font-family="Arial,Arial_MSFontService,sans-serif" font-size="55.3198" x="2464.78" y="1647.98">𝐏</text><path d="M2523.46 1636.06C2522.07 1636.06 2520.91 1636.42 2519.98 1637.15 2519.04 1637.87 2518.3 1638.93 2517.76 1640.33 2517.21 1641.73 2516.82 1643.44 2516.59 1645.46 2516.37 1647.47 2516.25 1649.76 2516.25 1652.32 2516.25 1655.28 2516.4 1657.84 2516.68 1659.99 2516.97 1662.15 2517.42 1663.92 2518.02 1665.31 2518.63 1666.7 2519.39 1667.72 2520.3 1668.38 2521.22 1669.03 2522.31 1669.36 2523.58 1669.36 2524.77 1669.36 2525.81 1669.05 2526.71 1668.44 2527.6 1667.82 2528.34 1666.86 2528.93 1665.56 2529.51 1664.26 2529.95 1662.61 2530.25 1660.62 2530.55 1658.62 2530.7 1656.26 2530.7 1653.54 2530.7 1650.49 2530.53 1647.85 2530.21 1645.65 2529.88 1643.45 2529.42 1641.63 2528.82 1640.21 2528.23 1638.79 2527.48 1637.75 2526.57 1637.07 2525.67 1636.4 2524.63 1636.06 2523.46 1636.06ZM2523.58 1633.17C2525.94 1633.17 2527.96 1633.61 2529.64 1634.5 2531.32 1635.38 2532.69 1636.64 2533.75 1638.28 2534.81 1639.92 2535.59 1641.92 2536.09 1644.28 2536.59 1646.64 2536.83 1649.31 2536.83 1652.29 2536.83 1658.9 2535.66 1663.9 2533.32 1667.29 2530.98 1670.67 2527.58 1672.37 2523.13 1672.37 2518.72 1672.37 2515.45 1670.77 2513.3 1667.57 2511.16 1664.38 2510.09 1659.53 2510.09 1653.04 2510.09 1649.64 2510.42 1646.7 2511.08 1644.22 2511.75 1641.74 2512.68 1639.68 2513.88 1638.04 2515.09 1636.4 2516.51 1635.18 2518.16 1634.38 2519.81 1633.57 2521.61 1633.17 2523.58 1633.17Z" fill="#FF0000" fill-rule="evenodd"/><text fill="#000000" fill-opacity="0" font-family="Arial,Arial_MSFontService,sans-serif" font-size="39.1973" x="2510.09" y="1667.47">0</text><path d="M3395.34 1604.32C3393.45 1604.32 3391.99 1604.35 3390.96 1604.4L3390.96 1627.22 3394.45 1627.22C3397.15 1627.22 3399.3 1626.83 3400.89 1626.06 3402.49 1625.29 3403.67 1624.07 3404.44 1622.4 3405.21 1620.72 3405.59 1618.46 3405.59 1615.63 3405.59 1611.71 3404.81 1608.85 3403.24 1607.04 3401.68 1605.23 3399.04 1604.32 3395.34 1604.32ZM3374.06 1599.58 3397.61 1599.58C3404.44 1599.58 3409.56 1600.8 3412.97 1603.25 3416.37 1605.69 3418.08 1609.45 3418.08 1614.53 3418.08 1618.13 3417.28 1621.25 3415.68 1623.89 3414.09 1626.54 3411.78 1628.55 3408.75 1629.91 3405.73 1631.28 3401.95 1631.96 3397.41 1631.96 3394.79 1631.96 3392.64 1631.91 3390.96 1631.8L3390.96 1644.77C3390.96 1646.85 3391.07 1648.29 3391.29 1649.1 3391.5 1649.91 3391.91 1650.56 3392.52 1651.05 3393.13 1651.53 3394.25 1651.93 3395.87 1652.22L3395.87 1654.9 3374.06 1654.9 3374.06 1652.22C3375.52 1651.85 3376.51 1651.41 3377.04 1650.93 3377.57 1650.44 3377.93 1649.8 3378.12 1649 3378.3 1648.2 3378.4 1646.78 3378.4 1644.73L3378.4 1609.79C3378.4 1607.74 3378.31 1606.31 3378.14 1605.52 3377.96 1604.72 3377.6 1604.08 3377.06 1603.59 3376.52 1603.1 3375.52 1602.66 3374.06 1602.25Z" fill="#FF0000" fill-rule="evenodd"/><text fill="#000000" fill-opacity="0" font-family="Arial,Arial_MSFontService,sans-serif" font-size="55.3198" x="3374.06" y="1647.98">𝐏</text><path d="M3432.86 1633.17C3434.92 1633.17 3436.69 1633.4 3438.15 1633.87 3439.6 1634.34 3440.79 1634.97 3441.7 1635.76 3442.62 1636.56 3443.28 1637.51 3443.69 1638.62 3444.09 1639.73 3444.3 1640.93 3444.3 1642.22 3444.3 1643 3444.24 1643.72 3444.13 1644.38 3444.02 1645.05 3443.83 1645.7 3443.57 1646.35 3443.3 1647 3442.95 1647.65 3442.51 1648.3 3442.07 1648.96 3441.53 1649.65 3440.87 1650.39 3440.37 1651.02 3439.73 1651.76 3438.93 1652.59 3438.14 1653.42 3437.27 1654.32 3436.33 1655.27 3435.39 1656.22 3434.4 1657.22 3433.36 1658.25 3432.33 1659.28 3431.33 1660.3 3430.36 1661.32 3429.38 1662.33 3428.49 1663.31 3427.68 1664.27 3426.86 1665.22 3426.2 1666.09 3425.68 1666.89L3436.7 1666.89C3437.63 1666.89 3438.38 1666.85 3438.93 1666.78 3439.49 1666.71 3439.95 1666.56 3440.32 1666.32 3440.69 1666.08 3441 1665.72 3441.26 1665.23 3441.52 1664.75 3441.81 1664.08 3442.15 1663.22L3444.92 1663.22C3444.82 1664.63 3444.73 1666.05 3444.64 1667.48 3444.55 1668.91 3444.45 1670.33 3444.36 1671.74L3419.13 1671.74 3419.13 1670.19C3419.6 1669.12 3420.16 1668.06 3420.8 1667.02 3421.43 1665.98 3422.15 1664.92 3422.94 1663.85 3423.73 1662.78 3424.64 1661.67 3425.65 1660.53 3426.66 1659.39 3427.78 1658.2 3429.02 1656.97 3430.88 1655.1 3432.4 1653.51 3433.57 1652.19 3434.74 1650.87 3435.67 1649.69 3436.34 1648.66 3437.02 1647.63 3437.48 1646.67 3437.73 1645.8 3437.98 1644.93 3438.1 1643.99 3438.1 1643 3438.1 1641.99 3437.96 1641.05 3437.67 1640.2 3437.38 1639.35 3436.97 1638.62 3436.43 1638.03 3435.9 1637.43 3435.22 1636.96 3434.39 1636.63 3433.57 1636.29 3432.62 1636.12 3431.55 1636.12 3429.7 1636.12 3428.15 1636.62 3426.9 1637.62 3425.65 1638.63 3424.68 1640.08 3423.98 1641.99L3420.08 1641.99 3420.08 1636.18C3422.62 1635.13 3424.96 1634.36 3427.09 1633.89 3429.23 1633.41 3431.15 1633.17 3432.86 1633.17Z" fill="#FF0000" fill-rule="evenodd"/><text fill="#000000" fill-opacity="0" font-family="Arial,Arial_MSFontService,sans-serif" font-size="38.5718" x="3419.13" y="1666.92">2</text><path d="M3033.08 1262.85C3031.19 1262.85 3029.73 1262.88 3028.71 1262.93L3028.71 1285.75 3032.19 1285.75C3034.89 1285.75 3037.04 1285.37 3038.64 1284.6 3040.23 1283.83 3041.41 1282.6 3042.18 1280.93 3042.95 1279.25 3043.34 1277 3043.34 1274.16 3043.34 1270.24 3042.55 1267.38 3040.99 1265.57 3039.42 1263.76 3036.79 1262.85 3033.08 1262.85ZM3011.81 1258.11 3035.35 1258.11C3042.19 1258.11 3047.31 1259.33 3050.71 1261.78 3054.12 1264.22 3055.82 1267.99 3055.82 1273.07 3055.82 1276.66 3055.02 1279.78 3053.43 1282.43 3051.83 1285.07 3049.52 1287.08 3046.5 1288.45 3043.47 1289.81 3039.69 1290.49 3035.15 1290.49 3032.53 1290.49 3030.38 1290.44 3028.71 1290.33L3028.71 1303.3C3028.71 1305.38 3028.82 1306.82 3029.03 1307.63 3029.25 1308.45 3029.66 1309.09 3030.27 1309.58 3030.88 1310.07 3031.99 1310.46 3033.61 1310.76L3033.61 1313.43 3011.81 1313.43 3011.81 1310.76C3013.27 1310.38 3014.26 1309.94 3014.79 1309.46 3015.31 1308.97 3015.67 1308.33 3015.86 1307.53 3016.05 1306.74 3016.14 1305.31 3016.14 1303.26L3016.14 1268.32C3016.14 1266.27 3016.06 1264.84 3015.88 1264.05 3015.7 1263.25 3015.35 1262.61 3014.81 1262.12 3014.27 1261.64 3013.27 1261.19 3011.81 1260.79Z" fill="#FF0000" fill-rule="evenodd"/><text fill="#000000" fill-opacity="0" font-family="Arial,Arial_MSFontService,sans-serif" font-size="55.3198" x="3011.81" y="1306.52">𝐏</text><path d="M3071.02 1291.91 3072.84 1291.91C3072.8 1293 3072.77 1293.98 3072.75 1294.84 3072.73 1295.71 3072.72 1296.55 3072.71 1297.36 3072.7 1298.18 3072.69 1298.98 3072.69 1299.77L3072.69 1322.41C3072.69 1323.03 3072.71 1323.56 3072.75 1324 3072.79 1324.45 3072.86 1324.83 3072.95 1325.14 3073.03 1325.44 3073.15 1325.71 3073.3 1325.93 3073.45 1326.14 3073.63 1326.33 3073.82 1326.49 3074.06 1326.73 3074.38 1326.91 3074.78 1327.04 3075.17 1327.17 3075.68 1327.28 3076.3 1327.37 3076.91 1327.46 3077.65 1327.53 3078.51 1327.58 3079.38 1327.63 3080.42 1327.66 3081.63 1327.68L3081.63 1330.27 3058.01 1330.27 3058.01 1327.68C3059.18 1327.64 3060.17 1327.6 3060.99 1327.55 3061.8 1327.5 3062.5 1327.43 3063.07 1327.34 3063.65 1327.25 3064.11 1327.15 3064.46 1327.04 3064.8 1326.93 3065.11 1326.8 3065.36 1326.64 3065.64 1326.46 3065.88 1326.27 3066.08 1326.06 3066.28 1325.85 3066.44 1325.59 3066.56 1325.27 3066.68 1324.95 3066.77 1324.57 3066.84 1324.11 3066.91 1323.65 3066.94 1323.09 3066.94 1322.41L3066.94 1301.05C3066.94 1300.28 3066.79 1299.73 3066.5 1299.42 3066.2 1299.1 3065.77 1298.94 3065.22 1298.94 3064.6 1298.94 3063.69 1299.26 3062.48 1299.89 3061.26 1300.53 3059.7 1301.47 3057.77 1302.72 3057.51 1302.27 3057.27 1301.81 3057.05 1301.35 3056.84 1300.9 3056.61 1300.43 3056.37 1299.95 3058.83 1298.6 3061.27 1297.26 3063.68 1295.92 3066.09 1294.58 3068.54 1293.24 3071.02 1291.91Z" fill="#FF0000" fill-rule="evenodd"/><text fill="#000000" fill-opacity="0" font-family="Arial,Arial_MSFontService,sans-serif" font-size="38.3633" x="3056.37" y="1325.48">1</text><path d="M2540.5 1616C2540.5 1605.23 2549.23 1596.5 2560 1596.5 2570.77 1596.5 2579.5 1605.23 2579.5 1616 2579.5 1626.77 2570.77 1635.5 2560 1635.5 2549.23 1635.5 2540.5 1626.77 2540.5 1616Z" stroke="#000000" stroke-width="4.58333" stroke-miterlimit="8" fill-rule="evenodd"/><path d="M3023.5 1230.5C3023.5 1220.01 3032.23 1211.5 3043 1211.5 3053.77 1211.5 3062.5 1220.01 3062.5 1230.5 3062.5 1240.99 3053.77 1249.5 3043 1249.5 3032.23 1249.5 3023.5 1240.99 3023.5 1230.5Z" stroke="#000000" stroke-width="4.58333" stroke-miterlimit="8" fill-rule="evenodd"/><path d="M3296.5 1624.5C3296.5 1614.01 3305.01 1605.5 3315.5 1605.5 3325.99 1605.5 3334.5 1614.01 3334.5 1624.5 3334.5 1634.99 3325.99 1643.5 3315.5 1643.5 3305.01 1643.5 3296.5 1634.99 3296.5 1624.5Z" stroke="#000000" stroke-width="4.58333" stroke-miterlimit="8" fill-rule="evenodd"/><path d="M2544.76 1602.71 2463.85 1516.49 2465.52 1514.93 2546.43 1601.14ZM2457.79 1528.46 2449 1499 2477.84 1509.64Z" fill="#4472C4"/><path d="M2514.33 1492.33C2511.57 1492.33 2509.1 1493.44 2506.91 1495.67 2504.72 1497.9 2503 1500.9 2501.74 1504.69 2500.49 1508.47 2499.86 1512.24 2499.86 1515.99 2499.86 1518.8 2500.24 1520.9 2501.01 1522.3 2501.78 1523.69 2503.07 1524.38 2504.88 1524.38 2505.72 1524.38 2506.57 1524.2 2507.44 1523.84 2508.3 1523.47 2509.2 1522.88 2510.13 1522.07 2511.06 1521.26 2511.98 1520.28 2512.89 1519.11 2513.79 1517.95 2514.62 1516.78 2515.38 1515.61 2516.14 1514.43 2516.84 1513.04 2517.49 1511.43 2518.13 1509.83 2518.69 1507.89 2519.15 1505.62L2519.51 1503.88C2519.92 1501.93 2520.12 1500.09 2520.12 1498.36 2520.12 1496.26 2519.67 1494.72 2518.78 1493.76 2517.89 1492.81 2516.41 1492.33 2514.33 1492.33ZM2531.31 1470.6 2533.7 1470.6 2523.61 1515.47C2523.01 1518.11 2522.71 1520.11 2522.71 1521.47 2522.71 1522.55 2522.89 1523.33 2523.24 1523.82 2523.59 1524.3 2524.15 1524.55 2524.9 1524.55 2525.71 1524.55 2526.58 1524.21 2527.5 1523.55 2528.42 1522.89 2529.71 1521.63 2531.39 1519.76L2533.7 1522.03C2531.21 1524.65 2529.12 1526.5 2527.42 1527.58 2525.71 1528.67 2523.88 1529.21 2521.9 1529.21 2520.23 1529.21 2518.89 1528.65 2517.89 1527.54 2516.89 1526.44 2516.39 1524.96 2516.39 1523.13 2516.39 1521.64 2516.7 1520.06 2517.32 1518.39L2516.8 1518.22C2514.2 1522.01 2511.74 1524.77 2509.42 1526.53 2507.1 1528.29 2504.64 1529.17 2502.05 1529.17 2499.07 1529.17 2496.77 1528.04 2495.14 1525.8 2493.5 1523.56 2492.68 1520.41 2492.68 1516.36 2492.68 1511.71 2493.6 1507.25 2495.42 1502.96 2497.24 1498.68 2499.75 1495.3 2502.94 1492.83 2506.13 1490.36 2509.68 1489.12 2513.6 1489.12 2515.24 1489.12 2516.76 1489.29 2518.16 1489.63 2519.55 1489.97 2520.97 1490.56 2522.43 1491.39L2524.54 1482.03C2524.75 1481.14 2524.94 1480.15 2525.11 1479.07 2525.27 1477.99 2525.35 1477.05 2525.35 1476.24 2525.35 1475.43 2525.2 1474.81 2524.9 1474.39 2524.61 1473.97 2524.18 1473.67 2523.63 1473.48 2523.07 1473.29 2522.08 1473.16 2520.65 1473.08L2521.13 1470.97Z" fill="#678DCF" fill-rule="evenodd"/><text fill="#000000" fill-opacity="0" font-family="Arial,Arial_MSFontService,sans-serif" font-size="58.6025" x="2492.68" y="1521.88">𝑑</text><path d="M2553.39 1487.71C2555.63 1487.71 2557.42 1488.33 2558.76 1489.59 2560.09 1490.85 2560.76 1492.5 2560.76 1494.56 2560.76 1495.23 2560.68 1495.88 2560.52 1496.5L2560.92 1496.82C2563.46 1493.66 2565.87 1491.35 2568.16 1489.89 2570.44 1488.44 2573.11 1487.71 2576.16 1487.71 2578.94 1487.71 2581.13 1488.49 2582.71 1490.06 2584.29 1491.62 2585.08 1493.76 2585.08 1496.46 2585.08 1497.32 2584.99 1498.41 2584.81 1499.7 2584.64 1501 2584.43 1502.15 2584.19 1503.15L2580.98 1515.79C2580.53 1517.6 2580.3 1519.18 2580.3 1520.53 2580.3 1521.59 2580.47 1522.32 2580.82 1522.72 2581.17 1523.13 2581.67 1523.33 2582.32 1523.33 2583.11 1523.33 2583.98 1522.96 2584.96 1522.21 2585.93 1521.47 2587.08 1520.34 2588.4 1518.83L2591.32 1521.75C2588.67 1524.45 2586.3 1526.37 2584.21 1527.5 2582.11 1528.64 2579.81 1529.21 2577.3 1529.21 2574.43 1529.21 2572.34 1528.5 2571.01 1527.08 2569.69 1525.66 2569.03 1523.57 2569.03 1520.82 2569.03 1518.84 2569.42 1516.32 2570.2 1513.24L2571.99 1506.51C2572.45 1504.78 2572.84 1503.07 2573.16 1501.38 2573.49 1499.7 2573.65 1498.31 2573.65 1497.23 2573.65 1496.01 2573.39 1495.11 2572.88 1494.51 2572.37 1493.92 2571.64 1493.62 2570.69 1493.62 2569.37 1493.62 2567.85 1494.41 2566.15 1495.97 2564.45 1497.54 2563.08 1499.2 2562.06 1500.94 2561.03 1502.68 2560.22 1504.96 2559.63 1507.77L2555.09 1528.56 2543.46 1528.56 2549.98 1500.39C2550.39 1498.63 2550.59 1497.3 2550.59 1496.38 2550.59 1495.49 2550.44 1494.8 2550.14 1494.31 2549.85 1493.83 2549.33 1493.58 2548.6 1493.58 2547.77 1493.58 2546.86 1493.96 2545.89 1494.72 2544.92 1495.47 2543.78 1496.59 2542.48 1498.08L2539.57 1495.16C2542.27 1492.41 2544.67 1490.48 2546.76 1489.37 2548.85 1488.26 2551.06 1487.71 2553.39 1487.71Z" fill="#678DCF" fill-rule="evenodd"/><text fill="#000000" fill-opacity="0" font-family="Arial,Arial_MSFontService,sans-serif" font-size="41.5" x="2539.57" y="1524.02">𝒏</text><path d="M2610.1 1507.6C2608.69 1507.6 2607.58 1508.22 2606.77 1509.47 2605.95 1510.71 2605.37 1512.55 2605.01 1515.01 2604.65 1517.46 2604.47 1520.65 2604.47 1524.58 2604.47 1528.95 2604.67 1532.42 2605.05 1535.01 2605.44 1537.59 2606.05 1539.49 2606.89 1540.71 2607.72 1541.93 2608.83 1542.54 2610.22 1542.54 2610.98 1542.54 2611.64 1542.36 2612.2 1541.99 2612.77 1541.62 2613.27 1541.05 2613.72 1540.26 2614.17 1539.48 2614.55 1538.44 2614.87 1537.14 2615.19 1535.84 2615.41 1534.22 2615.55 1532.28 2615.69 1530.34 2615.76 1528.19 2615.76 1525.8 2615.76 1522.25 2615.63 1519.26 2615.36 1516.84 2615.09 1514.41 2614.71 1512.55 2614.21 1511.24 2613.72 1509.93 2613.13 1508.99 2612.46 1508.44 2611.78 1507.88 2611 1507.6 2610.1 1507.6ZM2610.28 1504.27C2615.17 1504.27 2618.81 1505.93 2621.21 1509.26 2623.61 1512.58 2624.82 1517.67 2624.82 1524.52 2624.82 1531.55 2623.54 1536.87 2620.99 1540.47 2618.44 1544.08 2614.69 1545.88 2609.75 1545.88 2604.86 1545.88 2601.25 1544.19 2598.92 1540.8 2596.58 1537.41 2595.42 1532.3 2595.42 1525.45 2595.42 1518.57 2596.72 1513.33 2599.32 1509.7 2601.92 1506.08 2605.58 1504.27 2610.28 1504.27Z" fill="#678DCF" fill-rule="evenodd"/><text fill="#000000" fill-opacity="0" font-family="Arial,Arial_MSFontService,sans-serif" font-size="41.6099" x="2595.42" y="1540.68">𝟎</text><path d="M2579.32 1590.51 2576.8 1592.82 2559.23 1573.68 2539.59 1591.7 2536.83 1588.69 2558.98 1568.35Z" stroke="#678DCF" stroke-width="4.58333" stroke-miterlimit="8" fill="#678DCF" fill-rule="evenodd"/><path d="M0.605378-0.972857 120.377 73.5569 119.166 75.5026-0.605378 0.972857ZM123.144 60.4339 139.228 86.6373 108.615 83.7825Z" fill="#4472C4" transform="matrix(1 0 0 -1 3331 1615.64)"/><path d="M3316.39 1510.64C3313.64 1510.64 3311.16 1511.76 3308.98 1513.99 3306.79 1516.21 3305.07 1519.22 3303.81 1523 3302.55 1526.79 3301.92 1530.55 3301.92 1534.31 3301.92 1537.12 3302.31 1539.22 3303.08 1540.61 3303.85 1542 3305.14 1542.7 3306.95 1542.7 3307.79 1542.7 3308.64 1542.52 3309.5 1542.15 3310.37 1541.79 3311.27 1541.2 3312.2 1540.39 3313.13 1539.58 3314.05 1538.59 3314.95 1537.43 3315.86 1536.27 3316.69 1535.1 3317.45 1533.93 3318.2 1532.75 3318.91 1531.36 3319.55 1529.75 3320.2 1528.14 3320.76 1526.2 3321.22 1523.94L3321.58 1522.19C3321.99 1520.25 3322.19 1518.41 3322.19 1516.68 3322.19 1514.57 3321.74 1513.04 3320.85 1512.08 3319.96 1511.12 3318.47 1510.64 3316.39 1510.64ZM3333.37 1488.92 3335.76 1488.92 3325.67 1533.78C3325.08 1536.43 3324.78 1538.43 3324.78 1539.78 3324.78 1540.86 3324.96 1541.65 3325.31 1542.13 3325.66 1542.62 3326.21 1542.86 3326.97 1542.86 3327.78 1542.86 3328.65 1542.53 3329.56 1541.87 3330.48 1541.21 3331.78 1539.94 3333.45 1538.08L3335.76 1540.35C3333.28 1542.97 3331.19 1544.82 3329.48 1545.9 3327.78 1546.98 3325.94 1547.52 3323.97 1547.52 3322.3 1547.52 3320.96 1546.97 3319.96 1545.86 3318.96 1544.75 3318.46 1543.28 3318.46 1541.44 3318.46 1539.96 3318.77 1538.38 3319.39 1536.7L3318.86 1536.54C3316.27 1540.32 3313.81 1543.09 3311.49 1544.85 3309.17 1546.6 3306.71 1547.48 3304.11 1547.48 3301.14 1547.48 3298.84 1546.36 3297.2 1544.12 3295.57 1541.88 3294.75 1538.73 3294.75 1534.68 3294.75 1530.03 3295.66 1525.56 3297.49 1521.28 3299.31 1517 3301.82 1513.62 3305 1511.15 3308.19 1508.68 3311.75 1507.44 3315.66 1507.44 3317.31 1507.44 3318.83 1507.61 3320.22 1507.95 3321.61 1508.29 3323.04 1508.87 3324.5 1509.71L3326.61 1500.35C3326.82 1499.46 3327.01 1498.47 3327.17 1497.39 3327.33 1496.31 3327.42 1495.36 3327.42 1494.55 3327.42 1493.74 3327.27 1493.13 3326.97 1492.71 3326.67 1492.29 3326.25 1491.99 3325.69 1491.8 3325.14 1491.61 3324.15 1491.47 3322.71 1491.39L3323.2 1489.28Z" fill="#678DCF" fill-rule="evenodd"/><text fill="#000000" fill-opacity="0" font-family="Arial,Arial_MSFontService,sans-serif" font-size="58.6025" x="3294.75" y="1540.2">𝑑</text><path d="M3355.45 1506.02C3357.7 1506.02 3359.49 1506.65 3360.82 1507.91 3362.16 1509.16 3362.83 1510.82 3362.83 1512.87 3362.83 1513.55 3362.75 1514.2 3362.59 1514.82L3362.99 1515.14C3365.53 1511.98 3367.94 1509.67 3370.22 1508.21 3372.51 1506.75 3375.18 1506.02 3378.23 1506.02 3381.01 1506.02 3383.19 1506.81 3384.77 1508.37 3386.35 1509.94 3387.15 1512.07 3387.15 1514.78 3387.15 1515.64 3387.06 1516.72 3386.88 1518.02 3386.71 1519.32 3386.5 1520.46 3386.25 1521.46L3383.05 1534.11C3382.59 1535.92 3382.36 1537.5 3382.36 1538.85 3382.36 1539.9 3382.54 1540.63 3382.89 1541.04 3383.24 1541.44 3383.74 1541.65 3384.39 1541.65 3385.17 1541.65 3386.05 1541.27 3387.02 1540.53 3388 1539.79 3389.14 1538.66 3390.47 1537.15L3393.39 1540.07C3390.74 1542.77 3388.37 1544.69 3386.27 1545.82 3384.18 1546.95 3381.88 1547.52 3379.36 1547.52 3376.5 1547.52 3374.41 1546.81 3373.08 1545.39 3371.76 1543.98 3371.1 1541.89 3371.1 1539.13 3371.1 1537.16 3371.49 1534.63 3372.27 1531.55L3374.05 1524.83C3374.51 1523.1 3374.91 1521.39 3375.23 1519.7 3375.55 1518.01 3375.72 1516.63 3375.72 1515.55 3375.72 1514.33 3375.46 1513.43 3374.95 1512.83 3374.43 1512.24 3373.7 1511.94 3372.76 1511.94 3371.43 1511.94 3369.92 1512.72 3368.22 1514.29 3366.52 1515.86 3365.15 1517.51 3364.13 1519.25 3363.1 1521 3362.29 1523.27 3361.69 1526.08L3357.15 1546.87 3345.52 1546.87 3352.05 1518.71C3352.45 1516.95 3352.66 1515.61 3352.66 1514.7 3352.66 1513.8 3352.51 1513.11 3352.21 1512.63 3351.91 1512.14 3351.4 1511.9 3350.67 1511.9 3349.83 1511.9 3348.93 1512.28 3347.96 1513.03 3346.98 1513.79 3345.85 1514.91 3344.55 1516.4L3341.63 1513.48C3344.33 1510.72 3346.73 1508.79 3348.83 1507.68 3350.92 1506.58 3353.13 1506.02 3355.45 1506.02Z" fill="#678DCF" fill-rule="evenodd"/><text fill="#000000" fill-opacity="0" font-family="Arial,Arial_MSFontService,sans-serif" font-size="41.5" x="3341.63" y="1542.33">𝒏</text><path d="M3411.72 1525.15C3413.79 1525.15 3415.55 1525.38 3417.01 1525.85 3418.47 1526.31 3419.66 1526.94 3420.57 1527.74 3421.48 1528.53 3422.14 1529.48 3422.55 1530.6 3422.96 1531.71 3423.16 1532.91 3423.16 1534.2 3423.16 1534.97 3423.11 1535.69 3423 1536.36 3422.89 1537.03 3422.7 1537.68 3422.43 1538.33 3422.16 1538.97 3421.81 1539.62 3421.37 1540.28 3420.94 1540.93 3420.39 1541.63 3419.74 1542.36 3419.24 1543 3418.59 1543.73 3417.8 1544.57 3417.01 1545.4 3416.14 1546.29 3415.19 1547.25 3414.25 1548.2 3413.26 1549.19 3412.23 1550.22 3411.2 1551.26 3410.19 1552.28 3409.22 1553.29 3408.25 1554.31 3407.35 1555.29 3406.54 1556.24 3405.73 1557.19 3405.06 1558.07 3404.54 1558.86L3415.57 1558.86C3416.5 1558.86 3417.24 1558.83 3417.8 1558.76 3418.36 1558.69 3418.82 1558.53 3419.18 1558.3 3419.55 1558.06 3419.86 1557.7 3420.12 1557.21 3420.38 1556.72 3420.68 1556.05 3421.02 1555.2L3423.79 1555.2C3423.69 1556.61 3423.59 1558.03 3423.5 1559.46 3423.41 1560.89 3423.32 1562.31 3423.22 1563.72L3397.99 1563.72 3397.99 1562.17C3398.47 1561.1 3399.02 1560.04 3399.66 1559 3400.3 1557.95 3401.01 1556.9 3401.8 1555.82 3402.6 1554.75 3403.5 1553.65 3404.52 1552.5 3405.53 1551.36 3406.65 1550.18 3407.88 1548.94 3409.75 1547.08 3411.27 1545.48 3412.44 1544.16 3413.61 1542.84 3414.53 1541.67 3415.21 1540.63 3415.88 1539.6 3416.34 1538.65 3416.59 1537.77 3416.84 1536.9 3416.97 1535.97 3416.97 1534.97 3416.97 1533.96 3416.82 1533.03 3416.53 1532.18 3416.25 1531.32 3415.83 1530.6 3415.3 1530 3414.76 1529.41 3414.08 1528.94 3413.26 1528.6 3412.43 1528.26 3411.48 1528.09 3410.41 1528.09 3408.57 1528.09 3407.02 1528.6 3405.77 1529.6 3404.52 1530.6 3403.54 1532.06 3402.85 1533.96L3398.95 1533.96 3398.95 1528.15C3401.49 1527.1 3403.83 1526.34 3405.96 1525.86 3408.09 1525.38 3410.02 1525.15 3411.72 1525.15Z" fill="#678DCF" fill-rule="evenodd"/><text fill="#000000" fill-opacity="0" font-family="Arial,Arial_MSFontService,sans-serif" font-size="38.5718" x="3397.99" y="1558.9">2</text><path d="M3342.28 1602.98 3339.53 1605.03 3324.01 1584.19 3302.64 1600.12 3300.19 1596.84 3324.31 1578.86Z" stroke="#678DCF" stroke-width="4.58333" stroke-miterlimit="8" fill="#678DCF" fill-rule="evenodd"/><path d="M0 0 645.01 524.123" stroke="#00B050" stroke-width="4.58333" stroke-miterlimit="8" fill="none" fill-rule="evenodd" transform="matrix(1 0 0 -1 2449.5 1501.62)"/><path d="M3470.76 1537.8 3095.5 981.5" stroke="#00B050" stroke-width="4.58333" stroke-miterlimit="8" fill="none" fill-rule="evenodd"/><path d="M3072.5 986C3072.5 975.231 3081.23 966.5 3092 966.5 3102.77 966.5 3111.5 975.231 3111.5 986 3111.5 996.77 3102.77 1005.5 3092 1005.5 3081.23 1005.5 3072.5 996.77 3072.5 986Z" stroke="#000000" stroke-width="4.58333" stroke-miterlimit="8" fill-rule="evenodd"/><path d="M2393.12 1400.97C2391.23 1400.97 2389.77 1400.99 2388.74 1401.05L2388.74 1423.86 2392.23 1423.86C2394.93 1423.86 2397.08 1423.48 2398.67 1422.71 2400.26 1421.94 2401.45 1420.72 2402.22 1419.04 2402.99 1417.37 2403.37 1415.11 2403.37 1412.27 2403.37 1408.36 2402.59 1405.49 2401.02 1403.68 2399.45 1401.87 2396.82 1400.97 2393.12 1400.97ZM2371.84 1396.22 2395.39 1396.22C2402.22 1396.22 2407.34 1397.45 2410.75 1399.89 2414.15 1402.34 2415.85 1406.1 2415.85 1411.18 2415.85 1414.77 2415.06 1417.89 2413.46 1420.54 2411.87 1423.19 2409.56 1425.19 2406.53 1426.56 2403.51 1427.92 2399.72 1428.61 2395.18 1428.61 2392.56 1428.61 2390.42 1428.55 2388.74 1428.44L2388.74 1441.41C2388.74 1443.49 2388.85 1444.94 2389.06 1445.75 2389.28 1446.56 2389.69 1447.21 2390.3 1447.69 2390.91 1448.18 2392.02 1448.57 2393.64 1448.87L2393.64 1451.54 2371.84 1451.54 2371.84 1448.87C2373.3 1448.49 2374.29 1448.06 2374.82 1447.57 2375.35 1447.09 2375.7 1446.44 2375.89 1445.65 2376.08 1444.85 2376.18 1443.43 2376.18 1441.37L2376.18 1406.44C2376.18 1404.38 2376.09 1402.96 2375.91 1402.16 2375.74 1401.36 2375.38 1400.72 2374.84 1400.24 2374.3 1399.75 2373.3 1399.3 2371.84 1398.9Z" fill="#00B050" fill-rule="evenodd"/><text fill="#000000" fill-opacity="0" font-family="Arial,Arial_MSFontService,sans-serif" font-size="55.3198" x="2371.84" y="1444.63">𝐏</text><path d="M2430.52 1434.26C2429.13 1434.26 2427.97 1434.63 2427.03 1435.35 2426.1 1436.08 2425.36 1437.14 2424.81 1438.54 2424.27 1439.94 2423.88 1441.65 2423.65 1443.66 2423.42 1445.68 2423.31 1447.97 2423.31 1450.53 2423.31 1453.49 2423.45 1456.04 2423.74 1458.2 2424.03 1460.35 2424.48 1462.12 2425.08 1463.51 2425.69 1464.9 2426.45 1465.93 2427.36 1466.58 2428.27 1467.24 2429.37 1467.56 2430.64 1467.56 2431.83 1467.56 2432.87 1467.26 2433.76 1466.64 2434.66 1466.02 2435.4 1465.07 2435.98 1463.77 2436.57 1462.47 2437.01 1460.82 2437.31 1458.82 2437.61 1456.83 2437.75 1454.47 2437.75 1451.75 2437.75 1448.69 2437.59 1446.06 2437.26 1443.85 2436.94 1441.65 2436.47 1439.84 2435.88 1438.42 2435.28 1437 2434.53 1435.95 2433.63 1435.28 2432.73 1434.6 2431.69 1434.26 2430.52 1434.26ZM2430.64 1431.37C2433 1431.37 2435.02 1431.82 2436.7 1432.7 2438.38 1433.58 2439.75 1434.84 2440.81 1436.48 2441.87 1438.12 2442.65 1440.12 2443.15 1442.48 2443.64 1444.85 2443.89 1447.52 2443.89 1450.5 2443.89 1457.11 2442.72 1462.11 2440.38 1465.49 2438.03 1468.88 2434.64 1470.57 2430.19 1470.57 2425.78 1470.57 2422.5 1468.97 2420.36 1465.78 2418.22 1462.58 2417.14 1457.73 2417.14 1451.24 2417.14 1447.85 2417.48 1444.91 2418.14 1442.43 2418.81 1439.94 2419.74 1437.88 2420.94 1436.24 2422.14 1434.61 2423.57 1433.39 2425.22 1432.58 2426.86 1431.78 2428.67 1431.37 2430.64 1431.37Z" fill="#00B050" fill-rule="evenodd"/><text fill="#000000" fill-opacity="0" font-family="Arial,Arial_MSFontService,sans-serif" font-size="39.1973" x="2417.14" y="1465.67">0</text><path d="M2431.67 1388.21 2439.36 1388.21 2439.36 1390.53 2429.44 1414.39 2425.95 1413.35Z" fill="#00B050" fill-rule="evenodd"/><text fill="#000000" fill-opacity="0" font-family="Arial,Arial_MSFontService,sans-serif" font-size="26.1812" x="2425.95" y="1411.12">′</text><path d="M3079.23 892.273C3077.34 892.273 3075.88 892.3 3074.86 892.354L3074.86 915.171 3078.34 915.171C3081.04 915.171 3083.19 914.786 3084.78 914.016 3086.38 913.246 3087.56 912.023 3088.33 910.348 3089.1 908.673 3089.49 906.417 3089.49 903.58 3089.49 899.662 3088.7 896.798 3087.14 894.988 3085.57 893.178 3082.93 892.273 3079.23 892.273ZM3057.96 887.531 3081.5 887.531C3088.34 887.531 3093.46 888.754 3096.86 891.199 3100.27 893.644 3101.97 897.406 3101.97 902.486 3101.97 906.079 3101.17 909.2 3099.58 911.847 3097.98 914.495 3095.67 916.501 3092.65 917.866 3089.62 919.23 3085.84 919.912 3081.3 919.912 3078.68 919.912 3076.53 919.858 3074.86 919.75L3074.86 932.719C3074.86 934.799 3074.96 936.245 3075.18 937.055 3075.4 937.866 3075.81 938.514 3076.42 939.001 3077.02 939.487 3078.14 939.879 3079.76 940.176L3079.76 942.851 3057.96 942.851 3057.96 940.176C3059.41 939.798 3060.41 939.365 3060.93 938.879 3061.46 938.393 3061.82 937.751 3062.01 936.954 3062.2 936.157 3062.29 934.732 3062.29 932.678L3062.29 897.744C3062.29 895.69 3062.2 894.265 3062.03 893.468 3061.85 892.671 3061.5 892.03 3060.95 891.543 3060.41 891.057 3059.41 890.611 3057.96 890.206Z" fill="#00B050" fill-rule="evenodd"/><text fill="#000000" fill-opacity="0" font-family="Arial,Arial_MSFontService,sans-serif" font-size="55.3198" x="3057.96" y="935.936">𝐏</text><path d="M3117.17 922.798 3118.99 922.798C3118.95 923.89 3118.92 924.868 3118.9 925.732 3118.88 926.596 3118.87 927.434 3118.86 928.249 3118.85 929.063 3118.84 929.867 3118.84 930.661L3118.84 953.298C3118.84 953.913 3118.86 954.445 3118.9 954.891 3118.94 955.338 3119 955.715 3119.09 956.023 3119.18 956.331 3119.3 956.594 3119.45 956.813 3119.6 957.031 3119.77 957.22 3119.97 957.378 3120.21 957.617 3120.53 957.8 3120.93 957.93 3121.32 958.059 3121.83 958.168 3122.44 958.257 3123.06 958.346 3123.8 958.416 3124.66 958.466 3125.53 958.515 3126.56 958.55 3127.78 958.57L3127.78 961.161 3104.16 961.161 3104.16 958.57C3105.33 958.53 3106.32 958.485 3107.14 958.436 3107.95 958.386 3108.64 958.317 3109.22 958.227 3109.8 958.138 3110.26 958.039 3110.6 957.93 3110.95 957.82 3111.26 957.686 3111.51 957.527 3111.79 957.349 3112.03 957.155 3112.23 956.947 3112.43 956.738 3112.59 956.475 3112.7 956.157 3112.82 955.84 3112.92 955.452 3112.99 954.996 3113.06 954.539 3113.09 953.973 3113.09 953.298L3113.09 931.942C3113.09 931.168 3112.94 930.621 3112.65 930.304 3112.35 929.986 3111.92 929.827 3111.36 929.827 3110.75 929.827 3109.84 930.145 3108.62 930.78 3107.41 931.416 3105.84 932.359 3103.92 933.61 3103.66 933.153 3103.42 932.697 3103.2 932.24 3102.98 931.783 3102.76 931.316 3102.52 930.84 3104.98 929.49 3107.42 928.144 3109.83 926.804 3112.24 925.464 3114.69 924.128 3117.17 922.798Z" fill="#00B050" fill-rule="evenodd"/><text fill="#000000" fill-opacity="0" font-family="Arial,Arial_MSFontService,sans-serif" font-size="38.3633" x="3102.52" y="956.366">1</text><path d="M3117.79 879.631 3125.47 879.631 3125.47 881.954 3115.56 905.812 3112.07 904.769Z" fill="#00B050" fill-rule="evenodd"/><text fill="#000000" fill-opacity="0" font-family="Arial,Arial_MSFontService,sans-serif" font-size="26.1812" x="3112.07" y="902.539">′</text><path d="M3526.27 1460.19C3524.38 1460.19 3522.92 1460.21 3521.9 1460.27L3521.9 1483.09 3525.38 1483.09C3528.08 1483.09 3530.23 1482.7 3531.83 1481.93 3533.42 1481.16 3534.6 1479.94 3535.37 1478.26 3536.14 1476.59 3536.53 1474.33 3536.53 1471.49 3536.53 1467.58 3535.74 1464.71 3534.18 1462.9 3532.61 1461.09 3529.98 1460.19 3526.27 1460.19ZM3505 1455.45 3528.54 1455.45C3535.38 1455.45 3540.5 1456.67 3543.9 1459.11 3547.31 1461.56 3549.01 1465.32 3549.01 1470.4 3549.01 1473.99 3548.21 1477.11 3546.62 1479.76 3545.03 1482.41 3542.72 1484.42 3539.69 1485.78 3536.66 1487.14 3532.88 1487.83 3528.34 1487.83 3525.72 1487.83 3523.57 1487.77 3521.9 1487.66L3521.9 1500.63C3521.9 1502.71 3522.01 1504.16 3522.22 1504.97 3522.44 1505.78 3522.85 1506.43 3523.46 1506.92 3524.07 1507.4 3525.18 1507.79 3526.8 1508.09L3526.8 1510.77 3505 1510.77 3505 1508.09C3506.46 1507.71 3507.45 1507.28 3507.98 1506.79 3508.5 1506.31 3508.86 1505.67 3509.05 1504.87 3509.24 1504.07 3509.33 1502.65 3509.33 1500.59L3509.33 1465.66C3509.33 1463.61 3509.25 1462.18 3509.07 1461.38 3508.9 1460.59 3508.54 1459.94 3508 1459.46 3507.46 1458.97 3506.46 1458.53 3505 1458.12Z" fill="#00B050" fill-rule="evenodd"/><text fill="#000000" fill-opacity="0" font-family="Arial,Arial_MSFontService,sans-serif" font-size="55.3198" x="3505" y="1503.85">𝐏</text><path d="M3563.79 1490.6C3565.86 1490.6 3567.62 1490.83 3569.08 1491.3 3570.54 1491.76 3571.73 1492.39 3572.64 1493.19 3573.55 1493.98 3574.21 1494.93 3574.62 1496.05 3575.03 1497.16 3575.23 1498.36 3575.23 1499.65 3575.23 1500.42 3575.18 1501.14 3575.07 1501.81 3574.96 1502.48 3574.77 1503.13 3574.5 1503.78 3574.23 1504.42 3573.88 1505.07 3573.44 1505.73 3573.01 1506.38 3572.46 1507.08 3571.81 1507.81 3571.31 1508.45 3570.66 1509.18 3569.87 1510.02 3569.08 1510.85 3568.21 1511.74 3567.26 1512.7 3566.32 1513.65 3565.33 1514.64 3564.3 1515.67 3563.27 1516.71 3562.26 1517.73 3561.29 1518.74 3560.32 1519.76 3559.43 1520.74 3558.61 1521.69 3557.8 1522.64 3557.13 1523.52 3556.62 1524.31L3567.64 1524.31C3568.57 1524.31 3569.31 1524.28 3569.87 1524.21 3570.43 1524.14 3570.89 1523.98 3571.25 1523.75 3571.62 1523.51 3571.94 1523.15 3572.19 1522.66 3572.45 1522.17 3572.75 1521.5 3573.09 1520.65L3575.86 1520.65C3575.76 1522.06 3575.66 1523.48 3575.57 1524.91 3575.48 1526.34 3575.39 1527.76 3575.29 1529.17L3550.06 1529.17 3550.06 1527.62C3550.54 1526.55 3551.1 1525.49 3551.73 1524.45 3552.37 1523.4 3553.08 1522.35 3553.88 1521.27 3554.67 1520.2 3555.57 1519.1 3556.59 1517.95 3557.6 1516.81 3558.72 1515.63 3559.95 1514.39 3561.82 1512.53 3563.34 1510.93 3564.51 1509.61 3565.68 1508.29 3566.6 1507.12 3567.28 1506.08 3567.95 1505.05 3568.42 1504.1 3568.66 1503.22 3568.91 1502.35 3569.04 1501.42 3569.04 1500.42 3569.04 1499.41 3568.89 1498.48 3568.6 1497.63 3568.32 1496.77 3567.9 1496.05 3567.37 1495.45 3566.83 1494.86 3566.15 1494.39 3565.33 1494.05 3564.5 1493.71 3563.56 1493.54 3562.48 1493.54 3560.64 1493.54 3559.09 1494.05 3557.84 1495.05 3556.59 1496.05 3555.61 1497.51 3554.92 1499.41L3551.02 1499.41 3551.02 1493.6C3553.56 1492.55 3555.9 1491.79 3558.03 1491.31 3560.16 1490.83 3562.09 1490.6 3563.79 1490.6Z" fill="#00B050" fill-rule="evenodd"/><text fill="#000000" fill-opacity="0" font-family="Arial,Arial_MSFontService,sans-serif" font-size="38.5718" x="3550.06" y="1524.35">2</text><path d="M3564.83 1447.43 3572.52 1447.43 3572.52 1449.75 3562.6 1473.61 3559.11 1472.57Z" fill="#00B050" fill-rule="evenodd"/><text fill="#000000" fill-opacity="0" font-family="Arial,Arial_MSFontService,sans-serif" font-size="26.1812" x="3559.11" y="1470.34">′</text><path d="M2447.69 1499.09C2664.44 1331.29 2881.19 1163.48 3052.23 1168.28 3223.27 1173.08 3378.54 1425.16 3473.95 1527.89" stroke="#00B050" stroke-width="13.75" stroke-miterlimit="8" fill="none" fill-rule="evenodd"/><path d="M2428.5 1499.5C2428.5 1489.01 2437.01 1480.5 2447.5 1480.5 2457.99 1480.5 2466.5 1489.01 2466.5 1499.5 2466.5 1509.99 2457.99 1518.5 2447.5 1518.5 2437.01 1518.5 2428.5 1509.99 2428.5 1499.5Z" stroke="#000000" stroke-width="4.58333" stroke-miterlimit="8" fill-rule="evenodd"/><path d="M3459.5 1529.5C3459.5 1519.01 3468.01 1510.5 3478.5 1510.5 3488.99 1510.5 3497.5 1519.01 3497.5 1529.5 3497.5 1539.99 3488.99 1548.5 3478.5 1548.5 3468.01 1548.5 3459.5 1539.99 3459.5 1529.5Z" stroke="#000000" stroke-width="4.58333" stroke-miterlimit="8" fill-rule="evenodd"/><path d="M2574.84 1630.22 2655.75 1716.43 2654.07 1718 2573.16 1631.78ZM2661.8 1704.46 2670.59 1733.92 2641.75 1723.28Z" fill="#4472C4"/><path d="M0.605378-0.972857 120.377 73.5569 119.166 75.5026-0.605378 0.972857ZM123.144 60.4339 139.228 86.6373 108.615 83.7825Z" fill="#4472C4" transform="matrix(-1 1.22465e-16 1.22465e-16 1 3298.23 1637)"/><path d="M0 0 323.607 262.957" stroke="#00B050" stroke-width="4.58333" stroke-miterlimit="8" fill="none" fill-rule="evenodd" transform="matrix(1 0 0 -1 2672.5 1732.46)"/><path d="M3161.07 1718.94 2995.5 1473.5" stroke="#00B050" stroke-width="4.58333" stroke-miterlimit="8" fill="none" fill-rule="evenodd"/><path d="M2974.5 1480.5C2974.5 1470.01 2983.23 1461.5 2994 1461.5 3004.77 1461.5 3013.5 1470.01 3013.5 1480.5 3013.5 1490.99 3004.77 1499.5 2994 1499.5 2983.23 1499.5 2974.5 1490.99 2974.5 1480.5Z" stroke="#000000" stroke-width="4.58333" stroke-miterlimit="8" fill-rule="evenodd"/><path d="M2654.5 1741C2654.5 1730.23 2663.01 1721.5 2673.5 1721.5 2683.99 1721.5 2692.5 1730.23 2692.5 1741 2692.5 1751.77 2683.99 1760.5 2673.5 1760.5 2663.01 1760.5 2654.5 1751.77 2654.5 1741Z" stroke="#000000" stroke-width="4.58333" stroke-miterlimit="8" fill-rule="evenodd"/><path d="M3137.5 1724C3137.5 1713.23 3146.01 1704.5 3156.5 1704.5 3166.99 1704.5 3175.5 1713.23 3175.5 1724 3175.5 1734.77 3166.99 1743.5 3156.5 1743.5 3146.01 1743.5 3137.5 1734.77 3137.5 1724Z" stroke="#000000" stroke-width="4.58333" stroke-miterlimit="8" fill-rule="evenodd"/><path d="M2589.29 1646.04 2587.01 1643.49 2606.38 1626.16 2588.6 1606.3 2591.66 1603.57 2611.71 1625.99Z" stroke="#678DCF" stroke-width="4.58333" stroke-miterlimit="8" fill="#678DCF" fill-rule="evenodd"/><path d="M2638.21 1605.57 2657.01 1605.57 2657.01 1611.85 2638.21 1611.85Z" fill="#678DCF" fill-rule="evenodd"/><text fill="#000000" fill-opacity="0" font-family="Arial,Arial_MSFontService,sans-serif" font-size="6.28174" x="2638.21" y="1611.07">-</text><path d="M2687.23 1593.82C2684.47 1593.82 2682 1594.93 2679.81 1597.16 2677.62 1599.39 2675.9 1602.4 2674.64 1606.18 2673.39 1609.96 2672.76 1613.73 2672.76 1617.48 2672.76 1620.29 2673.14 1622.4 2673.91 1623.79 2674.68 1625.18 2675.97 1625.87 2677.78 1625.87 2678.62 1625.87 2679.47 1625.69 2680.34 1625.33 2681.2 1624.96 2682.1 1624.37 2683.03 1623.56 2683.96 1622.75 2684.88 1621.77 2685.79 1620.61 2686.69 1619.44 2687.52 1618.28 2688.28 1617.1 2689.04 1615.92 2689.74 1614.53 2690.39 1612.93 2691.04 1611.32 2691.59 1609.38 2692.05 1607.11L2692.41 1605.37C2692.82 1603.42 2693.02 1601.58 2693.02 1599.86 2693.02 1597.75 2692.58 1596.21 2691.69 1595.26 2690.79 1594.3 2689.31 1593.82 2687.23 1593.82ZM2704.21 1572.09 2706.6 1572.09 2696.51 1616.96C2695.91 1619.61 2695.62 1621.61 2695.62 1622.96 2695.62 1624.04 2695.79 1624.82 2696.14 1625.31 2696.49 1625.79 2697.05 1626.04 2697.8 1626.04 2698.62 1626.04 2699.48 1625.71 2700.4 1625.04 2701.32 1624.38 2702.61 1623.12 2704.29 1621.25L2706.6 1623.52C2704.11 1626.14 2702.02 1627.99 2700.32 1629.08 2698.62 1630.16 2696.78 1630.7 2694.81 1630.7 2693.13 1630.7 2691.79 1630.14 2690.79 1629.04 2689.79 1627.93 2689.29 1626.45 2689.29 1624.62 2689.29 1623.13 2689.6 1621.55 2690.23 1619.88L2689.7 1619.71C2687.11 1623.5 2684.65 1626.27 2682.32 1628.02 2680 1629.78 2677.54 1630.66 2674.95 1630.66 2671.98 1630.66 2669.67 1629.54 2668.04 1627.29 2666.4 1625.05 2665.59 1621.9 2665.59 1617.85 2665.59 1613.2 2666.5 1608.74 2668.32 1604.46 2670.14 1600.17 2672.65 1596.8 2675.84 1594.32 2679.03 1591.85 2682.58 1590.62 2686.5 1590.62 2688.15 1590.62 2689.67 1590.78 2691.06 1591.12 2692.45 1591.46 2693.87 1592.05 2695.33 1592.88L2697.44 1583.52C2697.66 1582.63 2697.85 1581.65 2698.01 1580.56 2698.17 1579.48 2698.25 1578.54 2698.25 1577.73 2698.25 1576.92 2698.1 1576.3 2697.8 1575.88 2697.51 1575.46 2697.08 1575.16 2696.53 1574.97 2695.97 1574.78 2694.98 1574.65 2693.55 1574.57L2694.04 1572.46Z" fill="#678DCF" fill-rule="evenodd"/><text fill="#000000" fill-opacity="0" font-family="Arial,Arial_MSFontService,sans-serif" font-size="58.6025" x="2665.59" y="1623.37">𝑑</text><path d="M2726.29 1589.2C2728.53 1589.2 2730.32 1589.82 2731.66 1591.08 2732.99 1592.34 2733.66 1593.99 2733.66 1596.05 2733.66 1596.72 2733.58 1597.37 2733.42 1597.99L2733.83 1598.32C2736.36 1595.15 2738.78 1592.84 2741.06 1591.39 2743.34 1589.93 2746.01 1589.2 2749.06 1589.2 2751.85 1589.2 2754.03 1589.98 2755.61 1591.55 2757.19 1593.11 2757.98 1595.25 2757.98 1597.95 2757.98 1598.82 2757.89 1599.9 2757.72 1601.19 2757.54 1602.49 2757.33 1603.64 2757.09 1604.64L2753.89 1617.28C2753.43 1619.09 2753.2 1620.67 2753.2 1622.02 2753.2 1623.08 2753.37 1623.81 2753.72 1624.21 2754.08 1624.62 2754.58 1624.82 2755.22 1624.82 2756.01 1624.82 2756.89 1624.45 2757.86 1623.71 2758.83 1622.96 2759.98 1621.83 2761.3 1620.32L2764.22 1623.24C2761.57 1625.94 2759.2 1627.86 2757.11 1628.99 2755.01 1630.13 2752.71 1630.7 2750.2 1630.7 2747.33 1630.7 2745.24 1629.99 2743.92 1628.57 2742.59 1627.15 2741.93 1625.06 2741.93 1622.31 2741.93 1620.34 2742.32 1617.81 2743.11 1614.73L2744.89 1608C2745.35 1606.27 2745.74 1604.56 2746.06 1602.87 2746.39 1601.19 2746.55 1599.8 2746.55 1598.72 2746.55 1597.5 2746.29 1596.6 2745.78 1596.01 2745.27 1595.41 2744.54 1595.11 2743.59 1595.11 2742.27 1595.11 2740.76 1595.9 2739.05 1597.46 2737.35 1599.03 2735.99 1600.69 2734.96 1602.43 2733.93 1604.17 2733.12 1606.45 2732.53 1609.26L2727.99 1630.05 2716.36 1630.05 2722.88 1601.88C2723.29 1600.13 2723.49 1598.79 2723.49 1597.87 2723.49 1596.98 2723.34 1596.29 2723.04 1595.8 2722.75 1595.32 2722.23 1595.07 2721.5 1595.07 2720.67 1595.07 2719.76 1595.45 2718.79 1596.21 2717.82 1596.96 2716.68 1598.09 2715.39 1599.57L2712.47 1596.65C2715.17 1593.9 2717.57 1591.97 2719.66 1590.86 2721.75 1589.75 2723.96 1589.2 2726.29 1589.2Z" fill="#678DCF" fill-rule="evenodd"/><text fill="#000000" fill-opacity="0" font-family="Arial,Arial_MSFontService,sans-serif" font-size="41.5" x="2712.47" y="1625.51">𝒏</text><path d="M2783 1609.09C2781.59 1609.09 2780.48 1609.72 2779.67 1610.96 2778.85 1612.2 2778.27 1614.04 2777.91 1616.5 2777.55 1618.95 2777.38 1622.14 2777.38 1626.07 2777.38 1630.44 2777.57 1633.92 2777.96 1636.5 2778.34 1639.08 2778.95 1640.98 2779.79 1642.2 2780.62 1643.42 2781.73 1644.03 2783.12 1644.03 2783.88 1644.03 2784.54 1643.85 2785.1 1643.48 2785.67 1643.11 2786.18 1642.54 2786.62 1641.75 2787.07 1640.97 2787.45 1639.93 2787.77 1638.63 2788.09 1637.33 2788.32 1635.71 2788.46 1633.77 2788.59 1631.84 2788.66 1629.68 2788.66 1627.29 2788.66 1623.74 2788.53 1620.75 2788.26 1618.33 2787.99 1615.91 2787.61 1614.04 2787.11 1612.73 2786.62 1611.42 2786.03 1610.48 2785.36 1609.93 2784.68 1609.37 2783.9 1609.09 2783 1609.09ZM2783.18 1605.76C2788.07 1605.76 2791.71 1607.42 2794.11 1610.75 2796.52 1614.07 2797.72 1619.16 2797.72 1626.01 2797.72 1633.04 2796.44 1638.36 2793.89 1641.96 2791.34 1645.57 2787.59 1647.37 2782.65 1647.37 2777.76 1647.37 2774.15 1645.68 2771.82 1642.29 2769.49 1638.9 2768.32 1633.79 2768.32 1626.94 2768.32 1620.07 2769.62 1614.82 2772.22 1611.19 2774.82 1607.57 2778.48 1605.76 2783.18 1605.76Z" fill="#678DCF" fill-rule="evenodd"/><text fill="#000000" fill-opacity="0" font-family="Arial,Arial_MSFontService,sans-serif" font-size="41.6099" x="2768.32" y="1642.17">𝟎</text><path d="M3096.93 1610.98 3115.74 1610.98 3115.74 1617.26 3096.93 1617.26Z" fill="#678DCF" fill-rule="evenodd"/><text fill="#000000" fill-opacity="0" font-family="Arial,Arial_MSFontService,sans-serif" font-size="6.28174" x="3096.93" y="1616.47">-</text><path d="M3145.95 1599.22C3143.19 1599.22 3140.72 1600.34 3138.53 1602.57 3136.35 1604.79 3134.62 1607.8 3133.37 1611.58 3132.11 1615.37 3131.48 1619.13 3131.48 1622.89 3131.48 1625.7 3131.87 1627.8 3132.64 1629.19 3133.41 1630.58 3134.7 1631.28 3136.51 1631.28 3137.35 1631.28 3138.2 1631.1 3139.06 1630.73 3139.93 1630.37 3140.82 1629.78 3141.76 1628.97 3142.69 1628.16 3143.61 1627.17 3144.51 1626.01 3145.42 1624.85 3146.25 1623.68 3147 1622.51 3147.76 1621.33 3148.46 1619.94 3149.11 1618.33 3149.76 1616.72 3150.31 1614.78 3150.77 1612.52L3151.14 1610.77C3151.54 1608.83 3151.75 1606.99 3151.75 1605.26 3151.75 1603.15 3151.3 1601.62 3150.41 1600.66 3149.52 1599.7 3148.03 1599.22 3145.95 1599.22ZM3162.93 1577.5 3165.32 1577.5 3155.23 1622.36C3154.64 1625.01 3154.34 1627.01 3154.34 1628.36 3154.34 1629.44 3154.52 1630.23 3154.87 1630.71 3155.22 1631.2 3155.77 1631.44 3156.53 1631.44 3157.34 1631.44 3158.2 1631.11 3159.12 1630.45 3160.04 1629.79 3161.34 1628.52 3163.01 1626.66L3165.32 1628.93C3162.84 1631.55 3160.74 1633.4 3159.04 1634.48 3157.34 1635.56 3155.5 1636.1 3153.53 1636.1 3151.85 1636.1 3150.52 1635.55 3149.52 1634.44 3148.52 1633.33 3148.02 1631.86 3148.02 1630.02 3148.02 1628.54 3148.33 1626.96 3148.95 1625.28L3148.42 1625.12C3145.83 1628.9 3143.37 1631.67 3141.05 1633.43 3138.72 1635.18 3136.26 1636.06 3133.67 1636.06 3130.7 1636.06 3128.4 1634.94 3126.76 1632.7 3125.13 1630.46 3124.31 1627.31 3124.31 1623.26 3124.31 1618.61 3125.22 1614.14 3127.04 1609.86 3128.87 1605.58 3131.37 1602.2 3134.56 1599.73 3137.75 1597.26 3141.3 1596.02 3145.22 1596.02 3146.87 1596.02 3148.39 1596.19 3149.78 1596.53 3151.17 1596.86 3152.6 1597.45 3154.06 1598.29L3156.16 1588.93C3156.38 1588.04 3156.57 1587.05 3156.73 1585.97 3156.89 1584.89 3156.97 1583.94 3156.97 1583.13 3156.97 1582.32 3156.83 1581.71 3156.53 1581.29 3156.23 1580.87 3155.81 1580.57 3155.25 1580.38 3154.7 1580.19 3153.7 1580.05 3152.27 1579.97L3152.76 1577.86Z" fill="#678DCF" fill-rule="evenodd"/><text fill="#000000" fill-opacity="0" font-family="Arial,Arial_MSFontService,sans-serif" font-size="58.6025" x="3124.31" y="1628.78">𝑑</text><path d="M3185.01 1594.6C3187.25 1594.6 3189.04 1595.23 3190.38 1596.49 3191.72 1597.74 3192.39 1599.4 3192.39 1601.45 3192.39 1602.13 3192.31 1602.78 3192.14 1603.4L3192.55 1603.72C3195.09 1600.56 3197.5 1598.25 3199.78 1596.79 3202.07 1595.33 3204.73 1594.6 3207.79 1594.6 3210.57 1594.6 3212.75 1595.39 3214.33 1596.95 3215.91 1598.52 3216.7 1600.65 3216.7 1603.36 3216.7 1604.22 3216.62 1605.3 3216.44 1606.6 3216.26 1607.9 3216.05 1609.04 3215.81 1610.04L3212.61 1622.69C3212.15 1624.5 3211.92 1626.08 3211.92 1627.43 3211.92 1628.48 3212.1 1629.21 3212.45 1629.62 3212.8 1630.02 3213.3 1630.23 3213.95 1630.23 3214.73 1630.23 3215.61 1629.85 3216.58 1629.11 3217.55 1628.37 3218.7 1627.24 3220.03 1625.73L3222.94 1628.65C3220.3 1631.35 3217.93 1633.27 3215.83 1634.4 3213.74 1635.53 3211.43 1636.1 3208.92 1636.1 3206.06 1636.1 3203.96 1635.39 3202.64 1633.97 3201.32 1632.56 3200.65 1630.47 3200.65 1627.71 3200.65 1625.74 3201.05 1623.21 3201.83 1620.13L3203.61 1613.41C3204.07 1611.68 3204.46 1609.97 3204.79 1608.28 3205.11 1606.59 3205.27 1605.21 3205.27 1604.13 3205.27 1602.91 3205.02 1602.01 3204.5 1601.41 3203.99 1600.82 3203.26 1600.52 3202.32 1600.52 3200.99 1600.52 3199.48 1601.3 3197.78 1602.87 3196.07 1604.44 3194.71 1606.09 3193.68 1607.83 3192.66 1609.58 3191.85 1611.85 3191.25 1614.66L3186.71 1635.45 3175.08 1635.45 3181.61 1607.29C3182.01 1605.53 3182.21 1604.19 3182.21 1603.28 3182.21 1602.38 3182.07 1601.69 3181.77 1601.21 3181.47 1600.72 3180.96 1600.48 3180.23 1600.48 3179.39 1600.48 3178.49 1600.86 3177.51 1601.61 3176.54 1602.37 3175.41 1603.49 3174.11 1604.98L3171.19 1602.06C3173.89 1599.3 3176.29 1597.37 3178.38 1596.26 3180.48 1595.16 3182.69 1594.6 3185.01 1594.6Z" fill="#678DCF" fill-rule="evenodd"/><text fill="#000000" fill-opacity="0" font-family="Arial,Arial_MSFontService,sans-serif" font-size="41.5" x="3171.19" y="1630.91">𝒏</text><path d="M3241.28 1613.73C3243.35 1613.73 3245.11 1613.96 3246.57 1614.43 3248.03 1614.89 3249.21 1615.52 3250.13 1616.32 3251.04 1617.11 3251.7 1618.06 3252.11 1619.18 3252.52 1620.29 3252.72 1621.49 3252.72 1622.78 3252.72 1623.55 3252.66 1624.27 3252.55 1624.94 3252.45 1625.6 3252.26 1626.26 3251.99 1626.91 3251.72 1627.55 3251.37 1628.2 3250.93 1628.86 3250.49 1629.51 3249.95 1630.21 3249.29 1630.94 3248.8 1631.58 3248.15 1632.31 3247.36 1633.15 3246.56 1633.98 3245.69 1634.87 3244.75 1635.83 3243.81 1636.78 3242.82 1637.77 3241.79 1638.8 3240.76 1639.84 3239.75 1640.86 3238.78 1641.87 3237.81 1642.89 3236.91 1643.87 3236.1 1644.82 3235.28 1645.77 3234.62 1646.65 3234.1 1647.44L3245.12 1647.44C3246.06 1647.44 3246.8 1647.41 3247.36 1647.34 3247.91 1647.27 3248.38 1647.11 3248.74 1646.88 3249.11 1646.64 3249.42 1646.28 3249.68 1645.79 3249.94 1645.3 3250.24 1644.63 3250.57 1643.78L3253.34 1643.78C3253.24 1645.19 3253.15 1646.61 3253.06 1648.04 3252.97 1649.47 3252.88 1650.89 3252.78 1652.3L3227.55 1652.3 3227.55 1650.75C3228.03 1649.68 3228.58 1648.62 3229.22 1647.58 3229.85 1646.53 3230.57 1645.48 3231.36 1644.4 3232.16 1643.33 3233.06 1642.23 3234.07 1641.08 3235.09 1639.94 3236.21 1638.76 3237.44 1637.52 3239.31 1635.66 3240.82 1634.06 3242 1632.74 3243.17 1631.42 3244.09 1630.25 3244.77 1629.21 3245.44 1628.18 3245.9 1627.23 3246.15 1626.35 3246.4 1625.48 3246.52 1624.55 3246.52 1623.55 3246.52 1622.54 3246.38 1621.61 3246.09 1620.76 3245.8 1619.9 3245.39 1619.18 3244.86 1618.58 3244.32 1617.98 3243.64 1617.52 3242.82 1617.18 3241.99 1616.84 3241.04 1616.67 3239.97 1616.67 3238.12 1616.67 3236.58 1617.18 3235.32 1618.18 3234.07 1619.18 3233.1 1620.64 3232.41 1622.54L3228.5 1622.54 3228.5 1616.73C3231.05 1615.68 3233.38 1614.92 3235.52 1614.44 3237.65 1613.96 3239.57 1613.73 3241.28 1613.73Z" fill="#678DCF" fill-rule="evenodd"/><text fill="#000000" fill-opacity="0" font-family="Arial,Arial_MSFontService,sans-serif" font-size="38.5718" x="3227.55" y="1647.48">2</text><path d="M3283.16 1606.4 3285.18 1609.16 3264.24 1624.54 3280.02 1646.03 3276.72 1648.45 3258.91 1624.21Z" stroke="#678DCF" stroke-width="4.58333" stroke-miterlimit="8" fill="#678DCF" fill-rule="evenodd"/><path d="M2576.27 1740.79C2574.38 1740.79 2572.92 1740.82 2571.89 1740.87L2571.89 1763.69 2575.38 1763.69C2578.08 1763.69 2580.23 1763.3 2581.82 1762.53 2583.42 1761.76 2584.6 1760.54 2585.37 1758.87 2586.14 1757.19 2586.52 1754.93 2586.52 1752.1 2586.52 1748.18 2585.74 1745.32 2584.17 1743.51 2582.61 1741.7 2579.97 1740.79 2576.27 1740.79ZM2554.99 1736.05 2578.54 1736.05C2585.38 1736.05 2590.5 1737.27 2593.9 1739.72 2597.3 1742.16 2599.01 1745.92 2599.01 1751 2599.01 1754.6 2598.21 1757.72 2596.62 1760.37 2595.02 1763.01 2592.71 1765.02 2589.69 1766.38 2586.66 1767.75 2582.88 1768.43 2578.34 1768.43 2575.72 1768.43 2573.57 1768.38 2571.89 1768.27L2571.89 1781.24C2571.89 1783.32 2572 1784.76 2572.22 1785.57 2572.43 1786.38 2572.85 1787.03 2573.45 1787.52 2574.06 1788.01 2575.18 1788.4 2576.8 1788.69L2576.8 1791.37 2554.99 1791.37 2554.99 1788.69C2556.45 1788.32 2557.45 1787.88 2557.97 1787.4 2558.5 1786.91 2558.86 1786.27 2559.05 1785.47 2559.24 1784.68 2559.33 1783.25 2559.33 1781.2L2559.33 1746.26C2559.33 1744.21 2559.24 1742.78 2559.07 1741.99 2558.89 1741.19 2558.53 1740.55 2557.99 1740.06 2557.45 1739.58 2556.45 1739.13 2554.99 1738.72Z" fill="#00B050" fill-rule="evenodd"/><text fill="#000000" fill-opacity="0" font-family="Arial,Arial_MSFontService,sans-serif" font-size="55.3198" x="2554.99" y="1784.45">𝐏</text><path d="M2613.67 1774.09C2612.28 1774.09 2611.12 1774.45 2610.19 1775.18 2609.25 1775.9 2608.51 1776.96 2607.97 1778.36 2607.42 1779.76 2607.03 1781.47 2606.81 1783.49 2606.58 1785.5 2606.46 1787.79 2606.46 1790.35 2606.46 1793.31 2606.61 1795.87 2606.89 1798.02 2607.18 1800.18 2607.63 1801.95 2608.23 1803.34 2608.84 1804.73 2609.6 1805.75 2610.51 1806.41 2611.43 1807.06 2612.52 1807.39 2613.79 1807.39 2614.98 1807.39 2616.02 1807.08 2616.92 1806.46 2617.81 1805.85 2618.55 1804.89 2619.14 1803.59 2619.72 1802.29 2620.16 1800.64 2620.46 1798.65 2620.76 1796.65 2620.91 1794.29 2620.91 1791.57 2620.91 1788.51 2620.74 1785.88 2620.42 1783.68 2620.09 1781.48 2619.63 1779.66 2619.03 1778.24 2618.44 1776.82 2617.69 1775.78 2616.78 1775.1 2615.88 1774.43 2614.84 1774.09 2613.67 1774.09ZM2613.79 1771.2C2616.15 1771.2 2618.17 1771.64 2619.85 1772.52 2621.53 1773.41 2622.9 1774.67 2623.96 1776.31 2625.02 1777.95 2625.8 1779.95 2626.3 1782.31 2626.8 1784.67 2627.04 1787.34 2627.04 1790.32 2627.04 1796.93 2625.87 1801.93 2623.53 1805.32 2621.19 1808.7 2617.79 1810.4 2613.34 1810.4 2608.93 1810.4 2605.66 1808.8 2603.51 1805.6 2601.37 1802.4 2600.3 1797.56 2600.3 1791.07 2600.3 1787.67 2600.63 1784.73 2601.29 1782.25 2601.96 1779.77 2602.89 1777.71 2604.09 1776.07 2605.3 1774.43 2606.72 1773.21 2608.37 1772.41 2610.02 1771.6 2611.82 1771.2 2613.79 1771.2Z" fill="#00B050" fill-rule="evenodd"/><text fill="#000000" fill-opacity="0" font-family="Arial,Arial_MSFontService,sans-serif" font-size="39.1973" x="2600.3" y="1805.5">0</text><path d="M2635.83 1728.03 2643.51 1728.03 2643.51 1730.36 2633.59 1754.22 2630.11 1753.17ZM2614.83 1728.03 2622.51 1728.03 2622.51 1730.36 2612.59 1754.22 2609.11 1753.17Z" fill="#00B050" fill-rule="evenodd"/><text fill="#000000" fill-opacity="0" font-family="Arial,Arial_MSFontService,sans-serif" font-size="26.1812" x="2609.11" y="1750.94">′′</text><path d="M3042.21 1421.05C3040.32 1421.05 3038.86 1421.07 3037.84 1421.13L3037.84 1443.94 3041.32 1443.94C3044.02 1443.94 3046.17 1443.56 3047.76 1442.79 3049.36 1442.02 3050.54 1440.8 3051.31 1439.12 3052.08 1437.45 3052.47 1435.19 3052.47 1432.35 3052.47 1428.44 3051.68 1425.57 3050.12 1423.76 3048.55 1421.95 3045.91 1421.05 3042.21 1421.05ZM3020.94 1416.3 3044.48 1416.3C3051.32 1416.3 3056.44 1417.53 3059.84 1419.97 3063.25 1422.42 3064.95 1426.18 3064.95 1431.26 3064.95 1434.85 3064.15 1437.97 3062.56 1440.62 3060.96 1443.27 3058.65 1445.27 3055.63 1446.64 3052.6 1448 3048.82 1448.69 3044.28 1448.69 3041.66 1448.69 3039.51 1448.63 3037.84 1448.52L3037.84 1461.49C3037.84 1463.57 3037.94 1465.02 3038.16 1465.83 3038.38 1466.64 3038.79 1467.29 3039.4 1467.77 3040 1468.26 3041.12 1468.65 3042.74 1468.95L3042.74 1471.62 3020.94 1471.62 3020.94 1468.95C3022.39 1468.57 3023.39 1468.14 3023.91 1467.65 3024.44 1467.17 3024.8 1466.52 3024.99 1465.73 3025.18 1464.93 3025.27 1463.5 3025.27 1461.45L3025.27 1426.52C3025.27 1424.46 3025.18 1423.04 3025.01 1422.24 3024.83 1421.44 3024.48 1420.8 3023.93 1420.32 3023.39 1419.83 3022.39 1419.38 3020.94 1418.98Z" fill="#00B050" fill-rule="evenodd"/><text fill="#000000" fill-opacity="0" font-family="Arial,Arial_MSFontService,sans-serif" font-size="55.3198" x="3020.94" y="1464.71">𝐏</text><path d="M3080.15 1451.57 3081.97 1451.57C3081.93 1452.66 3081.9 1453.64 3081.88 1454.5 3081.86 1455.37 3081.85 1456.21 3081.84 1457.02 3081.83 1457.84 3081.82 1458.64 3081.82 1459.43L3081.82 1482.07C3081.82 1482.69 3081.84 1483.22 3081.88 1483.66 3081.92 1484.11 3081.98 1484.49 3082.07 1484.8 3082.16 1485.1 3082.28 1485.37 3082.43 1485.59 3082.58 1485.8 3082.75 1485.99 3082.95 1486.15 3083.19 1486.39 3083.51 1486.57 3083.91 1486.7 3084.3 1486.83 3084.81 1486.94 3085.42 1487.03 3086.04 1487.12 3086.78 1487.19 3087.64 1487.24 3088.51 1487.29 3089.54 1487.32 3090.76 1487.34L3090.76 1489.93 3067.14 1489.93 3067.14 1487.34C3068.31 1487.3 3069.3 1487.26 3070.11 1487.21 3070.93 1487.16 3071.62 1487.09 3072.2 1487 3072.78 1486.91 3073.24 1486.81 3073.58 1486.7 3073.93 1486.59 3074.24 1486.46 3074.49 1486.3 3074.77 1486.12 3075.01 1485.93 3075.21 1485.72 3075.41 1485.51 3075.57 1485.25 3075.68 1484.93 3075.8 1484.61 3075.9 1484.23 3075.97 1483.77 3076.04 1483.31 3076.07 1482.75 3076.07 1482.07L3076.07 1460.71C3076.07 1459.94 3075.92 1459.39 3075.63 1459.08 3075.33 1458.76 3074.9 1458.6 3074.34 1458.6 3073.73 1458.6 3072.82 1458.92 3071.6 1459.55 3070.39 1460.19 3068.82 1461.13 3066.9 1462.38 3066.64 1461.93 3066.4 1461.47 3066.18 1461.01 3065.96 1460.56 3065.74 1460.09 3065.5 1459.61 3067.96 1458.26 3070.4 1456.92 3072.81 1455.58 3075.22 1454.24 3077.67 1452.9 3080.15 1451.57Z" fill="#00B050" fill-rule="evenodd"/><text fill="#000000" fill-opacity="0" font-family="Arial,Arial_MSFontService,sans-serif" font-size="38.3633" x="3065.5" y="1485.14">1</text><path d="M3101.77 1408.4 3109.45 1408.4 3109.45 1410.73 3099.54 1434.58 3096.05 1433.54ZM3080.77 1408.4 3088.45 1408.4 3088.45 1410.73 3078.54 1434.58 3075.05 1433.54Z" fill="#00B050" fill-rule="evenodd"/><text fill="#000000" fill-opacity="0" font-family="Arial,Arial_MSFontService,sans-serif" font-size="26.1812" x="3075.05" y="1431.31">′′</text><path d="M3062.8 1730.72C3060.91 1730.72 3059.45 1730.75 3058.42 1730.8L3058.42 1753.62 3061.91 1753.62C3064.61 1753.62 3066.76 1753.23 3068.35 1752.46 3069.95 1751.69 3071.13 1750.47 3071.9 1748.79 3072.67 1747.12 3073.05 1744.86 3073.05 1742.03 3073.05 1738.11 3072.27 1735.24 3070.7 1733.43 3069.14 1731.62 3066.5 1730.72 3062.8 1730.72ZM3041.52 1725.98 3065.07 1725.98C3071.9 1725.98 3077.02 1727.2 3080.43 1729.65 3083.83 1732.09 3085.54 1735.85 3085.54 1740.93 3085.54 1744.53 3084.74 1747.65 3083.14 1750.29 3081.55 1752.94 3079.24 1754.95 3076.21 1756.31 3073.19 1757.68 3069.41 1758.36 3064.87 1758.36 3062.25 1758.36 3060.1 1758.3 3058.42 1758.2L3058.42 1771.17C3058.42 1773.25 3058.53 1774.69 3058.75 1775.5 3058.96 1776.31 3059.37 1776.96 3059.98 1777.45 3060.59 1777.93 3061.71 1778.33 3063.33 1778.62L3063.33 1781.3 3041.52 1781.3 3041.52 1778.62C3042.98 1778.24 3043.97 1777.81 3044.5 1777.33 3045.03 1776.84 3045.39 1776.2 3045.58 1775.4 3045.76 1774.6 3045.86 1773.18 3045.86 1771.12L3045.86 1736.19C3045.86 1734.14 3045.77 1732.71 3045.6 1731.91 3045.42 1731.12 3045.06 1730.48 3044.52 1729.99 3043.98 1729.5 3042.98 1729.06 3041.52 1728.65Z" fill="#00B050" fill-rule="evenodd"/><text fill="#000000" fill-opacity="0" font-family="Arial,Arial_MSFontService,sans-serif" font-size="55.3198" x="3041.52" y="1774.38">𝐏</text><path d="M3100.32 1761.13C3102.38 1761.13 3104.15 1761.36 3105.61 1761.83 3107.06 1762.29 3108.25 1762.92 3109.16 1763.72 3110.08 1764.51 3110.74 1765.47 3111.15 1766.58 3111.55 1767.69 3111.76 1768.89 3111.76 1770.18 3111.76 1770.96 3111.7 1771.68 3111.59 1772.34 3111.48 1773.01 3111.29 1773.66 3111.03 1774.31 3110.76 1774.95 3110.41 1775.6 3109.97 1776.26 3109.53 1776.91 3108.99 1777.61 3108.33 1778.34 3107.83 1778.98 3107.19 1779.71 3106.39 1780.55 3105.6 1781.38 3104.73 1782.28 3103.79 1783.23 3102.85 1784.18 3101.86 1785.17 3100.82 1786.21 3099.79 1787.24 3098.79 1788.26 3097.82 1789.27 3096.84 1790.29 3095.95 1791.27 3095.14 1792.22 3094.32 1793.18 3093.66 1794.05 3093.14 1794.84L3104.16 1794.84C3105.09 1794.84 3105.84 1794.81 3106.39 1794.74 3106.95 1794.67 3107.41 1794.52 3107.78 1794.28 3108.15 1794.04 3108.46 1793.68 3108.72 1793.19 3108.98 1792.7 3109.27 1792.03 3109.61 1791.18L3112.38 1791.18C3112.28 1792.59 3112.19 1794.01 3112.1 1795.44 3112.01 1796.87 3111.91 1798.29 3111.82 1799.7L3086.59 1799.7 3086.59 1798.15C3087.06 1797.08 3087.62 1796.02 3088.26 1794.98 3088.89 1793.94 3089.61 1792.88 3090.4 1791.81 3091.19 1790.73 3092.1 1789.63 3093.11 1788.49 3094.12 1787.34 3095.24 1786.16 3096.48 1784.93 3098.34 1783.06 3099.86 1781.47 3101.03 1780.15 3102.2 1778.82 3103.13 1777.65 3103.8 1776.62 3104.48 1775.58 3104.94 1774.63 3105.19 1773.76 3105.44 1772.88 3105.56 1771.95 3105.56 1770.96 3105.56 1769.94 3105.42 1769.01 3105.13 1768.16 3104.84 1767.3 3104.43 1766.58 3103.89 1765.98 3103.36 1765.39 3102.68 1764.92 3101.85 1764.58 3101.03 1764.25 3100.08 1764.08 3099.01 1764.08 3097.16 1764.08 3095.61 1764.58 3094.36 1765.58 3093.11 1766.58 3092.14 1768.04 3091.44 1769.94L3087.54 1769.94 3087.54 1764.14C3090.08 1763.08 3092.42 1762.32 3094.55 1761.84 3096.69 1761.37 3098.61 1761.13 3100.32 1761.13Z" fill="#00B050" fill-rule="evenodd"/><text fill="#000000" fill-opacity="0" font-family="Arial,Arial_MSFontService,sans-serif" font-size="38.5718" x="3086.59" y="1794.88">2</text><path d="M3122.36 1717.96 3130.04 1717.96 3130.04 1720.29 3120.12 1744.14 3116.64 1743.1ZM3101.36 1717.96 3109.04 1717.96 3109.04 1720.29 3099.12 1744.14 3095.64 1743.1Z" fill="#00B050" fill-rule="evenodd"/><text fill="#000000" fill-opacity="0" font-family="Arial,Arial_MSFontService,sans-serif" font-size="26.1812" x="3095.64" y="1740.87">′′</text></g></svg>