<svg width="1192" height="615" xmlns="http://www.w3.org/2000/svg" xmlns:xlink="http://www.w3.org/1999/xlink" xml:space="preserve" overflow="hidden"><g transform="translate(-959 -1123)"><path d="M0 0 451.738 294.609" stroke="#FF0000" stroke-width="4.58333" stroke-miterlimit="8" fill="none" fill-rule="evenodd" transform="matrix(1 0 0 -1 1113.5 1636.11)"/><path d="M0 0 325.885 212.532" stroke="#FF0000" stroke-width="4.58333" stroke-miterlimit="8" stroke-dasharray="18.3333 13.75" fill="none" fill-rule="evenodd" transform="matrix(1 0 0 -1 1573.5 1338.03)"/><path d="M2064.24 1550.19 1553.5 1350.5" stroke="#FF0000" stroke-width="4.58333" stroke-miterlimit="8" fill="none" fill-rule="evenodd"/><path d="M1110.67 1638.68C1267.44 1541.21 1424.21 1443.75 1583.09 1428.93 1741.98 1414.1 1949.71 1512.73 2063.99 1549.73" stroke="#FF0000" stroke-width="13.75" stroke-miterlimit="8" fill="none" fill-rule="evenodd"/><path d="M1017.48 1647.96C1015.59 1647.96 1014.13 1647.98 1013.1 1648.04L1013.1 1670.85 1016.58 1670.85C1019.29 1670.85 1021.43 1670.47 1023.03 1669.7 1024.62 1668.93 1025.8 1667.71 1026.57 1666.03 1027.34 1664.36 1027.73 1662.1 1027.73 1659.26 1027.73 1655.35 1026.95 1652.48 1025.38 1650.67 1023.81 1648.86 1021.18 1647.96 1017.48 1647.96ZM996.2 1643.21 1019.75 1643.21C1026.58 1643.21 1031.7 1644.44 1035.11 1646.88 1038.51 1649.33 1040.21 1653.09 1040.21 1658.17 1040.21 1661.76 1039.42 1664.88 1037.82 1667.53 1036.23 1670.18 1033.92 1672.19 1030.89 1673.55 1027.87 1674.91 1024.08 1675.6 1019.54 1675.6 1016.92 1675.6 1014.77 1675.54 1013.1 1675.43L1013.1 1688.4C1013.1 1690.48 1013.21 1691.93 1013.42 1692.74 1013.64 1693.55 1014.05 1694.2 1014.66 1694.68 1015.27 1695.17 1016.38 1695.56 1018 1695.86L1018 1698.53 996.2 1698.53 996.2 1695.86C997.659 1695.48 998.652 1695.05 999.178 1694.56 999.705 1694.08 1000.06 1693.43 1000.25 1692.64 1000.44 1691.84 1000.54 1690.42 1000.54 1688.36L1000.54 1653.43C1000.54 1651.37 1000.45 1649.95 1000.27 1649.15 1000.1 1648.35 999.739 1647.71 999.199 1647.23 998.658 1646.74 997.659 1646.29 996.2 1645.89Z" fill="#FF0000" fill-rule="evenodd"/><text fill="#000000" fill-opacity="0" font-family="Arial,Arial_MSFontService,sans-serif" font-size="55.3198" x="996.2" y="1691.62">𝐏</text><path d="M1054.88 1679.7C1053.49 1679.7 1052.32 1680.06 1051.39 1680.78 1050.46 1681.51 1049.72 1682.57 1049.17 1683.97 1048.63 1685.37 1048.24 1687.08 1048.01 1689.09 1047.78 1691.11 1047.67 1693.4 1047.67 1695.96 1047.67 1698.92 1047.81 1701.47 1048.1 1703.63 1048.39 1705.78 1048.83 1707.55 1049.44 1708.94 1050.05 1710.33 1050.81 1711.36 1051.72 1712.01 1052.63 1712.67 1053.72 1713 1055 1713 1056.19 1713 1057.23 1712.69 1058.12 1712.07 1059.02 1711.46 1059.76 1710.5 1060.34 1709.2 1060.93 1707.9 1061.37 1706.25 1061.67 1704.25 1061.97 1702.26 1062.11 1699.9 1062.11 1697.18 1062.11 1694.12 1061.95 1691.49 1061.62 1689.29 1061.3 1687.08 1060.83 1685.27 1060.24 1683.85 1059.64 1682.43 1058.89 1681.38 1057.99 1680.71 1057.09 1680.03 1056.05 1679.7 1054.88 1679.7ZM1055 1676.81C1057.36 1676.81 1059.38 1677.25 1061.06 1678.13 1062.73 1679.02 1064.1 1680.28 1065.17 1681.91 1066.23 1683.55 1067.01 1685.55 1067.51 1687.92 1068 1690.28 1068.25 1692.95 1068.25 1695.93 1068.25 1702.54 1067.08 1707.54 1064.74 1710.93 1062.39 1714.31 1059 1716 1054.55 1716 1050.14 1716 1046.86 1714.41 1044.72 1711.21 1042.58 1708.01 1041.5 1703.17 1041.5 1696.67 1041.5 1693.28 1041.84 1690.34 1042.5 1687.86 1043.17 1685.37 1044.1 1683.31 1045.3 1681.68 1046.5 1680.04 1047.93 1678.82 1049.57 1678.01 1051.22 1677.21 1053.03 1676.81 1055 1676.81Z" fill="#FF0000" fill-rule="evenodd"/><text fill="#000000" fill-opacity="0" font-family="Arial,Arial_MSFontService,sans-serif" font-size="39.1973" x="1041.5" y="1711.1">0</text><path d="M2100.91 1601.46C2099.02 1601.46 2097.56 1601.49 2096.53 1601.55L2096.53 1624.36 2100.02 1624.36C2102.72 1624.36 2104.87 1623.98 2106.46 1623.21 2108.05 1622.44 2109.24 1621.21 2110.01 1619.54 2110.78 1617.86 2111.16 1615.61 2111.16 1612.77 2111.16 1608.85 2110.38 1605.99 2108.81 1604.18 2107.24 1602.37 2104.61 1601.46 2100.91 1601.46ZM2079.63 1596.72 2103.18 1596.72C2110.01 1596.72 2115.13 1597.95 2118.54 1600.39 2121.94 1602.84 2123.64 1606.6 2123.64 1611.68 2123.64 1615.27 2122.85 1618.39 2121.25 1621.04 2119.66 1623.69 2117.35 1625.69 2114.32 1627.06 2111.3 1628.42 2107.51 1629.1 2102.98 1629.1 2100.35 1629.1 2098.21 1629.05 2096.53 1628.94L2096.53 1641.91C2096.53 1643.99 2096.64 1645.44 2096.86 1646.25 2097.07 1647.06 2097.48 1647.71 2098.09 1648.19 2098.7 1648.68 2099.81 1649.07 2101.44 1649.37L2101.44 1652.04 2079.63 1652.04 2079.63 1649.37C2081.09 1648.99 2082.08 1648.56 2082.61 1648.07 2083.14 1647.58 2083.49 1646.94 2083.68 1646.15 2083.87 1645.35 2083.97 1643.92 2083.97 1641.87L2083.97 1606.94C2083.97 1604.88 2083.88 1603.46 2083.7 1602.66 2083.53 1601.86 2083.17 1601.22 2082.63 1600.73 2082.09 1600.25 2081.09 1599.8 2079.63 1599.4Z" fill="#FF0000" fill-rule="evenodd"/><text fill="#000000" fill-opacity="0" font-family="Arial,Arial_MSFontService,sans-serif" font-size="55.3198" x="2079.63" y="1645.13">𝐏</text><path d="M2138.43 1630.31C2140.49 1630.31 2142.25 1630.55 2143.71 1631.01 2145.17 1631.48 2146.36 1632.11 2147.27 1632.91 2148.19 1633.7 2148.85 1634.65 2149.25 1635.77 2149.66 1636.88 2149.86 1638.08 2149.86 1639.37 2149.86 1640.14 2149.81 1640.86 2149.7 1641.53 2149.59 1642.19 2149.4 1642.85 2149.14 1643.49 2148.87 1644.14 2148.51 1644.79 2148.08 1645.45 2147.64 1646.1 2147.09 1646.8 2146.44 1647.53 2145.94 1648.17 2145.3 1648.9 2144.5 1649.73 2143.71 1650.57 2142.84 1651.46 2141.9 1652.42 2140.95 1653.37 2139.97 1654.36 2138.93 1655.39 2137.9 1656.43 2136.9 1657.45 2135.93 1658.46 2134.95 1659.47 2134.06 1660.46 2133.24 1661.41 2132.43 1662.36 2131.77 1663.24 2131.25 1664.03L2142.27 1664.03C2143.2 1664.03 2143.95 1664 2144.5 1663.93 2145.06 1663.86 2145.52 1663.7 2145.89 1663.47 2146.26 1663.23 2146.57 1662.86 2146.83 1662.38 2147.08 1661.89 2147.38 1661.22 2147.72 1660.37L2150.49 1660.37C2150.39 1661.78 2150.3 1663.2 2150.21 1664.63 2150.12 1666.06 2150.02 1667.48 2149.92 1668.89L2124.7 1668.89 2124.7 1667.34C2125.17 1666.27 2125.73 1665.21 2126.36 1664.17 2127 1663.12 2127.71 1662.07 2128.51 1660.99 2129.3 1659.92 2130.21 1658.81 2131.22 1657.67 2132.23 1656.53 2133.35 1655.34 2134.58 1654.11 2136.45 1652.25 2137.97 1650.65 2139.14 1649.33 2140.31 1648.01 2141.24 1646.84 2141.91 1645.8 2142.59 1644.77 2143.05 1643.82 2143.3 1642.94 2143.55 1642.07 2143.67 1641.14 2143.67 1640.14 2143.67 1639.13 2143.53 1638.2 2143.24 1637.34 2142.95 1636.49 2142.54 1635.77 2142 1635.17 2141.47 1634.57 2140.79 1634.11 2139.96 1633.77 2139.14 1633.43 2138.19 1633.26 2137.12 1633.26 2135.27 1633.26 2133.72 1633.76 2132.47 1634.77 2131.22 1635.77 2130.25 1637.22 2129.55 1639.13L2125.65 1639.13 2125.65 1633.32C2128.19 1632.27 2130.53 1631.51 2132.66 1631.03 2134.8 1630.55 2136.72 1630.31 2138.43 1630.31Z" fill="#FF0000" fill-rule="evenodd"/><text fill="#000000" fill-opacity="0" font-family="Arial,Arial_MSFontService,sans-serif" font-size="38.5718" x="2124.7" y="1664.06">2</text><path d="M1461.71 1298.79C1459.81 1298.79 1458.36 1298.81 1457.33 1298.87L1457.33 1321.69 1460.81 1321.69C1463.52 1321.69 1465.66 1321.3 1467.26 1320.53 1468.85 1319.76 1470.03 1318.54 1470.8 1316.86 1471.57 1315.19 1471.96 1312.93 1471.96 1310.09 1471.96 1306.18 1471.18 1303.31 1469.61 1301.5 1468.04 1299.69 1465.41 1298.79 1461.71 1298.79ZM1440.43 1294.05 1463.97 1294.05C1470.81 1294.05 1475.93 1295.27 1479.33 1297.71 1482.74 1300.16 1484.44 1303.92 1484.44 1309 1484.44 1312.59 1483.64 1315.71 1482.05 1318.36 1480.46 1321.01 1478.15 1323.02 1475.12 1324.38 1472.09 1325.74 1468.31 1326.43 1463.77 1326.43 1461.15 1326.43 1459 1326.37 1457.33 1326.27L1457.33 1339.23C1457.33 1341.31 1457.44 1342.76 1457.65 1343.57 1457.87 1344.38 1458.28 1345.03 1458.89 1345.52 1459.5 1346 1460.61 1346.39 1462.23 1346.69L1462.23 1349.37 1440.43 1349.37 1440.43 1346.69C1441.89 1346.31 1442.88 1345.88 1443.41 1345.39 1443.93 1344.91 1444.29 1344.27 1444.48 1343.47 1444.67 1342.67 1444.77 1341.25 1444.77 1339.19L1444.77 1304.26C1444.77 1302.21 1444.68 1300.78 1444.5 1299.98 1444.33 1299.19 1443.97 1298.54 1443.43 1298.06 1442.89 1297.57 1441.89 1297.13 1440.43 1296.72Z" fill="#FF0000" fill-rule="evenodd"/><text fill="#000000" fill-opacity="0" font-family="Arial,Arial_MSFontService,sans-serif" font-size="55.3198" x="1440.43" y="1342.45">𝐏</text><path d="M1499.65 1327.85 1501.46 1327.85C1501.42 1328.94 1501.39 1329.92 1501.37 1330.78 1501.35 1331.64 1501.34 1332.48 1501.33 1333.3 1501.32 1334.11 1501.31 1334.92 1501.31 1335.71L1501.31 1358.35C1501.31 1358.96 1501.33 1359.49 1501.37 1359.94 1501.41 1360.39 1501.48 1360.76 1501.57 1361.07 1501.66 1361.38 1501.78 1361.64 1501.92 1361.86 1502.07 1362.08 1502.25 1362.27 1502.45 1362.43 1502.68 1362.67 1503 1362.85 1503.4 1362.98 1503.8 1363.11 1504.3 1363.22 1504.92 1363.31 1505.53 1363.39 1506.27 1363.46 1507.14 1363.51 1508 1363.56 1509.04 1363.6 1510.25 1363.62L1510.25 1366.21 1486.63 1366.21 1486.63 1363.62C1487.8 1363.58 1488.79 1363.53 1489.61 1363.48 1490.42 1363.43 1491.12 1363.36 1491.69 1363.28 1492.27 1363.19 1492.73 1363.09 1493.08 1362.98 1493.43 1362.87 1493.73 1362.73 1493.99 1362.58 1494.26 1362.4 1494.5 1362.2 1494.7 1361.99 1494.9 1361.79 1495.06 1361.52 1495.18 1361.21 1495.3 1360.89 1495.39 1360.5 1495.46 1360.04 1495.53 1359.59 1495.56 1359.02 1495.56 1358.35L1495.56 1336.99C1495.56 1336.22 1495.42 1335.67 1495.12 1335.35 1494.82 1335.03 1494.39 1334.88 1493.84 1334.88 1493.22 1334.88 1492.31 1335.19 1491.1 1335.83 1489.89 1336.46 1488.32 1337.41 1486.39 1338.66 1486.13 1338.2 1485.89 1337.74 1485.68 1337.29 1485.46 1336.83 1485.23 1336.36 1484.99 1335.89 1487.45 1334.54 1489.89 1333.19 1492.3 1331.85 1494.72 1330.51 1497.16 1329.18 1499.65 1327.85Z" fill="#FF0000" fill-rule="evenodd"/><text fill="#000000" fill-opacity="0" font-family="Arial,Arial_MSFontService,sans-serif" font-size="38.3633" x="1484.99" y="1361.41">1</text><path d="M1094.5 1636.5C1094.5 1626.01 1103.23 1617.5 1114 1617.5 1124.77 1617.5 1133.5 1626.01 1133.5 1636.5 1133.5 1646.99 1124.77 1655.5 1114 1655.5 1103.23 1655.5 1094.5 1646.99 1094.5 1636.5Z" stroke="#000000" stroke-width="4.58333" stroke-miterlimit="8" fill-rule="evenodd"/><path d="M1536.5 1354.5C1536.5 1344.01 1545.01 1335.5 1555.5 1335.5 1565.99 1335.5 1574.5 1344.01 1574.5 1354.5 1574.5 1364.99 1565.99 1373.5 1555.5 1373.5 1545.01 1373.5 1536.5 1364.99 1536.5 1354.5Z" stroke="#000000" stroke-width="4.58333" stroke-miterlimit="8" fill-rule="evenodd"/><path d="M2034.5 1541.5C2034.5 1531.01 2043.23 1522.5 2054 1522.5 2064.77 1522.5 2073.5 1531.01 2073.5 1541.5 2073.5 1551.99 2064.77 1560.5 2054 1560.5 2043.23 1560.5 2034.5 1551.99 2034.5 1541.5Z" stroke="#000000" stroke-width="4.58333" stroke-miterlimit="8" fill-rule="evenodd"/><path d="M1538.03 1522.4 1538.03 1543.88C1539.63 1543.96 1541.46 1544 1543.54 1544 1546.11 1544 1548.23 1543.68 1549.89 1543.05 1551.55 1542.41 1552.84 1541.3 1553.76 1539.72 1554.68 1538.14 1555.14 1535.97 1555.14 1533.22 1555.14 1530.89 1554.78 1528.95 1554.08 1527.38 1553.38 1525.81 1552.22 1524.59 1550.62 1523.71 1549.01 1522.84 1546.69 1522.4 1543.67 1522.4ZM1543.54 1498.16C1541.65 1498.16 1539.82 1498.23 1538.03 1498.36L1538.03 1517.66 1543.42 1517.66C1546.12 1517.66 1548.25 1517.26 1549.79 1516.48 1551.33 1515.7 1552.49 1514.58 1553.29 1513.14 1554.09 1511.69 1554.49 1509.7 1554.49 1507.16 1554.49 1504.05 1553.62 1501.78 1551.87 1500.33 1550.13 1498.88 1547.35 1498.16 1543.54 1498.16ZM1521.13 1493.42 1547.68 1493.42C1550.43 1493.42 1552.71 1493.54 1554.51 1493.78 1556.3 1494.03 1557.93 1494.41 1559.39 1494.94 1560.85 1495.47 1562.02 1496.06 1562.9 1496.72 1563.77 1497.38 1564.52 1498.15 1565.13 1499.01 1565.73 1499.88 1566.21 1500.86 1566.54 1501.97 1566.88 1503.08 1567.05 1504.31 1567.05 1505.66 1567.05 1511.77 1563.38 1516.34 1556.03 1519.4L1556.03 1519.76C1559.81 1520.95 1562.69 1522.67 1564.68 1524.93 1566.67 1527.19 1567.66 1529.89 1567.66 1533.06 1567.66 1535.76 1567.21 1538.11 1566.3 1540.11 1565.4 1542.11 1564.02 1543.75 1562.17 1545.03 1560.32 1546.31 1558.14 1547.25 1555.64 1547.85 1553.14 1548.44 1549.96 1548.74 1546.1 1548.74L1521.13 1548.74 1521.13 1546.06C1522.59 1545.69 1523.58 1545.25 1524.11 1544.77 1524.64 1544.28 1525 1543.64 1525.19 1542.84 1525.37 1542.05 1525.47 1540.62 1525.47 1538.57L1525.47 1503.63C1525.47 1501.58 1525.38 1500.15 1525.21 1499.36 1525.03 1498.56 1524.67 1497.92 1524.13 1497.43 1523.59 1496.95 1522.59 1496.5 1521.13 1496.09Z" fill="#FF0000" fill-rule="evenodd"/><text fill="#000000" fill-opacity="0" font-family="Arial,Arial_MSFontService,sans-serif" font-size="55.3198" x="1521.13" y="1541.82">𝐁</text><path d="M1603.45 1490.18 1604.54 1493.3C1598.22 1495.38 1593.54 1499.44 1590.5 1505.48 1587.46 1511.52 1585.94 1519.1 1585.94 1528.23 1585.94 1537.69 1587.46 1545.48 1590.5 1551.62 1593.54 1557.75 1598.18 1561.86 1604.42 1563.94L1603.45 1567.06C1595.53 1564.98 1589.47 1560.5 1585.25 1553.62 1581.04 1546.75 1578.93 1538.42 1578.93 1528.64 1578.93 1518.88 1581.04 1510.56 1585.27 1503.65 1589.5 1496.75 1595.56 1492.26 1603.45 1490.18Z" fill="#FF0000" fill-rule="evenodd"/><text fill="#000000" fill-opacity="0" font-family="Arial,Arial_MSFontService,sans-serif" font-size="76.8804" x="1578.93" y="1557.45">(</text><path d="M1621.86 1499.99 1627.45 1499.99 1625.22 1510 1637.54 1510 1636.65 1514.09 1624.33 1514.09 1620.72 1529.81C1620.02 1532.87 1619.57 1535.06 1619.38 1536.4 1619.19 1537.74 1619.1 1538.81 1619.1 1539.62 1619.1 1542.97 1620.49 1544.65 1623.27 1544.65 1624.46 1544.65 1625.73 1544.19 1627.06 1543.29 1628.4 1542.38 1629.99 1540.84 1631.83 1538.65L1634.18 1541.08C1631.83 1543.92 1629.56 1546.01 1627.39 1547.36 1625.21 1548.71 1622.94 1549.39 1620.56 1549.39 1614.91 1549.39 1612.09 1546.54 1612.09 1540.84 1612.09 1539.03 1612.32 1537.12 1612.78 1535.12L1617.56 1514.09 1610.75 1514.09 1611.36 1511.29C1612.95 1511.27 1614.16 1511.14 1614.99 1510.93 1615.81 1510.71 1616.5 1510.41 1617.05 1510.04 1617.61 1509.66 1618.11 1509.12 1618.57 1508.41 1619.03 1507.71 1619.48 1506.81 1619.91 1505.72 1620.34 1504.63 1620.99 1502.71 1621.86 1499.99Z" fill="#FF0000" fill-rule="evenodd"/><text fill="#000000" fill-opacity="0" font-family="Arial,Arial_MSFontService,sans-serif" font-size="49.4028" x="1610.75" y="1543.21">𝑡</text><path d="M1643.32 1490.18C1651.21 1492.26 1657.26 1496.75 1661.49 1503.65 1665.72 1510.56 1667.84 1518.88 1667.84 1528.64 1667.84 1538.42 1665.73 1546.75 1661.51 1553.62 1657.3 1560.5 1651.23 1564.98 1643.32 1567.06L1642.34 1563.94C1648.59 1561.86 1653.23 1557.75 1656.27 1551.62 1659.3 1545.48 1660.82 1537.69 1660.82 1528.23 1660.82 1519.1 1659.31 1511.52 1656.29 1505.48 1653.26 1499.44 1648.57 1495.38 1642.22 1493.3Z" fill="#FF0000" fill-rule="evenodd"/><text fill="#000000" fill-opacity="0" font-family="Arial,Arial_MSFontService,sans-serif" font-size="76.8804" x="1642.22" y="1557.45">)</text><path d="M1631.5 1306.5C1648.74 1314.19 1665.97 1321.87 1669.01 1335.7 1672.05 1349.54 1660.44 1377.46 1649.72 1389.5" stroke="#172C51" stroke-width="4.58333" stroke-miterlimit="8" fill="none" fill-rule="evenodd"/><path d="M1757.64 1305.95C1755.45 1305.95 1753.58 1307.18 1752.03 1309.64 1750.47 1312.1 1749.1 1315.97 1747.91 1321.27L1743.78 1339.63C1747.61 1339.49 1750.92 1338.23 1753.71 1335.84 1756.49 1333.45 1758.64 1330.21 1760.15 1326.13 1761.66 1322.05 1762.42 1317.84 1762.42 1313.49 1762.42 1311.14 1762.01 1309.29 1761.18 1307.96 1760.36 1306.62 1759.18 1305.95 1757.64 1305.95ZM1738.91 1302.63 1741.02 1305.42C1737.05 1308.26 1733.89 1311.62 1731.54 1315.52 1729.19 1319.41 1728.01 1323.24 1728.01 1327.03 1728.01 1330.54 1728.8 1333.31 1730.36 1335.33 1731.93 1337.36 1734.29 1338.7 1737.46 1339.35L1741.59 1320.74C1742.97 1314.58 1745.15 1310.04 1748.13 1307.11 1751.12 1304.17 1754.49 1302.71 1758.25 1302.71 1761.95 1302.71 1764.73 1303.74 1766.59 1305.81 1768.46 1307.88 1769.39 1310.98 1769.39 1315.11 1769.39 1320.27 1768.32 1324.96 1766.17 1329.17 1764.02 1333.39 1760.96 1336.68 1756.99 1339.06 1753.02 1341.44 1748.4 1342.67 1743.13 1342.75L1739.32 1359.65 1732.96 1359.65 1736.77 1342.67C1731.74 1342.1 1727.87 1340.43 1725.16 1337.66 1722.44 1334.89 1721.08 1331.25 1721.08 1326.74 1721.08 1317.77 1727.03 1309.73 1738.91 1302.63Z" fill-rule="evenodd"/><text fill="#000000" fill-opacity="0" font-family="Arial,Arial_MSFontService,sans-serif" font-size="57.022" x="1721.08" y="1352.52">𝜑</text></g></svg>