<svg width="770" height="604" xmlns="http://www.w3.org/2000/svg" xmlns:xlink="http://www.w3.org/1999/xlink" xml:space="preserve" overflow="hidden"><defs><filter id="fx0" x="-10%" y="-10%" width="120%" height="120%" filterUnits="userSpaceOnUse" primitiveUnits="userSpaceOnUse"><feComponentTransfer color-interpolation-filters="sRGB"><feFuncR type="discrete" tableValues="0 0"/><feFuncG type="discrete" tableValues="0 0"/><feFuncB type="discrete" tableValues="0 0"/><feFuncA type="linear" slope="0.380392" intercept="0"/></feComponentTransfer><feGaussianBlur stdDeviation="4.58333 4.58333"/></filter><filter id="fx1" x="-10%" y="-10%" width="120%" height="120%" filterUnits="userSpaceOnUse" primitiveUnits="userSpaceOnUse"><feComponentTransfer color-interpolation-filters="sRGB"><feFuncR type="discrete" tableValues="0 0"/><feFuncG type="discrete" tableValues="0 0"/><feFuncB type="discrete" tableValues="0 0"/><feFuncA type="linear" slope="0.380392" intercept="0"/></feComponentTransfer><feGaussianBlur stdDeviation="4.58333 4.58333"/></filter><filter id="fx2" x="-10%" y="-10%" width="120%" height="120%" filterUnits="userSpaceOnUse" primitiveUnits="userSpaceOnUse"><feComponentTransfer color-interpolation-filters="sRGB"><feFuncR type="discrete" tableValues="0 0"/><feFuncG type="discrete" tableValues="0 0"/><feFuncB type="discrete" tableValues="0 0"/><feFuncA type="linear" slope="0.380392" intercept="0"/></feComponentTransfer><feGaussianBlur stdDeviation="4.58333 4.58333"/></filter><clipPath id="clip3"><rect x="2433" y="1194" width="770" height="604"/></clipPath><clipPath id="clip4"><rect x="-2" y="24" width="142" height="252"/></clipPath></defs><g clip-path="url(#clip3)" transform="translate(-2433 -1194)"><g clip-path="url(#clip4)" filter="url(#fx0)" transform="translate(2437 1193)"><g><path d="M4.05542-1.95028 96.3848 190.04 88.274 193.94-4.05542 1.95028ZM102.735 181.9 102.261 212.642 77.9514 193.819Z" fill="#0097A7" transform="matrix(1 0 0 -1 19.5 255.36)"/></g></g><path d="M4.13052-1.9864 96.4599 190.004 88.1989 193.976-4.13052 1.9864ZM102.735 181.9 102.261 212.642 77.9515 193.819Z" fill="#0097A7" transform="matrix(1 0 0 -1 2456.5 1441.14)"/><g filter="url(#fx1)" transform="translate(2432 1426)"><g><path d="M23.5022 14.6601 174.134 307.598 166.13 311.714 15.4983 18.7757ZM180.264 299.292 180.611 330.036 155.808 311.868Z" fill="#FFC000"/></g></g><path d="M2455.58 1433.4 2606.21 1726.34 2598.06 1730.53 2447.42 1437.6ZM2612.26 1718.07 2612.61 1748.82 2587.81 1730.65Z" fill="#FFC000"/><path d="M2559.02 1420.32C2556.96 1420.32 2555.2 1421.47 2553.74 1423.78 2552.28 1426.09 2550.99 1429.74 2549.88 1434.71L2545.99 1451.97C2549.6 1451.84 2552.71 1450.65 2555.32 1448.41 2557.94 1446.16 2559.96 1443.12 2561.38 1439.29 2562.8 1435.45 2563.51 1431.49 2563.51 1427.4 2563.51 1425.19 2563.12 1423.46 2562.35 1422.2 2561.57 1420.95 2560.46 1420.32 2559.02 1420.32ZM2541.42 1417.2 2543.4 1419.82C2539.67 1422.49 2536.7 1425.65 2534.49 1429.31 2532.28 1432.96 2531.18 1436.57 2531.18 1440.12 2531.18 1443.42 2531.91 1446.03 2533.38 1447.93 2534.86 1449.83 2537.08 1451.09 2540.05 1451.7L2543.93 1434.22C2545.23 1428.43 2547.28 1424.16 2550.09 1421.4 2552.89 1418.65 2556.06 1417.27 2559.59 1417.27 2563.07 1417.27 2565.68 1418.24 2567.43 1420.19 2569.19 1422.13 2570.06 1425.04 2570.06 1428.93 2570.06 1433.78 2569.05 1438.18 2567.03 1442.14 2565.02 1446.1 2562.14 1449.2 2558.41 1451.43 2554.67 1453.67 2550.33 1454.82 2545.38 1454.9L2541.8 1470.78 2535.82 1470.78 2539.4 1454.82C2534.68 1454.29 2531.04 1452.72 2528.49 1450.12 2525.94 1447.52 2524.66 1444.1 2524.66 1439.86 2524.66 1431.43 2530.25 1423.87 2541.42 1417.2Z" fill="#595959" fill-rule="evenodd"/><text fill="#000000" fill-opacity="0" font-family="Arial,Arial_MSFontService,sans-serif" font-size="53.5869" x="2524.66" y="1464.08">𝜑</text><path d="M2602.73 1437.42 2649.66 1437.42 2649.66 1442.48 2602.73 1442.48ZM2602.73 1421.61 2649.66 1421.61 2649.66 1426.68 2602.73 1426.68Z" fill="#595959" fill-rule="evenodd"/><text fill="#000000" fill-opacity="0" font-family="Arial,Arial_MSFontService,sans-serif" font-size="20.8711" x="2602.73" y="1439.88">=</text><path d="M2679.57 1399.83 2726.6 1399.83 2726.6 1416.78 2722.49 1416.78C2721.86 1414.36 2721.25 1412.4 2720.68 1410.87 2720.11 1409.35 2719.53 1408.14 2718.93 1407.25 2718.33 1406.37 2717.72 1405.69 2717.1 1405.22 2716.48 1404.75 2715.76 1404.39 2714.95 1404.15 2714.14 1403.91 2713.06 1403.79 2711.71 1403.79L2690.5 1403.79 2709.05 1431.93 2709.05 1434.83 2688.25 1463.39 2713.31 1463.39C2714.89 1463.39 2716.07 1463.29 2716.87 1463.09 2717.67 1462.89 2718.36 1462.57 2718.93 1462.16 2719.5 1461.74 2720.02 1461.15 2720.49 1460.4 2720.96 1459.65 2721.41 1458.62 2721.84 1457.3 2722.27 1455.98 2722.68 1454.25 2723.06 1452.12L2727.52 1452.12 2726.41 1470.71 2678.12 1470.71 2678.12 1468.57 2701.66 1436.24 2679.57 1402Z" fill="#595959" fill-rule="evenodd"/><text fill="#000000" fill-opacity="0" font-family="Arial,Arial_MSFontService,sans-serif" font-size="70.8779" x="2678.12" y="1461.85">∑</text><path d="M2755.32 1410.15 2740.81 1448.24 2767.32 1448.24ZM2753.99 1401.73 2759.63 1401.73 2775.7 1451.89 2775.7 1454.33 2734.07 1454.33 2734.07 1451.89Z" fill="#595959" fill-rule="evenodd"/><text fill="#000000" fill-opacity="0" font-family="Arial,Arial_MSFontService,sans-serif" font-size="52.5967" x="2734.07" y="1447.75">Δ</text><path d="M2802.42 1420.32C2800.08 1420.32 2797.91 1421.36 2795.9 1423.44 2793.9 1425.52 2792.29 1428.34 2791.09 1431.9 2789.88 1435.45 2789.28 1439.09 2789.28 1442.83 2789.28 1445.39 2789.66 1447.3 2790.42 1448.54 2791.18 1449.78 2792.32 1450.41 2793.85 1450.41 2796.03 1450.41 2798.28 1449.12 2800.59 1446.56 2802.9 1444 2805.04 1440.43 2807.02 1435.86 2807.46 1433.22 2807.67 1430.88 2807.67 1428.85 2807.67 1425.96 2807.25 1423.81 2806.4 1422.41 2805.55 1421.02 2804.22 1420.32 2802.42 1420.32ZM2802.68 1417.31C2805.53 1417.31 2807.75 1418.2 2809.37 1419.98 2810.98 1421.75 2811.87 1424.36 2812.05 1427.78L2812.4 1427.75 2817.38 1417.92 2823.97 1417.92 2823.59 1419.86C2820.44 1424.13 2816.74 1429.37 2812.47 1435.59 2811.84 1440.44 2811.52 1443.87 2811.52 1445.87 2811.52 1447.55 2811.71 1448.75 2812.09 1449.47 2812.47 1450.2 2813.11 1450.56 2813.99 1450.56 2814.71 1450.56 2815.51 1450.26 2816.41 1449.66 2817.31 1449.07 2818.29 1448.15 2819.33 1446.9L2821.54 1448.96C2819.4 1451.24 2817.55 1452.81 2815.98 1453.66 2814.4 1454.51 2812.78 1454.94 2811.1 1454.94 2807.72 1454.94 2806.03 1452.48 2806.03 1447.55 2806.03 1446.46 2806.11 1445.25 2806.26 1443.93L2805.88 1443.93C2803.27 1447.84 2800.79 1450.65 2798.46 1452.37 2796.12 1454.08 2793.62 1454.94 2790.95 1454.94 2789.1 1454.94 2787.54 1454.41 2786.27 1453.34 2785 1452.27 2784.06 1450.86 2783.45 1449.09 2782.84 1447.33 2782.54 1445.4 2782.54 1443.32 2782.54 1438.78 2783.4 1434.47 2785.13 1430.39 2786.85 1426.32 2789.25 1423.12 2792.32 1420.79 2795.4 1418.47 2798.85 1417.31 2802.68 1417.31Z" fill="#595959" fill-rule="evenodd"/><text fill="#000000" fill-opacity="0" font-family="Arial,Arial_MSFontService,sans-serif" font-size="37.6289" x="2782.54" y="1450.23">𝛼</text><path d="M2838.88 1442.1 2840.24 1442.1 2836.12 1460.63C2835.86 1461.73 2835.68 1462.6 2835.58 1463.25 2835.48 1463.9 2835.42 1464.48 2835.42 1465 2835.42 1465.71 2835.57 1466.22 2835.86 1466.53 2836.14 1466.85 2836.57 1467 2837.15 1467 2837.48 1467 2837.82 1466.94 2838.15 1466.81 2838.49 1466.68 2838.84 1466.48 2839.22 1466.2 2839.6 1465.92 2840.02 1465.56 2840.48 1465.13 2840.93 1464.69 2841.44 1464.17 2841.99 1463.55L2843.89 1465.39C2842.92 1466.37 2842.04 1467.2 2841.25 1467.88 2840.47 1468.56 2839.72 1469.11 2839.01 1469.54 2838.31 1469.96 2837.62 1470.27 2836.94 1470.46 2836.26 1470.64 2835.54 1470.73 2834.78 1470.73 2834.08 1470.73 2833.44 1470.6 2832.88 1470.34 2832.31 1470.08 2831.82 1469.73 2831.42 1469.27 2831.01 1468.82 2830.69 1468.28 2830.47 1467.64 2830.25 1467.01 2830.14 1466.32 2830.14 1465.56 2830.14 1464.95 2830.21 1464.18 2830.36 1463.28 2830.51 1462.37 2830.7 1461.38 2830.93 1460.31 2831.16 1459.24 2831.42 1458.13 2831.69 1456.96 2831.97 1455.79 2832.25 1454.63 2832.52 1453.48 2832.78 1452.33 2833.03 1451.22 2833.24 1450.15 2833.45 1449.09 2833.61 1448.12 2833.7 1447.24 2833.74 1447.1 2833.75 1446.95 2833.75 1446.81 2833.75 1446.67 2833.75 1446.55 2833.75 1446.44 2833.72 1445.71 2833.46 1445.18 2832.99 1444.85 2832.52 1444.52 2831.68 1444.33 2830.47 1444.29L2830.8 1442.4ZM2837.26 1430.88 2842.83 1430.88 2841.46 1436.86 2835.95 1436.86Z" fill="#595959" fill-rule="evenodd"/><text fill="#000000" fill-opacity="0" font-family="Arial,Arial_MSFontService,sans-serif" font-size="39.8555" x="2830.14" y="1465.75">𝑖</text><path d="M2878.06 1437.42 2924.98 1437.42 2924.98 1442.48 2878.06 1442.48ZM2878.06 1421.61 2924.98 1421.61 2924.98 1426.68 2878.06 1426.68Z" fill="#595959" fill-rule="evenodd"/><text fill="#000000" fill-opacity="0" font-family="Arial,Arial_MSFontService,sans-serif" font-size="20.8711" x="2878.06" y="1439.88">=</text><path d="M3000.13 1348.19C3001.48 1348.19 3002.71 1348.31 3003.81 1348.55 3004.91 1348.79 3005.85 1349.09 3006.61 1349.45L3005.89 1357.41 3001.66 1357.41C3001.58 1356.01 3001.28 1354.95 3000.74 1354.23 3000.21 1353.5 2999.23 1353.14 2997.81 1353.14 2994.26 1353.14 2991.67 1357.14 2990.04 1365.14 2988.42 1373.14 2986.96 1395.21 2985.66 1431.37 2984.37 1463.9 2981.85 1486.13 2978.1 1498.06 2974.36 1509.99 2969.3 1515.96 2962.92 1515.96 2961.63 1515.96 2960.44 1515.86 2959.34 1515.65 2958.25 1515.45 2957.29 1515.12 2956.45 1514.66L2957.17 1506.32 2961.02 1506.32C2961.4 1508 2961.9 1509.17 2962.51 1509.85 2963.12 1510.52 2964.04 1510.86 2965.29 1510.86 2967.57 1510.86 2969.77 1506.91 2971.88 1499.01 2973.98 1491.11 2975.63 1470.46 2976.83 1437.05 2978.3 1400.79 2980.67 1376.91 2983.93 1365.42 2987.19 1353.94 2992.59 1348.19 3000.13 1348.19Z" fill="#595959" fill-rule="evenodd"/><text fill="#000000" fill-opacity="0" font-family="Arial,Arial_MSFontService,sans-serif" font-size="167.769" x="2956.45" y="1494.99">න</text><path d="M3066.05 1417.27C3067.42 1417.27 3068.46 1417.42 3069.17 1417.73L3067.53 1425.04 3064.6 1425.04C3064.55 1424.53 3064.42 1424.11 3064.2 1423.78 3063.99 1423.45 3063.59 1423.29 3063 1423.29 3062.47 1423.29 3061.83 1423.52 3061.08 1423.97 3060.33 1424.43 3059.33 1425.23 3058.07 1426.35 3056.81 1427.48 3054.94 1429.28 3052.45 1431.74L3056.64 1445.65C3057.2 1447.47 3057.74 1448.75 3058.26 1449.47 3058.78 1450.2 3059.51 1450.56 3060.45 1450.56 3061.11 1450.56 3061.8 1450.31 3062.53 1449.82 3063.25 1449.32 3064.28 1448.35 3065.63 1446.9L3067.84 1448.96C3065.96 1451.02 3064.19 1452.53 3062.53 1453.49 3060.86 1454.46 3059.21 1454.94 3057.56 1454.94 3055.8 1454.94 3054.39 1454.39 3053.33 1453.3 3052.26 1452.21 3051.36 1450.42 3050.62 1447.93L3047.2 1435.86C3045.39 1437.2 3043.58 1438.22 3041.75 1438.9L3038.44 1454.33 3031.81 1454.33 3037.79 1427.59C3038.22 1425.66 3038.44 1424.15 3038.44 1423.06 3038.44 1421.87 3038.16 1421.05 3037.6 1420.62 3037.04 1420.19 3035.97 1419.96 3034.4 1419.94L3034.82 1417.92 3044.07 1417.58 3046.36 1417.58 3042.4 1435.44C3043.64 1434.93 3045.34 1433.73 3047.48 1431.84 3049.63 1429.95 3051.96 1427.67 3054.47 1425 3056.68 1422.67 3058.35 1421.02 3059.48 1420.07 3060.61 1419.12 3061.69 1418.41 3062.72 1417.96 3063.74 1417.5 3064.86 1417.27 3066.05 1417.27Z" fill="#595959" fill-rule="evenodd"/><text fill="#000000" fill-opacity="0" font-family="Arial,Arial_MSFontService,sans-serif" font-size="37.667" x="3031.81" y="1450.23">𝜅</text><path d="M3000.43 1300.83C3002.22 1300.83 3003.88 1300.94 3005.39 1301.17 3006.91 1301.39 3008.38 1301.71 3009.8 1302.14L3008.47 1308.43 3005.99 1308.43C3005.79 1306.76 3005.24 1305.53 3004.34 1304.73 3003.44 1303.93 3002.04 1303.53 3000.15 1303.53 2999.39 1303.53 2998.68 1303.64 2998.03 1303.84 2997.38 1304.04 2996.83 1304.33 2996.36 1304.69 2995.9 1305.05 2995.54 1305.48 2995.28 1305.98 2995.02 1306.48 2994.89 1307.03 2994.89 1307.62 2994.89 1308.16 2994.95 1308.65 2995.08 1309.1 2995.21 1309.54 2995.47 1309.98 2995.85 1310.41 2996.23 1310.83 2996.77 1311.28 2997.46 1311.74 2998.16 1312.21 2999.07 1312.74 3000.2 1313.33 3001.39 1313.98 3002.38 1314.6 3003.17 1315.19 3003.96 1315.79 3004.58 1316.39 3005.05 1317 3005.51 1317.62 3005.83 1318.27 3006.02 1318.97 3006.2 1319.66 3006.3 1320.44 3006.3 1321.29 3006.3 1322.61 3006.03 1323.79 3005.49 1324.84 3004.95 1325.89 3004.2 1326.77 3003.24 1327.5 3002.27 1328.22 3001.13 1328.78 2999.83 1329.17 2998.52 1329.56 2997.09 1329.75 2995.53 1329.75 2993.82 1329.75 2992.14 1329.64 2990.49 1329.42 2988.84 1329.19 2987.09 1328.81 2985.26 1328.28L2986.7 1321.93 2989.13 1321.93C2989.22 1323.66 2989.76 1324.95 2990.75 1325.81 2991.75 1326.68 2993.28 1327.11 2995.36 1327.11 2997.22 1327.11 2998.68 1326.71 2999.74 1325.91 3000.81 1325.11 3001.34 1324 3001.34 1322.57 3001.34 1321.92 3001.28 1321.36 3001.15 1320.89 3001.02 1320.41 3000.76 1319.96 3000.38 1319.54 3000 1319.11 2999.48 1318.67 2998.82 1318.21 2998.17 1317.76 2997.31 1317.24 2996.25 1316.64 2995.16 1316.03 2994.21 1315.43 2993.43 1314.83 2992.64 1314.24 2991.99 1313.64 2991.48 1313.02 2990.97 1312.41 2990.59 1311.77 2990.35 1311.1 2990.11 1310.44 2989.99 1309.72 2989.99 1308.96 2989.99 1307.79 2990.23 1306.71 2990.73 1305.72 2991.22 1304.73 2991.92 1303.87 2992.83 1303.14 2993.74 1302.42 2994.83 1301.85 2996.11 1301.45 2997.39 1301.04 2998.83 1300.83 3000.43 1300.83Z" fill="#595959" fill-rule="evenodd"/><text fill="#000000" fill-opacity="0" font-family="Arial,Arial_MSFontService,sans-serif" font-size="28.9175" x="2985.26" y="1326.14">𝑠</text><path d="M2969.69 1529.73C2968.39 1529.73 2967.3 1530.06 2966.43 1530.74 2965.56 1531.42 2964.87 1532.41 2964.36 1533.72 2963.85 1535.03 2963.49 1536.62 2963.27 1538.51 2963.06 1540.39 2962.95 1542.53 2962.95 1544.92 2962.95 1547.69 2963.09 1550.08 2963.36 1552.09 2963.63 1554.1 2964.04 1555.76 2964.61 1557.06 2965.18 1558.36 2965.89 1559.31 2966.74 1559.92 2967.59 1560.54 2968.61 1560.84 2969.8 1560.84 2970.91 1560.84 2971.89 1560.55 2972.72 1559.98 2973.56 1559.4 2974.25 1558.51 2974.8 1557.29 2975.34 1556.08 2975.76 1554.54 2976.03 1552.67 2976.31 1550.81 2976.45 1548.61 2976.45 1546.06 2976.45 1543.21 2976.3 1540.75 2975.99 1538.69 2975.69 1536.63 2975.26 1534.94 2974.7 1533.61 2974.14 1532.28 2973.44 1531.3 2972.6 1530.67 2971.75 1530.04 2970.78 1529.73 2969.69 1529.73ZM2969.8 1527.03C2972.01 1527.03 2973.9 1527.44 2975.46 1528.26 2977.03 1529.09 2978.31 1530.27 2979.3 1531.8 2980.3 1533.33 2981.03 1535.2 2981.49 1537.41 2981.95 1539.62 2982.19 1542.11 2982.19 1544.89 2982.19 1551.07 2981.09 1555.74 2978.9 1558.91 2976.71 1562.07 2973.54 1563.65 2969.38 1563.65 2965.26 1563.65 2962.2 1562.16 2960.2 1559.17 2958.19 1556.18 2957.19 1551.66 2957.19 1545.59 2957.19 1542.42 2957.5 1539.67 2958.12 1537.35 2958.75 1535.03 2959.62 1533.11 2960.74 1531.58 2961.86 1530.05 2963.19 1528.9 2964.73 1528.15 2966.27 1527.4 2967.96 1527.03 2969.8 1527.03Z" fill="#595959" fill-rule="evenodd"/><text fill="#000000" fill-opacity="0" font-family="Arial,Arial_MSFontService,sans-serif" font-size="36.627" x="2957.19" y="1559.07">0</text><path d="M3110.12 1420.28C3107.53 1420.28 3105.2 1421.33 3103.15 1423.42 3101.09 1425.52 3099.47 1428.34 3098.29 1431.9 3097.11 1435.45 3096.52 1438.99 3096.52 1442.52 3096.52 1445.16 3096.88 1447.14 3097.61 1448.44 3098.33 1449.75 3099.54 1450.41 3101.24 1450.41 3102.03 1450.41 3102.83 1450.23 3103.64 1449.89 3104.46 1449.55 3105.3 1449 3106.18 1448.24 3107.05 1447.47 3107.91 1446.55 3108.77 1445.46 3109.62 1444.36 3110.4 1443.27 3111.11 1442.16 3111.82 1441.06 3112.48 1439.75 3113.09 1438.24 3113.7 1436.73 3114.22 1434.91 3114.65 1432.77L3114.99 1431.13C3115.37 1429.31 3115.56 1427.58 3115.56 1425.96 3115.56 1423.97 3115.14 1422.53 3114.31 1421.63 3113.47 1420.73 3112.07 1420.28 3110.12 1420.28ZM3152.03 1417.31C3154.39 1417.31 3156.55 1417.45 3158.49 1417.73 3160.43 1418.01 3162.37 1418.49 3164.3 1419.18L3162.58 1427.17 3159.5 1427.17C3159.22 1424.91 3158.48 1423.2 3157.27 1422.03 3156.06 1420.86 3154.17 1420.28 3151.58 1420.28 3149.57 1420.28 3147.94 1420.79 3146.7 1421.82 3145.46 1422.85 3144.83 1424.2 3144.83 1425.88 3144.83 1426.79 3144.99 1427.6 3145.31 1428.3 3145.63 1429 3146.27 1429.76 3147.23 1430.6 3148.2 1431.44 3149.7 1432.47 3151.73 1433.69 3153.33 1434.65 3154.61 1435.53 3155.57 1436.33 3156.54 1437.13 3157.3 1437.93 3157.86 1438.71 3158.42 1439.5 3158.82 1440.33 3159.08 1441.21 3159.33 1442.08 3159.46 1443.14 3159.46 1444.39 3159.46 1446.65 3158.86 1448.58 3157.65 1450.2 3156.44 1451.81 3154.81 1453.01 3152.74 1453.8 3150.67 1454.58 3148.31 1454.98 3145.67 1454.98 3143.56 1454.98 3141.5 1454.82 3139.46 1454.5 3137.43 1454.18 3135.17 1453.64 3132.68 1452.88L3134.51 1444.58 3137.48 1444.58C3137.59 1447.02 3138.27 1448.86 3139.54 1450.1 3140.81 1451.35 3142.83 1451.97 3145.6 1451.97 3148.01 1451.97 3149.89 1451.43 3151.25 1450.35 3152.61 1449.27 3153.29 1447.74 3153.29 1445.76 3153.29 1444.62 3153.1 1443.63 3152.72 1442.81 3152.34 1441.98 3151.72 1441.19 3150.85 1440.43 3149.99 1439.67 3148.62 1438.71 3146.74 1437.57 3144.76 1436.38 3143.22 1435.3 3142.11 1434.33 3141.01 1433.37 3140.18 1432.32 3139.62 1431.19 3139.06 1430.06 3138.78 1428.76 3138.78 1427.29 3138.78 1425.28 3139.32 1423.52 3140.4 1422.01 3141.48 1420.5 3143.02 1419.34 3145.02 1418.53 3147.03 1417.72 3149.37 1417.31 3152.03 1417.31ZM3126.08 1399.87 3128.32 1399.87 3118.84 1442.03C3118.28 1444.52 3118 1446.39 3118 1447.66 3118 1448.68 3118.17 1449.42 3118.5 1449.87 3118.83 1450.33 3119.35 1450.56 3120.06 1450.56 3120.82 1450.56 3121.63 1450.25 3122.5 1449.63 3123.36 1449 3124.58 1447.82 3126.15 1446.06L3128.32 1448.2C3125.99 1450.66 3124.02 1452.4 3122.42 1453.42 3120.82 1454.43 3119.09 1454.94 3117.24 1454.94 3115.67 1454.94 3114.41 1454.42 3113.47 1453.38 3112.53 1452.34 3112.06 1450.95 3112.06 1449.23 3112.06 1447.83 3112.35 1446.34 3112.94 1444.77L3112.44 1444.62C3110 1448.17 3107.69 1450.77 3105.51 1452.42 3103.33 1454.08 3101.01 1454.9 3098.58 1454.9 3095.78 1454.9 3093.62 1453.85 3092.08 1451.74 3090.55 1449.63 3089.78 1446.67 3089.78 1442.87 3089.78 1438.5 3090.64 1434.3 3092.35 1430.28 3094.06 1426.25 3096.42 1423.08 3099.42 1420.76 3102.41 1418.43 3105.75 1417.27 3109.43 1417.27 3110.98 1417.27 3112.41 1417.43 3113.72 1417.75 3115.02 1418.06 3116.36 1418.62 3117.73 1419.4L3119.72 1410.61C3119.92 1409.77 3120.1 1408.84 3120.25 1407.83 3120.4 1406.81 3120.48 1405.92 3120.48 1405.16 3120.48 1404.4 3120.34 1403.82 3120.06 1403.43 3119.78 1403.03 3119.38 1402.75 3118.86 1402.57 3118.34 1402.39 3117.4 1402.27 3116.06 1402.19L3116.52 1400.21Z" fill="#595959" fill-rule="evenodd"/><text fill="#000000" fill-opacity="0" font-family="Arial,Arial_MSFontService,sans-serif" font-size="55.1104" x="3089.78" y="1448.09">𝑑𝑠</text><g filter="url(#fx2)" transform="translate(2461 1398)"><g><path d="M22.2282 18.1714C32.6562 32.4972 30.6638 51.7144 17.7779 61.0945" stroke="#000000" stroke-width="9.16667" stroke-linejoin="round" stroke-miterlimit="10" fill="none" fill-rule="evenodd"/></g></g><path d="M2483.23 1408.95C2493.66 1423.28 2491.66 1442.5 2478.78 1451.88" stroke="#000000" stroke-width="9.16667" stroke-linejoin="round" stroke-miterlimit="10" fill="none" fill-rule="evenodd"/></g></svg>