<svg width="1104" height="767" xmlns="http://www.w3.org/2000/svg" xmlns:xlink="http://www.w3.org/1999/xlink" xml:space="preserve" overflow="hidden"><defs><filter id="fx0" x="-10%" y="-10%" width="120%" height="120%" filterUnits="userSpaceOnUse" primitiveUnits="userSpaceOnUse"><feComponentTransfer color-interpolation-filters="sRGB"><feFuncR type="discrete" tableValues="0 0"/><feFuncG type="discrete" tableValues="0 0"/><feFuncB type="discrete" tableValues="0 0"/><feFuncA type="linear" slope="0.380392" intercept="0"/></feComponentTransfer><feGaussianBlur stdDeviation="4.58333 4.58333"/></filter><filter id="fx1" x="-10%" y="-10%" width="120%" height="120%" filterUnits="userSpaceOnUse" primitiveUnits="userSpaceOnUse"><feComponentTransfer color-interpolation-filters="sRGB"><feFuncR type="discrete" tableValues="0 0"/><feFuncG type="discrete" tableValues="0 0"/><feFuncB type="discrete" tableValues="0 0"/><feFuncA type="linear" slope="0.380392" intercept="0"/></feComponentTransfer><feGaussianBlur stdDeviation="4.58333 4.58333"/></filter><filter id="fx2" x="-10%" y="-10%" width="120%" height="120%" filterUnits="userSpaceOnUse" primitiveUnits="userSpaceOnUse"><feComponentTransfer color-interpolation-filters="sRGB"><feFuncR type="discrete" tableValues="0 0"/><feFuncG type="discrete" tableValues="0 0"/><feFuncB type="discrete" tableValues="0 0"/><feFuncA type="linear" slope="0.380392" intercept="0"/></feComponentTransfer><feGaussianBlur stdDeviation="4.58333 4.58333"/></filter><filter id="fx3" x="-10%" y="-10%" width="120%" height="120%" filterUnits="userSpaceOnUse" primitiveUnits="userSpaceOnUse"><feComponentTransfer color-interpolation-filters="sRGB"><feFuncR type="discrete" tableValues="0 0"/><feFuncG type="discrete" tableValues="0 0"/><feFuncB type="discrete" tableValues="0 0"/><feFuncA type="linear" slope="0.380392" intercept="0"/></feComponentTransfer><feGaussianBlur stdDeviation="4.58333 4.58333"/></filter><filter id="fx4" x="-10%" y="-10%" width="120%" height="120%" filterUnits="userSpaceOnUse" primitiveUnits="userSpaceOnUse"><feComponentTransfer color-interpolation-filters="sRGB"><feFuncR type="discrete" tableValues="0 0"/><feFuncG type="discrete" tableValues="0 0"/><feFuncB type="discrete" tableValues="0 0"/><feFuncA type="linear" slope="0.380392" intercept="0"/></feComponentTransfer><feGaussianBlur stdDeviation="4.58333 4.58333"/></filter><filter id="fx5" x="-10%" y="-10%" width="120%" height="120%" filterUnits="userSpaceOnUse" primitiveUnits="userSpaceOnUse"><feComponentTransfer color-interpolation-filters="sRGB"><feFuncR type="discrete" tableValues="0 0"/><feFuncG type="discrete" tableValues="0 0"/><feFuncB type="discrete" tableValues="0 0"/><feFuncA type="linear" slope="0.380392" intercept="0"/></feComponentTransfer><feGaussianBlur stdDeviation="4.58333 4.58333"/></filter><filter id="fx6" x="-10%" y="-10%" width="120%" height="120%" filterUnits="userSpaceOnUse" primitiveUnits="userSpaceOnUse"><feComponentTransfer color-interpolation-filters="sRGB"><feFuncR type="discrete" tableValues="0 0"/><feFuncG type="discrete" tableValues="0 0"/><feFuncB type="discrete" tableValues="0 0"/><feFuncA type="linear" slope="0.380392" intercept="0"/></feComponentTransfer><feGaussianBlur stdDeviation="4.58333 4.58333"/></filter><filter id="fx7" x="-10%" y="-10%" width="120%" height="120%" filterUnits="userSpaceOnUse" primitiveUnits="userSpaceOnUse"><feComponentTransfer color-interpolation-filters="sRGB"><feFuncR type="discrete" tableValues="0 0"/><feFuncG type="discrete" tableValues="0 0"/><feFuncB type="discrete" tableValues="0 0"/><feFuncA type="linear" slope="0.380392" intercept="0"/></feComponentTransfer><feGaussianBlur stdDeviation="4.58333 4.58333"/></filter><filter id="fx8" x="-10%" y="-10%" width="120%" height="120%" filterUnits="userSpaceOnUse" primitiveUnits="userSpaceOnUse"><feComponentTransfer color-interpolation-filters="sRGB"><feFuncR type="discrete" tableValues="0 0"/><feFuncG type="discrete" tableValues="0 0"/><feFuncB type="discrete" tableValues="0 0"/><feFuncA type="linear" slope="0.380392" intercept="0"/></feComponentTransfer><feGaussianBlur stdDeviation="4.58333 4.58333"/></filter><filter id="fx9" x="-10%" y="-10%" width="120%" height="120%" filterUnits="userSpaceOnUse" primitiveUnits="userSpaceOnUse"><feComponentTransfer color-interpolation-filters="sRGB"><feFuncR type="discrete" tableValues="0 0"/><feFuncG type="discrete" tableValues="0 0"/><feFuncB type="discrete" tableValues="0 0"/><feFuncA type="linear" slope="0.380392" intercept="0"/></feComponentTransfer><feGaussianBlur stdDeviation="4.58333 4.58333"/></filter><filter id="fx10" x="-10%" y="-10%" width="120%" height="120%" filterUnits="userSpaceOnUse" primitiveUnits="userSpaceOnUse"><feComponentTransfer color-interpolation-filters="sRGB"><feFuncR type="discrete" tableValues="0 0"/><feFuncG type="discrete" tableValues="0 0"/><feFuncB type="discrete" tableValues="0 0"/><feFuncA type="linear" slope="0.380392" intercept="0"/></feComponentTransfer><feGaussianBlur stdDeviation="4.58333 4.58333"/></filter><filter id="fx11" x="-10%" y="-10%" width="120%" height="120%" filterUnits="userSpaceOnUse" primitiveUnits="userSpaceOnUse"><feComponentTransfer color-interpolation-filters="sRGB"><feFuncR type="discrete" tableValues="0 0"/><feFuncG type="discrete" tableValues="0 0"/><feFuncB type="discrete" tableValues="0 0"/><feFuncA type="linear" slope="0.380392" intercept="0"/></feComponentTransfer><feGaussianBlur stdDeviation="4.58333 4.58333"/></filter><filter id="fx12" x="-10%" y="-10%" width="120%" height="120%" filterUnits="userSpaceOnUse" primitiveUnits="userSpaceOnUse"><feComponentTransfer color-interpolation-filters="sRGB"><feFuncR type="discrete" tableValues="0 0"/><feFuncG type="discrete" tableValues="0 0"/><feFuncB type="discrete" tableValues="0 0"/><feFuncA type="linear" slope="0.380392" intercept="0"/></feComponentTransfer><feGaussianBlur stdDeviation="4.58333 4.58333"/></filter><clipPath id="clip13"><rect x="1213" y="1109" width="1104" height="767"/></clipPath><clipPath id="clip14"><rect x="-2" y="24" width="322" height="299"/></clipPath><clipPath id="clip15"><rect x="-2" y="24" width="142" height="252"/></clipPath><clipPath id="clip16"><rect x="-2" y="18" width="145" height="243"/></clipPath></defs><g clip-path="url(#clip13)" transform="translate(-1213 -1109)"><path d="M1234.5 1301.5C1319.54 1425.86 1404.58 1550.22 1502.8 1613.25 1601.03 1676.29 1722.57 1725.2 1823.85 1679.73 1925.13 1634.27 2064.25 1401.22 2110.5 1340.47" stroke="#FF0000" stroke-width="9.16667" stroke-linejoin="round" stroke-miterlimit="10" fill="none" fill-rule="evenodd"/><path d="M1528.95 1548.5 1517.05 1579.75 1538.8 1579.75ZM1527.86 1541.59 1532.49 1541.59 1545.67 1582.75 1545.67 1584.75 1511.52 1584.75 1511.52 1582.75Z" fill-rule="evenodd"/><text fill="#000000" fill-opacity="0" font-family="Arial,Arial_MSFontService,sans-serif" font-size="43.1562" x="1511.52" y="1579.35">Δ</text><path d="M1565.75 1554.37C1567.68 1554.37 1569.45 1554.49 1571.04 1554.72 1572.64 1554.95 1574.23 1555.34 1575.81 1555.9L1574.4 1562.47 1571.87 1562.47C1571.64 1560.61 1571.03 1559.21 1570.04 1558.25 1569.05 1557.29 1567.5 1556.81 1565.37 1556.81 1563.73 1556.81 1562.39 1557.23 1561.37 1558.08 1560.35 1558.92 1559.84 1560.03 1559.84 1561.4 1559.84 1562.15 1559.97 1562.82 1560.23 1563.39 1560.49 1563.96 1561.02 1564.59 1561.81 1565.28 1562.6 1565.97 1563.83 1566.81 1565.5 1567.81 1566.81 1568.6 1567.86 1569.33 1568.65 1569.98 1569.44 1570.64 1570.07 1571.29 1570.53 1571.94 1570.99 1572.58 1571.32 1573.26 1571.53 1573.98 1571.74 1574.7 1571.84 1575.57 1571.84 1576.59 1571.84 1578.45 1571.35 1580.04 1570.36 1581.36 1569.37 1582.68 1568.02 1583.67 1566.32 1584.31 1564.63 1584.96 1562.69 1585.28 1560.53 1585.28 1558.8 1585.28 1557.1 1585.15 1555.43 1584.89 1553.77 1584.63 1551.91 1584.19 1549.87 1583.56L1551.37 1576.75 1553.81 1576.75C1553.89 1578.75 1554.45 1580.26 1555.5 1581.28 1556.54 1582.3 1558.19 1582.81 1560.46 1582.81 1562.44 1582.81 1563.99 1582.37 1565.11 1581.48 1566.22 1580.6 1566.78 1579.34 1566.78 1577.72 1566.78 1576.78 1566.62 1575.97 1566.31 1575.3 1566 1574.62 1565.49 1573.97 1564.78 1573.34 1564.07 1572.72 1562.94 1571.94 1561.4 1571 1559.78 1570.02 1558.51 1569.13 1557.61 1568.34 1556.7 1567.55 1556.02 1566.69 1555.56 1565.76 1555.1 1564.84 1554.87 1563.77 1554.87 1562.56 1554.87 1560.92 1555.31 1559.47 1556.2 1558.23 1557.08 1556.99 1558.35 1556.04 1560 1555.37 1561.64 1554.71 1563.56 1554.37 1565.75 1554.37Z" fill-rule="evenodd"/><text fill="#000000" fill-opacity="0" font-family="Arial,Arial_MSFontService,sans-serif" font-size="30.9062" x="1549.87" y="1581.42">𝑠</text><path d="M1590.54 1568.28 1591.94 1568.28C1591.91 1569.12 1591.89 1569.87 1591.87 1570.54 1591.86 1571.2 1591.85 1571.85 1591.84 1572.48 1591.83 1573.1 1591.83 1573.72 1591.83 1574.33L1591.83 1591.78C1591.83 1592.25 1591.84 1592.66 1591.87 1593 1591.9 1593.35 1591.95 1593.64 1592.02 1593.88 1592.09 1594.11 1592.18 1594.32 1592.3 1594.48 1592.41 1594.65 1592.55 1594.8 1592.7 1594.92 1592.88 1595.1 1593.13 1595.24 1593.43 1595.34 1593.74 1595.44 1594.13 1595.53 1594.61 1595.6 1595.08 1595.67 1595.65 1595.72 1596.31 1595.76 1596.98 1595.8 1597.78 1595.82 1598.71 1595.84L1598.71 1597.83 1580.51 1597.83 1580.51 1595.84C1581.42 1595.81 1582.18 1595.77 1582.81 1595.73 1583.44 1595.7 1583.97 1595.64 1584.42 1595.57 1584.86 1595.5 1585.22 1595.43 1585.48 1595.34 1585.75 1595.26 1585.98 1595.16 1586.18 1595.03 1586.4 1594.9 1586.58 1594.75 1586.73 1594.59 1586.89 1594.43 1587.01 1594.22 1587.1 1593.98 1587.19 1593.73 1587.27 1593.44 1587.32 1593.08 1587.37 1592.73 1587.4 1592.3 1587.4 1591.78L1587.4 1575.32C1587.4 1574.72 1587.28 1574.3 1587.05 1574.06 1586.83 1573.81 1586.5 1573.69 1586.07 1573.69 1585.59 1573.69 1584.89 1573.94 1583.96 1574.43 1583.02 1574.92 1581.81 1575.64 1580.33 1576.61 1580.13 1576.25 1579.95 1575.9 1579.78 1575.55 1579.61 1575.2 1579.44 1574.84 1579.25 1574.47 1581.15 1573.43 1583.03 1572.39 1584.89 1571.36 1586.75 1570.33 1588.63 1569.3 1590.54 1568.28Z" fill-rule="evenodd"/><text fill="#000000" fill-opacity="0" font-family="Arial,Arial_MSFontService,sans-serif" font-size="29.5586" x="1579.25" y="1594.14">1</text><g filter="url(#fx0)" transform="translate(1427 1569)"><g><path d="M21.5801 15.4372 267.269 246.106 261.109 252.667 15.4199 21.9986ZM270.259 236.225 280.896 265.072 251.436 256.273Z" fill="#4285F4"/></g></g><path d="M1448.64 1577.16 1694.33 1807.83 1688.05 1814.51 1442.36 1583.84ZM1697.26 1798.01 1707.9 1826.85 1678.44 1818.06Z" fill="#4285F4"/><g filter="url(#fx1)" transform="translate(1416 1610)"><g><path d="M16.4999 19.7179 192.602 73.0282" stroke="#00B050" stroke-width="9" stroke-linejoin="round" stroke-miterlimit="10" stroke-dasharray="36.6667 27.5" fill="none" fill-rule="evenodd"/></g></g><path d="M1432.5 1622.5 1608.6 1675.81" stroke="#00B050" stroke-width="9.16667" stroke-linejoin="round" stroke-miterlimit="10" stroke-dasharray="36.6667 27.5" fill="none" fill-rule="evenodd"/><g filter="url(#fx2)" transform="translate(1587 1661)"><g><path d="M17.8039 15.4108 399.204 130.87 396.596 139.484 15.1963 24.0247ZM397.497 120.688 419.833 141.816 389.529 147.009Z" fill="#00B050"/></g></g><path d="M1604.83 1669.11 1986.23 1784.57 1983.57 1793.35 1602.17 1677.89ZM1984.5 1774.47 2006.83 1795.6 1976.53 1800.79Z" fill="#00B050"/><g filter="url(#fx3)" transform="translate(1569 1677)"><g><path d="M52.7477 15.9085C47.6679 32.884 31.1715 42.9411 15.9022 38.3718" stroke="#00B050" stroke-width="9.16667" stroke-linejoin="round" stroke-miterlimit="10" fill="none" fill-rule="evenodd"/></g></g><path d="M1621.75 1685.69C1616.67 1702.67 1600.17 1712.72 1584.9 1708.15" stroke="#00B050" stroke-width="9.16667" stroke-linejoin="round" stroke-miterlimit="10" fill="none" fill-rule="evenodd"/><path d="M1679.44 1724.82 1667.53 1756.07 1689.28 1756.07ZM1678.35 1717.91 1682.97 1717.91 1696.16 1759.07 1696.16 1761.07 1662 1761.07 1662 1759.07Z" fill="#00B050" fill-rule="evenodd"/><text fill="#000000" fill-opacity="0" font-family="Arial,Arial_MSFontService,sans-serif" font-size="43.1562" x="1662" y="1755.67">Δ</text><path d="M1718.39 1733.16C1716.47 1733.16 1714.69 1734.01 1713.04 1735.72 1711.4 1737.43 1710.08 1739.74 1709.09 1742.66 1708.1 1745.58 1707.61 1748.57 1707.61 1751.63 1707.61 1753.73 1707.92 1755.3 1708.54 1756.32 1709.17 1757.34 1710.11 1757.85 1711.36 1757.85 1713.15 1757.85 1714.99 1756.8 1716.89 1754.69 1718.78 1752.59 1720.54 1749.66 1722.17 1745.91 1722.52 1743.74 1722.7 1741.83 1722.7 1740.16 1722.7 1737.79 1722.35 1736.02 1721.65 1734.88 1720.95 1733.73 1719.87 1733.16 1718.39 1733.16ZM1718.61 1730.69C1720.94 1730.69 1722.77 1731.42 1724.09 1732.88 1725.41 1734.34 1726.15 1736.47 1726.29 1739.29L1726.57 1739.25 1730.67 1731.19 1736.07 1731.19 1735.76 1732.79C1733.18 1736.29 1730.14 1740.59 1726.64 1745.69 1726.12 1749.67 1725.86 1752.48 1725.86 1754.13 1725.86 1755.5 1726.01 1756.49 1726.32 1757.08 1726.64 1757.68 1727.16 1757.97 1727.89 1757.97 1728.47 1757.97 1729.13 1757.73 1729.87 1757.24 1730.61 1756.75 1731.41 1755.99 1732.26 1754.97L1734.07 1756.66C1732.32 1758.54 1730.8 1759.82 1729.51 1760.52 1728.22 1761.22 1726.89 1761.57 1725.51 1761.57 1722.74 1761.57 1721.36 1759.55 1721.36 1755.5 1721.36 1754.61 1721.42 1753.62 1721.54 1752.54L1721.23 1752.54C1719.09 1755.74 1717.05 1758.05 1715.14 1759.46 1713.22 1760.86 1711.17 1761.57 1708.98 1761.57 1707.46 1761.57 1706.18 1761.13 1705.14 1760.25 1704.1 1759.38 1703.32 1758.22 1702.82 1756.77 1702.32 1755.32 1702.07 1753.74 1702.07 1752.04 1702.07 1748.31 1702.78 1744.77 1704.2 1741.43 1705.62 1738.08 1707.59 1735.46 1710.11 1733.55 1712.63 1731.64 1715.46 1730.69 1718.61 1730.69Z" fill="#00B050" fill-rule="evenodd"/><text fill="#000000" fill-opacity="0" font-family="Arial,Arial_MSFontService,sans-serif" font-size="30.875" x="1702.07" y="1757.71">𝛼</text><path d="M1751.18 1744.59 1752.58 1744.59C1752.55 1745.43 1752.53 1746.19 1752.51 1746.85 1752.5 1747.52 1752.48 1748.17 1752.48 1748.79 1752.47 1749.42 1752.47 1750.04 1752.47 1750.65L1752.47 1768.09C1752.47 1768.57 1752.48 1768.98 1752.51 1769.32 1752.54 1769.67 1752.59 1769.96 1752.66 1770.19 1752.73 1770.43 1752.82 1770.63 1752.94 1770.8 1753.05 1770.97 1753.18 1771.11 1753.34 1771.24 1753.52 1771.42 1753.77 1771.56 1754.07 1771.66 1754.38 1771.76 1754.77 1771.85 1755.24 1771.91 1755.72 1771.98 1756.29 1772.04 1756.95 1772.08 1757.62 1772.11 1758.42 1772.14 1759.35 1772.16L1759.35 1774.15 1741.15 1774.15 1741.15 1772.16C1742.05 1772.12 1742.82 1772.09 1743.45 1772.05 1744.07 1772.01 1744.61 1771.96 1745.05 1771.89 1745.5 1771.82 1745.85 1771.75 1746.12 1771.66 1746.39 1771.58 1746.62 1771.47 1746.82 1771.35 1747.03 1771.21 1747.22 1771.07 1747.37 1770.9 1747.52 1770.74 1747.65 1770.54 1747.74 1770.3 1747.83 1770.05 1747.9 1769.75 1747.96 1769.4 1748.01 1769.05 1748.04 1768.61 1748.04 1768.09L1748.04 1751.64C1748.04 1751.04 1747.92 1750.62 1747.69 1750.38 1747.46 1750.13 1747.13 1750.01 1746.7 1750.01 1746.23 1750.01 1745.53 1750.25 1744.59 1750.74 1743.66 1751.23 1742.45 1751.96 1740.97 1752.92 1740.77 1752.57 1740.59 1752.22 1740.42 1751.87 1740.25 1751.52 1740.07 1751.16 1739.89 1750.79 1741.79 1749.75 1743.66 1748.71 1745.52 1747.68 1747.38 1746.65 1749.27 1745.62 1751.18 1744.59Z" fill="#00B050" fill-rule="evenodd"/><text fill="#000000" fill-opacity="0" font-family="Arial,Arial_MSFontService,sans-serif" font-size="29.5586" x="1739.89" y="1770.46">1</text><path d="M1987.86 1330.55C1987.11 1331.14 1986.55 1331.77 1986.16 1332.46 1985.78 1333.15 1985.58 1333.94 1985.58 1334.83 1985.58 1336.33 1986.23 1337.44 1987.54 1338.16 1988.84 1338.88 1990.9 1339.24 1993.71 1339.24 1996.33 1339.24 1998.33 1338.8 1999.69 1337.93 2001.06 1337.05 2001.74 1335.82 2001.74 1334.24 2001.74 1332.93 2001.32 1332 2000.49 1331.47 1999.66 1330.94 1998.43 1330.68 1996.8 1330.68L1991.43 1330.68C1989.91 1330.68 1988.72 1330.64 1987.86 1330.55ZM1993.52 1300.27C1991.98 1300.27 1990.84 1300.87 1990.1 1302.07 1989.36 1303.27 1988.99 1305.1 1988.99 1307.58 1988.99 1310.21 1989.36 1312.16 1990.1 1313.44 1990.84 1314.72 1992 1315.36 1993.58 1315.36 1995.02 1315.36 1996.12 1314.77 1996.88 1313.58 1997.64 1312.4 1998.02 1310.58 1998.02 1308.15 1998.02 1305.58 1997.65 1303.63 1996.91 1302.29 1996.17 1300.94 1995.04 1300.27 1993.52 1300.27ZM1993.61 1297.05C1994.68 1297.05 1995.61 1297.1 1996.43 1297.21 1997.24 1297.31 1998.03 1297.43 1998.8 1297.55L2010.08 1297.55 2010.08 1301.74 2004.74 1301.15 2004.61 1301.49C2005.2 1302.07 2005.68 1302.87 2006.07 1303.88 2006.45 1304.89 2006.65 1306.1 2006.65 1307.52 2006.65 1311.15 2005.55 1313.9 2003.35 1315.77 2001.15 1317.65 1997.92 1318.58 1993.65 1318.58 1991.58 1318.58 1989.9 1318.4 1988.58 1318.02 1987.54 1318.96 1987.02 1319.97 1987.02 1321.05 1987.02 1321.68 1987.15 1322.16 1987.41 1322.49 1987.67 1322.82 1988.11 1323.08 1988.74 1323.25 1989.36 1323.43 1990.25 1323.52 1991.4 1323.52L1999.15 1323.52C2002.62 1323.52 2005.23 1324.2 2006.96 1325.55 2008.69 1326.91 2009.55 1329.01 2009.55 1331.86 2009.55 1334.09 2008.92 1336.01 2007.66 1337.61 2006.4 1339.22 2004.59 1340.44 2002.24 1341.29 1999.88 1342.13 1997.09 1342.55 1993.86 1342.55 1991.51 1342.55 1989.37 1342.45 1987.46 1342.24 1985.54 1342.03 1983.91 1341.65 1982.55 1341.1 1981.2 1340.55 1980.15 1339.79 1979.41 1338.83 1978.67 1337.87 1978.3 1336.66 1978.3 1335.18 1978.3 1333.99 1978.68 1332.9 1979.43 1331.9 1980.18 1330.9 1981.23 1330.04 1982.58 1329.33 1981.71 1328.71 1981.07 1327.99 1980.68 1327.18 1980.28 1326.36 1980.08 1325.36 1980.08 1324.18 1980.08 1322.91 1980.45 1321.7 1981.18 1320.55 1981.91 1319.41 1983.17 1318.16 1984.96 1316.8 1983.33 1315.89 1982.1 1314.68 1981.27 1313.19 1980.44 1311.7 1980.02 1309.96 1980.02 1307.96 1980.02 1305.46 1980.61 1303.39 1981.8 1301.75 1982.99 1300.12 1984.6 1298.93 1986.63 1298.18 1988.66 1297.43 1990.99 1297.05 1993.61 1297.05Z" fill-rule="evenodd"/><text fill="#000000" fill-opacity="0" font-family="Arial,Arial_MSFontService,sans-serif" font-size="45.5" x="1978.3" y="1336.86">𝐠</text><path d="M2035.3 1283.4 2036.15 1285.8C2031.27 1287.41 2027.66 1290.54 2025.32 1295.19 2022.97 1299.85 2021.8 1305.7 2021.8 1312.74 2021.8 1320.03 2022.97 1326.04 2025.32 1330.77 2027.66 1335.5 2031.24 1338.67 2036.05 1340.27L2035.3 1342.68C2029.2 1341.07 2024.52 1337.62 2021.27 1332.32 2018.02 1327.02 2016.4 1320.59 2016.4 1313.05 2016.4 1305.53 2018.03 1299.11 2021.29 1293.79 2024.55 1288.46 2029.22 1285 2035.3 1283.4Z" fill-rule="evenodd"/><text fill="#000000" fill-opacity="0" font-family="Arial,Arial_MSFontService,sans-serif" font-size="59.2812" x="2016.4" y="1335.27">(</text><path d="M2043.84 1290.96 2048.28 1290.96 2048.28 1298.68 2058.37 1298.68 2058.37 1301.83 2048.28 1301.83 2048.28 1315.74C2048.28 1317.76 2048.36 1319.37 2048.53 1320.57 2048.7 1321.77 2049.01 1322.7 2049.47 1323.38 2049.93 1324.06 2050.45 1324.54 2051.03 1324.83 2051.61 1325.12 2052.36 1325.27 2053.28 1325.27 2054.11 1325.27 2054.9 1325.1 2055.62 1324.75 2056.35 1324.41 2057.07 1323.92 2057.78 1323.27L2059.19 1324.96C2057.71 1326.4 2056.31 1327.44 2054.98 1328.08 2053.66 1328.73 2052.29 1329.05 2050.87 1329.05 2048.19 1329.05 2046.19 1328.25 2044.87 1326.66 2043.56 1325.07 2042.91 1322.57 2042.91 1319.18L2042.91 1301.83 2038.28 1301.83 2038.28 1300.24C2039.32 1300.07 2040.17 1299.78 2040.81 1299.36 2041.46 1298.95 2041.96 1298.41 2042.33 1297.75 2042.69 1297.1 2042.98 1296.28 2043.19 1295.29 2043.4 1294.3 2043.61 1292.85 2043.84 1290.96Z" fill-rule="evenodd"/><text fill="#000000" fill-opacity="0" font-family="Arial,Arial_MSFontService,sans-serif" font-size="38.0938" x="2038.28" y="1324.29">t</text><path d="M2060.93 1283.4C2067.01 1285 2071.68 1288.46 2074.94 1293.79 2078.2 1299.11 2079.83 1305.53 2079.83 1313.05 2079.83 1320.59 2078.21 1327.02 2074.96 1332.32 2071.71 1337.62 2067.03 1341.07 2060.93 1342.68L2060.18 1340.27C2064.99 1338.67 2068.57 1335.5 2070.91 1330.77 2073.25 1326.04 2074.43 1320.03 2074.43 1312.74 2074.43 1305.7 2073.26 1299.85 2070.93 1295.19 2068.59 1290.54 2064.98 1287.41 2060.08 1285.8Z" fill-rule="evenodd"/><text fill="#000000" fill-opacity="0" font-family="Arial,Arial_MSFontService,sans-serif" font-size="59.2812" x="2060.08" y="1335.27">)</text><g filter="url(#fx4)" transform="translate(1215 1294)"><g><path d="M23.5018 14.6601 174.133 307.598 166.129 311.714 15.498 18.7757ZM180.263 299.292 180.611 330.036 155.807 311.868Z" fill="#FFC000"/></g></g><path d="M1238.58 1301.4 1389.21 1594.34 1381.06 1598.53 1230.42 1305.6ZM1395.26 1586.07 1395.61 1616.82 1370.81 1598.65Z" fill="#FFC000"/><g filter="url(#fx5)" transform="translate(1347 1527)"><g><path d="M53.5532 16.1284C48.4733 33.1038 31.977 43.161 16.7076 38.5916" stroke="#4285F4" stroke-width="9.16667" stroke-linejoin="round" stroke-miterlimit="10" fill="none" fill-rule="evenodd"/></g></g><path d="M1400.55 1535.91C1395.47 1552.89 1378.98 1562.94 1363.71 1558.37" stroke="#4285F4" stroke-width="9.16667" stroke-linejoin="round" stroke-miterlimit="10" fill="none" fill-rule="evenodd"/><path d="M1264.53 1563.09 1252.63 1594.34 1274.38 1594.34ZM1263.44 1556.19 1268.06 1556.19 1281.25 1597.34 1281.25 1599.34 1247.09 1599.34 1247.09 1597.34Z" fill="#4285F4" fill-rule="evenodd"/><text fill="#000000" fill-opacity="0" font-family="Arial,Arial_MSFontService,sans-serif" font-size="43.1562" x="1247.09" y="1593.95">Δ</text><path d="M1303.48 1571.44C1301.56 1571.44 1299.78 1572.29 1298.14 1574 1296.49 1575.71 1295.17 1578.02 1294.18 1580.94 1293.19 1583.86 1292.7 1586.84 1292.7 1589.91 1292.7 1592.01 1293.01 1593.57 1293.64 1594.59 1294.26 1595.62 1295.2 1596.13 1296.45 1596.13 1298.24 1596.13 1300.08 1595.07 1301.98 1592.97 1303.88 1590.87 1305.64 1587.94 1307.26 1584.19 1307.61 1582.02 1307.79 1580.11 1307.79 1578.44 1307.79 1576.06 1307.44 1574.3 1306.74 1573.16 1306.05 1572.01 1304.96 1571.44 1303.48 1571.44ZM1303.7 1568.97C1306.03 1568.97 1307.86 1569.7 1309.18 1571.16 1310.51 1572.62 1311.24 1574.75 1311.39 1577.56L1311.67 1577.53 1315.76 1569.47 1321.17 1569.47 1320.85 1571.06C1318.27 1574.56 1315.23 1578.87 1311.73 1583.97 1311.21 1587.95 1310.95 1590.76 1310.95 1592.41 1310.95 1593.78 1311.1 1594.77 1311.42 1595.36 1311.73 1595.95 1312.25 1596.25 1312.98 1596.25 1313.56 1596.25 1314.22 1596.01 1314.96 1595.52 1315.7 1595.03 1316.5 1594.27 1317.35 1593.25L1319.17 1594.94C1317.42 1596.81 1315.9 1598.1 1314.6 1598.8 1313.31 1599.5 1311.98 1599.84 1310.6 1599.84 1307.83 1599.84 1306.45 1597.82 1306.45 1593.78 1306.45 1592.89 1306.51 1591.9 1306.64 1590.81L1306.32 1590.81C1304.18 1594.02 1302.15 1596.33 1300.23 1597.74 1298.31 1599.14 1296.26 1599.84 1294.07 1599.84 1292.55 1599.84 1291.27 1599.41 1290.23 1598.53 1289.19 1597.66 1288.42 1596.5 1287.92 1595.05 1287.42 1593.6 1287.17 1592.02 1287.17 1590.31 1287.17 1586.58 1287.88 1583.05 1289.29 1579.7 1290.71 1576.36 1292.68 1573.74 1295.2 1571.83 1297.72 1569.92 1300.55 1568.97 1303.7 1568.97Z" fill="#4285F4" fill-rule="evenodd"/><text fill="#000000" fill-opacity="0" font-family="Arial,Arial_MSFontService,sans-serif" font-size="30.875" x="1287.17" y="1595.99">𝛼</text><path d="M1335.88 1584.94C1334.81 1584.94 1333.91 1585.22 1333.19 1585.77 1332.48 1586.33 1331.91 1587.15 1331.49 1588.23 1331.06 1589.31 1330.77 1590.62 1330.59 1592.18 1330.41 1593.73 1330.33 1595.49 1330.33 1597.47 1330.33 1599.75 1330.44 1601.72 1330.66 1603.38 1330.88 1605.04 1331.22 1606.4 1331.69 1607.47 1332.16 1608.54 1332.74 1609.33 1333.45 1609.84 1334.15 1610.34 1334.99 1610.59 1335.97 1610.59 1336.89 1610.59 1337.69 1610.36 1338.38 1609.88 1339.07 1609.41 1339.64 1608.67 1340.09 1607.67 1340.54 1606.67 1340.88 1605.4 1341.11 1603.86 1341.34 1602.32 1341.46 1600.5 1341.46 1598.41 1341.46 1596.05 1341.33 1594.03 1341.08 1592.33 1340.83 1590.63 1340.47 1589.23 1340.01 1588.14 1339.55 1587.04 1338.97 1586.24 1338.28 1585.72 1337.58 1585.2 1336.78 1584.94 1335.88 1584.94ZM1335.97 1582.71C1337.79 1582.71 1339.35 1583.05 1340.64 1583.73 1341.93 1584.41 1342.99 1585.38 1343.81 1586.65 1344.63 1587.91 1345.23 1589.45 1345.61 1591.27 1345.99 1593.09 1346.18 1595.15 1346.18 1597.44 1346.18 1602.54 1345.28 1606.39 1343.48 1609 1341.67 1611.61 1339.05 1612.91 1335.63 1612.91 1332.23 1612.91 1329.71 1611.68 1328.05 1609.22 1326.4 1606.75 1325.58 1603.02 1325.58 1598.02 1325.58 1595.4 1325.83 1593.14 1326.34 1591.23 1326.86 1589.31 1327.58 1587.73 1328.5 1586.46 1329.43 1585.2 1330.53 1584.26 1331.79 1583.64 1333.06 1583.02 1334.46 1582.71 1335.97 1582.71Z" fill="#4285F4" fill-rule="evenodd"/><text fill="#000000" fill-opacity="0" font-family="Arial,Arial_MSFontService,sans-serif" font-size="30.2012" x="1325.58" y="1609.14">0</text><path d="M1352.42 1356.85 1340.51 1388.1 1362.26 1388.1ZM1351.33 1349.94 1355.95 1349.94 1369.14 1391.1 1369.14 1393.1 1334.98 1393.1 1334.98 1391.1Z" fill-rule="evenodd"/><text fill="#000000" fill-opacity="0" font-family="Arial,Arial_MSFontService,sans-serif" font-size="43.1562" x="1334.98" y="1387.7">Δ</text><path d="M1389.21 1362.72C1391.15 1362.72 1392.92 1362.84 1394.51 1363.07 1396.1 1363.3 1397.69 1363.69 1399.27 1364.25L1397.87 1370.82 1395.34 1370.82C1395.11 1368.96 1394.5 1367.56 1393.51 1366.6 1392.52 1365.64 1390.96 1365.16 1388.84 1365.16 1387.19 1365.16 1385.86 1365.58 1384.84 1366.43 1383.82 1367.27 1383.31 1368.38 1383.31 1369.75 1383.31 1370.5 1383.44 1371.17 1383.7 1371.74 1383.96 1372.31 1384.48 1372.94 1385.27 1373.63 1386.07 1374.32 1387.3 1375.16 1388.96 1376.16 1390.27 1376.95 1391.33 1377.68 1392.12 1378.33 1392.91 1378.99 1393.54 1379.64 1393.99 1380.29 1394.45 1380.93 1394.79 1381.61 1394.99 1382.33 1395.2 1383.05 1395.31 1383.92 1395.31 1384.94 1395.31 1386.8 1394.81 1388.38 1393.82 1389.71 1392.83 1391.03 1391.49 1392.01 1389.79 1392.66 1388.09 1393.31 1386.16 1393.63 1383.99 1393.63 1382.26 1393.63 1380.57 1393.5 1378.9 1393.24 1377.23 1392.98 1375.38 1392.54 1373.34 1391.91L1374.84 1385.1 1377.27 1385.1C1377.36 1387.1 1377.92 1388.61 1378.96 1389.63 1380 1390.65 1381.66 1391.16 1383.93 1391.16 1385.91 1391.16 1387.46 1390.72 1388.57 1389.83 1389.69 1388.95 1390.24 1387.69 1390.24 1386.07 1390.24 1385.13 1390.09 1384.32 1389.77 1383.65 1389.46 1382.97 1388.95 1382.32 1388.24 1381.69 1387.54 1381.07 1386.41 1380.29 1384.87 1379.35 1383.24 1378.37 1381.98 1377.48 1381.07 1376.69 1380.17 1375.9 1379.48 1375.04 1379.02 1374.11 1378.57 1373.19 1378.34 1372.12 1378.34 1370.91 1378.34 1369.26 1378.78 1367.82 1379.67 1366.58 1380.55 1365.34 1381.82 1364.39 1383.46 1363.72 1385.11 1363.06 1387.02 1362.72 1389.21 1362.72Z" fill-rule="evenodd"/><text fill="#000000" fill-opacity="0" font-family="Arial,Arial_MSFontService,sans-serif" font-size="30.9062" x="1373.34" y="1389.77">𝑠</text><path d="M1413.62 1378.69C1412.55 1378.69 1411.65 1378.97 1410.93 1379.53 1410.21 1380.09 1409.64 1380.91 1409.22 1381.98 1408.8 1383.06 1408.5 1384.38 1408.33 1385.93 1408.15 1387.48 1408.06 1389.25 1408.06 1391.22 1408.06 1393.5 1408.17 1395.47 1408.4 1397.13 1408.62 1398.79 1408.96 1400.16 1409.43 1401.23 1409.9 1402.3 1410.48 1403.09 1411.18 1403.59 1411.89 1404.1 1412.73 1404.35 1413.71 1404.35 1414.63 1404.35 1415.43 1404.11 1416.12 1403.64 1416.81 1403.16 1417.38 1402.42 1417.83 1401.42 1418.28 1400.42 1418.62 1399.15 1418.85 1397.61 1419.08 1396.07 1419.19 1394.26 1419.19 1392.16 1419.19 1389.81 1419.07 1387.78 1418.81 1386.08 1418.56 1384.38 1418.21 1382.99 1417.75 1381.89 1417.29 1380.8 1416.71 1379.99 1416.02 1379.47 1415.32 1378.95 1414.52 1378.69 1413.62 1378.69ZM1413.71 1376.46C1415.53 1376.46 1417.09 1376.8 1418.38 1377.49 1419.67 1378.17 1420.73 1379.14 1421.55 1380.4 1422.36 1381.66 1422.96 1383.2 1423.35 1385.02 1423.73 1386.85 1423.92 1388.9 1423.92 1391.2 1423.92 1396.29 1423.02 1400.14 1421.21 1402.75 1419.41 1405.36 1416.79 1406.67 1413.36 1406.67 1409.97 1406.67 1407.44 1405.43 1405.79 1402.97 1404.14 1400.51 1403.31 1396.77 1403.31 1391.77 1403.31 1389.16 1403.57 1386.89 1404.08 1384.98 1404.59 1383.07 1405.31 1381.48 1406.24 1380.22 1407.16 1378.95 1408.26 1378.01 1409.53 1377.39 1410.8 1376.77 1412.19 1376.46 1413.71 1376.46Z" fill-rule="evenodd"/><text fill="#000000" fill-opacity="0" font-family="Arial,Arial_MSFontService,sans-serif" font-size="30.2012" x="1403.31" y="1402.89">0</text><g clip-path="url(#clip14)" filter="url(#fx6)" transform="translate(1893 1314)"><g><path d="M3.04268-3.31544 270.23 241.891 264.145 248.521-3.04268 3.31544ZM273.108 231.976 284.072 260.701 254.514 252.237Z" fill="#7030A0" transform="matrix(1 0 0 -1 18.5001 303.419)"/></g></g><path d="M3.09902-3.37683 270.287 241.829 264.089 248.583-3.09902 3.37683ZM273.108 231.976 284.072 260.701 254.514 252.237Z" fill="#7030A0" transform="matrix(1 0 0 -1 1911.5 1610.2)"/><path d="M1934.16 1695.24 1922.26 1726.49 1944.01 1726.49ZM1933.07 1688.34 1937.69 1688.34 1950.88 1729.49 1950.88 1731.49 1916.72 1731.49 1916.72 1729.49Z" fill="#7030A0" fill-rule="evenodd"/><text fill="#000000" fill-opacity="0" font-family="Arial,Arial_MSFontService,sans-serif" font-size="43.1562" x="1916.72" y="1726.1">Δ</text><path d="M1973.11 1703.59C1971.19 1703.59 1969.41 1704.44 1967.77 1706.15 1966.12 1707.86 1964.8 1710.17 1963.81 1713.09 1962.82 1716 1962.33 1718.99 1962.33 1722.06 1962.33 1724.16 1962.64 1725.72 1963.27 1726.74 1963.89 1727.76 1964.83 1728.27 1966.08 1728.27 1967.87 1728.27 1969.71 1727.22 1971.61 1725.12 1973.51 1723.01 1975.27 1720.09 1976.89 1716.34 1977.25 1714.17 1977.42 1712.25 1977.42 1710.59 1977.42 1708.21 1977.07 1706.45 1976.38 1705.31 1975.68 1704.16 1974.59 1703.59 1973.11 1703.59ZM1973.33 1701.12C1975.66 1701.12 1977.49 1701.85 1978.81 1703.31 1980.14 1704.76 1980.87 1706.9 1981.02 1709.71L1981.3 1709.68 1985.39 1701.62 1990.8 1701.62 1990.49 1703.21C1987.9 1706.71 1984.86 1711.01 1981.36 1716.12 1980.84 1720.1 1980.58 1722.91 1980.58 1724.56 1980.58 1725.93 1980.74 1726.92 1981.05 1727.51 1981.36 1728.1 1981.88 1728.4 1982.61 1728.4 1983.19 1728.4 1983.85 1728.16 1984.59 1727.67 1985.33 1727.18 1986.13 1726.42 1986.99 1725.4L1988.8 1727.09C1987.05 1728.96 1985.53 1730.25 1984.24 1730.95 1982.94 1731.64 1981.61 1731.99 1980.24 1731.99 1977.46 1731.99 1976.08 1729.97 1976.08 1725.93 1976.08 1725.04 1976.14 1724.05 1976.27 1722.96L1975.95 1722.96C1973.81 1726.17 1971.78 1728.48 1969.86 1729.88 1967.94 1731.29 1965.89 1731.99 1963.7 1731.99 1962.18 1731.99 1960.9 1731.56 1959.86 1730.68 1958.82 1729.81 1958.05 1728.64 1957.55 1727.2 1957.05 1725.75 1956.8 1724.17 1956.8 1722.46 1956.8 1718.73 1957.51 1715.2 1958.92 1711.85 1960.34 1708.51 1962.31 1705.88 1964.83 1703.98 1967.35 1702.07 1970.18 1701.12 1973.33 1701.12Z" fill="#7030A0" fill-rule="evenodd"/><text fill="#000000" fill-opacity="0" font-family="Arial,Arial_MSFontService,sans-serif" font-size="30.875" x="1956.8" y="1728.13">𝛼</text><path d="M2005.6 1714.86C2007.19 1714.86 2008.55 1715.04 2009.68 1715.4 2010.8 1715.76 2011.71 1716.24 2012.42 1716.86 2013.12 1717.47 2013.63 1718.2 2013.94 1719.06 2014.26 1719.92 2014.41 1720.84 2014.41 1721.84 2014.41 1722.43 2014.37 1722.99 2014.29 1723.5 2014.2 1724.01 2014.06 1724.52 2013.85 1725.01 2013.65 1725.51 2013.37 1726.01 2013.04 1726.52 2012.7 1727.02 2012.28 1727.56 2011.78 1728.12 2011.39 1728.61 2010.9 1729.18 2010.28 1729.82 2009.67 1730.47 2009 1731.15 2008.28 1731.89 2007.55 1732.62 2006.79 1733.39 2005.99 1734.18 2005.2 1734.98 2004.42 1735.77 2003.67 1736.55 2002.93 1737.33 2002.24 1738.08 2001.61 1738.82 2000.98 1739.55 2000.47 1740.23 2000.07 1740.84L2008.56 1740.84C2009.28 1740.84 2009.86 1740.81 2010.28 1740.76 2010.71 1740.7 2011.07 1740.59 2011.35 1740.4 2011.63 1740.22 2011.88 1739.94 2012.07 1739.56 2012.27 1739.19 2012.5 1738.67 2012.76 1738.02L2014.9 1738.02C2014.82 1739.1 2014.75 1740.2 2014.68 1741.3 2014.61 1742.4 2014.54 1743.49 2014.46 1744.58L1995.02 1744.58 1995.02 1743.39C1995.39 1742.56 1995.82 1741.74 1996.31 1740.94 1996.8 1740.14 1997.35 1739.32 1997.96 1738.5 1998.57 1737.67 1999.27 1736.82 2000.05 1735.94 2000.83 1735.06 2001.69 1734.14 2002.64 1733.2 2004.08 1731.76 2005.25 1730.53 2006.15 1729.51 2007.06 1728.5 2007.77 1727.59 2008.29 1726.79 2008.81 1726 2009.16 1725.26 2009.35 1724.59 2009.55 1723.92 2009.64 1723.2 2009.64 1722.43 2009.64 1721.65 2009.53 1720.93 2009.31 1720.28 2009.09 1719.62 2008.77 1719.06 2008.36 1718.6 2007.94 1718.14 2007.42 1717.78 2006.78 1717.52 2006.15 1717.26 2005.42 1717.13 2004.59 1717.13 2003.17 1717.13 2001.98 1717.52 2001.01 1718.29 2000.05 1719.06 1999.3 1720.18 1998.76 1721.65L1995.76 1721.65 1995.76 1717.18C1997.72 1716.37 1999.52 1715.78 2001.16 1715.41 2002.81 1715.04 2004.29 1714.86 2005.6 1714.86Z" fill="#7030A0" fill-rule="evenodd"/><text fill="#000000" fill-opacity="0" font-family="Arial,Arial_MSFontService,sans-serif" font-size="29.7192" x="1995.02" y="1740.86">2</text><g filter="url(#fx7)" transform="translate(1821 1682)"><g><path d="M18.8485 17.636C30.7744 30.7411 30.8862 50.0611 19.0982 60.7884" stroke="#7030A0" stroke-width="9.16667" stroke-linejoin="round" stroke-miterlimit="10" fill="none" fill-rule="evenodd"/></g></g><path d="M1839.85 1692.42C1851.77 1705.52 1851.89 1724.84 1840.1 1735.57" stroke="#7030A0" stroke-width="9.16667" stroke-linejoin="round" stroke-miterlimit="10" fill="none" fill-rule="evenodd"/><g clip-path="url(#clip15)" filter="url(#fx8)" transform="translate(2096 1108)"><g><path d="M4.05542-1.95028 96.3848 190.04 88.274 193.94-4.05542 1.95028ZM102.735 181.9 102.261 212.642 77.9514 193.819Z" fill="#0097A7" transform="matrix(1 0 0 -1 19.5 255.36)"/></g></g><path d="M4.13052-1.9864 96.4599 190.004 88.1989 193.976-4.13052 1.9864ZM102.735 181.9 102.261 212.642 77.9515 193.819Z" fill="#0097A7" transform="matrix(1 0 0 -1 2115.5 1356.14)"/><g clip-path="url(#clip16)" filter="url(#fx9)" transform="translate(1997 1320)"><g><path d="M0 0 110.527 221.864" stroke="#0097A7" stroke-width="9" stroke-linejoin="round" stroke-miterlimit="10" stroke-dasharray="36.6667 27.5" fill="none" fill-rule="evenodd" transform="matrix(1 0 0 -1 19.4999 241.582)"/></g></g><path d="M0 0 110.527 221.864" stroke="#0097A7" stroke-width="9.16667" stroke-linejoin="round" stroke-miterlimit="10" stroke-dasharray="36.6667 27.5" fill="none" fill-rule="evenodd" transform="matrix(1 0 0 -1 2016.5 1554.36)"/><path d="M2219.78 1278.66 2207.88 1309.91 2229.63 1309.91ZM2218.69 1271.75 2223.31 1271.75 2236.5 1312.91 2236.5 1314.91 2202.34 1314.91 2202.34 1312.91Z" fill="#0097A7" fill-rule="evenodd"/><text fill="#000000" fill-opacity="0" font-family="Arial,Arial_MSFontService,sans-serif" font-size="43.1562" x="2202.34" y="1309.51">Δ</text><path d="M2258.73 1287C2256.81 1287 2255.03 1287.85 2253.39 1289.56 2251.74 1291.27 2250.42 1293.58 2249.43 1296.5 2248.44 1299.42 2247.95 1302.41 2247.95 1305.47 2247.95 1307.57 2248.26 1309.14 2248.89 1310.16 2249.51 1311.18 2250.45 1311.69 2251.7 1311.69 2253.49 1311.69 2255.33 1310.64 2257.23 1308.53 2259.13 1306.43 2260.89 1303.5 2262.51 1299.75 2262.87 1297.58 2263.04 1295.67 2263.04 1294 2263.04 1291.63 2262.69 1289.87 2262 1288.72 2261.3 1287.57 2260.21 1287 2258.73 1287ZM2258.95 1284.53C2261.28 1284.53 2263.11 1285.26 2264.43 1286.72 2265.76 1288.18 2266.49 1290.31 2266.64 1293.13L2266.92 1293.09 2271.01 1285.03 2276.42 1285.03 2276.11 1286.63C2273.52 1290.13 2270.48 1294.43 2266.98 1299.53 2266.46 1303.51 2266.2 1306.32 2266.2 1307.97 2266.2 1309.34 2266.36 1310.33 2266.67 1310.92 2266.98 1311.52 2267.5 1311.81 2268.23 1311.81 2268.81 1311.81 2269.48 1311.57 2270.21 1311.08 2270.95 1310.59 2271.75 1309.83 2272.61 1308.81L2274.42 1310.5C2272.67 1312.38 2271.15 1313.66 2269.86 1314.36 2268.56 1315.06 2267.23 1315.41 2265.86 1315.41 2263.08 1315.41 2261.7 1313.39 2261.7 1309.34 2261.7 1308.45 2261.76 1307.46 2261.89 1306.38L2261.57 1306.38C2259.43 1309.58 2257.4 1311.89 2255.48 1313.3 2253.56 1314.7 2251.51 1315.41 2249.32 1315.41 2247.8 1315.41 2246.52 1314.97 2245.48 1314.09 2244.44 1313.22 2243.67 1312.06 2243.17 1310.61 2242.67 1309.16 2242.42 1307.58 2242.42 1305.88 2242.42 1302.15 2243.13 1298.61 2244.54 1295.27 2245.96 1291.92 2247.93 1289.3 2250.45 1287.39 2252.97 1285.48 2255.8 1284.53 2258.95 1284.53Z" fill="#0097A7" fill-rule="evenodd"/><text fill="#000000" fill-opacity="0" font-family="Arial,Arial_MSFontService,sans-serif" font-size="30.875" x="2242.42" y="1311.55">𝛼</text><path d="M2291.18 1298.27C2292.4 1298.27 2293.54 1298.4 2294.61 1298.66 2295.67 1298.92 2296.59 1299.32 2297.37 1299.85 2298.15 1300.37 2298.76 1301.03 2299.2 1301.82 2299.63 1302.61 2299.85 1303.52 2299.85 1304.56 2299.85 1305.54 2299.71 1306.4 2299.44 1307.15 2299.16 1307.9 2298.74 1308.58 2298.16 1309.2 2297.59 1309.81 2296.89 1310.36 2296.05 1310.86 2295.22 1311.36 2294.26 1311.84 2293.17 1312.3L2293.17 1312.57C2294.2 1312.75 2295.15 1313.05 2296.04 1313.45 2296.93 1313.86 2297.71 1314.37 2298.37 1314.99 2299.04 1315.61 2299.56 1316.33 2299.94 1317.14 2300.33 1317.95 2300.52 1318.84 2300.52 1319.82 2300.52 1321.05 2300.29 1322.18 2299.83 1323.23 2299.37 1324.28 2298.68 1325.18 2297.76 1325.95 2296.85 1326.71 2295.71 1327.31 2294.37 1327.74 2293.02 1328.17 2291.44 1328.38 2289.64 1328.38 2288.22 1328.38 2286.77 1328.24 2285.3 1327.96 2283.83 1327.67 2282.44 1327.3 2281.12 1326.84L2281.12 1321.89 2284.09 1321.89C2284.33 1322.65 2284.62 1323.31 2284.96 1323.85 2285.29 1324.39 2285.69 1324.84 2286.14 1325.18 2286.59 1325.53 2287.11 1325.77 2287.7 1325.93 2288.29 1326.08 2288.96 1326.16 2289.71 1326.16 2291.68 1326.16 2293.18 1325.69 2294.19 1324.74 2295.21 1323.8 2295.72 1322.38 2295.72 1320.46 2295.72 1318.43 2295.05 1316.89 2293.71 1315.84 2292.37 1314.79 2290.39 1314.27 2287.76 1314.27L2285.74 1314.27 2285.74 1312.07C2287.34 1311.99 2288.73 1311.76 2289.9 1311.39 2291.07 1311.01 2292.05 1310.53 2292.83 1309.93 2293.61 1309.33 2294.19 1308.64 2294.57 1307.84 2294.96 1307.05 2295.15 1306.2 2295.15 1305.3 2295.15 1303.83 2294.71 1302.67 2293.84 1301.82 2292.97 1300.97 2291.7 1300.55 2290.05 1300.55 2288.66 1300.55 2287.49 1300.93 2286.55 1301.69 2285.61 1302.46 2284.89 1303.6 2284.38 1305.11L2281.47 1305.11 2281.47 1300.59C2283.27 1299.83 2284.98 1299.25 2286.58 1298.86 2288.17 1298.47 2289.71 1298.27 2291.18 1298.27Z" fill="#0097A7" fill-rule="evenodd"/><text fill="#000000" fill-opacity="0" font-family="Arial,Arial_MSFontService,sans-serif" font-size="30.1094" x="2281.12" y="1324.62">3</text><g filter="url(#fx10)" transform="translate(2114 1341)"><g><path d="M15.6366 19.5684C33.0835 22.6635 44.97 37.8946 42.1859 53.5879" stroke="#0097A7" stroke-width="9.16667" stroke-linejoin="round" stroke-miterlimit="10" fill="none" fill-rule="evenodd"/></g></g><path d="M2129.64 1353.35C2147.08 1356.45 2158.97 1371.68 2156.19 1387.37" stroke="#0097A7" stroke-width="9.16667" stroke-linejoin="round" stroke-miterlimit="10" fill="none" fill-rule="evenodd"/><path d="M1718.05 1611.98 1706.14 1643.23 1727.89 1643.23ZM1716.95 1605.07 1721.58 1605.07 1734.77 1646.23 1734.77 1648.23 1700.61 1648.23 1700.61 1646.23Z" fill-rule="evenodd"/><text fill="#000000" fill-opacity="0" font-family="Arial,Arial_MSFontService,sans-serif" font-size="43.1562" x="1700.61" y="1642.83">Δ</text><path d="M1754.84 1617.85C1756.78 1617.85 1758.54 1617.97 1760.13 1618.2 1761.73 1618.43 1763.32 1618.82 1764.9 1619.39L1763.49 1625.95 1760.96 1625.95C1760.73 1624.09 1760.12 1622.69 1759.13 1621.73 1758.15 1620.77 1756.59 1620.29 1754.46 1620.29 1752.82 1620.29 1751.48 1620.71 1750.46 1621.56 1749.44 1622.4 1748.93 1623.51 1748.93 1624.89 1748.93 1625.64 1749.06 1626.3 1749.32 1626.87 1749.58 1627.44 1750.11 1628.07 1750.9 1628.76 1751.69 1629.45 1752.92 1630.29 1754.59 1631.29 1755.9 1632.08 1756.95 1632.81 1757.74 1633.46 1758.54 1634.12 1759.16 1634.77 1759.62 1635.42 1760.08 1636.06 1760.41 1636.74 1760.62 1637.46 1760.83 1638.18 1760.93 1639.05 1760.93 1640.07 1760.93 1641.93 1760.44 1643.52 1759.45 1644.84 1758.46 1646.16 1757.11 1647.15 1755.42 1647.79 1753.72 1648.44 1751.79 1648.76 1749.62 1648.76 1747.89 1648.76 1746.19 1648.63 1744.53 1648.37 1742.86 1648.11 1741 1647.67 1738.96 1647.04L1740.46 1640.23 1742.9 1640.23C1742.98 1642.23 1743.55 1643.74 1744.59 1644.76 1745.63 1645.78 1747.29 1646.29 1749.56 1646.29 1751.54 1646.29 1753.08 1645.85 1754.2 1644.96 1755.31 1644.08 1755.87 1642.82 1755.87 1641.2 1755.87 1640.26 1755.71 1639.45 1755.4 1638.78 1755.09 1638.1 1754.58 1637.45 1753.87 1636.82 1753.16 1636.2 1752.04 1635.42 1750.49 1634.48 1748.87 1633.5 1747.6 1632.61 1746.7 1631.82 1745.79 1631.03 1745.11 1630.17 1744.65 1629.24 1744.19 1628.32 1743.96 1627.25 1743.96 1626.04 1743.96 1624.4 1744.41 1622.95 1745.29 1621.71 1746.18 1620.47 1747.44 1619.52 1749.09 1618.85 1750.73 1618.19 1752.65 1617.85 1754.84 1617.85Z" fill-rule="evenodd"/><text fill="#000000" fill-opacity="0" font-family="Arial,Arial_MSFontService,sans-serif" font-size="30.9062" x="1738.96" y="1644.9">𝑠</text><path d="M1779.33 1631.6C1780.93 1631.6 1782.28 1631.78 1783.41 1632.13 1784.53 1632.49 1785.45 1632.98 1786.15 1633.59 1786.85 1634.2 1787.36 1634.94 1787.68 1635.8 1787.99 1636.65 1788.15 1637.58 1788.15 1638.57 1788.15 1639.17 1788.1 1639.72 1788.02 1640.24 1787.94 1640.75 1787.79 1641.25 1787.58 1641.75 1787.38 1642.25 1787.11 1642.75 1786.77 1643.25 1786.43 1643.76 1786.01 1644.29 1785.51 1644.86 1785.13 1645.35 1784.63 1645.92 1784.02 1646.56 1783.4 1647.2 1782.73 1647.89 1782.01 1648.62 1781.28 1649.36 1780.52 1650.12 1779.72 1650.92 1778.93 1651.71 1778.16 1652.5 1777.41 1653.28 1776.66 1654.06 1775.97 1654.82 1775.34 1655.55 1774.71 1656.29 1774.2 1656.96 1773.8 1657.57L1782.29 1657.57C1783.01 1657.57 1783.59 1657.55 1784.02 1657.49 1784.44 1657.44 1784.8 1657.32 1785.08 1657.14 1785.37 1656.95 1785.61 1656.68 1785.81 1656.3 1786.01 1655.93 1786.23 1655.41 1786.49 1654.75L1788.63 1654.75C1788.55 1655.84 1788.48 1656.93 1788.41 1658.03 1788.34 1659.13 1788.27 1660.23 1788.19 1661.31L1768.75 1661.31 1768.75 1660.12C1769.12 1659.3 1769.55 1658.48 1770.04 1657.68 1770.53 1656.87 1771.08 1656.06 1771.69 1655.23 1772.3 1654.41 1773 1653.55 1773.78 1652.67 1774.56 1651.79 1775.43 1650.88 1776.37 1649.93 1777.81 1648.49 1778.98 1647.27 1779.89 1646.25 1780.79 1645.23 1781.5 1644.32 1782.02 1643.53 1782.54 1642.73 1782.9 1642 1783.09 1641.33 1783.28 1640.65 1783.37 1639.93 1783.37 1639.17 1783.37 1638.39 1783.26 1637.67 1783.04 1637.01 1782.82 1636.35 1782.5 1635.8 1782.09 1635.34 1781.68 1634.88 1781.15 1634.52 1780.52 1634.26 1779.88 1634 1779.15 1633.87 1778.32 1633.87 1776.9 1633.87 1775.71 1634.25 1774.74 1635.03 1773.78 1635.8 1773.03 1636.92 1772.5 1638.39L1769.49 1638.39 1769.49 1633.91C1771.45 1633.1 1773.25 1632.51 1774.89 1632.15 1776.54 1631.78 1778.02 1631.6 1779.33 1631.6Z" fill-rule="evenodd"/><text fill="#000000" fill-opacity="0" font-family="Arial,Arial_MSFontService,sans-serif" font-size="29.7192" x="1768.75" y="1657.6">2</text><path d="M1933.6 1409.8 1921.69 1441.05 1943.44 1441.05ZM1932.5 1402.9 1937.13 1402.9 1950.31 1444.05 1950.31 1446.05 1916.16 1446.05 1916.16 1444.05Z" fill-rule="evenodd"/><text fill="#000000" fill-opacity="0" font-family="Arial,Arial_MSFontService,sans-serif" font-size="43.1562" x="1916.16" y="1440.66">Δ</text><path d="M1970.39 1415.68C1972.32 1415.68 1974.09 1415.79 1975.68 1416.02 1977.28 1416.25 1978.87 1416.65 1980.45 1417.21L1979.04 1423.77 1976.51 1423.77C1976.28 1421.92 1975.67 1420.51 1974.68 1419.55 1973.69 1418.6 1972.14 1418.12 1970.01 1418.12 1968.37 1418.12 1967.03 1418.54 1966.01 1419.38 1964.99 1420.23 1964.48 1421.34 1964.48 1422.71 1964.48 1423.46 1964.61 1424.12 1964.87 1424.7 1965.13 1425.27 1965.66 1425.9 1966.45 1426.59 1967.24 1427.27 1968.47 1428.12 1970.14 1429.12 1971.45 1429.91 1972.5 1430.63 1973.29 1431.29 1974.08 1431.95 1974.71 1432.6 1975.17 1433.24 1975.63 1433.89 1975.96 1434.57 1976.17 1435.29 1976.38 1436.01 1976.48 1436.88 1976.48 1437.9 1976.48 1439.75 1975.99 1441.34 1975 1442.66 1974.01 1443.99 1972.66 1444.97 1970.96 1445.62 1969.27 1446.26 1967.33 1446.59 1965.17 1446.59 1963.44 1446.59 1961.74 1446.46 1960.07 1446.2 1958.41 1445.93 1956.55 1445.49 1954.51 1444.87L1956.01 1438.05 1958.45 1438.05C1958.53 1440.05 1959.1 1441.56 1960.14 1442.59 1961.18 1443.61 1962.83 1444.12 1965.11 1444.12 1967.08 1444.12 1968.63 1443.67 1969.75 1442.79 1970.86 1441.9 1971.42 1440.65 1971.42 1439.02 1971.42 1438.09 1971.26 1437.28 1970.95 1436.6 1970.64 1435.92 1970.13 1435.27 1969.42 1434.65 1968.71 1434.02 1967.58 1433.24 1966.04 1432.3 1964.42 1431.33 1963.15 1430.44 1962.25 1429.65 1961.34 1428.86 1960.66 1428 1960.2 1427.07 1959.74 1426.14 1959.51 1425.08 1959.51 1423.87 1959.51 1422.22 1959.95 1420.78 1960.84 1419.54 1961.73 1418.3 1962.99 1417.35 1964.64 1416.68 1966.28 1416.01 1968.2 1415.68 1970.39 1415.68Z" fill-rule="evenodd"/><text fill="#000000" fill-opacity="0" font-family="Arial,Arial_MSFontService,sans-serif" font-size="30.9062" x="1954.51" y="1442.72">𝑠</text><path d="M1994.84 1429.42C1996.06 1429.42 1997.21 1429.55 1998.27 1429.81 1999.33 1430.07 2000.25 1430.46 2001.03 1430.99 2001.81 1431.52 2002.42 1432.18 2002.86 1432.97 2003.29 1433.75 2003.51 1434.67 2003.51 1435.71 2003.51 1436.69 2003.37 1437.55 2003.1 1438.3 2002.82 1439.05 2002.4 1439.73 2001.83 1440.34 2001.25 1440.96 2000.55 1441.51 1999.71 1442.01 1998.88 1442.51 1997.92 1442.98 1996.83 1443.44L1996.83 1443.72C1997.86 1443.9 1998.82 1444.2 1999.7 1444.6 2000.59 1445.01 2001.37 1445.52 2002.03 1446.14 2002.7 1446.76 2003.22 1447.47 2003.6 1448.28 2003.99 1449.1 2004.18 1449.99 2004.18 1450.97 2004.18 1452.19 2003.95 1453.33 2003.49 1454.38 2003.03 1455.43 2002.34 1456.33 2001.42 1457.1 2000.51 1457.86 1999.37 1458.46 1998.03 1458.89 1996.68 1459.32 1995.11 1459.53 1993.3 1459.53 1991.88 1459.53 1990.43 1459.39 1988.96 1459.11 1987.49 1458.82 1986.1 1458.45 1984.79 1457.99L1984.79 1453.04 1987.75 1453.04C1987.99 1453.8 1988.28 1454.45 1988.62 1455 1988.95 1455.54 1989.35 1455.98 1989.8 1456.33 1990.25 1456.67 1990.77 1456.92 1991.36 1457.07 1991.95 1457.23 1992.62 1457.3 1993.37 1457.3 1995.34 1457.3 1996.84 1456.83 1997.86 1455.89 1998.87 1454.95 1999.38 1453.52 1999.38 1451.61 1999.38 1449.58 1998.71 1448.04 1997.37 1446.99 1996.03 1445.94 1994.05 1445.42 1991.42 1445.42L1989.4 1445.42 1989.4 1443.21C1991.01 1443.14 1992.39 1442.91 1993.56 1442.54 1994.73 1442.16 1995.71 1441.68 1996.49 1441.08 1997.27 1440.48 1997.85 1439.79 1998.23 1438.99 1998.62 1438.19 1998.81 1437.35 1998.81 1436.44 1998.81 1434.97 1998.37 1433.82 1997.5 1432.97 1996.63 1432.12 1995.37 1431.69 1993.71 1431.69 1992.32 1431.69 1991.15 1432.07 1990.21 1432.84 1989.27 1433.6 1988.55 1434.74 1988.04 1436.26L1985.13 1436.26 1985.13 1431.74C1986.94 1430.97 1988.64 1430.4 1990.24 1430.01 1991.83 1429.62 1993.37 1429.42 1994.84 1429.42Z" fill-rule="evenodd"/><text fill="#000000" fill-opacity="0" font-family="Arial,Arial_MSFontService,sans-serif" font-size="30.1094" x="1984.79" y="1455.77">3</text><path d="M1218 1301C1218 1292.16 1225.16 1285 1234 1285 1242.84 1285 1250 1292.16 1250 1301 1250 1309.84 1242.84 1317 1234 1317 1225.16 1317 1218 1309.84 1218 1301Z" fill-rule="evenodd"/><path d="M2094 1348C2094 1339.16 2101.16 1332 2110 1332 2118.84 1332 2126 1339.16 2126 1348 2126 1356.84 2118.84 1364 2110 1364 2101.16 1364 2094 1356.84 2094 1348Z" fill-rule="evenodd"/><g filter="url(#fx11)" transform="translate(1269 1423)"><g><path d="M18.4999 18.7178 176.552 167.107" stroke="#4285F4" stroke-width="9" stroke-linejoin="round" stroke-miterlimit="10" stroke-dasharray="36.6667 27.5" fill="none" fill-rule="evenodd"/></g></g><path d="M1287.5 1434.5 1445.55 1582.89" stroke="#4285F4" stroke-width="9.16667" stroke-linejoin="round" stroke-miterlimit="10" stroke-dasharray="36.6667 27.5" fill="none" fill-rule="evenodd"/><path d="M1429 1564C1429 1555.16 1436.16 1548 1445 1548 1453.84 1548 1461 1555.16 1461 1564 1461 1572.84 1453.84 1580 1445 1580 1436.16 1580 1429 1572.84 1429 1564Z" fill-rule="evenodd"/><path d="M1576 1658C1576 1649.16 1583.16 1642 1592 1642 1600.84 1642 1608 1649.16 1608 1658 1608 1666.84 1600.84 1674 1592 1674 1583.16 1674 1576 1666.84 1576 1658Z" fill-rule="evenodd"/><g filter="url(#fx12)" transform="translate(1745 1589)"><g><path d="M0 0 159.732 146.591" stroke="#7030A0" stroke-width="9" stroke-linejoin="round" stroke-miterlimit="10" stroke-dasharray="36.6667 27.5" fill="none" fill-rule="evenodd" transform="matrix(1 0 0 -1 18.4999 166.309)"/></g></g><path d="M0 0 159.732 146.591" stroke="#7030A0" stroke-width="9.16667" stroke-linejoin="round" stroke-miterlimit="10" stroke-dasharray="36.6667 27.5" fill="none" fill-rule="evenodd" transform="matrix(1 0 0 -1 1763.5 1748.09)"/><path d="M1892 1608C1892 1599.16 1899.16 1592 1908 1592 1916.84 1592 1924 1599.16 1924 1608 1924 1616.84 1916.84 1624 1908 1624 1899.16 1624 1892 1616.84 1892 1608Z" fill-rule="evenodd"/></g></svg>